<?xml version="1.0"?>
<svg xmlns="http://www.w3.org/2000/svg" id="Layer_1" enable-background="new 0 0 48 48" height="512px" viewBox="0 0 48 48" width="512px" class=""><g><path d="m18.5 28.45v15.55c0 .52.27 1 .71 1.28.24.15.51.22.79.22.23 0 .46-.05.67-.16l8-4c.51-.25.83-.77.83-1.34v-11.55l15.75-23.62c.31-.46.34-1.05.07-1.54-.26-.49-.77-.79-1.32-.79h-40c-.55 0-1.06.3-1.32.79s-.23 1.08.07 1.54zm22.7-22.95-14.45 21.67c-.16.24-.25.53-.25.83v11.07l-5 2.5v-13.57c0-.3-.09-.59-.25-.83l-14.45-21.67z" data-original="#000000" class="active-path" data-old_color="#000000" fill="#FFFFFF"/></g> </svg>
