<?xml version="1.0"?>
<svg xmlns="http://www.w3.org/2000/svg" id="Layer_1" enable-background="new 0 0 64 64" height="512px" viewBox="0 0 64 64" width="512px"><g><g><g id="CIRCLE_43_"><g><path d="m31.905 38.984c-1.245 0-2.484-.185-3.685-.549-4.601-1.396-8.136-5.35-9.006-10.074-.885-4.81 1.066-9.817 4.971-12.758 2.222-1.673 5.006-2.595 7.84-2.595 2.05 0 4.08.483 5.874 1.398 4.314 2.2 7.101 6.748 7.101 11.588 0 3.488-1.406 6.771-3.96 9.242-2.461 2.382-5.791 3.748-9.135 3.748zm.12-23.976c-2.402 0-4.759.779-6.637 2.192-3.305 2.489-4.956 6.728-4.207 10.798.736 3.997 3.727 7.342 7.619 8.522 3.747 1.137 7.982.051 10.849-2.723 2.161-2.089 3.351-4.861 3.351-7.803 0-4.095-2.359-7.944-6.01-9.806-1.512-.771-3.229-1.18-4.965-1.18z" data-original="#000000" class="active-path" data-old_color="#000000" fill="#FFFFFF"/></g></g><g id="LWPOLYLINE_46_"><g><path d="m32 58.994c-.338 0-.653-.17-.838-.454-2.233-3.424-5.04-6.535-7.754-9.544-2.916-3.232-5.93-6.574-8.31-10.365-2.612-4.163-3.953-8.286-4.099-12.604.001-9.527 6.676-18.094 15.872-20.402 1.635-.41 3.321-.618 5.015-.618 7.764 0 15.101 4.392 18.693 11.189 1.583 2.997 2.421 6.385 2.421 9.798-.292 8.693-5.469 15.149-11.208 21.543l-.43.478c-2.978 3.315-6.058 6.743-8.525 10.525-.185.283-.499.454-.837.454zm-.114-51.988c-1.529 0-3.052.188-4.527.558-8.321 2.089-14.359 9.839-14.359 18.43.132 3.922 1.373 7.719 3.793 11.574 2.287 3.644 5.242 6.92 8.1 10.088 2.44 2.706 4.954 5.492 7.105 8.553 2.383-3.416 5.171-6.52 7.877-9.531l.429-.477c5.483-6.109 10.427-12.253 10.696-20.241 0-3.054-.757-6.12-2.189-8.83-3.25-6.15-9.894-10.124-16.925-10.124z" data-original="#000000" class="active-path" data-old_color="#000000" fill="#FFFFFF"/></g></g></g></g> </svg>
