<?xml version="1.0" encoding="utf-8"?>
<!-- Generator: Adobe Illustrator 14.0.0, SVG Export Plug-In . SVG Version: 6.00 Build 43363)  -->
<!DOCTYPE svg PUBLIC "-//W3C//DTD SVG 1.0//EN" "http://www.w3.org/TR/2001/REC-SVG-20010904/DTD/svg10.dtd">
<svg version="1.0" id="guajana" xmlns="http://www.w3.org/2000/svg" xmlns:xlink="http://www.w3.org/1999/xlink" x="0px" y="0px"
	 width="53.858px" height="48.189px" viewBox="3.299 1.45 53.858 48.189" enable-background="new 3.299 1.45 53.858 48.189"
	 xml:space="preserve">
<g>
	<path fill="#FFFFFF" d="M19.17,48.54c-1.373,0-2.642-0.731-3.326-1.92L4.785,27.464c-0.688-1.188-0.688-2.65,0-3.838L15.844,4.471
		C16.53,3.283,17.797,2.55,19.17,2.55h22.117c1.371,0,2.639,0.732,3.325,1.921l11.06,19.155c0.686,1.188,0.686,2.649,0,3.838
		L44.613,46.62c-0.688,1.188-1.954,1.92-3.325,1.92H19.17z"/>
	<path fill="#E2007A" d="M20.422,45.781c-1.219,0-2.342-0.646-2.949-1.702L7.664,27.094c-0.607-1.055-0.607-2.353,0-3.407
		l9.809-16.985c0.607-1.054,1.73-1.703,2.949-1.703h19.613c1.217,0,2.342,0.649,2.948,1.703l9.81,16.985
		c0.606,1.055,0.606,2.353,0,3.407l-9.81,16.985c-0.606,1.056-1.731,1.702-2.948,1.702H20.422z"/>
	<path fill="#FFFFFF" d="M38.156,38.281H22.299c-0.74,0-1.34-0.6-1.34-1.34V23.767c0-0.74,0.6-1.341,1.34-1.341h15.856
		c0.74,0,1.343,0.601,1.343,1.341v13.176C39.498,37.682,38.896,38.281,38.156,38.281"/>
	<path fill="none" stroke="#FFFFFF" stroke-width="2.539" stroke-miterlimit="10" d="M30.336,31.822L30.336,31.822
		c-3.603,0-6.521-2.92-6.521-6.522v-5.269c0-3.602,2.92-6.521,6.521-6.521c3.604,0,6.522,2.921,6.522,6.521V25.3
		C36.859,28.902,33.939,31.822,30.336,31.822z"/>
</g>
</svg>
