<?xml version="1.0" encoding="utf-8"?>
<!-- Generator: Adobe Illustrator 14.0.0, SVG Export Plug-In . SVG Version: 6.00 Build 43363)  -->
<!DOCTYPE svg PUBLIC "-//W3C//DTD SVG 1.0//EN" "http://www.w3.org/TR/2001/REC-SVG-20010904/DTD/svg10.dtd">
<svg version="1.0" id="guajana" xmlns="http://www.w3.org/2000/svg" xmlns:xlink="http://www.w3.org/1999/xlink" x="0px" y="0px"
	 width="53.858px" height="48.189px" viewBox="3.299 1.45 53.858 48.189" enable-background="new 3.299 1.45 53.858 48.189"
	 xml:space="preserve">
<g>
	<path fill="#FFFFFF" d="M19.169,48.54c-1.371,0-2.642-0.731-3.326-1.92L4.785,27.464c-0.687-1.188-0.687-2.65,0-3.838L15.843,4.471
		c0.686-1.188,1.955-1.921,3.326-1.921h22.117c1.371,0,2.641,0.732,3.325,1.921l11.06,19.155c0.686,1.188,0.686,2.649,0,3.838
		L44.613,46.62c-0.686,1.188-1.954,1.92-3.325,1.92H19.169z"/>
	<path fill="#009EE0" d="M20.421,45.781c-1.217,0-2.342-0.646-2.949-1.702L7.664,27.094c-0.607-1.055-0.607-2.353,0-3.407
		l9.809-16.985c0.607-1.054,1.732-1.703,2.949-1.703h19.613c1.217,0,2.342,0.649,2.948,1.703l9.81,16.985
		c0.606,1.055,0.606,2.353,0,3.407l-9.81,16.985c-0.606,1.056-1.731,1.702-2.948,1.702H20.421z"/>
	<path fill="#FFFFFF" d="M27.851,34.122c-0.916,1.185-1.51,3.347-1.578,4.207c-0.039,0.493-0.063,0.659-0.063,0.926
		c0,0.535,0.004,7.076,0.004,7.623h-8.939c0.021-3.332,0.011-13.127,0-16.187c-0.018-5.045-0.03-9.812,0.072-15.11
		c0.004-0.166,0.064-0.326,0.17-0.451c0.125-0.144,0.252-0.293,2.58-1.142c1.469-0.535,3.262-1.145,5.053-1.715
		c2.802-0.894,7.849-2.408,10.187-2.523c0.028-0.002,0.115-0.014,0.186-0.022c0.222-0.03,0.554-0.076,0.873-0.076
		c1.229,0,1.418,0.727,1.443,1.039c0.041,0.519-0.342,0.812-1.162,1.318c-0.506,0.312-1.217,0.713-2.172,1.226
		c-1.728,0.927-3.906,2.032-5.658,2.92c-1.16,0.589-2.35,1.192-2.871,1.474c-0.1,1.705-0.057,3.49-0.016,5.221
		c0.02,0.847,0.041,1.715,0.047,2.58c0.928-0.508,9.537-4.659,12.293-5.271c0.531-0.119,1.93-0.393,3.424-0.393
		c2.291,0,3.668,0.645,4.09,1.916c0.244,0.732,0.17,1.604,0.099,2.445c-0.033,0.39-0.064,0.758-0.062,1.076
		c0.002,0.26-0.133,0.489-0.336,0.611c-0.109,0.217-0.33,0.434-0.775,0.471c-0.153,0.014-0.35,0.021-0.596,0.021
		c-0.262,0-0.555-0.008-0.84-0.016c-0.271-0.006-0.553-0.014-0.795-0.014c-0.164,0-0.295,0.002-0.4,0.01
		c-0.315,0.02-0.602-0.203-0.676-0.529c-0.068-0.307-0.211-0.676-0.328-0.965c-0.043-0.104-0.074-0.203-0.102-0.289
		c-0.013-0.037-0.027-0.082-0.041-0.121C36.88,24.382,29.582,31.887,27.851,34.122 M43.666,35.26L43.666,35.26
		c0.221,0,0.438-0.039,0.651-0.119c0.367-0.138,0.699-0.396,0.935-0.729c0.264-0.373,0.396-0.822,0.385-1.302
		c-0.01-0.487-0.186-0.883-0.381-1.276c-0.164-0.328-0.332-0.629-0.494-0.922c-0.396-0.714-0.771-1.388-1.004-2.312
		c-0.014-0.056-0.062-0.092-0.115-0.088c-0.057,0.004-0.115,0.051-0.113,0.139c-0.11,0.512-0.327,0.977-0.521,1.387
		c-0.135,0.289-0.293,0.576-0.447,0.854c-0.074,0.137-0.153,0.278-0.229,0.418c-0.039,0.076-0.082,0.151-0.127,0.233
		c-0.189,0.338-0.402,0.724-0.488,1.155c-0.119,0.595-0.004,1.203,0.314,1.671C42.404,34.917,43.031,35.26,43.666,35.26"/>
</g>
</svg>
