<?xml version="1.0" encoding="utf-8"?>
<!-- Generator: Adobe Illustrator 14.0.0, SVG Export Plug-In . SVG Version: 6.00 Build 43363)  -->
<!DOCTYPE svg PUBLIC "-//W3C//DTD SVG 1.0//EN" "http://www.w3.org/TR/2001/REC-SVG-20010904/DTD/svg10.dtd">
<svg version="1.0" id="guajana" xmlns="http://www.w3.org/2000/svg" xmlns:xlink="http://www.w3.org/1999/xlink" x="0px" y="0px"
	 width="53.858px" height="48.189px" viewBox="7.03 1.45 53.858 48.189" enable-background="new 7.03 1.45 53.858 48.189"
	 xml:space="preserve">
<g>
	<path fill="#FFFFFF" d="M22.901,48.54c-1.373,0-2.642-0.731-3.326-1.92L8.515,27.464c-0.687-1.188-0.687-2.65,0-3.838l11.06-19.155
		c0.687-1.188,1.953-1.921,3.326-1.921h22.115c1.373,0,2.641,0.732,3.325,1.921l11.062,19.155c0.686,1.188,0.686,2.649,0,3.838
		L48.343,46.62c-0.686,1.188-1.952,1.92-3.325,1.92H22.901z"/>
	<path fill="#E2001A" d="M24.151,45.781c-1.217,0-2.34-0.646-2.949-1.702l-9.807-16.985c-0.609-1.055-0.609-2.353,0-3.407
		l9.807-16.985c0.609-1.054,1.732-1.703,2.949-1.703h19.615c1.217,0,2.34,0.649,2.948,1.703l9.808,16.985
		c0.608,1.055,0.608,2.353,0,3.407l-9.808,16.985c-0.608,1.056-1.731,1.702-2.948,1.702H24.151z"/>
	<path fill="#FFFFFF" d="M41.646,12.097H26.296L18.62,25.391l7.676,13.294h15.351l7.676-13.294L41.646,12.097z M33.972,31.712
		c-3.492,0-6.322-2.83-6.322-6.321c0-3.492,2.83-6.322,6.322-6.322c3.491,0,6.321,2.83,6.321,6.322
		C40.294,28.882,37.464,31.712,33.972,31.712"/>
</g>
</svg>
