<?xml version="1.0" encoding="utf-8"?>
<!-- Generator: Adobe Illustrator 14.0.0, SVG Export Plug-In . SVG Version: 6.00 Build 43363)  -->
<!DOCTYPE svg PUBLIC "-//W3C//DTD SVG 1.0//EN" "http://www.w3.org/TR/2001/REC-SVG-20010904/DTD/svg10.dtd">
<svg version="1.0" id="guajana" xmlns="http://www.w3.org/2000/svg" xmlns:xlink="http://www.w3.org/1999/xlink" x="0px" y="0px"
	 width="53.858px" height="48.189px" viewBox="3.299 1.45 53.858 48.189" enable-background="new 3.299 1.45 53.858 48.189"
	 xml:space="preserve">
<g>
	<path fill="#FFFFFF" d="M19.169,48.54c-1.371,0-2.642-0.731-3.326-1.92L4.785,27.464c-0.687-1.188-0.687-2.65,0-3.838L15.843,4.471
		c0.686-1.188,1.955-1.921,3.326-1.921h22.117c1.371,0,2.641,0.732,3.325,1.921l11.06,19.155c0.686,1.188,0.686,2.649,0,3.838
		L44.613,46.62c-0.686,1.188-1.954,1.92-3.325,1.92H19.169z"/>
	<path fill="#635038" d="M20.421,45.781c-1.217,0-2.342-0.646-2.949-1.702L7.664,27.094c-0.607-1.055-0.607-2.353,0-3.407
		l9.809-16.985c0.607-1.054,1.732-1.703,2.949-1.703h19.613c1.217,0,2.342,0.649,2.948,1.703l9.81,16.985
		c0.606,1.055,0.606,2.353,0,3.407l-9.81,16.985c-0.606,1.056-1.731,1.702-2.948,1.702H20.421z"/>
	<path fill="#FFFFFF" d="M41.033,28.841c0-3.79-2.271-10.182-5.613-11.887v9.207c0,0,0.303,2.998-5.191,2.998
		s-5.192-2.998-5.192-2.998v-9.207c-3.343,1.705-5.611,8.097-5.611,11.887c0,3.104,1.521,3.497,3.459,4.938
		c4.484,3.332,0.625,12.236,0.625,12.236l12.049,0.016c0,0-2.486-9.506,2.879-12.662C40.015,32.438,41.033,31.329,41.033,28.841"/>
</g>
</svg>
