<?xml version="1.0" encoding="utf-8"?>
<!-- Generator: Adobe Illustrator 14.0.0, SVG Export Plug-In . SVG Version: 6.00 Build 43363)  -->
<!DOCTYPE svg PUBLIC "-//W3C//DTD SVG 1.0//EN" "http://www.w3.org/TR/2001/REC-SVG-20010904/DTD/svg10.dtd">
<svg version="1.0" id="guajana" xmlns="http://www.w3.org/2000/svg" xmlns:xlink="http://www.w3.org/1999/xlink" x="0px" y="0px"
	 width="53.858px" height="48.188px" viewBox="3.299 1.45 53.858 48.188" enable-background="new 3.299 1.45 53.858 48.188"
	 xml:space="preserve">
<g>
	<path fill="#FFFFFF" d="M19.169,48.54c-1.371,0-2.64-0.731-3.324-1.92L4.784,27.464c-0.687-1.188-0.687-2.65,0-3.838L15.845,4.471
		c0.686-1.188,1.953-1.921,3.324-1.921h22.117c1.373,0,2.641,0.732,3.325,1.921l11.06,19.155c0.688,1.188,0.688,2.649,0,3.838
		L44.612,46.62c-0.686,1.188-1.952,1.92-3.325,1.92H19.169z"/>
	<path fill="#1FA22E" d="M20.421,45.781c-1.217,0-2.34-0.646-2.949-1.702L7.665,27.094c-0.609-1.055-0.609-2.353,0-3.407
		l9.807-16.985c0.609-1.054,1.732-1.703,2.949-1.703h19.615c1.217,0,2.34,0.649,2.946,1.703l9.81,16.985
		c0.606,1.055,0.606,2.353,0,3.407l-9.81,16.985c-0.606,1.056-1.729,1.702-2.946,1.702H20.421z"/>
	<path fill="#FFFFFF" d="M15.63,27.949c0.379-0.698,0.76-1.396,1.137-2.097c0.26-0.48,0.512-0.965,0.771-1.446
		c0.19-0.359,0.381-0.413,0.744-0.222c0.106,0.056,0.204,0.127,0.317,0.166c0.301,0.1,0.379,0.496,0.258,0.701
		c-0.225,0.385-0.078,0.683,0.203,0.928c0.287,0.25,0.586,0.498,0.918,0.675c0.935,0.494,1.871,0.992,2.84,1.414
		c1.255,0.543,2.535,1.029,3.818,1.506c0.375,0.14,0.795,0.174,1.201,0.219c0.252,0.027,0.397-0.146,0.324-0.391
		c-0.205-0.684-0.414-1.364-0.629-2.066l13.563-4.139l0.783,2.563c1.25-1.215,1.248-5.049,0.146-6.871
		c-2.062-3.41-5.809-4.23-8.604-3.151c-3.418,1.317-4.861,4.657-4.484,7.403c0.115-0.035,0.226-0.067,0.334-0.101
		c3.117-0.952,6.234-1.907,9.355-2.848c0.272-0.083,0.58-0.121,0.86-0.091c0.472,0.053,0.759,0.389,0.921,0.809
		c0.143,0.369,0.235,0.756,0.358,1.156l-13.598,4.148c-0.113-0.459-0.232-0.914-0.338-1.371c-0.101-0.439-0.226-0.879-0.269-1.324
		c-0.062-0.655-0.123-1.32-0.08-1.975c0.095-1.447,0.537-2.807,1.283-4.05c0.832-1.383,1.945-2.49,3.342-3.318
		c0.904-0.535,1.879-0.882,2.886-1.104c1.016-0.225,2.057-0.242,3.102-0.109c1.205,0.153,2.33,0.521,3.377,1.11
		c1.353,0.761,2.451,1.794,3.312,3.105c0.657,1,1.049,2.094,1.325,3.229c0.234,0.965,0.244,1.958,0.134,2.956
		c-0.152,1.369-0.593,2.635-1.289,3.808c-0.281,0.476-0.646,0.904-1,1.33c-0.105,0.126-0.14,0.297-0.091,0.452
		c0.438,1.406,0.869,2.814,1.291,4.229c0.156,0.521,0.091,1.01-0.362,1.377c-0.088,0.071-0.195,0.133-0.306,0.166
		c-3.811,1.166-7.623,2.33-11.436,3.491c-0.543,0.166-1.111-0.104-1.326-0.622c-0.285-0.688-0.791-1.21-1.35-1.66
		c-1.295-1.045-2.604-2.08-3.947-3.06c-1.104-0.802-2.254-1.541-3.4-2.28c-0.971-0.625-1.963-1.219-2.952-1.812
		c-0.466-0.277-0.988-0.555-1.57-0.473c-0.174,0.023-0.383,0.108-0.49,0.238c-0.35,0.424-0.438,0.459-0.932,0.198
		c-0.076-0.041-0.156-0.077-0.234-0.114C15.593,28.518,15.493,28.199,15.63,27.949"/>
	<path fill="#FFFFFF" d="M14.2,27.314c-0.763,0.177-1.521-0.299-1.697-1.061s0.299-1.522,1.061-1.698
		c0.763-0.176,1.627-0.015,3.162,0.722C15.522,25.969,14.964,27.139,14.2,27.314"/>
</g>
</svg>
