<?xml version="1.0" encoding="utf-8"?>
<!-- Generator: Adobe Illustrator 14.0.0, SVG Export Plug-In . SVG Version: 6.00 Build 43363)  -->
<!DOCTYPE svg PUBLIC "-//W3C//DTD SVG 1.0//EN" "http://www.w3.org/TR/2001/REC-SVG-20010904/DTD/svg10.dtd">
<svg version="1.0" id="guajana" xmlns="http://www.w3.org/2000/svg" xmlns:xlink="http://www.w3.org/1999/xlink" x="0px" y="0px"
	 width="53.858px" height="48.189px" viewBox="3.299 1.45 53.858 48.189" enable-background="new 3.299 1.45 53.858 48.189"
	 xml:space="preserve">
<g>
	<path fill="#FFFFFF" d="M19.169,48.54c-1.371,0-2.64-0.731-3.326-1.92L4.784,27.464c-0.687-1.188-0.687-2.65,0-3.838L15.843,4.471
		c0.688-1.188,1.955-1.921,3.326-1.921h22.117c1.373,0,2.641,0.732,3.325,1.921l11.06,19.155c0.688,1.188,0.688,2.649,0,3.838
		L44.612,46.62c-0.686,1.188-1.952,1.92-3.325,1.92H19.169z"/>
	<path fill="#EFCC00" d="M20.421,45.854c-1.217,0-2.34-0.647-2.949-1.701L7.665,27.166c-0.609-1.055-0.609-2.353,0-3.405
		l9.807-16.987c0.609-1.054,1.732-1.702,2.949-1.702h19.613c1.219,0,2.342,0.648,2.948,1.702l9.81,16.987
		c0.606,1.053,0.606,2.352,0,3.405l-9.81,16.986c-0.606,1.054-1.729,1.701-2.948,1.701H20.421z"/>
	<path fill="#FFFFFF" d="M41.913,20.612c-0.129-0.215-0.279-0.322-0.451-0.322h-3.283V8.811c0-0.343-0.129-0.645-0.385-0.901
		c-0.258-0.258-0.57-0.387-0.937-0.387c-0.362,0-0.676,0.129-0.932,0.387c-0.258,0.257-0.387,0.559-0.387,0.901V20.29H24.981V8.811
		c0-0.343-0.129-0.645-0.387-0.901c-0.258-0.258-0.568-0.387-0.934-0.387c-0.366,0-0.677,0.129-0.935,0.387
		c-0.258,0.257-0.387,0.559-0.387,0.901V20.29h-3.283c-0.172,0-0.332,0.107-0.481,0.322c-0.15,0.215-0.226,0.43-0.226,0.645v3.154
		c0,0.815,0.342,1.803,1.029,2.961c0.688,1.159,1.449,2.254,2.285,3.282c0.838,1.031,1.6,2.287,2.287,3.769
		c0.686,1.479,1.028,2.908,1.028,4.281v2.06h2.642v5.446h5.276v-5.446h2.642v-2.06c0-1.373,0.344-2.802,1.028-4.281
		c0.688-1.481,1.438-2.737,2.254-3.769c0.814-1.028,1.566-2.123,2.255-3.282c0.686-1.158,1.028-2.146,1.028-2.961v-3.154
		C42.106,21.042,42.042,20.827,41.913,20.612"/>
</g>
</svg>
