<?xml version="1.0" encoding="utf-8"?>
<!-- Generator: Adobe Illustrator 14.0.0, SVG Export Plug-In . SVG Version: 6.00 Build 43363)  -->
<!DOCTYPE svg PUBLIC "-//W3C//DTD SVG 1.0//EN" "http://www.w3.org/TR/2001/REC-SVG-20010904/DTD/svg10.dtd">
<svg version="1.0" id="guajana" xmlns="http://www.w3.org/2000/svg" xmlns:xlink="http://www.w3.org/1999/xlink" x="0px" y="0px"
	 width="53.858px" height="48.189px" viewBox="3.299 1.45 53.858 48.189" enable-background="new 3.299 1.45 53.858 48.189"
	 xml:space="preserve">
<g>
	<path fill="#FFFFFF" d="M19.169,48.54c-1.373,0-2.642-0.731-3.326-1.92L4.785,27.464c-0.687-1.188-0.687-2.65,0-3.838L15.843,4.471
		c0.686-1.188,1.953-1.921,3.326-1.921h22.117c1.371,0,2.639,0.732,3.325,1.921l11.06,19.155c0.686,1.188,0.686,2.649,0,3.838
		L44.613,46.62c-0.688,1.188-1.954,1.92-3.325,1.92H19.169z"/>
	<path fill="#192C7F" d="M20.421,45.781c-1.217,0-2.342-0.646-2.949-1.702L7.664,27.094c-0.607-1.055-0.607-2.353,0-3.407
		l9.809-16.985c0.607-1.054,1.732-1.703,2.949-1.703h19.613c1.217,0,2.342,0.649,2.948,1.703l9.81,16.985
		c0.606,1.055,0.606,2.353,0,3.407l-9.81,16.985c-0.606,1.056-1.731,1.702-2.948,1.702H20.421z"/>
	<path fill="#FFFFFF" d="M41.701,11.99c-0.535,0.619-7.984,8.679-9.57,10.394c0.719,0.546,0.961,1.538,0.52,2.346
		c-0.309,0.567-0.877,0.902-1.479,0.947v0.006l-1.084,0.229l-0.894,1.638c0.289,0.249,0.392,0.661,0.203,1.009
		c-0.19,0.348-0.594,0.483-0.957,0.377l-1.729,3.17c0.656,0.474,0.838,1.459,0.383,2.291c-0.459,0.842-1.381,1.217-2.133,0.922
		l-1.945,3.568c1.068,4.262,1.531,6.342,3.291,3.113c2.086-3.828,15.312-28.088,16.137-29.604
		C42.972,11.422,42.296,11.298,41.701,11.99"/>
	<path fill="#FFFFFF" d="M28.869,27.372l0.741-1.359l-4.883,1.064l-0.268-0.769c0.106-0.197,0.209-0.385,0.315-0.581l0.236,0.68
		l4.879-1.057l0.086-0.013c-0.77-0.539-1.043-1.563-0.594-2.389c0.438-0.802,1.391-1.139,2.232-0.844
		c0.581-2.258,3.319-12.894,3.551-13.678c0.258-0.877-0.211-1.376-0.742-0.402C33.599,9.543,20.376,33.803,18.291,37.63
		c-1.763,3.229,0.237,2.491,4.399,1.08l1.945-3.569c-0.658-0.472-0.842-1.451-0.385-2.291c0.455-0.834,1.381-1.215,2.135-0.92
		l1.729-3.173c-0.289-0.247-0.394-0.659-0.203-1.008C28.102,27.4,28.503,27.266,28.869,27.372"/>
</g>
</svg>
