<?xml version="1.0" encoding="utf-8"?>
<!-- Generator: Adobe Illustrator 14.0.0, SVG Export Plug-In . SVG Version: 6.00 Build 43363)  -->
<!DOCTYPE svg PUBLIC "-//W3C//DTD SVG 1.0//EN" "http://www.w3.org/TR/2001/REC-SVG-20010904/DTD/svg10.dtd">
<svg version="1.0" id="guajana" xmlns="http://www.w3.org/2000/svg" xmlns:xlink="http://www.w3.org/1999/xlink" x="0px" y="0px"
	 width="53.858px" height="48.189px" viewBox="3.299 1.45 53.858 48.189" enable-background="new 3.299 1.45 53.858 48.189"
	 xml:space="preserve">
<g>
	<path fill="#FFFFFF" d="M19.169,48.54c-1.371,0-2.64-0.731-3.326-1.92L4.785,27.464c-0.687-1.188-0.687-2.65,0-3.838L15.843,4.471
		c0.688-1.188,1.955-1.921,3.326-1.921h22.117c1.373,0,2.641,0.732,3.325,1.921l11.06,19.155c0.686,1.188,0.686,2.649,0,3.838
		L44.613,46.62c-0.686,1.188-1.952,1.92-3.325,1.92H19.169z"/>
	<path fill="#F29400" d="M20.421,45.781c-1.217,0-2.342-0.646-2.949-1.702L7.664,27.094c-0.607-1.055-0.607-2.353,0-3.407
		l9.809-16.985c0.607-1.054,1.732-1.703,2.949-1.703h19.613c1.219,0,2.342,0.649,2.948,1.703l9.81,16.985
		c0.606,1.055,0.606,2.353,0,3.407l-9.81,16.985c-0.606,1.056-1.729,1.702-2.948,1.702H20.421z"/>
	<path fill="#FFFFFF" d="M36.369,25.513c1.256,0.293,2.512,0.59,3.762,0.907c0.197,0.051,0.443,0.168,0.522,0.327
		c0.052,0.103-0.123,0.37-0.256,0.506c-4.942,5.099-9.895,10.188-14.846,15.276c-0.906,0.932-1.055,0.959-2.258,0.484
		c-1.008-0.396-2.015-0.791-3.021-1.191c-0.627-0.25-0.75-0.557-0.448-1.164c2.77-5.592,5.543-11.182,8.317-16.769
		c0.285-0.571,0.574-0.672,1.172-0.439c0.816,0.318,1.634,0.637,2.447,0.959C32.445,24.677,35.73,25.362,36.369,25.513
		 M31.802,28.491c0.297-0.329,2.105-2.6,2.355-2.868c0.637-0.786,0.782-1.312,0.348-2.297c-0.447-1.013-0.711-2.117-0.971-3.201
		c-0.209-0.866,0.01-1.114,0.801-1.534c0.461-0.246,0.965-0.539,1.262-0.947c1.439-1.977,2.816-3.997,4.213-6.006
		c0.084-0.122,0.152-0.272,0.174-0.419c0.146-1.021-0.737-2.247-1.766-2.407c-0.711-0.11-1.406,0.08-1.781,0.693
		c-1.283,2.1-2.52,4.228-3.731,6.369c-0.449,0.793-0.66,1.664-0.318,2.584c0.035,0.094-0.012,0.234-0.055,0.338
		c-0.24,0.574-0.189,1.143,0,1.717c0.379,1.142,0.768,2.281,1.114,3.433c0.072,0.237,0.05,0.54-0.03,0.78
		c-0.174,0.53-1.603,3.064-1.814,3.584C31.667,28.369,31.734,28.432,31.802,28.491"/>
</g>
</svg>
