<?xml version="1.0" encoding="utf-8"?>
<!-- Generator: Adobe Illustrator 14.0.0, SVG Export Plug-In . SVG Version: 6.00 Build 43363)  -->
<!DOCTYPE svg PUBLIC "-//W3C//DTD SVG 1.0//EN" "http://www.w3.org/TR/2001/REC-SVG-20010904/DTD/svg10.dtd">
<svg version="1.0" id="guajana" xmlns="http://www.w3.org/2000/svg" xmlns:xlink="http://www.w3.org/1999/xlink" x="0px" y="0px"
	 width="53.858px" height="48.189px" viewBox="3.299 1.45 53.858 48.189" enable-background="new 3.299 1.45 53.858 48.189"
	 xml:space="preserve">
<g>
	<path fill="#FFFFFF" d="M19.17,48.54c-1.373,0-2.642-0.731-3.326-1.92L4.785,27.464c-0.688-1.188-0.688-2.65,0-3.838L15.844,4.471
		C16.53,3.283,17.797,2.55,19.17,2.55h22.117c1.371,0,2.639,0.732,3.323,1.921l11.062,19.155c0.686,1.188,0.686,2.649,0,3.838
		L44.611,46.62c-0.686,1.188-1.952,1.92-3.323,1.92H19.17z"/>
	<path fill="#F19FC1" d="M20.422,45.781c-1.219,0-2.342-0.646-2.949-1.702L7.664,27.094c-0.607-1.055-0.607-2.353,0-3.407
		l9.809-16.985c0.607-1.054,1.73-1.703,2.949-1.703h19.613c1.217,0,2.34,0.649,2.948,1.703l9.808,16.985
		c0.608,1.055,0.608,2.353,0,3.407l-9.808,16.985c-0.608,1.056-1.731,1.702-2.948,1.702H20.422z"/>
	<path fill="#FFFFFF" d="M30.943,11.349c-0.276-0.441-0.86-0.574-1.303-0.297l-1.695,1.066c-0.385,0.241-0.543,0.722-0.377,1.144
		l1.312,3.354l-2.478-2.629c-0.311-0.329-0.807-0.392-1.188-0.151l-3.68,2.313c-0.341,0.213-0.509,0.618-0.418,1.01l0.131,0.574
		l-0.494-0.373c-0.312-0.236-0.738-0.256-1.072-0.047l-1.154,0.727c-0.44,0.277-0.573,0.861-0.297,1.302l5.642,8.973l12.715-7.993
		L30.943,11.349z"/>
	<path fill="#FFFFFF" d="M24.92,29.984l1.633,2.599c0.133,0.213,0.346,0.362,0.588,0.418c0.246,0.058,0.502,0.013,0.713-0.121
		l2.465-1.549c0.476-0.3,1.052-0.362,1.582-0.181c0.527,0.185,0.939,0.592,1.129,1.121c2.416,6.752,2.841,7.426,2.979,7.648
		c1,1.592,3.109,2.072,4.701,1.07c1.594-1.002,2.072-3.109,1.072-4.7c-0.142-0.222-0.564-0.896-5.604-5.999
		c-0.393-0.398-0.582-0.947-0.518-1.504c0.063-0.559,0.373-1.051,0.846-1.348l2.465-1.549c0.441-0.277,0.574-0.86,0.297-1.301
		l-1.633-2.599L24.92,29.984z M39.98,37.326c0.394,0.624,0.203,1.447-0.42,1.84c-0.625,0.393-1.447,0.205-1.84-0.419
		s-0.205-1.447,0.42-1.841C38.764,36.516,39.588,36.702,39.98,37.326"/>
</g>
</svg>
