<?xml version="1.0" encoding="utf-8"?>
<!-- Generator: Adobe Illustrator 14.0.0, SVG Export Plug-In . SVG Version: 6.00 Build 43363)  -->
<!DOCTYPE svg PUBLIC "-//W3C//DTD SVG 1.0//EN" "http://www.w3.org/TR/2001/REC-SVG-20010904/DTD/svg10.dtd">
<svg version="1.0" id="guajana" xmlns="http://www.w3.org/2000/svg" xmlns:xlink="http://www.w3.org/1999/xlink" x="0px" y="0px"
	 width="238.545px" height="129.577px" viewBox="13.134 9.148 238.545 129.577"
	 enable-background="new 13.134 9.148 238.545 129.577" xml:space="preserve">
<path fill="#E2001A" d="M245.35,41.295c0,1.584-0.459,3.135-1.329,4.48l-11.052,17.117c-1.639,2.537-4.484,4.053-7.615,4.053H39.786
	c-3.131,0-5.979-1.516-7.616-4.053L21.12,45.775c-0.87-1.344-1.331-2.896-1.331-4.48c0-1.586,0.461-3.137,1.331-4.484l11.05-17.113
	c1.638-2.539,4.485-4.053,7.616-4.053h185.567c3.131,0,5.978,1.514,7.614,4.053l11.053,17.115
	C244.891,38.16,245.35,39.711,245.35,41.295"/>
<path d="M24.854,41.295c0-0.6,0.173-1.199,0.52-1.736l11.051-17.115c0.693-1.074,1.976-1.736,3.362-1.736h185.567
	c1.387,0,2.669,0.662,3.362,1.736l11.05,17.115c0.348,0.537,0.521,1.137,0.521,1.736s-0.173,1.199-0.521,1.735l-11.05,17.115
	c-0.693,1.075-1.977,1.735-3.362,1.735H125.45H39.786c-1.388,0-2.669-0.66-3.362-1.735L25.373,43.03
	C25.026,42.494,24.854,41.894,24.854,41.295 M14.727,41.295c0,2.561,0.737,5.06,2.138,7.227l11.051,17.117
	c2.576,3.988,7.014,6.369,11.871,6.369h85.664h99.903c4.855,0,9.295-2.381,11.869-6.368l11.052-17.116
	c1.398-2.169,2.139-4.668,2.139-7.229c0-2.562-0.739-5.062-2.139-7.229l-11.05-17.115c-2.576-3.99-7.015-6.371-11.871-6.371H39.786
	c-4.857,0-9.296,2.381-11.871,6.369l-11.05,17.117C15.467,36.234,14.727,38.734,14.727,41.295"/>
<path fill="#E2001A" d="M24.854,41.295c0-0.6,0.173-1.199,0.52-1.736l11.051-17.115c0.692-1.074,1.976-1.736,3.361-1.736h185.568
	c1.387,0,2.669,0.662,3.362,1.736l11.051,17.115c0.347,0.537,0.52,1.137,0.52,1.736s-0.173,1.199-0.52,1.735l-11.051,17.115
	c-0.693,1.075-1.977,1.735-3.362,1.735H125.45H39.785c-1.387,0-2.669-0.66-3.361-1.735L25.373,43.03
	C25.026,42.494,24.854,41.894,24.854,41.295 M17.594,41.295c0,2.008,0.581,3.969,1.681,5.672l11.05,17.117
	c2.046,3.166,5.582,5.057,9.461,5.057h85.664h99.904c3.879,0,7.416-1.891,9.461-5.057l11.05-17.117
	c1.101-1.702,1.681-3.664,1.681-5.672c0-2.01-0.582-3.971-1.681-5.674l-11.05-17.115c-2.045-3.168-5.582-5.057-9.461-5.057H39.785
	c-3.879,0-7.416,1.889-9.46,5.057L19.274,35.621C18.176,37.324,17.594,39.287,17.594,41.295"/>
<path fill="none" stroke="#FFFFFF" stroke-width="7.255" stroke-miterlimit="10" d="M125.449,61.882H39.785
	c-1.387,0-2.668-0.662-3.361-1.735L25.373,43.031c-0.692-1.075-0.692-2.398,0-3.473l11.051-17.115
	c0.693-1.074,1.976-1.736,3.361-1.736h185.568c1.387,0,2.67,0.662,3.361,1.736l11.051,17.115c0.693,1.074,0.693,2.397,0,3.473
	l-11.051,17.115c-0.691,1.073-1.976,1.735-3.361,1.735L125.449,61.882L125.449,61.882z"/>
<path fill="#FFFFFF" d="M73.058,35.564c-2.018-0.775-4.343-1.279-6.938-1.279c-4.769,0-7.25,2.986-7.25,7.211
	c0,4.069,1.939,6.744,6.397,6.744c0.542,0,1.085-0.076,1.472-0.193v-7.945h7.211v12.907c-2.52,1.124-5.854,1.821-9.42,1.821
	c-8.799,0-13.49-5-13.49-12.83c0-8.49,5.894-14.227,15.43-14.227c2.714,0,5.543,0.504,7.676,1.164L73.058,35.564z"/>
<path fill="#FFFFFF" d="M88.255,54.908c-8.412,0-10.621-4.459-10.621-10.002V28.199h7.21v16.359c0,2.791,0.854,4.303,3.838,4.303
	c2.906,0,3.838-1.24,3.838-4.498V28.199h7.134v15.777C99.652,51.574,95.271,54.908,88.255,54.908"/>
<path fill="#FFFFFF" d="M118.408,54.365l-1.357-4.264h-8.062l-1.319,4.264h-7.132l8.528-26.166h8.257l8.954,26.166H118.408z
	 M114.184,41.146c-0.465-1.512-0.933-2.906-1.202-4.535h-0.078c-0.231,1.512-0.736,3.256-1.279,4.963l-0.891,2.867h4.495
	L114.184,41.146z"/>
<path fill="#FFFFFF" d="M157.359,54.365l-1.357-4.264h-8.062l-1.318,4.264h-7.133l8.529-26.166h8.256l8.955,26.166H157.359z
	 M153.134,41.146c-0.465-1.512-0.931-2.906-1.201-4.535h-0.078c-0.231,1.512-0.735,3.256-1.278,4.963l-0.892,2.867h4.496
	L153.134,41.146z"/>
<path fill="#FFFFFF" d="M180.348,54.365l-4.382-8.954c-1.007-2.055-1.938-4.147-2.598-5.894c0.156,1.551,0.195,2.443,0.195,4.148
	v10.699h-6.939V28.199h9.227l3.8,7.793c1.123,2.324,2.287,4.689,3.178,6.783c-0.192-1.783-0.271-3.799-0.271-5.428v-9.148h6.938
	v26.166H180.348z"/>
<path fill="#FFFFFF" d="M208.803,54.365l-1.357-4.264h-8.062l-1.317,4.264h-7.132l8.527-26.166h8.256l8.955,26.166H208.803z
	 M204.577,41.146c-0.465-1.512-0.931-2.906-1.202-4.535h-0.076c-0.232,1.512-0.736,3.256-1.279,4.963l-0.893,2.867h4.496
	L204.577,41.146z"/>
<path fill="#FFFFFF" d="M137.74,55.902c0,6.635-4.525,10.921-11.528,10.921h-4.81l-3.156-9.698h7.966c1.762,0,1.83-0.045,1.83-1.223
	V26.994h9.698V55.902z"/>
<path fill="#E2001A" d="M119.906,58.332h6.307c1.627,0,3.034,0,3.034-2.431V28.199h7.286v27.702c0,5.993-3.955,9.716-10.32,9.716
	h-3.935L119.906,58.332 M116.586,55.92l1.027,3.158l2.372,7.286l0.542,1.664h1.751h3.935c7.734,0,12.731-4.76,12.731-12.127V28.199
	v-2.41h-2.411h-7.286h-2.411v2.41v27.702v0.013c-0.205,0.006-0.438,0.006-0.623,0.006h-6.307H116.586z"/>
<line fill="none" x1="139.488" y1="54.365" x2="148.018" y2="28.199"/>
<polygon fill="#FFFFFF" points="37.932,45.467 35.516,41.283 37.932,37.1 42.762,37.1 45.177,41.283 42.762,45.467 "/>
<polygon fill="#FFFFFF" points="222.416,45.467 220.002,41.283 222.416,37.1 227.248,37.1 229.662,41.283 227.248,45.467 "/>
<g>
	<g>
		<path fill="#E2001A" d="M78.649,115.349c-0.067,0.092-0.245,0.237-0.284,0.243c-0.464,0.108-0.782,0.396-1.139,0.688
			c-1.163,1.051-2.344,2.266-3.534,3.399c-0.307,0.366-0.545,0.642-0.903,0.933c-0.315,0.289-0.505,0.635-0.789,0.877
			c-0.923,1.056-1.739,2.018-2.676,2.994c-0.311,0.326-0.707,0.625-0.997,0.826c-0.719,0.549-1.348,1.16-2.065,1.706
			c-0.244,0.235-0.507,0.354-0.895,0.452c-0.38,0.137-0.876,0.289-1.238,0.542c-0.273,0.041-0.47,0.069-0.767-0.046
			c-1.562-0.569-2.092-1.971-2.014-3.342c-0.023-0.155-0.024-0.434,0.063-0.648c0.347-1.171,0.766-2.393,1.151-3.568
			c0.325-0.768,0.607-1.569,0.974-2.344c0.101-0.134,0.217-0.431,0.188-0.626c-0.256,0.156-0.458,0.427-0.656,0.695
			c-0.404,0.78-0.961,1.342-1.385,2.005c-0.427,0.621-0.815,1.238-1.153,1.93c-0.709,1.143-1.543,2.266-2.359,3.227
			c-0.141,0.141-0.273,0.32-0.385,0.378c-0.244,0.515-0.545,0.919-0.974,1.263c-0.229,0.074-0.283,0.242-0.396,0.299
			c-0.438,0.545-0.925,0.775-1.477,1.098c-0.263,0.119-0.542,0.121-0.822,0.123c-1.019-0.131-1.834-1.049-2.006-1.942
			c-0.216-0.647-0.079-1.349,0.104-2.017c0.379-1.494,0.891-2.89,1.604-4.274c0.312-0.604,0.768-1.312,1.211-1.817
			c0.666-0.897,1.322-1.875,2.085-2.666c0.529-0.479,1.182-0.936,1.845-1.033c0.763,0.008,1.395-0.047,2.105,0.168
			c0.347,0.189,0.723,0.295,1.036,0.527c0.337,0.11,0.337,0.11,0.626-0.092c0.073-0.052,0.134-0.18,0.168-0.225
			c0.04,0.273,0.069,0.469-0.025,0.643c-0.056,0.168,0.041,0.273,0.13,0.342c0.047,0.032,0.098,0.104,0.28-0.002l0.218-0.152
			c0.577-0.965,1.418-1.77,1.895-2.879c0.271-0.319,0.506-0.635,0.785-0.914c0.476-0.551,0.771-1.275,1.106-1.965
			c0.65-1.015,1.248-2.104,1.786-3.062c0.322-0.528,0.589-0.888,0.463-1.47c-0.012-0.076,0.004-0.238,0.07-0.33
			c0.528-0.758,1.102-1.481,1.556-2.188c0.539-0.681,1.067-1.437,1.428-2.25c0.288-0.481,0.705-0.903,1.012-1.271
			c0.412-0.459,1.096-0.161,1.204,0.303c0.028,0.195,0.059,0.393,0.036,0.514c-0.057,0.17-0.017,0.442,0.087,0.588
			c0.197,0.25,0.12,0.543-0.119,0.816c-0.307,0.366-0.601,0.811-0.866,1.169c-0.873,1.128-1.791,2.224-2.327,3.462
			c-0.217,0.432-0.629,0.893-0.928,1.297c-0.359,0.812-0.791,1.676-1.203,2.418c-0.415,0.7-0.662,1.457-1.124,2.125
			c-0.671,1.137-1.248,2.383-1.9,3.639c-0.228,0.354-0.31,0.886-0.768,1.033c-0.039,0.006-0.016,0.162-0.016,0.162
			c0.091,0.348-0.003,0.521-0.215,0.713c-0.129,0.217-0.107,0.614-0.197,0.828c-0.403,0.778-0.606,1.568-1.019,2.309
			c-0.228,0.354-0.349,0.892-0.479,1.351c-0.076,0.292-0.204,0.509-0.354,0.853c-0.363,0.774-0.557,1.642-0.709,2.504
			c-0.067,0.89,0.123,1.102,0.934,0.621c0.917-0.295,1.818-0.946,2.554-1.656c0.99-0.866,2.01-1.816,2.827-2.777
			c1.436-1.65,2.95-3.035,4.396-4.607c0.969-1.022,2.05-1.822,3.08-2.693c0.245-0.236,0.608-0.21,0.896-0.173
			c0.175,0.375,0.661,0.144,0.891,0.348c0.124,0.022,0.225,0.167,0.311,0.195C78.668,114.948,78.721,115.299,78.649,115.349z
			 M59.895,119.122c0.306-0.364,0.551-0.602,0.784-0.916c0.314-0.566,0.604-1.049,0.965-1.582c0.012-0.202-0.046-0.313-0.202-0.29
			l-0.899,0.133c-1.298,0.151-1.948,0.608-2.611,1.265c-0.568,0.484-1.041,1.074-1.44,1.613c-0.218,0.152-0.294,0.443-0.383,0.656
			c-0.064,0.369-0.377,0.695-0.533,0.998c-0.653,0.977-1.086,1.84-1.562,2.949c-0.26,0.679-0.34,1.49-0.471,2.229
			c-0.062,0.13,0.041,0.274,0.086,0.308c0.117-0.019,0.194-0.029,0.269-0.08l1.447-1.293c0.584-0.646,1.189-1.418,1.841-2.152
			C58.118,121.702,59.125,120.396,59.895,119.122z M62.251,116.935c-0.051-0.072-0.213-0.088-0.312,0.047
			c-0.207,0.229-0.368,0.493-0.45,0.745l-2.159,3.238c-0.027,0.083-0.128,0.218-0.261,0.397c-0.09,0.213-0.295,0.443-0.416,0.701
			c0.178-0.146,0.367-0.214,0.468-0.349c0.874-0.849,1.522-1.865,2.224-2.808c0.3-0.405,0.556-0.842,0.815-1.239l0.229-0.354
			C62.422,117.271,62.351,117.079,62.251,116.935z M63.096,114.811l0.879-1.368c0.037-0.006,0.161,0.014,0.355-0.015
			c-0.124-0.301-0.074-0.508,0.104-0.655c0.288-0.482,0.666-0.898,1.033-1.391c0.133-0.18,0.211-0.471,0.415-0.701
			c0.284-0.242,0.529-0.479,0.629-0.893c-0.006-0.041,0.229-0.075,0.257-0.158c0.054-0.167,0.077-0.292,0.188-0.348
			c-0.018-0.117,0.022-0.123,0.022-0.123c0.018,0.117,0.102,0.145,0.102,0.145c-0.025,0.363-0.015,0.721-0.375,0.977
			c-0.347,0.371-0.667,0.897-1.013,1.269c-0.384,0.655-0.737,1.228-1.21,1.817c0.005,0.039-0.073,0.049-0.151,0.062l0.013,0.08
			c-0.294,0.44-0.427,0.901-0.851,1.284C63.393,114.928,63.22,114.833,63.096,114.811z M71.68,120.138
			c-0.273,0.041-0.446,0.227-0.613,0.451C71.386,120.581,71.564,120.436,71.68,120.138z M72.307,119.245
			c-0.196,0.029-0.289,0.203-0.261,0.398C72.359,119.597,72.359,119.597,72.307,119.245z M75.455,116.461
			c0.29-0.202,0.567-0.483,0.808-0.759c-0.312,0.045-0.614,0.172-0.928,0.496c-0.468,0.35-0.885,0.771-1.264,1.188
			c-0.452,0.188-0.646,0.495-0.879,0.809c-0.268,0.36-0.675,0.58-0.902,0.934c0.409,0.061,0.542-0.119,0.871-0.327
			C73.885,118.014,74.68,117.176,75.455,116.461z"/>
		<path fill="#E2001A" d="M97.925,114.579c-0.458,0.146-0.81,0.479-1.031,0.871c-0.741,0.391-2.03,1.141-2.32,1.342
			c-0.06,0.13-0.06,0.13-0.054,0.168c0.077-0.012,0.174,0.095,0.174,0.095c0.334-0.17,0.702-0.384,1.115-0.565l0.006,0.041
			l-0.039,0.004c-0.458,0.146-0.719,0.547-0.908,0.895l-0.116,0.018c-0.476,0.029-0.45,0.467-0.707,0.625l-1.077,0.559
			c-0.713,0.585-1.448,1.014-2.28,1.337c-0.609,0.209-1.224,0.381-1.865,0.636l-0.392,0.059c-0.489,0.471-1.038,0.271-1.531,0.186
			c-0.453-0.093-0.945-0.18-1.217-0.66c-0.063-0.15-0.158-0.256-0.228-0.445c-0.903-0.707-0.926-1.662-0.867-2.629
			c-0.004-0.561,0.162-1.064,0.237-1.636l-0.012-0.077c-0.135-0.101-0.135-0.101-0.162-0.018l-2.489,2.369
			c-0.501,0.395-0.996,0.826-1.42,1.209c-0.522,0.518-0.996,1.105-1.576,1.512c-0.59,0.605-1.274,1.109-1.916,1.643
			c-0.111,0.058-0.251,0.197-0.367,0.215c-0.431,0.063-0.854,0.166-1.291,0.191c-1.086-0.041-1.563-0.568-1.894-1.72
			c-0.103-0.425-0.017-0.918,0.095-1.253c0.216-0.432,0.543-0.919,0.755-1.393c0.676-1.099,1.486-2.098,2.188-3.041
			c0.7-0.943,1.513-1.664,2.388-2.512c0.741-0.67,1.641-1.082,2.538-1.494c0.506-0.355,1.763,0.019,2.105,0.446
			c0.235,0.244,0.242,0.563-0.042,0.526c-1.064-0.162-1.772,0.462-2.369,0.75c-0.902,0.654-1.468,1.416-2.147,2.236
			c-0.282,0.521-0.733,0.989-1.166,1.572c-0.664,0.658-1.034,1.393-1.567,2.112c-0.289,0.202-0.075,0.569-0.287,0.761
			c-0.666,0.898-0.666,0.898-0.453,0.986c0.352-0.051,0.591-0.326,0.887-0.489c1.054-0.717,2.045-1.582,2.952-2.478
			c1.031-0.871,2.01-1.815,2.99-2.76c0.734-0.709,1.441-1.332,2.188-1.964c0.186-0.106,0.284-0.241,0.396-0.297
			c0.067-0.091,0.184-0.108,0.224-0.114c0.384,0.424,0.79,0.203,1.172,0.348c0.05,0.072,0.167,0.055,0.29,0.076
			c-0.188,0.349,0.32,0.272,0.36,0.547c-0.049,0.207,0.192,0.492,0.015,0.638c-0.138,0.42-0.028,0.884-0.094,1.254
			c-0.199,0.548-0.347,1.171-0.468,1.708c-0.11,0.335-0.221,0.672-0.246,1.035c0.052,0.354-0.361,0.533-0.12,0.816
			c0.37,0.066,0.645,0.026,0.996-0.025c0.979-0.145,1.921-0.524,2.842-1.061l1.975-1.252c2.03-1.138,3.971-2.345,6.024-3.328
			c0.452-0.188,1.026-0.354,1.507-0.625c0.117-0.017,0.195-0.029,0.303-0.123l0.094,0.105c-0.032,0.045-0.015,0.162-0.015,0.162
			c-0.033,0.045-0.106,0.095-0.135,0.179c-0.705,0.104-1.405,0.487-1.997,0.816l0.006,0.038c0.329,0.072,0.648,0.063,0.935,0.103
			c0,0-0.034,0.046-0.094,0.173C98.447,114.063,98.112,114.231,97.925,114.579z M80.748,117.118l-0.077,0.012l0.012,0.078
			L80.748,117.118z M80.903,116.817c-0.04,0.006-0.095,0.172-0.089,0.211C80.892,117.018,80.932,117.012,80.903,116.817z
			 M81.398,116.383c-0.195,0.028-0.361,0.254-0.457,0.428C81.217,116.771,81.394,116.622,81.398,116.383z M81.968,115.899
			c-0.195,0.028-0.373,0.176-0.489,0.473C81.835,116.358,81.969,116.179,81.968,115.899z M82.574,115.409
			c-0.272,0.041-0.504,0.115-0.502,0.395C82.229,115.78,82.575,115.688,82.574,115.409z M83.097,114.892
			c-0.314,0.047-0.453,0.188-0.523,0.518C82.847,115.368,82.986,115.229,83.097,114.892z M83.665,114.407
			c-0.308,0.086-0.49,0.192-0.527,0.479C83.41,114.846,83.543,114.667,83.665,114.407z M84.194,113.931
			c-0.356,0.012-0.419,0.141-0.529,0.479C83.9,114.372,84.122,114.261,84.194,113.931z M84.684,113.456
			c-0.273,0.041-0.458,0.148-0.496,0.435C84.469,113.89,84.684,113.737,84.684,113.456z M84.817,113.278l-0.039,0.006l0.006,0.039
			L84.817,113.278z M92.297,117.89c-0.274,0.041-0.561,0.003-0.86,0.127c-0.759,0.271-1.474,0.577-2.307,0.901
			c-0.038,0.006-0.065,0.089-0.211,0.19l0.013,0.078c0,0,0.005,0.039,0.082,0.027c0,0,0.006,0.039,0.085,0.027
			c0.536-0.16,0.977-0.705,1.737-0.418l0.117-0.017C91.303,118.477,91.969,118.379,92.297,117.89z M92.485,116.741
			c-0.018-0.117-0.095-0.106-0.134-0.101l-0.078,0.013c0.096,0.105,0.135,0.101,0.135,0.101L92.485,116.741z M92.872,117.725
			c-0.04,0.007-0.079,0.013-0.021,0.122C92.844,117.809,92.885,117.803,92.872,117.725z M93.105,116.329l-0.117,0.019l0.129,0.062
			L93.105,116.329z M93.363,117.532c-0.039,0.006-0.051-0.074-0.09-0.067c-0.156,0.022-0.262,0.12-0.245,0.237l0.312-0.047
			C93.342,117.655,93.374,117.61,93.363,117.532z M93.65,115.969c-0.104,0.097-0.436,0.024-0.512,0.317l0.353-0.053
			C93.647,116.211,93.675,116.127,93.65,115.969z M94.656,115.462c-0.438,0.025-0.705,0.104-0.926,0.496
			c0.324,0.033,0.697-0.143,0.938-0.418L94.656,115.462z M95.576,114.927c-0.401-0.021-0.652,0.176-0.926,0.497
			C95.088,115.397,95.393,115.313,95.576,114.927z M96.2,114.554l-0.469,0.068c-0.04,0.007-0.05,0.207-0.038,0.285
			C95.85,114.886,96.057,114.935,96.2,114.554z M95.882,116.44c-0.04,0.006-0.073,0.051-0.073,0.051S95.842,116.446,95.882,116.44z
			 M97.852,113.829l0.04-0.006c-0.685-0.02-1.19,0.336-1.698,0.69l0.006,0.04C96.781,114.428,97.307,114.19,97.852,113.829z
			 M97.13,114.616l-0.007-0.039l-0.076,0.012L97.13,114.616z M99.104,113.364c-0.067,0.09-0.128,0.219-0.116,0.297l-0.04,0.007
			c-0.173-0.095-0.29-0.078-0.196-0.251C98.936,113.31,98.986,113.382,99.104,113.364z M99.142,113.358
			c-0.012-0.078-0.012-0.078,0.065-0.09C99.177,113.313,99.137,113.319,99.142,113.358z"/>
		<path fill="#E2001A" d="M115.193,98.352l-0.052-0.353c-0.29,0.203-0.776,0.435-0.817,0.96c0.273-0.041,0.503-0.114,0.713-0.306
			C115.065,98.571,115.178,98.514,115.193,98.352l0.046,0.312c-0.167,0.225-0.343,0.652-0.6,0.809
			c-0.102,0.135-0.078,0.291-0.104,0.376c-0.495,0.713-1.335,1.517-1.616,2.317c0.019,0.117-0.056,0.168-0.094,0.175
			c-3.663,4.979-8.437,8.923-11.68,11.601l-0.688,1.021c-0.093,0.455-0.428,0.624-0.648,1.016c-0.077,0.293-0.243,0.516-0.248,0.758
			c-0.017,0.44-0.305,0.644-0.364,1.053c-0.037,0.285-0.171,0.465-0.274,0.841c-0.021,0.123-0.155,0.302-0.178,0.425
			c-0.133,0.18-0.43,0.344-0.003,0.52l0.006,0.041c-0.228,0.354-0.171,0.744-0.111,1.135c0.046,0.314,0.3,0.676,0.695,0.656
			c0.839-0.004,1.562,0.01,2.281-0.258c1.206-0.496,2.351-1.146,3.274-1.923c1.293-0.989,2.573-2.06,3.811-3.161
			c0.918-0.816,1.658-1.766,2.521-2.414c0.14-0.14,0.188-0.347,0.34-0.408c0.021-0.123,0.232-0.315,0.271-0.321
			c0.319-0.007,0.491-0.192,0.542-0.399c0.109-0.336,0.428-0.623,0.724-0.785c0.496-0.435,1.062-0.918,1.463-1.457
			c0.352-0.332,0.73-0.467,1.096-0.441c0.117-0.018,0.279-0.001,0.291,0.078c0.162,0.295,0.358,0.266,0.572,0.355
			c0.077-0.012,0.185,0.172,0.146,0.457c-0.109,0.057-0.204,0.229-0.306,0.365c-0.032,0.045-0.205,0.23-0.245,0.236
			c-0.553,0.041-0.893,0.451-1.165,0.771c-0.534,0.438-1.035,0.833-1.486,1.301l-1.364,1.319c-0.146,0.103-0.251,0.198-0.345,0.371
			c-0.272,0.319-0.562,0.243-0.736,0.149c0.012,0.078-0.14,0.14-0.122,0.256c0.19,0.213,0.019,0.398-0.161,0.544
			c-0.412,0.181-0.65,0.456-0.945,0.899c-0.167,0.225-0.489,0.473-0.785,0.635c-0.206,0.231-0.277,0.283-0.373,0.455
			c-0.312,0.328-0.557,0.562-0.886,0.771c-0.271,0.32-0.694,0.703-1.013,0.989c-0.45,0.467-1.042,0.794-1.588,1.155
			c-0.357,0.291-0.869,0.606-1.198,0.816c-0.441,0.266-0.726,0.506-1.234,0.582c-0.459,0.148-0.877,0.29-1.425,0.371
			c-1.938,0.126-3.062-0.708-3.854-2.268c-0.124-0.303-0.188-0.732-0.168-1.137c0.043-0.525,0.111-1.136,0.361-1.611
			c0.104-0.375,0.152-0.863,0.386-1.176c0.097,0.104,0.135,0.1,0.195-0.029c0.14-0.141,0.155-0.303,0.133-0.459l-0.195,0.029
			c-0.125-0.302,0.087-0.494,0.26-0.679c0.021-0.124-0.002-0.28,0.188-0.349c-0.038,0.007-0.057-0.111-0.057-0.111l0.135,0.102
			c0.058,0.111,0.136,0.1,0.156-0.023l-0.039,0.006l0.021-0.124l0.018,0.118c0.134-0.18,0.104-0.375,0.088-0.493l-0.156,0.022
			c0.103-0.654,0.341-1.209,0.74-1.748c0.135,0.1,0.135,0.1,0.141,0.14c0.071-0.052,0.071-0.052,0.055-0.168l-0.194,0.028
			c-0.041-0.273,0.119-0.539,0.389-0.617l-0.129-0.061l0.116-0.018l0.019,0.116c0.039-0.007,0.112-0.058,0.101-0.134l-0.118,0.018
			c-0.022-0.156-0.041-0.273,0.072-0.331l0.046,0.313l0.039-0.006l-0.026,0.084c0.178-0.146,0.153-0.303,0.132-0.459l-0.156,0.023
			c-0.023-0.156,0.009-0.202,0.127-0.221l0.029,0.197c0.078-0.013,0.133-0.181,0.205-0.231l-0.234,0.034
			c-0.052-0.352,0.087-0.492,0.338-0.688c0.106,0.185,0.142,0.14,0.195-0.028l-0.195,0.028c-0.022-0.155,0.037-0.284,0.145-0.38
			l0.052,0.352c0.178-0.146,0.2-0.269,0.183-0.385c0.105-0.097,0.18-0.148,0.155-0.305l0.095-0.174l-0.117,0.017l-0.022-0.155
			c0.175-0.705,0.495-1.513,1.092-2.08c-0.019-0.396,0.104-0.655,0.499-0.953c-0.008-0.318,0.142-0.66,0.516-0.836l0.04,0.273
			l0.045,0.033l0.072-0.051c0.058-0.168,0.051-0.207,0.039-0.285l-0.196,0.029c-0.022-0.156,0.011-0.201,0.167-0.225l0.029,0.195
			c0.026-0.083,0.015-0.162,0.087-0.212l-0.116,0.017l-0.021-0.156c0.209-0.471,0.425-0.902,0.787-1.156
			c0.045,0.033,0.045,0.033,0.051,0.072c0.113-0.056,0.113-0.056,0.107-0.096l-0.158,0.023l-0.034-0.233
			c0.327-0.489,0.559-1.083,0.927-1.575c1.244-1.584,2.399-3.234,3.618-4.734c0.449-0.746,1.027-1.432,1.655-2.045
			c1.271-1.146,2.517-2.45,4.084-3.481c0.709-0.343,1.921-0.522,2.525-0.214c0.331,0.072,0.518,0.244,0.695,0.377
			c0.192,0.213,0.271,0.48,0.194,0.771c-0.11,0.334-0.13,0.739-0.408,1.02l-0.561,1.083c-0.031,0.325-0.464,0.39-0.552,0.603
			c-0.078,0.012-0.065,0.09-0.049,0.207l0.195-0.029c0.079-0.012,0.167-0.223,0.247,0.043c0.039-0.006,0.006,0.039-0.018,0.162
			c0.006,0.039-0.173,0.186-0.25,0.197c-0.337-0.109-0.509,0.075-0.62,0.412l0.023,0.156l0.117-0.018
			c0.04-0.006,0.04-0.006,0.185-0.107c0.039-0.006,0.039-0.006,0.129,0.061c0.006,0.039-0.065,0.09-0.065,0.09
			c-0.185,0.107-0.301,0.125-0.457,0.147c-0.325-0.032-0.285,0.243-0.277,0.562c0.006,0.039,0.006,0.039-0.134,0.18l0.47-0.069
			C115.595,98.094,115.461,98.272,115.193,98.352z M98.676,118.586c-0.091-0.065-0.168-0.054-0.253-0.083l-0.117,0.018l-0.087-0.586
			c-0.156,0.023-0.218,0.15-0.134,0.18l0.063,0.43c-0.268,0.08-0.199,0.27-0.182,0.387l0.155-0.023
			c0.078-0.01,0.096,0.106,0.141,0.141c-0.006-0.04,0.095-0.174,0.095-0.174c0.073-0.051,0.111-0.057,0.179-0.146
			C98.608,118.676,98.597,118.597,98.676,118.586z M98.805,116.767l-0.052-0.352c-0.146,0.102-0.129,0.219-0.101,0.414
			c-0.312,0.045-0.344,0.371-0.314,0.565c0.155-0.022,0.268-0.079,0.367-0.214c0.018,0.117,0.136,0.1,0.142,0.139
			c0.033-0.045,0.033-0.045,0.017-0.162C99.114,116.962,99.092,116.805,98.805,116.767z M99.267,115.3
			c-0.312,0.046-0.384,0.376-0.304,0.645C99.141,115.798,99.392,115.6,99.267,115.3z M100.672,112.894c0,0-0.052-0.072-0.13-0.061
			l-0.052-0.354c-0.347,0.092-0.389,0.338-0.321,0.528l0.156-0.022c-0.006-0.039,0.062-0.129,0.217-0.152l0.019,0.117
			C100.638,112.938,100.672,112.894,100.672,112.894z M100.783,111.758c0.185-0.106,0.296-0.164,0.335-0.169
			c-0.028-0.196-0.047-0.312,0.011-0.48C100.759,111.321,100.731,111.405,100.783,111.758z M101.186,110.698
			c-0.105,0.096-0.167,0.225-0.06,0.408C101.317,111.038,101.294,110.883,101.186,110.698z M101.466,110.417
			c0.189-0.068,0.277-0.282,0.231-0.596C101.508,109.891,101.351,110.194,101.466,110.417z M101.68,109.706
			c0.347-0.092,0.439-0.266,0.389-0.617C101.784,109.329,101.656,109.55,101.68,109.706z M116.302,92.591
			c-0.164-0.296-0.602-0.271-0.762-0.008c-0.326,0.488-0.822,0.921-1.324,1.314c-0.603,0.529-1.332,0.996-1.877,1.639
			c-0.146,0.1-0.154,0.302-0.312,0.324c-0.698,0.424-1.075,1.119-1.632,1.68c-0.606,0.49-0.928,1.299-1.517,1.904
			c-0.295,0.724-0.856,1.246-1.323,1.875c-0.062,0.129-0.205,0.23-0.229,0.354c-0.188,0.348-0.344,0.65-0.608,1.009
			c-0.189,0.349-0.521,0.798-0.711,1.146c0.062,0.431-0.299,0.685-0.531,0.998c-0.083,0.252-0.261,0.399-0.312,0.606
			c-0.172,0.185-0.153,0.304-0.243,0.517c-0.178,0.146-0.267,0.357-0.438,0.543c-0.127,0.219-0.17,0.465-0.271,0.601
			c-0.102,0.135-0.128,0.22-0.115,0.297c0.052,0.353-0.244,0.517-0.396,0.856c-0.499,0.675-0.942,1.461-1.381,2.285
			c-0.194,0.309-0.176,0.705-0.415,0.98c-0.037,0.286-0.192,0.309-0.146,0.622c0.367,0.065,0.639-0.535,0.812-0.72
			c1.13-1.008,1.954-1.648,3.379-3.1c1.348-1.438,2.621-2.826,3.743-4.432c1.044-1.594,2.613-3.146,3.618-4.732
			c0.717-1.105,1.349-2.238,2.025-3.339c0.354-0.571,0.368-1.014,0.602-1.606c0.216-0.434,0.321-0.809,0.426-1.184
			C116.459,92.848,116.324,92.747,116.302,92.591z M102.068,109.089c0.295-0.165,0.411-0.461,0.398-0.818
			C102.177,108.472,102.061,108.769,102.068,109.089z M102.908,108.005l-0.062-0.432c-0.141,0.142-0.162,0.266-0.133,0.459
			L102.908,108.005z M102.845,107.573c0.301-0.123,0.301-0.123,0.372-0.455C102.908,107.204,102.853,107.372,102.845,107.573z
			 M103.82,106.071c-0.229,0.073-0.34,0.129-0.305,0.364C103.828,106.389,103.867,106.384,103.82,106.071z M104.683,105.144
			l-0.069-0.47c-0.245,0.235-0.541,0.399-0.472,0.869C104.315,105.358,104.572,105.198,104.683,105.144z M104.951,103.985
			c-0.184,0.105-0.199,0.268-0.132,0.457C104.998,104.298,105.064,104.206,104.951,103.985z M104.829,119.913l0.312-0.045
			c1.232-0.58,2.117-1.631,3.271-2.481c0.689-0.741,1.615-1.239,2.249-2.092c0.078-0.013,0.15-0.062,0.348-0.091
			c0.016-0.162,0.004-0.241,0.109-0.338c0.534-0.438,0.979-0.943,1.509-1.422c0.351-0.332,0.617-0.69,0.975-0.981
			c0.413-0.183,0.685-0.502,0.958-0.822c0.026-0.084,0.021-0.123,0.115-0.296c-0.273,0.041-0.446,0.227-0.675,0.299
			c-0.513,0.596-1.187,1.174-1.781,1.742c-0.425,0.382-0.773,0.714-1.138,0.967c-0.847,0.766-1.788,1.424-2.512,2.213
			c-0.723,0.785-1.548,1.426-2.32,2.141c-0.135,0.181-0.272,0.32-0.503,0.396C105.413,119.271,105.046,119.483,104.829,119.913z
			 M111.5,103.655l-0.186-0.172c-0.212,0.189-0.418,0.422-0.512,0.594C111.178,104.184,111.429,103.987,111.5,103.655z
			 M112.74,102.034c-0.124-0.023-0.168-0.058-0.265-0.162c-0.141,0.139-0.367,0.214-0.327,0.486c0.162,0.018,0.201,0.012,0.213,0.09
			C112.546,102.343,112.774,102.268,112.74,102.034z M113.532,100.637c0,0-0.13-0.062-0.174-0.094l-0.574,0.444l-0.017-0.117
			l-0.078,0.012l0.095,0.105l0.06,0.393c0.089,0.066,0.173,0.093,0.224,0.166C113.262,101.235,113.416,100.933,113.532,100.637z
			 M112.871,101.573l-0.018-0.117c-0.078,0.012-0.072,0.051-0.139,0.141L112.871,101.573l0.029,0.194
			c0.078-0.011,0.139-0.14,0.166-0.224L112.871,101.573z M114.18,99.342c-0.01,0.201-0.127,0.218-0.322,0.247
			c-0.178,0.146-0.178,0.146-0.104,0.376c0.006,0.039,0.106,0.185,0.112,0.224c0.078-0.013,0.11-0.057,0.244-0.236
			c0.094-0.174,0.268-0.359,0.529-0.479c-0.136-0.099-0.059-0.392-0.292-0.354C114.307,99.122,114.209,99.258,114.18,99.342
			l-0.028-0.194c-0.039,0.004-0.021,0.123-0.101,0.133C114.13,99.269,114.14,99.347,114.18,99.342z M114.676,111.343
			c0.201,0.01,0.353-0.053,0.44-0.266l0.067-0.09c-0.079,0.012-0.124-0.021-0.202-0.011
			C114.831,111.038,114.646,111.147,114.676,111.343z"/>
		<path fill="#E2001A" d="M136.803,104.713l-0.035-0.236C136.7,104.567,136.7,104.567,136.803,104.713
			c0.006,0.038,0.021,0.155-0.012,0.2c-0.218,0.152-0.333,0.449-0.389,0.617c-0.055,0.168-0.037,0.285-0.148,0.342
			c-0.122,0.258-0.257,0.438-0.354,0.572c0.162,0.297-0.222,0.393-0.187,0.627c-0.013,0.201-0.14,0.42-0.268,0.639
			c-0.07,0.33-0.147,0.621-0.388,0.896c-0.065,0.09-0.116,0.297-0.125,0.5c0.018,0.115-0.123,0.256-0.273,0.319
			c0.047,0.312-0.113,0.577-0.241,0.795c-0.139,0.42-0.365,0.774-0.419,1.222c-0.017,0.162-0.104,0.375-0.315,0.566
			c-0.057,0.168-0.116,0.297-0.127,0.499c-0.042,0.526-0.265,0.918-0.581,1.206c-0.251,0.197,0.021,0.156,0.067,0.189
			c0.038-0.006,0.057,0.11,0.057,0.11c-0.1,0.415-0.326,0.769-0.438,1.104c-0.021,0.123-0.194,0.029-0.256,0.158
			c-0.078,0.012-0.072,0.049-0.021,0.123c0.123,0.021,0.168,0.055,0.146,0.178c-0.264,0.918-0.61,1.81-0.92,2.695
			c-0.068,0.09-0.251,0.197-0.42,0.141c-0.298-0.115-0.71-0.213-0.768-0.604c-0.013-0.079-0.063-0.149-0.147-0.179
			c-0.332-0.35-0.294-0.637-0.145-0.979c0.28-0.801,0.567-1.563,0.798-2.436l0.928-2.657c0.303-0.924,0.69-1.821,1.05-2.634
			c0.21-0.471,0.409-1.021,0.581-1.484c0.353-1.133,0.872-2.209,1.263-3.346c0.111-0.336,0.352-0.611,0.46-0.947
			c0.212-0.471,0.344-0.931,0.554-1.402c0.205-0.51,0.353-1.131,0.641-1.613c0.312-0.605,0.576-1.245,0.849-1.844
			c0.286-0.762,0.534-1.519,0.872-2.209c0.199-0.549,0.408-1.021,0.652-1.535c0.098-0.414,0.405-0.78,0.342-1.209
			c-0.195,0.029-0.331,0.207-0.47,0.349c-0.467,0.63-1.062,1.196-1.646,1.843c-0.212,0.191-0.268,0.359-0.366,0.493
			c-0.127,0.22-0.272,0.321-0.479,0.271c-0.382-0.143-0.688-0.336-0.858-0.672c-0.068-0.189-0.104-0.424-0.016-0.637
			c0.2-0.27,0.377-0.695,0.616-0.971c0.821-1.202,1.733-2.336,2.858-3.381c0.354-0.573,1.029-0.872,1.497-1.501
			c0.11-0.058,0.218-0.152,0.414-0.181c0.579-0.127,1.175,0.104,1.562,0.567c0.129,0.062,0.146,0.179,0.169,0.334
			c-0.104,0.097-0.127,0.218-0.115,0.298c-0.038,0.284,0.231,0.485,0.004,0.838c-0.127,0.219-0.074,0.571-0.19,0.869
			c-0.089,0.213-0.282,0.52-0.32,0.807c-0.264,0.918-0.624,1.731-0.889,2.65c-0.099,0.414-0.235,0.836-0.521,1.077
			c-0.261,0.397-0.462,0.668-0.438,1.104c-0.105,0.096-0.101,0.135-0.127,0.22c-0.245,0.235-0.322,0.526-0.359,0.812
			c-0.095,0.174-0.171,0.465-0.344,0.649c-0.344,0.371-0.438,0.825-0.479,1.351c-0.134,0.18-0.094,0.455-0.311,0.606
			c0.046,0.313-0.183,0.386-0.26,0.678c0,0,0.045,0.033,0.124,0.021c-0.102,0.136-0.118,0.019-0.124-0.021
			c-0.294,0.442-0.448,0.746-0.379,1.216c0.021,0.155-0.116,0.297-0.189,0.348c-0.027,0.084-0.195,0.029-0.262,0.117
			c-0.034,0.047-0.006,0.242-0.111,0.338c-0.055,0.168-0.21,0.47-0.343,0.648c0.117-0.018,0.129,0.062,0.168,0.057L136.803,104.713z
			 M131.247,114.728l-0.079,0.012l0.085,0.028L131.247,114.728z M131.59,115.956l-0.079,0.013l0.006,0.04L131.59,115.956z
			 M132.037,113.053c0,0,0.028-0.084,0.018-0.162C132.025,112.975,131.987,112.979,132.037,113.053z M132.115,112.762l0.018,0.117
			C132.133,112.879,132.288,112.856,132.115,112.762z M132.181,114.032l0.012,0.076L132.181,114.032z M132.404,113.638
			c-0.149,0.062-0.133,0.182-0.188,0.35C132.433,113.833,132.416,113.717,132.404,113.638z M132.683,111.198
			c-0.039,0.006-0.201-0.01-0.201-0.01c-0.207,0.23-0.244,0.516-0.164,0.784l0.05,0.073l0.079-0.012
			C132.564,111.737,132.639,111.444,132.683,111.198z M132.392,113.56c0.039-0.005,0.118-0.017,0.021-0.123
			C132.427,113.516,132.431,113.554,132.392,113.56z M132.581,110.774c0.013,0.077,0.051,0.071,0.051,0.071
			C132.619,110.768,132.692,110.718,132.581,110.774z M132.741,112.669l-0.038,0.006l0.012,0.078L132.741,112.669z M132.717,110.874
			l0.046,0.312C132.929,110.962,132.929,110.962,132.717,110.874z M132.868,110.011c0.039-0.006,0.033-0.044,0.021-0.122
			C132.862,109.973,132.784,109.985,132.868,110.011z M133.534,109.114l-0.194,0.027c0.028,0.196,0.052,0.354-0.205,0.23
			c-0.258,0.156-0.273,0.32-0.244,0.517c0.421,0.138,0.331,0.069,0.47-0.069C133.564,109.589,133.569,109.349,133.534,109.114z
			 M133.076,110.341l-0.077,0.011l0.083,0.029L133.076,110.341z M133.209,109.081l0.118-0.018
			C133.249,109.075,133.31,108.946,133.209,109.081z M133.314,108.706c0,0,0.117-0.018,0.129,0.062
			C133.431,108.688,133.421,108.61,133.314,108.706z M133.384,111.055l-0.019-0.116l-0.022,0.122L133.384,111.055z M133.727,108.526
			l-0.245,0.235l0.052,0.353C133.752,108.961,133.768,108.799,133.727,108.526z M133.498,108.319l0.039-0.006l-0.051-0.072
			L133.498,108.319z M133.585,111.345l-0.046-0.033l0.007,0.039L133.585,111.345z M133.745,107.563
			c0.072-0.052,0.072-0.052,0.066-0.092C133.733,107.483,133.655,107.495,133.745,107.563z M133.867,108.385
			c-0.073,0.051-0.073,0.051-0.062,0.13C133.885,108.503,133.963,108.491,133.867,108.385z M133.851,107.467l0.116-0.017
			c0.046,0.033,0.052,0.072,0.062,0.15c0.006,0.039,0.095,0.105,0.162,0.016c0.071-0.049,0.1-0.133,0.094-0.172
			c0.072-0.052-0.018-0.117-0.022-0.156l-0.039,0.006c-0.072,0.05-0.229,0.074-0.257,0.156l-0.059-0.39
			C133.76,107.12,133.834,107.35,133.851,107.467z M133.91,107.06c0.186-0.107,0.173-0.188,0.15-0.343
			C133.91,106.78,133.932,106.936,133.91,107.06z M134.205,108.776c0.077-0.013,0.077-0.013,0.162,0.014
			c0.088,0.068,0.018,0.119,0.128,0.062c0,0-0.04,0.007-0.128-0.062C134.361,108.752,134.344,108.634,134.205,108.776z
			 M134.23,106.252l0.028-0.084l-0.039,0.006L134.23,106.252z M134.443,109.577l-0.196,0.029l0.006,0.039
			c0,0,0.046,0.034,0.086,0.028C134.332,109.635,134.371,109.629,134.443,109.577z M134.274,109.243
			c0.089,0.065,0.089,0.065,0.167,0.055C134.43,109.221,134.426,109.182,134.274,109.243z M134.329,106.917l0.039-0.006
			l-0.006-0.039L134.329,106.917z M134.362,105.792l0.006,0.039l0.073-0.051L134.362,105.792z M134.466,109.454l0.194-0.027
			c-0.084-0.027-0.124-0.021-0.213-0.089L134.466,109.454z M134.557,106.563l-0.019-0.117
			C134.461,106.456,134.384,106.469,134.557,106.563z M134.815,108.045l-0.195,0.028c-0.078,0.013-0.065,0.09-0.104,0.097
			c0.051,0.073,0.134,0.1,0.218,0.127c0.074-0.05,0.074-0.05,0.068-0.089C134.827,108.122,134.815,108.045,134.815,108.045z
			 M134.644,106.069c-0.112,0.059-0.096,0.176-0.072,0.332C134.684,106.344,134.662,106.188,134.644,106.069z M134.777,105.891
			c-0.038,0.007-0.112,0.058-0.095,0.175C134.763,106.053,134.789,105.97,134.777,105.891z M134.895,105.872
			c0.139-0.139,0.081-0.25,0.063-0.368C134.725,105.538,134.755,105.735,134.895,105.872z M134.877,107.915l-0.072,0.051
			C134.884,107.954,134.923,107.948,134.877,107.915z M134.988,107.579c0.026-0.084,0.026-0.084,0.021-0.123
			C134.971,107.462,134.89,107.474,134.988,107.579z M135.064,105.13c-0.111,0.055-0.134,0.179-0.11,0.335
			C135.105,105.403,135.082,105.247,135.064,105.13z M135.099,104.284c0,0-0.006-0.041,0.034-0.047
			C135.094,104.243,134.976,104.262,135.099,104.284z M135.359,104.685c-0.145,0.102-0.161,0.266-0.307,0.366
			C135.365,105.005,135.365,105.005,135.359,104.685z M135.181,104.032c0.012,0.078,0.012,0.078-0.061,0.129
			C135.199,104.149,135.238,104.144,135.181,104.032z M135.305,107.293l-0.157,0.022c0,0-0.032,0.045-0.021,0.123l0.116-0.017
			L135.305,107.293z M135.406,106.077l-0.041,0.006c-0.011-0.077-0.011-0.077-0.128-0.061
			C135.365,106.083,135.365,106.083,135.406,106.077z M135.304,103.774l0.027-0.084l-0.04,0.006L135.304,103.774z M135.359,104.685
			c0.229-0.072,0.21-0.191,0.182-0.386C135.313,104.372,135.343,104.569,135.359,104.685z M135.507,106.223
			c0,0-0.058-0.112-0.096-0.106C135.429,106.235,135.434,106.274,135.507,106.223z M135.612,103.969
			c-0.105,0.097-0.089,0.212-0.071,0.33C135.685,104.198,135.668,104.079,135.612,103.969z M135.603,105.53
			c-0.006-0.041-0.018-0.119-0.045-0.035L135.603,105.53z M135.644,103.924c0.146-0.103,0.09-0.213,0.072-0.33
			C135.604,103.649,135.622,103.768,135.644,103.924z M135.734,102.632c0.033-0.046,0.027-0.085,0.027-0.085
			C135.722,102.553,135.605,102.569,135.734,102.632z M135.855,105.612c-0.084-0.027-0.084-0.027-0.124-0.021
			C135.731,105.59,135.756,105.745,135.855,105.612z M135.823,102.418c0.039-0.007,0.033-0.046,0.033-0.046L135.823,102.418z
			 M135.823,103.497l0.038-0.006l-0.006-0.037C135.861,103.491,135.823,103.497,135.823,103.497z M135.88,104.688l-0.038,0.006
			l0.006,0.039L135.88,104.688z M136.199,103.882c0,0,0.039-0.006,0.152-0.062l-0.047-0.312c-0.151,0.062-0.173,0.185-0.279,0.28
			l0.029,0.195C136.094,103.978,136.173,103.966,136.199,103.882z M136.161,105.247l-0.057-0.111l0.018,0.117L136.161,105.247z
			 M136.331,104.502l-0.012-0.078l-0.027,0.084L136.331,104.502z M139.802,94.714c-0.15,0.061-0.212,0.191-0.229,0.354
			c-0.121,0.258-0.136,0.42-0.237,0.555c-0.256,0.438-0.442,0.785-0.575,1.244c-0.088,0.215-0.36,0.533-0.394,0.857
			c-0.077,0.291-0.231,0.594-0.348,0.893c-0.072,0.051-0.102,0.135-0.084,0.25c0.018,0.119-0.042,0.248-0.143,0.383
			c-0.533,0.719-0.612,1.529-1.058,2.314c-0.048,0.487-0.303,0.924-0.391,1.418c-0.062,0.127-0.031,0.324-0.054,0.446
			c0.038-0.006,0.116-0.017,0.11-0.056c0.25-0.477,0.46-0.947,0.671-1.418c0.241-0.795,0.786-1.436,0.9-2.291l1.236-2.981
			C139.517,96.034,139.783,95.396,139.802,94.714z M136.484,103.92c-0.012-0.078-0.09-0.067-0.128-0.062
			C136.406,103.931,136.374,103.976,136.484,103.92z M137.375,102.907l-0.012-0.078l-0.026,0.084L137.375,102.907z M139.119,93.336
			c0.038-0.005,0.194-0.029,0.021-0.124C139.151,93.29,139.113,93.296,139.119,93.336z M139.935,94.532
			c-0.074,0.052-0.074,0.052-0.058,0.17C139.959,94.69,139.997,94.685,139.935,94.532z"/>
		<path fill="#E2001A" d="M158.103,98.444l-0.249,0.477c-0.189,0.066-0.2,0.27-0.177,0.425c0.028,0.196-0.049,0.487-0.12,0.539
			c-0.468,0.349-0.689,1.021-1.062,1.476c-0.133,0.18-0.3,0.403-0.474,0.59c-0.026,0.084-0.146,0.103-0.222,0.113
			c-0.23-0.207-0.313,0.047-0.426,0.102c-0.026,0.086-0.14,0.143-0.159,0.266c-0.034,0.045-0.118,0.018-0.118,0.018
			c-0.038,0.006-0.057-0.111-0.057-0.111c0.016-0.162-0.058-0.393,0.041-0.526c0.44-1.345,0.805-2.678,1.341-3.917
			c0.262-0.398,0.389-0.896,0.558-1.361c0.632-1.412,0.966-2.94,1.248-4.543c0.101-0.135,0.089-0.211,0.072-0.33
			c-0.209-0.33-0.062-0.67-0.033-1.035c0.053-0.447-0.005-0.84-0.19-1.291c-0.142-0.139-0.306-0.436-0.385-0.703
			c-0.193-0.491-0.597-0.791-1.116-0.794c-0.604-0.03-1.215-0.101-1.869,0.075c-0.312,0.047-0.715,0.027-0.954,0.302
			c-0.033,0.046-0.149,0.063-0.189,0.069c-1.105,0.362-2.149,0.877-3.124,1.58c-1.026,0.631-1.771,1.541-2.574,2.34
			c-0.064,0.088-0.183,0.106-0.191,0.309c-0.168,0.227-0.345,0.65-0.584,0.928c-0.139,0.418-0.241,0.795-0.432,1.143
			c-0.104,0.375,0.006,0.839-0.139,1.22c-0.05,0.207,0.114,0.502,0.255,0.642c0.121,0.543,0.335,0.91,0.594,1.312
			c0.327,0.592,0.311,0.475,0.763,0.008c0.311-0.326,0.738-0.67,1.142-0.929c0.306-0.364,0.679-0.541,0.917-0.814
			c0.258-0.158,0.436-0.306,0.698-0.423c0.061-0.128,0.101-0.134,0.139-0.14c0.381,0.142,0.733,0.09,0.925,0.303
			c0.191,0.21,0.405,0.299,0.59,0.473c0.181,0.133,0.242,0.283,0.222,0.407c0.034,0.233-0.185,0.386-0.328,0.488
			c-0.273,0.04-0.47,0.069-0.723-0.015c-0.219-0.127-0.441-0.014-0.49,0.194l-1.062,1.195c-0.123,0.259-0.38,0.417-0.519,0.557
			l-0.268,0.358c-0.089,0.215-0.07,0.332,0.069,0.471c0.68,0.54,1.242,1.096,1.854,1.727c0.641,0.545,1.221,1.219,1.872,1.842
			c0.949,1.018,1.684,2.188,2.571,3.336c0.647,0.865,0.85,1.955,0.971,3.056c-0.042,0.247-0.058,0.409-0.135,0.699
			c-0.226,0.633-0.672,1.139-1.188,1.696c-0.096,0.172-0.245,0.234-0.406,0.5c-0.434,0.582-0.914,0.854-1.518,1.103
			c-0.562,0.244-1.11,0.325-1.602,0.517c-0.387,0.098-0.822,0.123-1.229,0.342c-0.08,0.012-0.118,0.018-0.248-0.043
			c-0.441-0.016-0.896-0.107-1.383-0.156c-0.414-0.098-0.744-0.169-1.109-0.475c-0.095-0.105-0.27-0.199-0.481-0.289
			c-0.415-0.099-0.618-0.389-0.826-0.717c-0.163-0.295-0.31-0.474-0.461-0.691c-0.625-0.707-1.043-1.645-1.188-2.623l-0.053-0.354
			c-0.366-1.664-0.141-3.377,0.255-5.035c-0.003-0.278,0.112-0.576,0.186-0.906c0.081-0.531,0.264-1.198,0.545-1.719
			c0.102-0.136,0.139-0.42,0.267-0.64c0.344-0.649,0.52-1.356,0.906-1.974c0.146-0.102,0.136-0.18,0.071-0.33
			c-0.357-0.268-0.701-0.696-1.04-1.086c-0.5-0.405-0.95-1.018-0.986-1.812l-0.034-0.234c-0.331-1.151-0.006-2.198,0.538-3.118
			c0.377-0.696,1.382-2.005,2.15-2.478c0.135-0.18,0.347-0.371,0.446-0.507c0.134-0.179,0.471,0.212,0.446-0.226
			c0.25-0.198,0.587-0.088,0.686-0.5c0.262-0.12,0.524-0.237,0.741-0.391c0.25-0.197,0.479-0.271,0.754-0.311
			c0.234-0.035,0.379-0.137,0.508-0.355c0.15-0.061,0.257-0.158,0.413-0.181c0.312-0.046,0.612-0.45,1.004-0.229
			c0.252-0.196,0.609-0.209,0.917-0.295c0.196-0.028,0.452-0.188,0.688-0.223c0.194-0.029,0.369,0.066,0.604,0.032
			c0.86-0.127,1.571,0.088,2.312,0.497c0.562,0.275,1.077,0.521,1.577,0.926c0.145,0.18,0.285,0.316,0.332,0.631
			c0.04,0.273,0.366,0.586,0.307,0.995c0.012,0.078,0.068,0.188,0.153,0.218c0.297,0.395,0.429,0.734,0.412,1.178
			c-0.088,0.213-0.132,0.459-0.023,0.644c0.029,0.194-0.021,0.403-0.114,0.577c-0.011,0.201-0.133,0.459-0.121,0.537
			c0.087,0.587-0.09,1.013-0.143,1.46c-0.066,0.368-0.14,0.7-0.274,1.12c-0.154,0.582-0.459,1.228-0.752,1.949
			c-0.149,0.342-0.395,0.58-0.589,0.888L158.103,98.444z M147.862,101.917c-0.541,1.199-0.898,2.572-1.396,3.805
			c-0.003,0.24-0.01,0.48-0.097,0.693c-0.078,0.293,0.053,0.633-0.204,0.789c0,0-0.101,0.137-0.083,0.254
			c0.31,0.193,0.075,0.509,0.077,0.787c0.029,0.197-0.055,0.447-0.03,0.604c0.043,0.833,0.158,1.616,0.342,2.31
			c0.12,0.541,0.312,1.033,0.889,1.146c0.169,0.055,0.314,0.234,0.479,0.249c0.212,0.089,0.477,0.25,0.672,0.222
			c0.564,0.037,1.235-0.023,1.744-0.099c0.839-0.003,1.509-0.345,2.296-0.699c0.155-0.022,0.352-0.052,0.451-0.188
			c0.239-0.274,0.529-0.477,0.725-0.785c0.479-0.551,0.84-1.084,0.937-1.778c0.056-0.448,0.04-0.807-0.09-1.147
			c-0.124-0.301-0.182-0.69-0.391-1.021c-0.17-0.335-0.115-0.782-0.464-0.971c-0.078,0.012-0.112-0.224-0.118-0.263
			c-0.052-0.353-0.1-0.664-0.329-0.871c-0.197-0.25-0.261-0.682-0.536-0.922c-0.54-0.678-1.22-1.217-1.753-1.858
			c-0.192-0.211-0.506-0.444-0.815-0.64c-0.493-0.367-0.837-0.795-1.342-1.242C148.469,100.868,148.145,101.396,147.862,101.917z
			 M149.621,89.743l-0.078,0.011c0,0-0.077,0.012-0.072,0.051l0.155-0.022L149.621,89.743z M150.396,89.309l0.1-0.136l-0.155,0.023
			c0,0,0.006,0.039-0.072,0.049C150.346,89.235,150.396,89.309,150.396,89.309z M150.529,89.129
			c0.158-0.022,0.358-0.013,0.362-0.253C150.774,88.893,150.567,88.843,150.529,89.129z M151.332,88.61
			c-0.076,0.012-0.356,0.012-0.439,0.266c0.028-0.086,0.185-0.108,0.263-0.12C151.272,88.739,151.349,88.727,151.332,88.61z
			 M151.668,88.442l-0.233,0.034c-0.039,0.007-0.028,0.083-0.103,0.136c0.079-0.013,0.118-0.019,0.229-0.076
			C151.6,88.53,151.6,88.53,151.668,88.442z M152.388,88.176l-0.129-0.062l-0.156,0.022c0.051,0.073,0.051,0.073,0.062,0.149
			C152.23,88.198,152.27,88.192,152.388,88.176z M153.075,87.952c0,0,0.038-0.006,0.021-0.123l0.118-0.019
			c-0.007-0.038-0.124-0.021-0.124-0.021c-0.078,0.012-0.2-0.01-0.274,0.041c-0.038,0.006-0.15,0.061-0.188,0.066
			c0.085,0.028,0.175,0.096,0.213,0.09L153.075,87.952z M153.481,87.733l0.006,0.039l0.04-0.007L153.481,87.733z M153.666,112.774
			l-0.09-0.068l0.013,0.08L153.666,112.774z M155.553,101.461c-0.006-0.04-0.053-0.073-0.053-0.073
			C155.508,101.427,155.508,101.427,155.553,101.461z M155.675,101.481c0,0,0.058,0.112,0.062,0.151
			c0.071-0.05,0.054-0.168,0.054-0.168L155.675,101.481z M155.832,101.458c0.033-0.043,0.115-0.018,0.062-0.129
			C155.814,101.342,155.826,101.421,155.832,101.458z M157.377,97.312c-0.683,1.061-0.934,2.336-1.369,3.442l0.027,0.194
			c0.039-0.006,0.129,0.062,0.117-0.018c0.145-0.38,0.366-0.773,0.459-1.227c0.188-0.348,0.507-0.637,0.514-1.116
			c-0.029-0.476,0.457-0.708,0.505-1.194c-0.007-0.039,0.062-0.129,0.154-0.303c0.096-0.173,0.071-0.331-0.036-0.516
			c-0.065,0.092-0.178,0.147-0.212,0.192C157.443,96.942,157.392,97.149,157.377,97.312z M157.919,95.833
			c-0.051,0.207-0.217,0.431-0.139,0.699c0.22-0.152,0.308-0.365,0.261-0.678C158.041,95.854,158.035,95.815,157.919,95.833z
			 M158.02,98.417l-0.039,0.005c0.005,0.039,0.005,0.039,0.044,0.034L158.02,98.417z M158.176,94.874l-0.016,0.164l0.038-0.006
			L158.176,94.874z M159.072,92.823l0.077-0.013l-0.012-0.077L159.072,92.823z M159.207,91.844
			c-0.018-0.118-0.018-0.118,0.012-0.201C159.178,91.649,159.021,91.672,159.207,91.844z M159.219,91.643
			c0.031-0.046,0.155-0.022,0.06-0.129C159.289,91.592,159.25,91.597,159.219,91.643z"/>
		<path fill="#E2001A" d="M164.953,107.467c-0.269,0.08-0.361,0.253-0.311,0.604c0.146-0.101,0.375-0.174,0.52-0.276
			c0.052,0.073,0.146,0.179,0.158,0.257c0.019,0.118,0.035,0.234-0.095,0.174c-0.044-0.033-0.156,0.023-0.274,0.041
			c-0.127,0.219-0.21,0.471-0.377,0.695c0.034,0.234-0.047,0.486-0.146,0.622c-0.335,0.448-0.311,0.885-0.571,1.282
			c-0.094,0.174-0.059,0.41-0.193,0.59c-0.068,0.609-0.262,1.197-0.505,1.714c-0.104,0.096-0.224,0.112-0.353,0.052
			c-0.494-0.367-0.485-0.848-0.442-1.374c0.104-0.375,0.124-0.778,0.195-1.108c0.38-1.215,0.793-2.477,1.459-3.653l0.187-0.628
			c0.116-0.297,0.232-0.594,0.46-0.947c0.167-0.225,0.312-0.605,0.479-0.83c0.358-0.812,0.769-1.553,1.213-2.339
			c0.295-0.442,0.499-0.953,0.714-1.386c0.601-1.086,1.243-2.143,1.899-3.118c0.433-0.584,0.775-1.233,1.009-1.829
			c0.31-0.605,0.677-1.1,1.044-1.594c0.166-0.223,0.36-0.533,0.516-0.836c0.101-0.135,0.194-0.309,0.367-0.493
			c0.288-0.481,0.672-0.859,0.864-1.448c0.062-0.128,0.279-0.279,0.366-0.492c0.162-0.264,0.399-0.539,0.629-0.893
			c0.021-0.123,0.121-0.26,0.222-0.393l2.043-2.941c0.744-1.189,1.533-2.346,2.283-3.496c0.1-0.135,0.251-0.198,0.344-0.371
			c0.034-0.044,0.022-0.124,0.018-0.162c-0.012-0.078-0.053-0.072-0.128-0.061c-0.755,0.312-1.629,0.359-2.465,0.644
			c-0.49,0.192-0.942,0.38-1.367,0.483c-0.186,0.107-0.303,0.125-0.421,0.142c-0.508,0.075-0.933,0.179-1.34,0.399
			c-0.296,0.162-0.642,0.255-1.101,0.4c-0.274,0.041-0.581,0.127-0.889,0.213c-0.668,0.338-1.49,0.459-2.188,0.881
			c-0.151,0.063-0.414,0.183-0.57,0.205c-0.233,0.035-0.323-0.031-0.508,0.076c-0.492,0.191-0.91,0.334-1.419,0.408
			c-0.548,0.081-0.944,0.38-1.379,0.684c-0.436,0.306-0.843,0.244-1.181-0.146c-0.062-0.149-0.152-0.217-0.17-0.334
			c-0.334-0.911-0.285-1.118,0.62-1.492l0.272-0.041c0.312-0.046,0.717-0.024,1.012-0.188c0.367-0.215,0.643-0.254,0.987-0.346
			c0.146-0.103,0.341-0.132,0.419-0.144c0.353-0.052,0.647-0.214,0.845-0.244c0.933-0.179,1.753-0.58,2.638-0.829
			c1.065-0.357,2.069-0.586,3.06-0.933c0.642-0.255,1.218-0.421,1.844-0.515c0.425-0.102,0.815-0.16,1.229-0.34
			c0.502-0.113,0.898-0.134,1.312-0.314c0.174-0.186,0.504-0.114,0.66-0.137c0.548-0.082,1.057-0.156,1.503-0.382
			c0.413-0.181,0.961-0.262,1.402-0.248c0.162,0.016,0.185,0.172,0.131,0.339c-0.027,0.086-0.021,0.125,0.018,0.119
			c0.51-0.076,0.616,0.389,0.942,0.699c0.078-0.012,0.006,0.039,0.019,0.117c-0.15,0.062-0.189,0.068-0.258,0.158
			c-0.157,0.543-0.477,0.83-0.911,1.134c-0.155,0.022-0.256,0.159-0.317,0.288c-0.572,0.724-1.155,1.371-1.779,2.021
			c-0.039,0.006-0.104,0.096-0.128,0.219c-0.063,0.369-0.427,0.623-0.615,0.971c-0.34,0.41-0.59,0.886-1.039,1.354l-0.878,1.368
			c-0.065,0.089-0.178,0.146-0.271,0.32c-0.111,0.058-0.217,0.153-0.2,0.271c0.053,0.353-0.227,0.633-0.42,0.94
			c-0.367,0.495-0.745,0.91-0.983,1.465c-0.094,0.175-0.221,0.394-0.365,0.494c-0.297,0.164-0.341,0.411-0.423,0.662
			c-0.005,0.241-0.109,0.337-0.25,0.478c-0.395,0.297-0.758,0.551-0.851,1.004c0.012,0.08,0.021,0.156-0.017,0.162
			c-0.351,0.334-0.605,0.771-0.949,1.141c-0.135,0.18-0.279,0.283-0.415,0.182l-0.059-0.391c-0.145,0.101-0.256,0.158-0.395,0.298
			c-0.105,0.096-0.105,0.096,0.157,0.257l0.028,0.193c0.156-0.022,0.286,0.039,0.481,0.011c0.107,0.185-0.105,0.375-0.244,0.517
			c-0.111,0.055-0.251,0.197-0.345,0.37c-0.122,0.257-0.295,0.442-0.568,0.481c0.058,0.113,0.142,0.141,0.158,0.258
			c0.005,0.039,0.028,0.195-0.101,0.135c-0.246-0.044-0.289,0.203-0.283,0.242c0.123,0.301-0.017,0.441-0.149,0.622
			c-0.137,0.419-0.447,0.746-0.604,1.049c-0.056,0.167-0.157,0.022-0.273,0.04c-0.118,0.018-0.229,0.073-0.127,0.219
			c0.174,0.373,0.001,0.561-0.289,0.762l-0.021,0.123c-0.234,0.035-0.454-0.092-0.245,0.236c0.012,0.079,0.034,0.235-0.043,0.247
			c-0.173,0.185-0.407,0.22-0.62,0.13c-0.298-0.115-0.298-0.115-0.419,0.143c0.006,0.039-0.106,0.096-0.133,0.181l0.155-0.022
			c0.062,0.149,0.146,0.178,0.202,0.289c0.058,0.111,0.215,0.367,0.193,0.491c-0.056,0.168-0.185,0.386-0.317,0.565l-0.194,0.029
			c-0.123-0.022-0.234,0.035-0.224,0.113c0.146,0.178,0.286,0.317-0.064,0.369c-0.195,0.029-0.407,0.221-0.372,0.455
			c0.04,0.273-0.077,0.291-0.155,0.303c-0.117,0.018-0.094,0.174-0.088,0.213c-0.157,0.023-0.302,0.125-0.337-0.111
			c0.133-0.178,0.032-0.323,0.087-0.491c0.263-0.12,0.263-0.12,0.256-0.438l-0.039,0.006c-0.241-0.004-0.382-0.144-0.276-0.24
			l1.442-2.69l0.233-0.315c0.071-0.051,0.312-0.045,0.418-0.142c-0.013-0.077-0.118-0.262-0.137-0.38
			c0.096-0.173,0.217-0.432,0.444-0.506c0.019,0.117-0.037,0.286-0.02,0.404l0.011,0.076l0.156-0.022
			c0.066-0.088,0.064-0.369,0.362-0.253c0.115-0.297,0.443-0.506,0.427-0.902c-0.234,0.035-0.471,0.069-0.528,0.479
			c-0.062,0.129-0.213,0.191-0.408,0.22c0.032-0.325,0.193-0.587,0.427-0.901c0.36-0.533,0.64-1.094,0.999-1.627
			c0.322-0.527,0.556-1.121,0.92-1.615l0.695-0.982c0.449-0.746,0.859-1.486,1.394-2.205c0.268-0.359,0.538-0.68,0.755-1.111
			c0.322-0.527,0.609-1.009,0.978-1.504l0.2-0.27c0.237-0.555,0.572-1.004,0.943-1.458c0.111-0.056,0.205-0.229,0.228-0.353
			c0.115-0.299,0.249-0.478,0.494-0.714c0.039-0.006,0.105-0.096,0.129-0.218c0.082-0.253,0.32-0.527,0.448-0.747
			c0.237-0.274,0.35-0.61,0.516-0.835c0.179-0.146,0.189-0.348,0.322-0.527c-0.078,0.012-0.195,0.029-0.189,0.068
			c-0.444,0.506-0.812,0.999-1.179,1.493c0.035,0.235-0.278,0.282-0.367,0.493l-0.271,0.601c-0.386,0.377-0.635,0.853-1.006,1.31
			c-0.272,0.319-0.482,0.789-0.866,1.166c0.058,0.393-0.199,0.549-0.36,0.812c-0.127,0.219-0.379,0.416-0.507,0.635
			c-0.216,0.152-0.316,0.287-0.366,0.493c-0.138,0.422-0.428,0.625-0.654,0.978c-0.145,0.381-0.338,0.689-0.57,1.004
			c-0.562,0.803-1.128,1.564-1.666,2.525c-0.122,0.256-0.4,0.538-0.511,0.875c-0.171,0.465-0.483,0.79-0.703,1.184
			c-0.342,0.41-0.592,0.887-0.771,1.273c-0.022,0.122-0.116,0.297-0.223,0.393c-0.367,0.494-0.655,0.976-0.805,1.598
			c-0.166,0.225-0.282,0.521-0.521,0.798c-0.533,0.718-0.759,1.63-1.252,2.343c-0.282,0.803-0.905,1.454-1.051,2.354
			c-0.512,0.876-0.804,1.878-1.101,2.842c-0.154,0.302-0.176,0.705-0.234,1.112c0.146-0.102,0.257-0.156,0.283-0.242
			c-0.022-0.156-0.047-0.312,0.183-0.387c-0.019-0.116-0.001-0.279,0.109-0.334c-0.033-0.234-0.062-0.432,0.063-0.649
			c0.101-0.136,0.162-0.265,0.211-0.472c0.337-0.969,0.875-1.928,1.34-2.836c0.021-0.123,0.213-0.191,0.273-0.321
			c-0.023-0.156-0.041-0.272,0.108-0.335l0.048,0.312l0.392-0.059c0.021,0.156,0.052,0.354-0.146,0.382
			c-0.042,0.247-0.171,0.466-0.457,0.429l-0.021-0.158c-0.14,0.141-0.14,0.141,0.021,0.158c-0.025,0.084-0.021,0.121-0.015,0.162
			C165.075,107.208,164.957,107.226,164.953,107.467c0.044,0.032,0.137,0.101,0.143,0.14
			C165.01,107.579,164.959,107.506,164.953,107.467z M162.799,111.543c-0.04,0.006-0.156,0.022-0.028,0.084
			C162.763,111.589,162.763,111.589,162.799,111.543z M163.211,111.364c0,0-0.038,0.006-0.051-0.074
			C163.173,111.368,163.188,111.485,163.211,111.364z M163.36,111.021l-0.052-0.072l0.012,0.078L163.36,111.021z M163.498,110.599
			l-0.084-0.025C163.421,110.61,163.427,110.651,163.498,110.599z M163.652,110.298c-0.017-0.117-0.017-0.117,0.017-0.163
			C163.631,110.141,163.472,110.163,163.652,110.298z M163.958,109.653c0,0-0.006-0.039,0.033-0.045
			C163.952,109.614,163.797,109.636,163.958,109.653z M164.072,109.075c-0.102,0.136-0.116,0.297-0.093,0.453
			c0.229-0.072,0.354-0.291,0.4-0.537C164.302,109.003,164.184,109.021,164.072,109.075z M164.574,108.962
			c-0.089-0.066-0.134-0.102-0.146-0.178c-0.013-0.08-0.022-0.157-0.106-0.186c-0.062,0.128-0.062,0.128,0.028,0.196
			c0.012,0.077,0.018,0.116,0.106,0.185L164.574,108.962z M164.322,108.6c0.188-0.069,0.171-0.187,0.136-0.421
			C164.281,108.325,164.384,108.471,164.322,108.6z M165.156,107.757l-0.022-0.156c0.039-0.005,0.045,0.033,0.124,0.021
			C165.195,107.751,165.156,107.757,165.156,107.757z M165.243,107.264c0.006,0.039,0.085,0.026,0.163,0.017
			C165.265,107.42,165.256,107.342,165.243,107.264z M165.665,106.602l-0.247-0.323l-0.077,0.012
			c-0.057,0.168-0.038,0.285-0.026,0.363L165.665,106.602z M165.371,105.966c-0.046-0.312,0.133-0.459,0.306-0.646
			c0.104,0.426,0.186,0.453,0.517,0.524l0.235-0.035c-0.073,0.052-0.062,0.13-0.102,0.136c-0.139,0.139-0.373,0.174-0.522,0.237
			C165.728,105.952,165.728,105.952,165.371,105.966z M165.677,105.319c0.027-0.082,0.1-0.133,0.14-0.139l0.017,0.116
			L165.677,105.319z M165.809,105.14l-0.012-0.076c-0.007-0.039,0.049-0.209,0.036-0.287c0.151-0.062,0.246,0.043,0.349,0.189
			C166.071,105.022,165.967,105.116,165.809,105.14z M166.461,105.764l-0.027-0.194l0.128,0.061
			C166.566,105.668,166.449,105.685,166.461,105.764z M166.565,104.31c-0.038,0.006-0.105,0.096-0.088,0.213
			C166.552,104.472,166.59,104.466,166.565,104.31z M166.883,103.743c-0.263,0.119-0.353,0.33-0.316,0.565
			C166.828,104.19,166.923,104.017,166.883,103.743z M167.197,103.176l-0.078,0.011c-0.127,0.221-0.144,0.383-0.243,0.516
			c0.318-0.006,0.367-0.213,0.366-0.492L167.197,103.176z M167.201,102.937c0.041-0.006,0.023-0.123,0.019-0.162
			C167.184,102.819,167.145,102.823,167.201,102.937z M167.492,102.733l-0.022-0.156c0.006,0.039,0.085,0.027,0.091,0.065
			C167.559,102.643,167.48,102.655,167.492,102.733z M168.008,101.616c-0.111,0.058-0.146,0.103-0.128,0.22
			c0.018,0.116,0.062,0.149,0.112,0.223c0,0,0.066-0.089,0.062-0.128L168.008,101.616z M168.058,103.049
			c-0.072,0.052-0.072,0.052-0.066,0.091C167.824,103.083,167.98,103.06,168.058,103.049z M168.029,101.493
			c0,0,0.006,0.041-0.021,0.123C168.035,101.534,168.163,101.594,168.029,101.493z M168.047,102.69
			c0.056,0.112,0.14,0.141,0.062,0.151c0.012,0.078-0.021,0.123-0.061,0.129c-0.007-0.039-0.019-0.116,0.016-0.162L168.047,102.69z
			 M169.797,99.114c-0.078,0.012-0.124-0.021-0.207-0.049c-0.23,0.074-0.115,0.297-0.088,0.493
			C169.652,99.495,169.747,99.321,169.797,99.114z M169.868,99.063c0,0-0.046-0.033-0.084-0.027
			c-0.012-0.078-0.101-0.145-0.111-0.223c-0.029,0.084-0.019,0.161-0.007,0.24l0.118-0.018l0.013,0.076
			C169.834,99.108,169.868,99.063,169.868,99.063z M170.446,98.377l-0.27-0.198c-0.039,0.006-0.146,0.1-0.186,0.105
			c-0.117,0.019-0.095,0.175-0.095,0.175c0.124,0.022,0.175,0.095,0.254,0.083C170.228,98.53,170.297,98.44,170.446,98.377z
			 M170.91,97.19c-0.312,0.045-0.434,0.305-0.522,0.518c-0.039,0.005,0.018,0.117,0.096,0.105c0.058,0.11,0.096,0.105,0.096,0.105
			C170.779,97.649,170.866,97.437,170.91,97.19z M171.094,96.804c0.026-0.085,0.026-0.085,0.021-0.124
			C171.249,96.78,171.133,96.798,171.094,96.804z M171.659,96.04c-0.116,0.018-0.233,0.035-0.335,0.168
			C171.481,96.187,171.682,96.196,171.659,96.04z M171.827,95.815c-0.117,0.018-0.149,0.062-0.134,0.178
			C171.693,95.993,171.717,95.872,171.827,95.815z M172.089,95.415c-0.274,0.041-0.264,0.121-0.223,0.395
			C171.971,95.714,172.071,95.577,172.089,95.415z M172.275,95.069c-0.006-0.039-0.095-0.105-0.174-0.094
			c0,0-0.077,0.012-0.105,0.096c-0.104,0.096,0.069,0.188,0.093,0.346C172.31,95.305,172.293,95.187,172.275,95.069z
			 M172.601,94.302c-0.084-0.027-0.156,0.023-0.234,0.035c0.09,0.064,0.09,0.064,0.103,0.146c0.012,0.076,0.018,0.115,0.096,0.104
			c0.078-0.013,0.111-0.056,0.1-0.134C172.652,94.372,172.64,94.296,172.601,94.302z M172.51,94.755l-0.019-0.117
			C172.492,94.638,172.374,94.655,172.51,94.755z M173.585,92.837l-0.077,0.012c-0.211,0.189-0.469,0.348-0.461,0.667l0.006,0.04
			c0.011,0.078,0.052,0.072,0.052,0.072c0.262-0.119,0.522-0.237,0.511-0.594C173.608,92.993,173.72,92.936,173.585,92.837z
			 M173.785,92.567c0.033-0.045,0.033-0.045,0.027-0.084C173.773,92.489,173.695,92.499,173.785,92.567z M174.269,92.055
			l-0.117,0.017c-0.236,0.035-0.257,0.16-0.262,0.399c0.194-0.028,0.297-0.163,0.396-0.298L174.269,92.055z M174.763,91.063
			l-0.396,0.299l0.005,0.037l0.039-0.004C174.663,91.478,174.685,91.354,174.763,91.063z M174.778,90.901
			c0.012,0.078-0.027,0.084-0.016,0.162C174.802,91.057,174.88,91.046,174.778,90.901z M175.285,90.547
			c-0.051-0.074-0.129-0.062-0.129-0.062c-0.039,0.006-0.039,0.006-0.026,0.084l0.045,0.033
			C175.252,90.592,175.246,90.552,175.285,90.547z M175.496,90.075c-0.012-0.078-0.09-0.066-0.174-0.096l0.023,0.156
			C175.425,90.124,175.496,90.075,175.496,90.075z M177.084,82.163c0,0-0.006-0.037-0.045-0.031l-0.352,0.052
			c-0.039,0.007-0.15,0.062-0.15,0.062c0.117-0.018,0.168,0.057,0.168,0.057l0.353-0.053L177.084,82.163z M178.539,84.428
			c-0.006-0.039-0.084-0.028-0.084-0.028c-0.29,0.203-0.502,0.395-0.443,0.786c0.162-0.264,0.334-0.45,0.545-0.641L178.539,84.428z
			 M178.151,81.808l-0.077,0.012l0.088,0.065L178.151,81.808z M178.688,84.086l-0.079,0.012l0.085,0.026L178.688,84.086z"/>
		<path fill="#E2001A" d="M199.849,82.276c-0.525,0.238-0.255,0.438-0.81,0.479c-0.696,0.423-1.441,0.252-2.104,0.631
			c-0.151,0.062-0.347,0.091-0.543,0.12c-0.632,0.054-1.161,0.252-1.688,0.49c-0.329,0.207-0.603,0.248-0.966,0.222
			c-0.207-0.048-0.247-0.042-0.352,0.052c-0.269,0.36-0.507,0.637-0.824,0.922c-0.295,0.444-0.66,0.938-1.001,1.348
			c-0.389,0.617-0.743,1.189-1.171,1.814c0.013,0.356-0.354,0.57-0.588,0.885c-0.461,0.947-0.92,1.896-1.362,2.959
			c-0.175,0.707-0.396,1.377-0.689,2.103l-0.031,0.045c0.021,0.677-0.201,1.349-0.144,2.021c0.079,1.066,0.497,2.004,0.916,2.942
			c0.237,0.524,0.561,1.077,0.758,1.606c0.34,0.67,0.639,1.346,0.865,2.07c0.199,0.531,0.084,1.106-0.009,1.562
			c-0.121,0.536-0.241,1.075-0.614,1.53c-0.139,0.142-0.187,0.347-0.326,0.488c-0.021,0.123-0.045,0.245-0.148,0.342
			c-0.384,0.377-0.634,0.853-1.029,1.151l-0.184,0.106l-0.412,0.461c-0.133,0.18-0.312,0.046-0.485,0.232
			c-0.291,0.201-0.574,0.443-0.948,0.618c-0.178,0.147-0.396,0.3-0.67,0.339c-0.155,0.023-0.262,0.119-0.289,0.203
			c-0.1,0.135-0.29,0.202-0.445,0.227l-1.107,0.363l-1.994,0.295c-1.096,0.162-2.047-0.058-3.072-0.504
			c-0.376-0.105-0.675-0.502-1.007-0.852c-0.337-0.391-0.674-0.78-0.873-1.311c-0.091-0.348-0.312-0.754-0.258-1.201
			c-0.012-0.078,0.028-0.084,0.022-0.123c0.038-0.006,0.044,0.033,0.044,0.033c0.217,0.926,0.863,1.512,1.442,2.185
			c0.084,0.028,0.169,0.058,0.264,0.162c0.769,0.325,1.535,0.372,2.407,0.325c1.022-0.113,1.123-0.248,2.682-0.799
			c0.229-0.072,0.406-0.22,0.68-0.26c0.118-0.018,0.236-0.035,0.264-0.117c0.278-0.283,0.658-0.418,1.031-0.594
			c0.993-0.588,1.917-1.363,2.578-2.3c0.368-0.495,0.7-0.942,0.944-1.458c0.116-0.297,0.108-0.617,0.186-0.908
			c-0.127-0.859-0.371-1.703-0.688-2.497c-0.356-0.786-0.747-1.528-1.058-2.282c-0.183-0.414-0.362-0.828-0.583-1.233
			c-0.052-0.072-0.068-0.19-0.079-0.269c-0.129-0.861-0.294-1.716-0.107-2.623c0.18-0.945,0.315-1.926,0.67-2.776
			c0.198-0.55,0.419-0.942,0.591-1.408c0.176-0.425,0.32-0.808,0.508-1.153c0.161-0.264,0.362-0.533,0.519-0.836
			c0.441-1.064,1.174-2.053,1.791-3.023c0.095-0.174,0.339-0.41,0.467-0.629c0.15-0.062,0.296-0.164,0.356-0.293
			c0.07-0.33,0.36-0.533,0.565-0.764c0.307-0.365,0.646-0.775,0.969-1.021c0.484-0.512,1.064-0.918,1.813-0.989
			c0.358-0.013,0.688,0.058,0.945,0.181c0.236,0.244,0.447,0.053,0.648,0.063c0.212-0.192,0.543-0.12,0.851-0.206
			c0.352-0.053,0.547-0.081,0.888-0.212c0.335-0.168,0.765-0.231,1.195-0.295c0.509-0.074,1.057-0.155,1.504-0.383L199.849,82.276z
			 M183.833,109.153l-0.117,0.018l0.124,0.021L183.833,109.153z M184.826,108.565c-0.033,0.047-0.072,0.053-0.189,0.069
			l-0.101,0.134c0.116-0.017,0.162,0.016,0.239,0.006C184.769,108.735,184.793,108.612,184.826,108.565z M185.094,108.487
			c-0.013-0.078-0.052-0.072-0.168-0.056c-0.028,0.084-0.028,0.084-0.101,0.134l0.234-0.035L185.094,108.487z M186.108,107.776
			l-0.04,0.006l0.046,0.033L186.108,107.776z M187.459,107.177c-0.038,0.006-0.038,0.006,0.013,0.078L187.459,107.177z
			 M187.8,106.768c-0.078,0.013-0.113,0.058-0.103,0.136C187.725,106.819,187.8,106.768,187.8,106.768z M188.537,105.819
			c0.028-0.084,0.018-0.162,0-0.279l-0.719,0.824c-0.028,0.086-0.011,0.201,0.006,0.318
			C188.064,106.409,188.344,106.127,188.537,105.819z M188.697,105.274c-0.14,0.143-0.178,0.147-0.16,0.266
			C188.693,105.516,188.721,105.431,188.697,105.274z M188.697,105.274l0.078-0.011L188.697,105.274z"/>
	</g>
	<g>
		<path fill="#E2001A" d="M70.942,136.475c-0.186,0.06-0.16-0.146-0.195-0.172C71.073,136.274,70.946,136.526,70.942,136.475"/>
		<polygon fill="#E2001A" points="74.157,136.208 74.085,136.146 74.588,136.231 		"/>
		<path fill="#E2001A" d="M77.073,135.558c-0.205,0.383-1.067,0.184-1.562,0.413l-0.07,0.093l-0.291-0.207
			C75.79,135.757,76.647,135.745,77.073,135.558"/>
		<path fill="#E2001A" d="M78.475,134.518c-0.07,0.146,0.358,0.033-0.355,0.12c0.033-0.021,0.041-0.031,0.062-0.047
			C78.243,134.579,78.329,134.56,78.475,134.518"/>
		<path fill="#E2001A" d="M78.179,134.592C77.87,134.651,78.358,134.442,78.179,134.592"/>
		<path fill="#E2001A" d="M79.614,134.348l-0.43-0.021c0.067-0.094,0.426-0.19,0.279-0.215
			C79.893,134.081,79.823,134.174,79.614,134.348"/>
		<path fill="#E2001A" d="M80.051,134.495h-0.222C79.86,134.456,79.913,134.434,80.051,134.495"/>
		<path fill="#E2001A" d="M79.362,134.495h0.467c-0.047,0.065-0.03,0.17-0.211,0.01C79.676,134.592,79.567,134.521,79.362,134.495"
			/>
		<path fill="#E2001A" d="M79.122,134.6c-0.213,0.12-0.496,0.229-0.063,0.25C78.274,134.979,78.338,134.728,79.122,134.6"/>
		<path fill="#E2001A" d="M77.297,135.856l-0.281,0.16l-0.287-0.049C76.87,135.991,77.292,135.751,77.297,135.856"/>
		<path fill="#E2001A" d="M82.098,133.62c0.041,0.063-0.097,0.213-0.107,0.308l-0.315-0.013
			C81.819,133.835,82.1,133.728,82.098,133.62"/>
		<path fill="#E2001A" d="M81.991,133.928l0.474,0.019C82.067,134.048,81.983,134.009,81.991,133.928"/>
		<polygon fill="#E2001A" points="80.2,134.837 79.411,134.754 80.344,134.809 		"/>
		<polygon fill="#E2001A" points="83.807,133.241 83.518,133.138 84.022,133.28 		"/>
		<path fill="#E2001A" d="M84.948,133.024c-0.217-0.092,0.209-0.277-0.008-0.316c0.312-0.043,0.602,0.014,0.859,0.062
			C85.536,132.768,85.272,132.841,84.948,133.024"/>
		<path fill="#E2001A" d="M86.231,132.831c-0.135-0.004-0.275-0.032-0.432-0.061C85.94,132.772,86.081,132.786,86.231,132.831"/>
		<path fill="#E2001A" d="M83.22,133.745c0.024-0.049,0.067-0.17,0.311-0.271l-0.135,0.229
			C83.344,133.718,83.282,133.733,83.22,133.745"/>
		<path fill="#E2001A" d="M83.391,133.713l0.004-0.009c0.188-0.045,0.32-0.078,0.379-0.092
			C83.725,133.624,83.61,133.655,83.391,133.713"/>
		<path fill="#E2001A" d="M83.176,133.757l0.045-0.01C83.206,133.769,83.198,133.778,83.176,133.757"/>
		<path fill="#E2001A" d="M81.335,134.403c0.285,0.049,0.857,0.041,0.363,0.323C81.481,134.637,81.764,134.477,81.335,134.403"/>
		<path fill="#E2001A" d="M83.01,134.045l-0.466,0.146c-0.002-0.053,0.068-0.146-0.073-0.17L83.01,134.045z"/>
		<polygon fill="#E2001A" points="83.256,134.055 83.011,134.045 83.182,133.989 		"/>
		<path fill="#E2001A" d="M85.454,133.188c0.226,0.038,0.451-0.003,0.707-0.045c-0.264,0.098-0.541,0.178-0.807,0.235
			C85.304,133.325,85.161,133.243,85.454,133.188"/>
		<path fill="#E2001A" d="M84.456,133.46l0.047,0.001C84.477,133.483,84.458,133.493,84.456,133.46"/>
		<polygon fill="#E2001A" points="88.661,132.602 88.629,132.646 88.612,132.614 		"/>
		<path fill="#E2001A" d="M85.315,133.425c-0.197,0.081-0.328,0.061-0.457,0.025c0.156-0.014,0.322-0.035,0.496-0.071
			C85.376,133.403,85.385,133.42,85.315,133.425"/>
		<path fill="#E2001A" d="M86.948,132.771c-0.1,0.062-0.211,0.124-0.332,0.182C86.708,132.868,86.897,132.729,86.948,132.771"/>
		<path fill="#E2001A" d="M84.561,133.393l-0.033-0.002C84.585,133.335,84.581,133.356,84.561,133.393"/>
		<path fill="#E2001A" d="M84.561,133.393c0.109,0.005,0.203,0.034,0.297,0.06c-0.129,0.012-0.248,0.017-0.355,0.01
			C84.526,133.442,84.547,133.415,84.561,133.393"/>
		<path fill="#E2001A" d="M89.684,133.672c-0.074-0.17-0.648-0.22-1.07,0.073c-0.483-0.035-0.313-0.688,0.015-1.102
			c0.03,0.075,0.047,0.146,0.538,0.15c-0.143,0.133-0.991,0.453-0.562,0.529c0.643-0.043,0.496-0.174,0.779-0.334
			c-0.209,0.277,0.86,0.151,0.797,0.508l-0.57,0.004C89.61,133.555,89.825,133.593,89.684,133.672"/>
		<path fill="#E2001A" d="M87.737,132.858l-0.199,0.02c0.216-0.079,0.355-0.184,0.617-0.387c0.34,0.018,0.422,0.068,0.457,0.123
			l-0.947,0.231L87.737,132.858z"/>
		<path fill="#E2001A" d="M86.669,133.065c0.193,0.159,0.677,0.143,0.438,0.414c-0.57,0.108-0.434-0.076-0.791-0.088
			c0.928-0.148-0.285-0.051,0.352-0.304c-0.186,0.006-0.352,0.03-0.506,0.056c0.16-0.059,0.312-0.121,0.455-0.189l-0.018,0.016
			l-0.006,0.001l0.002,0.002c-0.033,0.033-0.045,0.052-0.002,0.026h0.02C86.624,133.024,86.647,133.044,86.669,133.065
			c0.257-0.1,0.031-0.062-0.057-0.066c-0.006-0.008-0.014-0.016-0.018-0.026l0.004-0.003l0.938-0.092
			C87.35,132.946,87.106,132.993,86.669,133.065"/>
		<path fill="#E2001A" d="M82.28,135.034c0.023-0.022,0.021-0.037,0.021-0.051C82.364,134.993,82.389,135.005,82.28,135.034"/>
		<path fill="#E2001A" d="M82.631,134.833c-0.072-0.012-0.146-0.076-0.355-0.008c-0.176,0.1,0.021,0.092,0.023,0.156
			c-0.142-0.021-0.486-0.035-0.099-0.222l0.07,0.013c0.354-0.15,0.775-0.492,0.705-0.507
			C82.907,134.465,82.84,134.608,82.631,134.833"/>
		<path fill="#E2001A" d="M84.686,133.991l0.785-0.068l-0.354,0.252l-0.002-0.105C84.69,134.202,84.76,134.059,84.686,133.991"/>
		<polygon fill="#E2001A" points="88.727,132.487 88.581,132.303 89.085,132.497 		"/>
		<polygon fill="#E2001A" points="89.725,132.296 89.651,132.126 89.934,132.176 		"/>
		<path fill="#E2001A" d="M146.388,123.616l0.235,0.014C146.513,123.632,146.44,123.626,146.388,123.616"/>
		<path fill="#E2001A" d="M144.753,123.897l-0.055-0.082C144.782,123.852,144.819,123.882,144.753,123.897"/>
		<path fill="#E2001A" d="M114.159,127.233c0.295-0.234,0.611-0.562,0.611-0.354l-0.062,0.216
			C114.471,127.103,114.301,127.161,114.159,127.233"/>
		<path fill="#E2001A" d="M131.165,125.198l-0.086,0.078c-0.092-0.054-0.176-0.103-0.256-0.146
			C130.929,125.151,131.044,125.175,131.165,125.198"/>
		<path fill="#E2001A" d="M131.547,125.969l0.409-0.207C131.866,125.823,131.735,125.892,131.547,125.969"/>
		<path fill="#E2001A" d="M155.372,122.422l0.293,0.159C155.253,122.644,155.419,122.516,155.372,122.422"/>
		<path fill="#E2001A" d="M99.919,130.206c0.269-0.137,0.484-0.215,0.681-0.268C100.282,130.124,100.042,130.35,99.919,130.206"/>
		<path fill="#E2001A" d="M145.399,121.631c0.145,0.013,0.211,0.043,0.215,0.088C145.465,121.708,145.378,121.684,145.399,121.631"
			/>
		<path fill="#E2001A" d="M101.415,129.771c-0.051,0.026-0.092,0.051-0.141,0.076c-0.213,0.012-0.426,0.027-0.676,0.094
			C100.833,129.804,101.11,129.692,101.415,129.771"/>
		<path fill="#E2001A" d="M187.952,118.706c0.023-0.01,0.054-0.016,0.074-0.027C188.034,118.706,188.001,118.708,187.952,118.706"/>
		<path fill="#E2001A" d="M197.479,116.429c-0.094-0.014-0.25-0.016-0.396-0.018C197.155,116.397,197.274,116.399,197.479,116.429"
			/>
		<path fill="#E2001A" d="M93.702,131.347C93.489,131.379,93.665,131.331,93.702,131.347"/>
		<path fill="#E2001A" d="M92.844,132.34c0.051,0.013,0.09,0.032,0.104,0.077C92.922,132.372,92.885,132.35,92.844,132.34"/>
		<path fill="#E2001A" d="M103.768,130.545l0.018-0.005C103.731,130.592,103.741,130.581,103.768,130.545"/>
		<path fill="#E2001A" d="M93.405,131.504c0.072-0.041,0.16-0.081,0.256-0.116C93.622,131.411,93.544,131.448,93.405,131.504"/>
		<path fill="#E2001A" d="M93.427,131.403c-0.072,0.021-0.127,0.041-0.181,0.059C93.215,131.435,93.231,131.407,93.427,131.403"/>
		<path fill="#E2001A" d="M93.999,131.295c-0.121,0.022-0.231,0.056-0.338,0.092c0.039-0.021,0.056-0.036,0.041-0.04
			C93.764,131.335,93.852,131.321,93.999,131.295"/>
		<path fill="#E2001A" d="M170.393,119.706c0.014-0.008,0.026-0.016,0.045-0.023C170.663,119.739,170.565,119.737,170.393,119.706"
			/>
		<polygon fill="#E2001A" points="120.059,128.196 120.034,128.19 120.065,128.177 		"/>
		<path fill="#E2001A" d="M120.847,128.194c-0.369-0.182-0.547-0.115-0.783-0.017l0.143-0.614L120.847,128.194z"/>
		<path fill="#E2001A" d="M150.317,123.03l-0.506,0.267c0.69,0.185,1.143,0.011,0.68,0.34c-0.174-0.604-2.088,0.276-2.262-0.327
			l-0.332,0.188c0.102-0.022,0.123,0.012,0.221-0.012c-0.637,0.407-0.582-0.363-1.451-0.131c-0.301,0.098-0.5,0.223-0.278,0.262
			l-0.711-0.041c-0.197,0.047-0.131,0.146,0.063,0.102l-1.055,0.122l0.012,0.017c-0.166-0.072-0.529-0.166-0.705-0.203
			c-0.252,0.133,0.146,0.045,0.09,0.133l-0.604-0.055c-0.209,0.198,0.297,0.274,0.693,0.188c-0.439,0.703-0.507-0.077-1.615,0.474
			l0.561-0.011c-0.293,0.406-0.742,0.35-1.322,0.677c0.128-0.142,1.146-0.762,0.488-0.81c-0.168,0.076-0.397,0.141-0.758,0.076
			c0.033,0.22-0.307,0.225-0.723,0.283l0.078,0.285c-0.462-0.005-0.451-0.158-0.738-0.244c-0.494,0.116-0.558,0.359-0.644,0.569
			c-0.789,0.187,0.49-0.457-0.467-0.347c-0.645,0.228-1.131,0.191-1.957,0.156c-0.447,0.183,0.113,0.164-0.039,0.275l-0.453-0.158
			c-0.1,0.022-0.055,0.088-0.03,0.12c-0.363-0.028-0.08-0.284-0.642-0.269c-0.205-0.293-1.039,0.664-1.778,0.421
			c-0.152,0.11,0.11,0.163,0.082,0.282c-0.974-0.074-0.826-0.026-1.646-0.209l-0.613,0.312c0.437-0.306-0.219-0.451-0.791-0.563
			c0.15-0.135,0.277-0.254,0.365-0.315l-0.879,0.003c-0.094,0.064,0.01,0.148,0.172,0.245c-0.061-0.017-0.119-0.029-0.168-0.041
			c-0.285,0.164-0.098,0.302,0.15,0.423c0.09-0.076,0.182-0.156,0.274-0.234c0.24,0.135,0.474,0.295,0.461,0.473
			c-0.062-0.023-0.174-0.032-0.293-0.026c0.062,0.037,0.105,0.074,0.086,0.106c-0.022,0.035-0.123-0.012-0.276-0.061l-0.133,0.359
			l-0.07-0.119l-1.076,0.408c-0.854-0.18-1.637-0.527-2.926-0.428c0.358,0.18,0.141,0.375,0.209,0.651
			c0.291-0.36,1.002-0.055,1.646-0.237c-0.336,0.096-0.235,0.215-0.141,0.246l-1.217-0.055c0.067,0.225-0.217,0.219-0.504,0.369
			c0.145-0.495-0.927-0.141-1.429-0.191c0,0.158,0.144,0.293,0.716,0.148c-0.574,0.459-0.927-0.379-1.5,0.025
			c0.143-0.021,0.215-0.06,0.284,0.008c-0.356-0.075-1.145,0.189-0.93,0.285l0.144-0.023c-0.929,0.234-2.855,0.559-3.068,0.201
			c0,0.052,0.211,0.439,0.283,0.506l-1.925-0.967c0.212,0.301-0.202,1.197,0.611,1.232c-0.215,0.09-0.479,0.198-0.973,0.174
			c0.143-0.078,0.287-0.551,0.072-0.541c-0.5,0.479-0.359,0.273-1.003,0.725c0.216-0.115-0.141-0.583-0.497-0.496
			c0.071,0.064,0.069,0.516,0.213,0.544l-0.998-0.333c0.241,0.049,0.123,0.424-0.05,0.605c0.074-0.117-0.774,0.16-1.022,0.156
			l0.357-0.19c-1,0.274-1.146-0.522-2.146-0.291c0.143,0.079,0.43,0.584-0.068,0.752c-0.286-0.214-1.286-1.04-2.219-1.062
			l-0.141,0.185l-0.717-0.031c0.504,0.306,1.862,0.886,2.577,1.075c-0.356,0.193-0.071,0.195-0.643,0.298
			c-0.172,0.181,0.354,0.147,0.521,0.123l-1.304,0.356c-0.004-0.314-1.071-0.1-1.071-0.361l1.497,0.023
			c-0.002-0.314-1.002-0.692-1.93-0.451c-0.213,0.17,0.287,0.506,0.289,0.609c-0.143-0.08-0.93-0.02-1,0.072l0.43,0.082
			c-0.498,0.219-0.932-0.23-1.5,0.188c-0.211,0.062-0.565,0.521-0.641,0.35c0.283-0.418,0.135-1.502-0.154-1.715
			c-0.069,0.039-1.067,0.562-1.28,0.781c-0.3,0.344,0.668,0.539,0.411,0.832c-0.028-0.08-0.247-0.142-0.336-0.158
			c-0.213,0.117,0.146,0.238-0.354,0.302c-0.146-0.291-0.998,0.229-0.285-0.214c-0.502,0.011-0.5,0.168-1.07,0.27
			c0.14-0.236-0.647-0.572-1.147-0.557c0.043,0.07-0.043,0.195-0.086,0.254c-0.984,0.234-1.484,0.484-2.406,0.682
			c-0.068,0.092-0.496,0.275-0.277,0.368c-0.145-0.026-0.287-0.104-0.573-0.053c-0.494,0.381,0.643-0.093,0.291,0.313
			c-0.074-0.171-0.787-0.092-1.216-0.117c0.066-0.303,0.925-0.25,1.353-0.224c-0.076-0.381-0.865-0.631-1.867-0.604
			c-0.785,0.066-0.279,0.315-0.424,0.289c-1.424,0.369-1.365-0.404-2.502,0.119c-0.424,0.342,0.08,0.486,0.012,0.684
			c0.646-0.039,0.926-0.354,1.351-0.434l-0.496,0.224c0.217,0.038,0.645,0.013,0.856-0.104c-0.352,0.301-2.422,0.551-3.488,0.985
			c-0.213-0.04-0.571-0.052-0.432-0.185l0.357-0.041c0.28-0.263-0.718-0.131-0.293-0.313c-0.5-0.038-1.072-0.138-1.711,0.114
			l-0.066,0.304c-0.004-0.083,0.398-0.258,0.602-0.214c-0.303-0.062-0.936,0.593-1.313,0.297l0.422-0.291
			c-0.502-0.037-1.148-0.203-1.717,0.012c0.209-0.33,0.143,0.002,0.492-0.408c-0.277,0.477,1.498-0.342,1.006,0.201
			c0.348-0.463,0.707-0.316,1.199-0.754c0.002,0.094-0.16,0.217,0.321,0.065c0.027,0.021,0.088,0.044,0.125,0.057
			c0.015-0.006,0.021-0.009,0.031-0.014l-0.023,0.017c0.023,0.01,0.025,0.012-0.01,0.006c-0.108,0.065-0.192,0.133-0.223,0.192
			c0.291,0.155,1.072-0.019,1.361,0.036c0.284-0.105-0.146-0.079-0.007-0.21l0.433,0.079c-0.004-0.213,0.707-0.5-0.008-0.475
			l0.618-0.14c0.343-0.19,0.834-0.34,1.162-0.319c0.283-0.105,0.787,0.067,0.5-0.037l1-0.08l-0.002-0.051
			c0.955-0.228,2.047-0.08,3.07-0.677c0.334-0.017,0.682-0.024,1.209-0.196l0.07-0.197c0.428-0.024,1.211-0.437,1.428-0.291
			c0.35-0.566,1.998-0.514,2.711-0.746l0.074,0.224c0.502-0.114,0.998-0.147,1.641-0.183l0.004,0.209
			c0.572,0.058,1.355-0.426,2.213-0.576c-0.073-0.064-0.285-0.001-0.43,0.076c0.928-0.663,2.215-0.104,3.072-0.622
			c0.244,0.026,0.405-0.032,0.557-0.116c-0.02,0.004-0.041,0.004-0.059,0.001c0.024-0.005,0.059-0.015,0.094-0.022
			c0.098-0.055,0.199-0.112,0.299-0.172c-0.086,0.069-0.17,0.129-0.248,0.164c0.18-0.033,0.453-0.062,0.729-0.062l0.067-0.24
			c0.021-0.002,0.039-0.003,0.062-0.005c0.244-0.131,0.229,0.062,0.123,0.252c0.139,0.01,0.271,0.03,0.375,0.062
			c0.141-0.391,0.717-0.016,0.93-0.445c0.215,0.146,1.357-0.121,1.572,0.234c0-0.051,0.074-0.091-0.07-0.064
			c0.285-0.102,0.572-0.202,0.857-0.146l0.069-0.301l0.718,0.247c0.356-0.245,0.5-0.374,0.071-0.513
			c1,0.146,0.783-0.023,1.644,0.146l-0.074-0.171c0.287-0.049,0.789,0.102,0.932-0.079c0.57-0.467,3.144-0.659,4.726-1.272
			c-0.22,0.586,0.717-0.379,0.858,0.02c0.07-0.143,0.285-0.255,0-0.314c0.859-0.031,1.222-0.43,1.861-0.192
			c0.072-0.144-0.213-0.149-0.141-0.239c0.071,0.014,0.284,0.059,0.358-0.031c0.07-0.09-0.143-0.082-0.285-0.111
			c0.859-0.139,1.017,0.23,1.146,0.581c0.401-0.251,0.621-0.269,0.979-0.089c0.129-0.146,0.357-0.316-0.182-0.262
			c0.295-0.072,1.793-0.511,1.875-0.227c0.08-0.092,0.414-0.1,0.498-0.078c0.668-0.135,0.725-0.171,1.387-0.26l-0.174,0.078
			c0.322,0.305,0.562-0.018,1.102-0.067l-0.022-0.034c1.174-0.465,0.547,0.029,1.699-0.469l-0.027,0.229
			c0.193,0.449,1.018-0.463,1.744-0.404l-0.229,0.168c0.408,0.094,0.955-0.823,1.328-0.948c0.074-0.056-0.145-0.043-0.266-0.052
			c0.955-0.452,0.18,0.262,0.938,0.195c0.111-0.176-0.243-0.357,0.255-0.476c0.229-0.173,1.543,0.252,2.182-0.153
			c-0.133,0.144-0.262,0.285,0.1,0.317c0.539-0.045,1.365-0.685,1.908-0.39c0.062-0.045,0.082-0.078,0.08-0.108
			c0.424,0.03,1.352-0.058,1.629,0.104c0.254-0.812,2.59-0.047,2.469-0.739l1.261-0.159l-0.043-0.064
			c0.795-0.168,1.104-0.045,1.411,0.08c0.179-0.076,0.031-0.119,0.013-0.154c1.149-0.315,1.272-0.305,2.307-0.105l0.068-0.24
			c0.285,0.09,1.643-0.611,2.832-0.521c-0.017-0.024-0.045-0.063-0.142-0.082c1.33,0.071,3.017-1.056,3.605-0.302l0.883,0.088
			c-1.098,0.215,0.213,0.335-0.223,0.533c0.44-0.012,1.09-0.401,0.549-0.371l-0.078,0.053c-0.254-0.402,1.354-0.339,1.287-0.627
			c2.176-0.293,4.281-0.756,6.324-1.027l-0.197,0.362l0.711-0.104c0.18-0.101,0.223-0.291-0.287-0.217
			c0.246-0.222,0.873,0.057,0.896,0.127c0.979-0.255-0.437-0.343-0.13-0.388l0.418-0.024l-0.09,0.051
			c0.353,0.097,0.398,0.236,1.009,0.147c0.381-0.108,0.176-0.228,0.327-0.256c-0.004-0.024,0.048-0.04,0.232-0.033l0.898-0.12
			l-0.332,0.301c0.413,0.09,0.846-0.1,0.463,0.242c0.561-0.522,3.342-0.506,3.703-0.687c0.575,0.138,1.127,0.069,1.811-0.003
			c-0.166,0.068-0.24,0.375,0.348,0.291c-0.271-0.598,1.058-0.354,1.5-0.833c-0.403,0.325,1.687-0.062,1.05,0.407
			c0.489-0.09,0.012-0.232,0.375-0.406c1.19,0.137,2.577-0.363,4.043-0.352c0.026,0.08-0.209,0.217,0.108,0.319l0.744-0.446
			c0.291,0.023,0.291,0.451,0.803,0.143c-0.071,0.07-0.178,0.181,0.019,0.195c1.412-0.291,2.877-0.264,4.342-0.256
			c1.467,0.002,2.932-0.07,4.387-0.412c-0.395,0.154-0.133,0.17,0.17,0.178c-0.196,0.037,0.004,0.201-0.035,0.311l1.218-0.299
			c0.219,0.305,1.305,0.025,1.426,0.316l-0.383-0.053c0.504,0.346-0.726,0.76-0.654,1.201c-0.566-0.395-1.498,0.571-2.43,0.008
			c-0.205,0.09,0.176,0.145,0.067,0.245c-0.237-0.188-0.522-0.237-1.053-0.142l0.062,0.045c-1.486-0.006-2.119,0.197-3.779,0.367
			l0.115-0.221c-0.357,0.039-0.431,0.109-0.597,0.168c-0.424-0.317,1.006-0.045,0.617-0.398c-0.459,0.439-2.527,0.095-2.824,0.629
			c-0.551,0.033,0.148-0.262-0.401-0.229l-0.14,0.146l-0.147-0.168c-0.359,0.049-0.533,0.229-0.539,0.346
			c0.086-0.019,0.25,0.019,0.344,0.022c-0.459,0.188-1.32,0.02-1.479,0.08l0.522-0.112c-1.51-0.06-3.33,0.25-4.803,0.101
			l0.104-0.111c-1.123-0.102-0.879,0.185-2.104,0.193l0.047,0.021c-0.252-0.082-0.582-0.108-0.914-0.069
			c0.318,0.096-0.559,0.279-0.143,0.379c-1.22-0.101-0.609-0.104-1.437-0.408l-0.168,0.188c-0.285-0.126-0.315-0.205-0.928-0.188
			c0.514,0.096-0.361,0.297,0.213,0.436c-1.234,0.5-1.928-0.186-2.457,0.418c-0.633-0.411,1.076-0.372,0.738-0.439
			c0.258-0.182-0.521-0.303-0.914-0.215c-0.408,0.051-0.629,0.67-1.652,0.766c0.103-0.014,0.111,0.021,0.213,0.011
			c-0.369,0.155-0.768-0.082-1.215,0.17c-0.295-0.253-0.606,0.089-0.725-0.265l0.946-0.028c-0.541-0.031-1.088-0.396-1.94-0.084
			c0.076,0.063,0.35,0.129,0.533,0.162c-0.244,0.137-0.5-0.013-0.754,0.129c0.118,0.354,1.147-0.058,1.75,0.149
			c-0.259,0.188-1.107-0.133-0.775,0.226c-0.469-0.449-1,0.185-1.736-0.114l0.072,0.211c-0.113-0.021-0.354-0.096-0.553-0.066
			l0.397,0.238c-0.59-0.173-1.055,0.338-1.606,0.272c1.125-0.128,0.221-0.291,0.678-0.507c-1.424-0.123-0.729,0.662-2.293,0.744
			c0.215,0.006,0.773-0.226,0.432-0.287c-0.291,0.08-0.67,0.213-0.836,0.354c-1.03,0.096,0.129-0.244-0.323-0.318
			c-0.316,0.312-0.521-0.039-0.98-0.062l0.025,0.222c-1.152,0.299-0.371-0.418-1.402-0.103l0.486,0.244l-0.562-0.005l0.146,0.234
			c-0.621-0.104-0.802-0.031-1.377,0.119c0.114-0.173-0.132-0.389-0.652-0.324c-0.334,0.178,0.229,0.182-0.512,0.25
			c0.186,0.115,0.391,0.264,0.684,0.019c0.041,0.065,0.182,0.114,0.228,0.182c-0.361,0.202-0.953,0.164-1.22,0.199
			c0.103-0.022,0.224-0.052,0.279-0.091l-1.107-0.159c-0.155,0.104-0.014,0.151,0.13,0.198c-0.22,0.008-0.384-0.073-0.703-0.051
			c0.106,0.168,0.114,0.355,0.573,0.379l-1.041-0.055c-0.057,0.088-0.489,0.293-0.35,0.338c-0.545,0.189-1.426-0.139-2.15,0.112
			c-0.043-0.028-0.127-0.05-0.288-0.052c-0.693,0.146-1.279,0.458-2.146,0.339l-0.42,0.392c-0.662,0.024,0.574-0.5-0.525-0.457
			c-0.78,0.015-0.244,0.315-0.498,0.445c-0.405-0.105-1.121-0.333-1.78,0.045C149.924,123.118,150.097,123.043,150.317,123.03
			 M142.299,124.198c0.161,0.021,0.495,0.111,0.588-0.037C142.667,123.942,142.551,124.083,142.299,124.198 M130.067,125.837
			c0.129,0.051,0.299-0.02,0.484-0.139C130.403,125.708,130.239,125.747,130.067,125.837 M96.052,131.036l0.018,0.009
			C96.395,130.889,96.28,130.948,96.052,131.036 M95.358,131.28c-0.078-0.015-0.08-0.045-0.057-0.082
			c0.062,0.045,0.223,0.016,0.401-0.039C95.665,131.228,95.581,131.284,95.358,131.28 M172.513,117.954l-0.135,0.072
			C172.702,118.058,172.606,118.01,172.513,117.954"/>
		<path fill="#E2001A" d="M131.497,125.88c0.037-0.045,0.041-0.088,0.043-0.131C131.608,125.776,131.618,125.817,131.497,125.88"/>
		<path fill="#E2001A" d="M155.317,122.392l0.023-0.006c0.016,0.012,0.024,0.021,0.028,0.036L155.317,122.392z"/>
		<path fill="#E2001A" d="M106.79,130.821c0.14-0.062,0.213-0.117,0.261-0.17C107.069,130.702,107.011,130.761,106.79,130.821"/>
		<path fill="#E2001A" d="M91.501,131.72l0.47-0.042c-0.224,0.037-0.291,0.103-0.396,0.16
			C91.573,131.784,91.645,131.692,91.501,131.72"/>
		<path fill="#E2001A" d="M87.831,133.92c-0.071-0.013-0.143,0.028-0.213,0.015l-0.004-0.104
			C87.899,133.776,88.114,133.815,87.831,133.92"/>
		<path fill="#E2001A" d="M91.233,132.532c0.004,0.189-0.295,0.189-0.623,0.227c0.021-0.004,0.039-0.006,0.057-0.014
			C90.518,132.511,90.876,132.522,91.233,132.532"/>
		<path fill="#E2001A" d="M90.534,132.769c-0.1,0.014-0.201,0.029-0.295,0.059C90.179,132.733,90.354,132.78,90.534,132.769"/>
		<path fill="#E2001A" d="M94.427,131.351c-0.142,0.079-0.146-0.214-0.215-0.121C93.993,131.032,95.284,131.299,94.427,131.351"/>
		<polygon fill="#E2001A" points="91.104,133.19 91.172,132.94 91.388,133.083 		"/>
		<path fill="#E2001A" d="M93.592,132.479l-0.496,0.172c-0.002-0.037-0.07-0.047-0.154-0.047
			C93.254,132.53,93.59,132.409,93.592,132.479"/>
		<path fill="#E2001A" d="M92.94,132.604c-0.162,0.04-0.32,0.069-0.418,0.053C92.61,132.64,92.804,132.606,92.94,132.604"/>
		<polygon fill="#E2001A" points="91.817,133.108 91.958,133.028 92.315,132.933 		"/>
		<path fill="#E2001A" d="M99.077,131.28l0.572-0.053c0.072,0.065-0.07,0.145-0.283,0.157
			C99.221,131.358,99.008,131.372,99.077,131.28"/>
		<path fill="#E2001A" d="M97.52,132.252c0.141-0.079,0.141-0.132,0.211-0.224l0.076,0.275L97.52,132.252z"/>
		<path fill="#E2001A" d="M99.161,131.976c0.072,0.066,0.855,0.055,0.146,0.186C99.233,132.095,98.661,132.147,99.161,131.976"/>
		<polygon fill="#E2001A" points="107.495,129.878 107.352,129.903 107.28,129.44 		"/>
		<path fill="#E2001A" d="M115.135,129.476c-0.642,0.242-0.216-0.252-0.783,0.006c-0.178-0.078,0.465-0.212,0.287-0.273
			C115.059,129.241,115.258,129.139,115.135,129.476"/>
		<path fill="#E2001A" d="M114.638,129.208c-0.066-0.006-0.142-0.014-0.22-0.028C114.542,129.186,114.6,129.196,114.638,129.208"/>
		<polygon fill="#E2001A" points="199.085,116.184 199.524,116.088 199.239,116.245 		"/>
		<path fill="#E2001A" d="M199.919,116.534l0.109-0.297l0.256,0.271C200.186,116.495,199.995,116.469,199.919,116.534"/>
		<path fill="#E2001A" d="M141.213,125.001l-0.046-0.065c0.054-0.089,0.152-0.11,0.351-0.157L141.213,125.001z"/>
		<polygon fill="#E2001A" points="146.973,123.817 146.876,123.839 147.018,123.54 		"/>
		<path fill="#E2001A" d="M151.899,123.374c-0.197,0.041-0.439,0.019-0.639,0.06C151.702,123.415,151.901,123.034,151.899,123.374"
			/>
	</g>
</g>
</svg>
