<?xml version="1.0" encoding="utf-8"?>
<!-- Generator: Adobe Illustrator 14.0.0, SVG Export Plug-In . SVG Version: 6.00 Build 43363)  -->
<!DOCTYPE svg PUBLIC "-//W3C//DTD SVG 1.0//EN" "http://www.w3.org/TR/2001/REC-SVG-20010904/DTD/svg10.dtd">
<svg version="1.0" id="guajana" xmlns="http://www.w3.org/2000/svg" xmlns:xlink="http://www.w3.org/1999/xlink" x="0px" y="0px"
	 width="238.545px" height="63.8px" viewBox="13.134 9.148 238.545 63.8" enable-background="new 13.134 9.148 238.545 63.8"
	 xml:space="preserve">
<path fill="#E2001A" d="M245.35,41.295c0,1.584-0.459,3.135-1.329,4.48l-11.052,17.117c-1.639,2.537-4.484,4.053-7.615,4.053H39.786
	c-3.131,0-5.979-1.516-7.616-4.053L21.12,45.775c-0.87-1.344-1.331-2.896-1.331-4.48c0-1.586,0.461-3.137,1.331-4.484l11.05-17.113
	c1.638-2.539,4.485-4.053,7.616-4.053h185.567c3.131,0,5.978,1.514,7.614,4.053l11.053,17.115
	C244.891,38.16,245.35,39.711,245.35,41.295"/>
<path d="M24.854,41.295c0-0.6,0.173-1.199,0.52-1.736l11.051-17.115c0.693-1.074,1.976-1.736,3.362-1.736h185.567
	c1.387,0,2.669,0.662,3.362,1.736l11.05,17.115c0.348,0.537,0.521,1.137,0.521,1.736s-0.173,1.199-0.521,1.735l-11.05,17.115
	c-0.693,1.075-1.977,1.735-3.362,1.735H125.45H39.786c-1.388,0-2.669-0.66-3.362-1.735L25.373,43.03
	C25.026,42.494,24.854,41.894,24.854,41.295 M14.727,41.295c0,2.561,0.737,5.06,2.138,7.227l11.051,17.117
	c2.576,3.988,7.014,6.369,11.871,6.369h85.664h99.903c4.855,0,9.295-2.381,11.869-6.368l11.052-17.116
	c1.398-2.169,2.139-4.668,2.139-7.229c0-2.562-0.739-5.062-2.139-7.229l-11.05-17.115c-2.576-3.99-7.015-6.371-11.871-6.371H39.786
	c-4.857,0-9.296,2.381-11.871,6.369l-11.05,17.117C15.467,36.234,14.727,38.734,14.727,41.295"/>
<path fill="#E2001A" d="M24.854,41.295c0-0.6,0.173-1.199,0.52-1.736l11.051-17.115c0.692-1.074,1.976-1.736,3.361-1.736h185.568
	c1.387,0,2.669,0.662,3.362,1.736l11.051,17.115c0.347,0.537,0.52,1.137,0.52,1.736s-0.173,1.199-0.52,1.735l-11.051,17.115
	c-0.693,1.075-1.977,1.735-3.362,1.735H125.45H39.785c-1.387,0-2.669-0.66-3.361-1.735L25.373,43.03
	C25.026,42.494,24.854,41.894,24.854,41.295 M17.594,41.295c0,2.008,0.581,3.969,1.681,5.672l11.05,17.117
	c2.046,3.166,5.582,5.057,9.461,5.057h85.664h99.904c3.879,0,7.416-1.891,9.461-5.057l11.05-17.117
	c1.101-1.702,1.681-3.664,1.681-5.672c0-2.01-0.582-3.971-1.681-5.674l-11.05-17.115c-2.045-3.168-5.582-5.057-9.461-5.057H39.785
	c-3.879,0-7.416,1.889-9.46,5.057L19.274,35.621C18.176,37.324,17.594,39.287,17.594,41.295"/>
<path fill="none" stroke="#FFFFFF" stroke-width="7.255" stroke-miterlimit="10" d="M125.449,61.882H39.785
	c-1.387,0-2.668-0.662-3.361-1.735L25.373,43.031c-0.692-1.075-0.692-2.398,0-3.473l11.051-17.115
	c0.693-1.074,1.976-1.736,3.361-1.736h185.568c1.387,0,2.67,0.662,3.361,1.736l11.051,17.115c0.693,1.074,0.693,2.397,0,3.473
	l-11.051,17.115c-0.691,1.073-1.976,1.735-3.361,1.735L125.449,61.882L125.449,61.882z"/>
<path fill="#FFFFFF" d="M73.058,35.564c-2.018-0.775-4.343-1.279-6.938-1.279c-4.769,0-7.25,2.986-7.25,7.211
	c0,4.069,1.939,6.744,6.397,6.744c0.542,0,1.085-0.076,1.472-0.193v-7.945h7.211v12.907c-2.52,1.124-5.854,1.821-9.42,1.821
	c-8.799,0-13.49-5-13.49-12.83c0-8.49,5.894-14.227,15.43-14.227c2.714,0,5.543,0.504,7.676,1.164L73.058,35.564z"/>
<path fill="#FFFFFF" d="M88.255,54.908c-8.412,0-10.621-4.459-10.621-10.002V28.199h7.21v16.359c0,2.791,0.854,4.303,3.838,4.303
	c2.906,0,3.838-1.24,3.838-4.498V28.199h7.134v15.777C99.652,51.574,95.271,54.908,88.255,54.908"/>
<path fill="#FFFFFF" d="M118.408,54.365l-1.357-4.264h-8.062l-1.319,4.264h-7.132l8.528-26.166h8.257l8.954,26.166H118.408z
	 M114.184,41.146c-0.465-1.512-0.933-2.906-1.202-4.535h-0.078c-0.231,1.512-0.736,3.256-1.279,4.963l-0.891,2.867h4.495
	L114.184,41.146z"/>
<path fill="#FFFFFF" d="M157.359,54.365l-1.357-4.264h-8.062l-1.318,4.264h-7.133l8.529-26.166h8.256l8.955,26.166H157.359z
	 M153.134,41.146c-0.465-1.512-0.931-2.906-1.201-4.535h-0.078c-0.231,1.512-0.735,3.256-1.278,4.963l-0.892,2.867h4.496
	L153.134,41.146z"/>
<path fill="#FFFFFF" d="M180.348,54.365l-4.382-8.954c-1.007-2.055-1.938-4.147-2.598-5.894c0.156,1.551,0.195,2.443,0.195,4.148
	v10.699h-6.939V28.199h9.227l3.8,7.793c1.123,2.324,2.287,4.689,3.178,6.783c-0.192-1.783-0.271-3.799-0.271-5.428v-9.148h6.938
	v26.166H180.348z"/>
<path fill="#FFFFFF" d="M208.803,54.365l-1.357-4.264h-8.062l-1.317,4.264h-7.132l8.527-26.166h8.256l8.955,26.166H208.803z
	 M204.577,41.146c-0.465-1.512-0.931-2.906-1.202-4.535h-0.076c-0.232,1.512-0.736,3.256-1.279,4.963l-0.893,2.867h4.496
	L204.577,41.146z"/>
<path fill="#FFFFFF" d="M137.74,55.902c0,6.635-4.525,10.921-11.528,10.921h-4.81l-3.156-9.698h7.966c1.762,0,1.83-0.045,1.83-1.223
	V26.994h9.698V55.902z"/>
<path fill="#E2001A" d="M119.906,58.332h6.307c1.627,0,3.034,0,3.034-2.431V28.199h7.286v27.702c0,5.993-3.955,9.716-10.32,9.716
	h-3.935L119.906,58.332 M116.586,55.92l1.027,3.158l2.372,7.286l0.542,1.664h1.751h3.935c7.734,0,12.731-4.76,12.731-12.127V28.199
	v-2.41h-2.411h-7.286h-2.411v2.41v27.702v0.013c-0.205,0.006-0.438,0.006-0.623,0.006h-6.307H116.586z"/>
<line fill="none" x1="139.488" y1="54.365" x2="148.018" y2="28.199"/>
<polygon fill="#FFFFFF" points="37.932,45.467 35.516,41.283 37.932,37.1 42.762,37.1 45.177,41.283 42.762,45.467 "/>
<polygon fill="#FFFFFF" points="222.416,45.467 220.002,41.283 222.416,37.1 227.248,37.1 229.662,41.283 227.248,45.467 "/>
</svg>
