<?xml version="1.0" encoding="utf-8"?>
<!-- Generator: Adobe Illustrator 14.0.0, SVG Export Plug-In . SVG Version: 6.00 Build 43363)  -->
<!DOCTYPE svg PUBLIC "-//W3C//DTD SVG 1.0//EN" "http://www.w3.org/TR/2001/REC-SVG-20010904/DTD/svg10.dtd">
<svg version="1.0" id="guajana" xmlns="http://www.w3.org/2000/svg" xmlns:xlink="http://www.w3.org/1999/xlink" x="0px" y="0px"
	 width="140.516px" height="30.216px" viewBox="59.248 10.301 140.516 30.216"
	 enable-background="new 59.248 10.301 140.516 30.216" xml:space="preserve">
<g>
	<polygon fill="#F29400" points="95.009,34.77 95.009,17.064 105.37,17.064 105.37,21.208 99.888,21.208 99.888,23.701 
		105.081,23.701 105.081,27.688 99.888,27.688 99.888,30.546 105.37,30.546 105.37,34.77 	"/>
	<path fill="#F29400" d="M113.212,34.9c-1.915,0-3.829-0.053-5.612-0.156V17.117c1.391-0.078,3.803-0.158,6.375-0.158
		c5.166,0,8.785,2.125,8.785,8.525C122.76,31.542,118.956,34.9,113.212,34.9 M113.71,21.078c-0.576,0-0.864,0-1.231,0.053V30.6
		c0.211,0.053,0.551,0.08,1.129,0.08c2.176,0,3.881-1.496,3.881-4.801C117.487,23.123,116.963,21.078,113.71,21.078"/>
	<rect x="124.675" y="17.065" fill="#F29400" width="4.88" height="17.705"/>
	<polygon fill="#F29400" points="132.538,34.77 132.538,17.064 137.417,17.064 137.417,30.416 142.296,30.416 142.296,34.77 	"/>
	<rect x="143.869" y="17.065" fill="#F29400" width="4.879" height="17.705"/>
	<path fill="#F29400" d="M151.135,34.77v-3.854l4.88-8.499c0.21-0.342,0.42-0.682,0.683-0.997c-0.289,0.026-0.604,0.026-2.23,0.026
		h-3.174v-4.381h11.463v4.039l-5.141,8.446c-0.158,0.237-0.289,0.473-0.5,0.735c0.263-0.027,0.972-0.027,2.965-0.027h2.808v4.513
		H151.135z"/>
	<rect x="165.272" y="17.065" fill="#F29400" width="4.879" height="17.705"/>
	<path fill="#F29400" d="M183.214,34.77l-0.918-2.886h-5.457l-0.891,2.886h-4.826l5.771-17.706h5.587l6.059,17.706H183.214z
		 M180.354,25.826c-0.314-1.023-0.63-1.969-0.812-3.069h-0.053c-0.156,1.022-0.498,2.204-0.865,3.356l-0.604,1.941h3.042
		L180.354,25.826z"/>
	<path fill="none" stroke="#F29400" stroke-width="3.227" stroke-miterlimit="10" d="M190.692,13.763l6.271,10.86
		c0.318,0.554,0.318,1.235,0,1.788l-6.271,10.86c-0.319,0.554-0.91,0.896-1.549,0.896H70.11c-0.65,0-1.249-0.354-1.564-0.923
		l-5.908-10.67c-0.296-0.532-0.3-1.176-0.014-1.712l5.926-11.051c0.312-0.582,0.918-0.943,1.576-0.943h119.019
		C189.782,12.869,190.373,13.21,190.692,13.763z"/>
	<path fill="none" stroke="#F29400" stroke-width="3.227" stroke-miterlimit="10" d="M84.179,13.724l6.271,10.861
		c0.319,0.553,0.319,1.234,0,1.787l-6.271,10.86c-0.32,0.554-0.91,0.896-1.55,0.896H70.11c-0.65,0-1.25-0.354-1.564-0.922
		l-5.908-10.67c-0.296-0.533-0.301-1.177-0.014-1.711l5.927-11.053c0.312-0.581,0.916-0.943,1.575-0.943H82.63
		C83.269,12.83,83.858,13.171,84.179,13.724z"/>
	<path fill="#F29400" d="M79.726,25.221c0.729,0.171,1.461,0.344,2.186,0.528c0.115,0.028,0.258,0.098,0.304,0.189
		c0.03,0.061-0.07,0.214-0.146,0.294c-2.873,2.961-5.75,5.92-8.629,8.879c-0.525,0.541-0.611,0.558-1.312,0.281
		c-0.585-0.229-1.17-0.459-1.755-0.692c-0.365-0.146-0.436-0.324-0.262-0.677c1.61-3.25,3.222-6.498,4.836-9.746
		c0.164-0.332,0.332-0.391,0.68-0.256c0.476,0.186,0.949,0.371,1.423,0.559C77.444,24.736,79.354,25.134,79.726,25.221
		 M77.071,26.953c0.172-0.189,1.225-1.511,1.369-1.666c0.371-0.457,0.455-0.763,0.203-1.336c-0.262-0.588-0.414-1.229-0.566-1.859
		c-0.12-0.504,0.007-0.648,0.467-0.893c0.269-0.143,0.562-0.312,0.732-0.551c0.838-1.148,1.639-2.322,2.448-3.488
		c0.05-0.072,0.089-0.16,0.101-0.244c0.086-0.594-0.428-1.307-1.025-1.399c-0.412-0.065-0.815,0.046-1.034,0.403
		c-0.744,1.22-1.465,2.457-2.169,3.701c-0.262,0.461-0.384,0.967-0.186,1.502c0.021,0.053-0.008,0.135-0.032,0.195
		c-0.14,0.334-0.109,0.664,0,0.998c0.222,0.663,0.446,1.326,0.649,1.995c0.041,0.138,0.027,0.313-0.02,0.453
		c-0.103,0.31-0.931,1.78-1.056,2.083C76.993,26.882,77.032,26.917,77.071,26.953"/>
	<path fill="#F29400" d="M69.611,39.743c-0.847,0-1.63-0.452-2.053-1.185L60.729,26.73c-0.423-0.733-0.423-1.637,0-2.371
		l6.829-11.826c0.423-0.733,1.206-1.187,2.053-1.187h13.656c0.847,0,1.63,0.453,2.053,1.187l6.828,11.826
		c0.424,0.733,0.424,1.637,0,2.371L85.32,38.559c-0.423,0.731-1.206,1.185-2.053,1.185H69.611z"/>
	<path fill="#FFFFFF" d="M80.515,25.837c0.86,0.201,1.72,0.406,2.575,0.621c0.136,0.035,0.302,0.117,0.356,0.226
		c0.035,0.069-0.084,0.252-0.174,0.346c-3.384,3.488-6.772,6.973-10.161,10.455c-0.62,0.639-0.721,0.656-1.545,0.332
		c-0.689-0.271-1.378-0.541-2.066-0.814c-0.43-0.172-0.514-0.381-0.308-0.799c1.896-3.826,3.793-7.65,5.691-11.475
		c0.195-0.393,0.395-0.46,0.804-0.301c0.559,0.218,1.117,0.436,1.675,0.656C77.829,25.267,80.077,25.736,80.515,25.837
		 M77.39,27.876c0.202-0.226,1.44-1.778,1.612-1.963c0.437-0.537,0.535-0.897,0.237-1.572c-0.306-0.692-0.487-1.447-0.665-2.189
		c-0.143-0.594,0.008-0.764,0.549-1.051c0.315-0.168,0.659-0.369,0.863-0.648c0.984-1.352,1.928-2.734,2.882-4.109
		c0.058-0.084,0.104-0.188,0.119-0.286c0.101-0.699-0.505-1.538-1.207-1.647c-0.487-0.076-0.962,0.055-1.219,0.475
		c-0.878,1.436-1.727,2.893-2.555,4.357c-0.309,0.543-0.452,1.139-0.219,1.768c0.024,0.066-0.008,0.162-0.037,0.232
		c-0.164,0.393-0.131,0.782,0,1.174c0.258,0.782,0.524,1.562,0.765,2.351c0.049,0.161,0.032,0.368-0.022,0.532
		c-0.12,0.365-1.096,2.099-1.241,2.453C77.298,27.794,77.343,27.835,77.39,27.876"/>
</g>
</svg>
