<?xml version="1.0" encoding="utf-8"?>
<!-- Generator: Adobe Illustrator 14.0.0, SVG Export Plug-In . SVG Version: 6.00 Build 43363)  -->
<!DOCTYPE svg PUBLIC "-//W3C//DTD SVG 1.0//EN" "http://www.w3.org/TR/2001/REC-SVG-20010904/DTD/svg10.dtd">
<svg version="1.0" id="guajana" xmlns="http://www.w3.org/2000/svg" xmlns:xlink="http://www.w3.org/1999/xlink" x="0px" y="0px"
	 width="207.305px" height="30.457px" viewBox="26.124 10.303 207.305 30.457"
	 enable-background="new 26.124 10.303 207.305 30.457" xml:space="preserve">
<g>
	<path fill="none" stroke="#1FA22E" stroke-width="3.227" stroke-miterlimit="10" d="M223.878,13.79l6.271,10.861
		c0.317,0.553,0.317,1.234,0,1.787l-6.271,10.861c-0.318,0.553-0.91,0.895-1.549,0.895H36.925c-0.65,0-1.249-0.354-1.562-0.922
		l-5.91-10.67c-0.295-0.531-0.299-1.175-0.013-1.712l5.927-11.051c0.312-0.58,0.916-0.943,1.576-0.943H222.33
		C222.968,12.895,223.559,13.237,223.878,13.79z"/>
	<path fill="#1FA22E" d="M72.368,34.796L71.45,31.91h-5.456l-0.892,2.886h-4.825l5.77-17.705h5.587l6.06,17.705H72.368z
		 M69.509,25.852c-0.313-1.023-0.63-1.968-0.812-3.068h-0.053c-0.156,1.022-0.498,2.203-0.865,3.356l-0.604,1.939h3.042
		L69.509,25.852z"/>
	<path fill="#1FA22E" d="M92.406,22.075c-1.362-0.523-2.938-0.865-4.694-0.865c-3.227,0-4.905,2.02-4.905,4.879
		c0,2.755,1.312,4.563,4.33,4.563c0.366,0,0.732-0.053,0.995-0.131v-5.377h4.88v8.735c-1.707,0.76-3.962,1.23-6.375,1.23
		c-5.955,0-9.128-3.383-9.128-8.682c0-5.744,3.986-9.625,10.438-9.625c1.837,0,3.751,0.341,5.194,0.787L92.406,22.075z"/>
	<path fill="#1FA22E" d="M103.896,34.796l-3.33-6.452h-0.186v6.452h-4.879V17.091c1.651-0.104,3.83-0.131,6.061-0.131
		c4.512,0,7.028,1.6,7.028,5.534c0,2.099-1.182,4.119-3.227,4.854c0.473,0.707,0.893,1.363,1.285,2.045l3.174,5.403H103.896z
		 M101.299,20.973c-0.312,0-0.761,0.025-0.918,0.053v3.803c0.186,0.026,0.552,0.053,0.813,0.053c1.338,0,2.256-0.708,2.256-2.02
		C103.45,21.813,102.899,20.973,101.299,20.973"/>
	<rect x="110.872" y="17.092" fill="#1FA22E" width="4.879" height="17.704"/>
	<path fill="#1FA22E" d="M126.111,35.033c-6.951,0-8.395-4.801-8.395-8.366c0-5.904,3.332-9.705,9.128-9.705
		c1.155,0,2.388,0.156,3.411,0.418l-0.551,4.407c-0.841-0.235-1.863-0.394-2.86-0.394c-2.308,0-3.75,1.6-3.75,4.459
		c0,3.07,1.181,4.722,3.935,4.722c0.761,0,1.939-0.184,2.677-0.499l0.576,4.354C129.05,34.822,127.528,35.033,126.111,35.033"/>
	<path fill="#1FA22E" d="M139.303,35.163c-5.562,0-8.289-3.356-8.289-8.97c0-5.718,4.039-9.469,8.996-9.469
		c4.615,0,8.287,2.492,8.287,8.918C148.298,31.413,144.339,35.163,139.303,35.163 M139.644,21.183c-1.705,0-3.438,1.312-3.438,4.644
		c0,3.017,0.973,4.853,3.332,4.853c1.521,0,3.567-1.05,3.567-4.801C143.105,22.784,141.978,21.183,139.644,21.183"/>
	<polygon fill="#1FA22E" points="150.108,34.796 150.108,17.091 154.987,17.091 154.987,30.441 159.866,30.441 159.866,34.796 	"/>
	<polygon fill="#1FA22E" points="167.206,21.288 167.206,34.797 162.327,34.797 162.327,21.288 158.497,21.288 158.497,17.092 
		171.035,17.092 171.035,21.288 	"/>
	<path fill="#1FA22E" d="M179.796,35.164c-5.69,0-7.188-3.018-7.188-6.768V17.092h4.879V28.16c0,1.889,0.578,2.91,2.597,2.91
		c1.968,0,2.598-0.84,2.598-3.043V17.092h4.825v10.676C187.507,32.908,184.543,35.164,179.796,35.164"/>
	<path fill="#1FA22E" d="M198.733,34.796l-3.332-6.452h-0.185v6.452h-4.879V17.091c1.652-0.104,3.83-0.131,6.062-0.131
		c4.51,0,7.027,1.6,7.027,5.534c0,2.099-1.181,4.119-3.228,4.854c0.474,0.707,0.894,1.363,1.287,2.045l3.172,5.403H198.733z
		 M196.136,20.973c-0.314,0-0.762,0.025-0.919,0.053v3.803c0.185,0.026,0.552,0.053,0.814,0.053c1.336,0,2.254-0.708,2.254-2.02
		C198.286,21.813,197.737,20.973,196.136,20.973"/>
	<path fill="#1FA22E" d="M216.772,34.796l-0.918-2.886h-5.457l-0.892,2.886h-4.825l5.771-17.705h5.587l6.06,17.705H216.772z
		 M213.913,25.852c-0.313-1.023-0.63-1.968-0.812-3.068h-0.054c-0.155,1.022-0.498,2.203-0.864,3.356l-0.604,1.939h3.042
		L213.913,25.852z"/>
	<path fill="none" stroke="#1FA22E" stroke-width="3.227" stroke-miterlimit="10" d="M50.992,13.75l6.271,10.861
		c0.317,0.553,0.317,1.235,0,1.788l-6.271,10.86c-0.318,0.554-0.91,0.896-1.548,0.896H36.924c-0.648,0-1.248-0.354-1.562-0.922
		l-5.909-10.67c-0.295-0.533-0.3-1.176-0.013-1.712l5.927-11.052c0.311-0.58,0.916-0.942,1.575-0.942h12.504
		C50.082,12.857,50.674,13.198,50.992,13.75z"/>
	<path fill="#1FA22E" d="M33.803,27.049c0.239-0.443,0.48-0.885,0.721-1.328c0.164-0.305,0.324-0.611,0.488-0.916
		c0.12-0.228,0.239-0.262,0.473-0.141c0.065,0.035,0.13,0.081,0.199,0.105c0.19,0.062,0.241,0.313,0.164,0.444
		c-0.144,0.243-0.05,0.433,0.129,0.587c0.182,0.158,0.371,0.316,0.582,0.429c0.592,0.312,1.185,0.629,1.799,0.896
		c0.795,0.345,1.604,0.653,2.419,0.955c0.237,0.088,0.504,0.11,0.761,0.138c0.16,0.018,0.253-0.093,0.207-0.248
		c-0.131-0.432-0.263-0.863-0.397-1.309l8.593-2.622l0.495,1.625c0.793-0.771,0.791-3.199,0.094-4.353
		c-1.307-2.162-3.68-2.682-5.453-1.998c-2.165,0.834-3.079,2.951-2.839,4.691c0.071-0.023,0.142-0.044,0.21-0.064
		c1.977-0.603,3.951-1.209,5.928-1.805c0.174-0.052,0.367-0.076,0.547-0.057c0.298,0.033,0.479,0.246,0.582,0.512
		c0.091,0.234,0.149,0.479,0.228,0.732l-8.614,2.629c-0.071-0.291-0.146-0.579-0.213-0.869c-0.063-0.277-0.145-0.557-0.17-0.839
		c-0.041-0.415-0.079-0.836-0.052-1.251c0.061-0.917,0.341-1.778,0.812-2.564c0.527-0.877,1.231-1.578,2.118-2.104
		c0.572-0.339,1.189-0.56,1.827-0.7c0.643-0.143,1.302-0.152,1.965-0.068c0.763,0.096,1.476,0.33,2.138,0.702
		c0.858,0.483,1.556,1.138,2.101,1.968c0.416,0.635,0.664,1.326,0.84,2.045c0.147,0.611,0.154,1.24,0.085,1.873
		c-0.097,0.867-0.374,1.67-0.817,2.415c-0.178,0.299-0.408,0.57-0.633,0.842c-0.065,0.078-0.088,0.187-0.057,0.285
		c0.276,0.893,0.551,1.785,0.817,2.68c0.099,0.33,0.058,0.639-0.229,0.871c-0.058,0.047-0.124,0.084-0.193,0.104
		c-2.415,0.739-4.83,1.478-7.244,2.214c-0.345,0.104-0.705-0.066-0.841-0.396c-0.181-0.437-0.502-0.767-0.854-1.052
		c-0.821-0.662-1.649-1.317-2.502-1.938c-0.698-0.509-1.429-0.979-2.154-1.443c-0.615-0.397-1.243-0.772-1.871-1.148
		c-0.294-0.176-0.626-0.352-0.995-0.301c-0.107,0.017-0.241,0.07-0.31,0.152c-0.224,0.268-0.277,0.291-0.59,0.125
		c-0.05-0.025-0.101-0.05-0.149-0.072C33.778,27.409,33.717,27.208,33.803,27.049"/>
	<path fill="#1FA22E" d="M32.897,26.646c-0.483,0.113-0.964-0.188-1.076-0.671c-0.11-0.481,0.188-0.963,0.673-1.074
		c0.481-0.112,1.03-0.01,2.002,0.457C33.734,25.794,33.381,26.536,32.897,26.646"/>
	<path fill="#1FA22E" d="M36.245,39.463c-0.83,0-1.599-0.443-2.013-1.162l-6.694-11.595c-0.415-0.719-0.415-1.604,0-2.323
		l6.694-11.595c0.414-0.719,1.183-1.162,2.013-1.162h13.387c0.831,0,1.6,0.443,2.014,1.162l6.693,11.595
		c0.415,0.719,0.415,1.604,0,2.323l-6.693,11.595c-0.414,0.719-1.183,1.162-2.014,1.162H36.245z"/>
	<path fill="#FFFFFF" d="M32.975,27.292c0.258-0.478,0.519-0.953,0.774-1.431c0.179-0.329,0.351-0.659,0.527-0.987
		c0.131-0.246,0.259-0.282,0.509-0.152c0.071,0.038,0.14,0.088,0.216,0.113c0.206,0.068,0.26,0.338,0.177,0.479
		c-0.154,0.263-0.054,0.465,0.139,0.633c0.195,0.171,0.398,0.341,0.627,0.459c0.638,0.339,1.277,0.679,1.938,0.966
		c0.856,0.373,1.729,0.705,2.604,1.028c0.258,0.095,0.545,0.119,0.82,0.148c0.174,0.02,0.272-0.1,0.223-0.268
		c-0.139-0.465-0.282-0.93-0.43-1.41l9.258-2.824l0.535,1.75c0.854-0.829,0.853-3.446,0.101-4.689
		c-1.408-2.329-3.964-2.888-5.875-2.152c-2.332,0.9-3.317,3.181-3.06,5.055c0.078-0.024,0.152-0.047,0.228-0.069
		c2.128-0.649,4.256-1.302,6.386-1.944c0.187-0.056,0.396-0.082,0.588-0.061c0.321,0.035,0.519,0.266,0.628,0.551
		c0.098,0.252,0.161,0.518,0.244,0.789l-9.279,2.833c-0.078-0.312-0.158-0.625-0.229-0.937c-0.066-0.301-0.153-0.601-0.183-0.904
		c-0.045-0.447-0.086-0.9-0.057-1.348c0.065-0.987,0.366-1.916,0.876-2.764c0.568-0.943,1.327-1.699,2.281-2.265
		c0.617-0.365,1.281-0.603,1.968-0.754c0.693-0.153,1.404-0.165,2.118-0.074c0.822,0.104,1.59,0.356,2.306,0.757
		c0.922,0.521,1.674,1.225,2.262,2.12c0.447,0.683,0.715,1.429,0.904,2.204c0.159,0.658,0.166,1.336,0.09,2.018
		c-0.104,0.935-0.402,1.799-0.879,2.601c-0.192,0.321-0.44,0.616-0.684,0.905c-0.07,0.086-0.095,0.203-0.062,0.31
		c0.299,0.961,0.594,1.922,0.881,2.887c0.105,0.355,0.062,0.688-0.248,0.939c-0.059,0.049-0.133,0.09-0.207,0.112
		c-2.602,0.795-5.203,1.59-7.805,2.383c-0.371,0.113-0.76-0.071-0.906-0.424c-0.195-0.47-0.541-0.826-0.922-1.133
		c-0.883-0.716-1.775-1.421-2.694-2.089c-0.752-0.549-1.537-1.053-2.32-1.557c-0.662-0.428-1.339-0.832-2.016-1.236
		c-0.317-0.19-0.675-0.379-1.071-0.323c-0.118,0.017-0.262,0.075-0.334,0.162c-0.239,0.291-0.299,0.313-0.637,0.137
		c-0.053-0.026-0.104-0.053-0.16-0.077C32.947,27.678,32.881,27.461,32.975,27.292"/>
	<path fill="#FFFFFF" d="M32,26.857c-0.521,0.121-1.039-0.203-1.16-0.724c-0.118-0.521,0.205-1.038,0.726-1.159
		c0.52-0.12,1.11-0.009,2.158,0.493C32.901,25.939,32.52,26.738,32,26.857"/>
</g>
</svg>
