<?xml version="1.0" encoding="utf-8"?>
<!-- Generator: Adobe Illustrator 14.0.0, SVG Export Plug-In . SVG Version: 6.00 Build 43363)  -->
<!DOCTYPE svg PUBLIC "-//W3C//DTD SVG 1.0//EN" "http://www.w3.org/TR/2001/REC-SVG-20010904/DTD/svg10.dtd">
<svg version="1.0" id="guajana" xmlns="http://www.w3.org/2000/svg" xmlns:xlink="http://www.w3.org/1999/xlink" x="0px" y="0px"
	 width="201.209px" height="30.509px" viewBox="27.948 10.228 201.209 30.509"
	 enable-background="new 27.948 10.228 201.209 30.509" xml:space="preserve">
<g>
	<polygon fill="#E2001A" points="68.609,21.307 68.609,24.167 73.541,24.167 73.541,28.18 68.609,28.18 68.609,34.816 63.73,34.816 
		63.73,17.111 73.829,17.111 73.829,21.307 	"/>
	<polygon fill="#E2001A" points="75.795,34.816 75.795,17.111 86.156,17.111 86.156,21.255 80.674,21.255 80.674,23.747 
		85.867,23.747 85.867,27.734 80.674,27.734 80.674,30.594 86.156,30.594 86.156,34.816 	"/>
	<path fill="#E2001A" d="M96.779,34.816l-3.331-6.453h-0.185v6.453h-4.88V17.111c1.652-0.105,3.83-0.131,6.062-0.131
		c4.512,0,7.029,1.6,7.029,5.534c0,2.099-1.183,4.119-3.228,4.853c0.474,0.708,0.894,1.363,1.285,2.046l3.174,5.403H96.779z
		 M94.182,20.993c-0.314,0-0.762,0.026-0.919,0.053v3.802c0.185,0.027,0.552,0.053,0.813,0.053c1.338,0,2.256-0.708,2.256-2.019
		C96.333,21.833,95.783,20.993,94.182,20.993"/>
	<path fill="#E2001A" d="M112.15,34.816l-3.331-6.453h-0.186v6.453h-4.879V17.111c1.652-0.105,3.83-0.131,6.062-0.131
		c4.512,0,7.029,1.6,7.029,5.534c0,2.099-1.183,4.119-3.228,4.853c0.473,0.708,0.894,1.363,1.285,2.046l3.174,5.403H112.15z
		 M109.553,20.993c-0.313,0-0.762,0.026-0.92,0.053v3.802c0.186,0.027,0.553,0.053,0.814,0.053c1.338,0,2.256-0.708,2.256-2.019
		C111.705,21.833,111.154,20.993,109.553,20.993"/>
	<path fill="#E2001A" d="M130.189,34.816l-0.918-2.885h-5.455l-0.893,2.885h-4.825l5.771-17.706h5.586l6.061,17.706H130.189z
		 M127.33,25.872c-0.312-1.023-0.629-1.968-0.812-3.069h-0.053c-0.156,1.023-0.499,2.204-0.865,3.357l-0.604,1.941h3.043
		L127.33,25.872z"/>
	<path fill="#E2001A" d="M153.297,34.816l-0.971-5.901c-0.183-1.181-0.367-2.493-0.522-4.014h-0.054
		c-0.289,1.548-0.629,3.017-1.075,4.643l-1.416,5.272h-4.564l-1.39-4.695c-0.473-1.626-0.918-3.436-1.153-5.22h-0.053
		c-0.157,1.758-0.342,3.096-0.525,4.433l-0.734,5.482h-4.903l2.938-17.706h5.508l1.863,6.138c0.367,1.232,0.655,2.465,0.944,4.013
		h0.052c0.262-1.495,0.577-2.702,1.023-4.092l1.889-6.059h5.35l2.912,17.706H153.297z"/>
	<polygon fill="#E2001A" points="159.829,34.816 159.829,17.111 170.189,17.111 170.189,21.255 164.708,21.255 164.708,23.747 
		169.9,23.747 169.9,27.734 164.708,27.734 164.708,30.594 170.189,30.594 170.189,34.816 	"/>
	<path fill="#E2001A" d="M181.704,34.816l-2.964-6.061c-0.682-1.389-1.312-2.805-1.758-3.986c0.104,1.049,0.131,1.652,0.131,2.807
		v7.239h-4.694V17.111h6.243l2.57,5.272c0.76,1.574,1.547,3.174,2.149,4.59c-0.131-1.206-0.184-2.57-0.184-3.671v-6.19h4.695v17.706
		H181.704z"/>
	<polygon fill="#E2001A" points="197.914,21.307 197.914,34.816 193.035,34.816 193.035,21.307 189.205,21.307 189.205,17.111 
		201.742,17.111 201.742,21.307 	"/>
	<path fill="#E2001A" d="M212.414,34.816l-0.918-2.885h-5.457l-0.891,2.885h-4.826l5.77-17.706h5.589l6.059,17.706H212.414z
		 M209.555,25.872c-0.314-1.023-0.632-1.968-0.812-3.069h-0.053c-0.156,1.023-0.499,2.204-0.865,3.357l-0.604,1.941h3.042
		L209.555,25.872z"/>
	<path fill="none" stroke="#E2001A" stroke-width="3.227" stroke-miterlimit="10" d="M219.973,13.81l6.271,10.861
		c0.319,0.553,0.319,1.235,0,1.788l-6.271,10.861c-0.32,0.553-0.91,0.894-1.55,0.894H38.832c-0.649,0-1.249-0.353-1.563-0.922
		l-5.91-10.67c-0.295-0.532-0.299-1.176-0.012-1.712l5.926-11.051c0.312-0.581,0.918-0.943,1.576-0.943h179.576
		C219.062,12.916,219.652,13.256,219.973,13.81z"/>
	<path fill="#E2001A" d="M52.9,13.771l6.271,10.861c0.319,0.553,0.319,1.235,0,1.788L52.9,37.281
		c-0.32,0.553-0.91,0.894-1.549,0.894H38.831c-0.649,0-1.25-0.353-1.563-0.922l-5.91-10.67c-0.294-0.532-0.299-1.176-0.012-1.712
		l5.927-11.051c0.312-0.581,0.916-0.943,1.575-0.943h12.504C51.99,12.877,52.58,13.218,52.9,13.771"/>
	<path fill="none" stroke="#E2001A" stroke-width="3.227" stroke-miterlimit="10" d="M52.9,13.771l6.271,10.861
		c0.319,0.553,0.319,1.235,0,1.788L52.9,37.281c-0.32,0.553-0.91,0.894-1.549,0.894H38.831c-0.649,0-1.25-0.353-1.563-0.922
		l-5.91-10.67c-0.294-0.532-0.299-1.176-0.012-1.712l5.927-11.051c0.312-0.581,0.916-0.943,1.575-0.943h12.504
		C51.99,12.877,52.58,13.218,52.9,13.771z"/>
	<path fill="#FFFFFF" d="M49.91,17.491h-9.276l-4.64,8.034l4.64,8.034h9.276l4.639-8.034L49.91,17.491z M45.271,29.346
		c-2.109,0-3.82-1.709-3.82-3.821c0-2.11,1.711-3.82,3.82-3.82s3.82,1.71,3.82,3.82C49.092,27.637,47.381,29.346,45.271,29.346"/>
</g>
</svg>
