<?xml version="1.0" encoding="utf-8"?>
<!-- Generator: Adobe Illustrator 14.0.0, SVG Export Plug-In . SVG Version: 6.00 Build 43363)  -->
<!DOCTYPE svg PUBLIC "-//W3C//DTD SVG 1.0//EN" "http://www.w3.org/TR/2001/REC-SVG-20010904/DTD/svg10.dtd">
<svg version="1.0" id="guajana" xmlns="http://www.w3.org/2000/svg" xmlns:xlink="http://www.w3.org/1999/xlink" x="0px" y="0px"
	 width="106.599px" height="30.998px" viewBox="76.065 10.045 106.599 30.998"
	 enable-background="new 76.065 10.045 106.599 30.998" xml:space="preserve">
<g>
	<path fill="none" stroke="#172983" stroke-width="3.227" stroke-miterlimit="10" d="M173.951,13.828l6.271,10.861
		c0.319,0.553,0.319,1.235,0,1.788l-6.271,10.861c-0.32,0.553-0.91,0.895-1.549,0.895h-85.65c-0.649,0-1.25-0.354-1.563-0.922
		l-5.91-10.672c-0.293-0.531-0.297-1.176-0.012-1.71l5.928-11.051c0.311-0.582,0.916-0.943,1.576-0.943h85.632
		C173.041,12.935,173.631,13.275,173.951,13.828z"/>
	<path fill="#172983" d="M119.495,35.068c-6.951,0-8.395-4.801-8.395-8.366c0-5.902,3.332-9.704,9.127-9.704
		c1.155,0,2.389,0.157,3.412,0.419l-0.552,4.406c-0.84-0.235-1.862-0.394-2.86-0.394c-2.308,0-3.75,1.601-3.75,4.459
		c0,3.069,1.182,4.721,3.936,4.721c0.76,0,1.939-0.184,2.676-0.498l0.576,4.354C122.432,34.859,120.911,35.068,119.495,35.068"/>
	<path fill="#172983" d="M136.385,34.833l-0.918-2.886h-5.457l-0.891,2.886h-4.826l5.771-17.705h5.585l6.059,17.705H136.385z
		 M133.526,25.89c-0.314-1.023-0.629-1.968-0.812-3.069h-0.053c-0.156,1.022-0.498,2.204-0.865,3.357l-0.604,1.94h3.043
		L133.526,25.89z"/>
	<path fill="#172983" d="M146.217,35.175c-1.207,0-2.465-0.104-3.646-0.366l0.264-4.459c0.972,0.34,2.439,0.629,3.775,0.629
		c1.182,0,1.94-0.498,1.94-1.312c0-2.571-6.608-1.052-6.608-7.109c0-3.514,2.701-5.771,7.371-5.771c0.891,0,2.125,0.105,3.225,0.288
		l-0.262,4.225c-1.021-0.289-2.072-0.474-3.146-0.474c-1.364,0-1.94,0.552-1.94,1.233c0,2.23,6.608,1.363,6.608,6.898
		C153.797,32.499,150.938,35.175,146.217,35.175"/>
	<path fill="#172983" d="M166.096,34.833l-0.918-2.886h-5.455l-0.892,2.886h-4.826l5.771-17.705h5.588l6.059,17.705H166.096z
		 M163.238,25.89c-0.314-1.023-0.631-1.968-0.814-3.069h-0.051c-0.158,1.022-0.5,2.204-0.867,3.357l-0.602,1.94h3.041L163.238,25.89
		z"/>
	<path fill="none" stroke="#172983" stroke-width="3.227" stroke-miterlimit="10" d="M100.821,13.79l6.271,10.86
		c0.318,0.554,0.318,1.235,0,1.788L100.821,37.3c-0.32,0.554-0.91,0.894-1.549,0.894H86.752c-0.649,0-1.25-0.353-1.563-0.922
		l-5.91-10.67c-0.293-0.531-0.299-1.175-0.012-1.711l5.928-11.051c0.311-0.582,0.916-0.943,1.574-0.943h12.504
		C99.911,12.896,100.5,13.236,100.821,13.79z"/>
	<path fill="#172983" d="M99.879,17.645c-0.311,0.36-4.643,5.046-5.563,6.043c0.418,0.318,0.559,0.894,0.303,1.364
		c-0.182,0.33-0.51,0.525-0.863,0.551l0.002,0.004l-0.631,0.133l-0.52,0.952c0.168,0.146,0.229,0.385,0.117,0.588
		c-0.109,0.201-0.345,0.279-0.558,0.219l-1.004,1.843c0.381,0.274,0.486,0.849,0.223,1.333c-0.268,0.488-0.803,0.707-1.241,0.535
		l-1.131,2.074c0.62,2.479,0.891,3.689,1.913,1.812c1.214-2.227,8.902-16.333,9.384-17.215
		C100.618,17.313,100.225,17.241,99.879,17.645"/>
	<path fill="#172983" d="M92.418,26.589l0.431-0.791l-2.839,0.62l-0.155-0.448c0.062-0.113,0.121-0.223,0.184-0.337l0.137,0.396
		l2.839-0.615l0.051-0.008c-0.447-0.312-0.607-0.908-0.347-1.388c0.255-0.467,0.81-0.663,1.3-0.491
		c0.338-1.312,1.93-7.496,2.063-7.953c0.15-0.51-0.123-0.799-0.432-0.233c-0.48,0.882-8.168,14.987-9.383,17.214
		c-1.023,1.879,0.141,1.448,2.559,0.627l1.131-2.074c-0.381-0.274-0.488-0.844-0.221-1.334c0.262-0.483,0.801-0.707,1.238-0.535
		l1.006-1.844c-0.168-0.145-0.229-0.383-0.117-0.586C91.971,26.605,92.206,26.525,92.418,26.589"/>
	<path fill="#192C7F" d="M86.36,39.752c-0.848,0-1.631-0.452-2.055-1.188L77.471,26.73c-0.425-0.733-0.425-1.639,0-2.373
		l6.834-11.834c0.424-0.734,1.207-1.187,2.055-1.187h13.664c0.85,0,1.633,0.452,2.057,1.187l6.832,11.834
		c0.424,0.734,0.424,1.639,0,2.373l-6.832,11.834c-0.424,0.734-1.207,1.188-2.057,1.188H86.36z"/>
	<path fill="#FFFFFF" d="M100.702,16.774c-0.35,0.406-5.229,5.686-6.27,6.811c0.471,0.356,0.629,1.006,0.34,1.535
		c-0.203,0.372-0.574,0.592-0.972,0.621l0.003,0.004l-0.714,0.15l-0.584,1.072c0.189,0.162,0.259,0.434,0.134,0.66
		c-0.123,0.229-0.39,0.316-0.627,0.248l-1.134,2.076c0.431,0.311,0.55,0.955,0.25,1.502c-0.299,0.551-0.903,0.797-1.396,0.604
		l-1.275,2.338c0.699,2.793,1.002,4.156,2.156,2.041c1.367-2.51,10.031-18.404,10.572-19.397
		C101.534,16.401,101.092,16.32,100.702,16.774"/>
	<path fill="#FFFFFF" d="M92.295,26.854l0.484-0.893l-3.199,0.698l-0.176-0.505c0.07-0.128,0.139-0.251,0.207-0.38l0.156,0.445
		l3.194-0.691l0.058-0.008c-0.502-0.354-0.683-1.025-0.388-1.565c0.285-0.526,0.91-0.747,1.461-0.553
		c0.382-1.48,2.177-8.447,2.326-8.962c0.17-0.574-0.139-0.901-0.483-0.264c-0.543,0.993-9.205,16.888-10.572,19.396
		c-1.154,2.115,0.156,1.632,2.883,0.707l1.273-2.338c-0.431-0.312-0.552-0.951-0.25-1.502c0.297-0.547,0.903-0.797,1.397-0.604
		l1.131-2.078c-0.188-0.161-0.256-0.433-0.131-0.659S92.055,26.781,92.295,26.854"/>
</g>
</svg>
