<?xml version="1.0" encoding="utf-8"?>
<!-- Generator: Adobe Illustrator 14.0.0, SVG Export Plug-In . SVG Version: 6.00 Build 43363)  -->
<!DOCTYPE svg PUBLIC "-//W3C//DTD SVG 1.0//EN" "http://www.w3.org/TR/2001/REC-SVG-20010904/DTD/svg10.dtd">
<svg version="1.0" id="guajana" xmlns="http://www.w3.org/2000/svg" xmlns:xlink="http://www.w3.org/1999/xlink" x="0px" y="0px"
	 width="170.692px" height="30.191px" viewBox="43.438 10.31 170.692 30.191" enable-background="new 43.438 10.31 170.692 30.191"
	 xml:space="preserve">
<g>
	<rect x="78.589" y="17.111" fill="#009EE0" width="4.879" height="17.706"/>
	<path fill="#009EE0" d="M92.067,34.947c-1.916,0-3.83-0.053-5.613-0.157V17.164c1.389-0.078,3.803-0.158,6.373-0.158
		c5.168,0,8.787,2.125,8.787,8.525C101.614,31.589,97.812,34.947,92.067,34.947 M92.565,21.125c-0.576,0-0.865,0-1.232,0.053v9.468
		c0.209,0.053,0.549,0.08,1.127,0.08c2.179,0,3.881-1.496,3.881-4.8C96.341,23.169,95.817,21.125,92.565,21.125"/>
	<path fill="#009EE0" d="M111.923,34.816l-3.332-6.453h-0.184v6.453h-4.879V17.111c1.652-0.105,3.83-0.131,6.061-0.131
		c4.511,0,7.029,1.6,7.029,5.534c0,2.099-1.182,4.118-3.229,4.853c0.475,0.708,0.895,1.363,1.286,2.046l3.173,5.403H111.923z
		 M109.325,20.993c-0.313,0-0.762,0.026-0.918,0.054v3.802c0.184,0.026,0.551,0.053,0.814,0.053c1.336,0,2.254-0.708,2.254-2.019
		C111.476,21.833,110.927,20.993,109.325,20.993"/>
	<path fill="#009EE0" d="M129.962,34.816l-0.918-2.885h-5.457l-0.891,2.885h-4.826l5.771-17.706h5.586l6.059,17.706H129.962z
		 M127.103,25.872c-0.314-1.022-0.629-1.968-0.812-3.069h-0.053c-0.156,1.023-0.498,2.205-0.865,3.357l-0.604,1.941h3.043
		L127.103,25.872z"/>
	<path fill="#009EE0" d="M143.073,35.184c-5.693,0-7.188-3.018-7.188-6.769V17.111h4.878V28.18c0,1.889,0.577,2.911,2.598,2.911
		c1.969,0,2.598-0.84,2.598-3.043V17.111h4.825v10.677C150.783,32.928,147.82,35.184,143.073,35.184"/>
	<polygon fill="#009EE0" points="153.615,34.816 153.615,17.111 158.494,17.111 158.494,30.462 163.373,30.462 163.373,34.816 	"/>
	<rect x="164.945" y="17.111" fill="#009EE0" width="4.879" height="17.706"/>
	<path fill="#009EE0" d="M180.186,35.053c-6.951,0-8.396-4.802-8.396-8.367c0-5.902,3.332-9.706,9.129-9.706
		c1.154,0,2.388,0.158,3.41,0.42l-0.551,4.406c-0.84-0.236-1.863-0.394-2.859-0.394c-2.307,0-3.752,1.601-3.752,4.459
		c0,3.07,1.183,4.723,3.937,4.723c0.762,0,1.94-0.185,2.676-0.5l0.576,4.354C183.123,34.842,181.602,35.053,180.186,35.053"/>
	<path fill="#009EE0" d="M197.076,34.816l-0.918-2.885h-5.455l-0.891,2.885h-4.826l5.77-17.706h5.586l6.062,17.706H197.076z
		 M194.217,25.872c-0.312-1.022-0.629-1.968-0.812-3.069h-0.051c-0.158,1.023-0.5,2.205-0.867,3.357l-0.604,1.941h3.043
		L194.217,25.872z"/>
	<path fill="none" stroke="#009EE0" stroke-width="3.227" stroke-miterlimit="10" d="M205.113,13.809l6.271,10.861
		c0.318,0.553,0.318,1.235,0,1.788l-6.271,10.86c-0.318,0.554-0.91,0.895-1.547,0.895H53.69c-0.65,0-1.248-0.354-1.564-0.922
		l-5.909-10.67c-0.294-0.532-0.3-1.177-0.013-1.712l5.928-11.051c0.312-0.582,0.916-0.943,1.574-0.943h149.86
		C204.203,12.916,204.795,13.256,205.113,13.809z"/>
	<path fill="#009EE0" d="M67.759,13.771l6.271,10.86c0.318,0.554,0.318,1.235,0,1.788l-6.271,10.86
		c-0.319,0.554-0.909,0.895-1.549,0.895H53.69c-0.65,0-1.249-0.354-1.564-0.922l-5.909-10.67c-0.294-0.532-0.3-1.176-0.013-1.712
		l5.928-11.051c0.312-0.581,0.916-0.943,1.574-0.943H66.21C66.849,12.876,67.438,13.217,67.759,13.771"/>
	<path fill="none" stroke="#009EE0" stroke-width="3.227" stroke-miterlimit="10" d="M67.759,13.771l6.271,10.86
		c0.318,0.554,0.318,1.235,0,1.788l-6.271,10.86c-0.319,0.554-0.909,0.895-1.549,0.895H53.69c-0.65,0-1.249-0.354-1.564-0.922
		l-5.909-10.67c-0.294-0.532-0.3-1.176-0.013-1.712l5.928-11.051c0.312-0.581,0.916-0.943,1.574-0.943H66.21
		C66.849,12.876,67.438,13.217,67.759,13.771z"/>
	<path fill="#FFFFFF" d="M59.081,32.023c-0.598,0.771-0.984,2.183-1.03,2.744c-0.024,0.322-0.042,0.43-0.042,0.604
		c0,0.35,0.004,0.865,0.004,1.223h-5.831c0.012-2.174,0.006-4.812,0-6.809c-0.013-3.29-0.021-6.399,0.048-9.855
		c0.002-0.108,0.041-0.213,0.109-0.294c0.08-0.094,0.164-0.191,1.684-0.745c0.957-0.349,2.128-0.746,3.295-1.119
		c1.827-0.582,5.12-1.569,6.646-1.646c0.017,0,0.074-0.008,0.119-0.014c0.146-0.021,0.359-0.051,0.57-0.051
		c0.801,0,0.926,0.475,0.94,0.678c0.025,0.338-0.223,0.53-0.758,0.86c-0.33,0.203-0.795,0.465-1.418,0.8
		c-1.125,0.604-2.547,1.325-3.688,1.904c-0.756,0.383-1.533,0.777-1.873,0.962c-0.064,1.11-0.037,2.274-0.01,3.403
		c0.013,0.554,0.026,1.119,0.028,1.684c0.606-0.332,6.222-3.039,8.021-3.438c0.348-0.076,1.258-0.256,2.231-0.256
		c1.496,0,2.394,0.422,2.668,1.25c0.158,0.479,0.111,1.047,0.062,1.596c-0.021,0.254-0.041,0.494-0.039,0.701
		c0.004,0.17-0.086,0.319-0.219,0.399c-0.072,0.142-0.216,0.283-0.507,0.308c-0.1,0.008-0.227,0.013-0.387,0.013
		c-0.172,0-0.363-0.005-0.549-0.009c-0.178-0.006-0.361-0.011-0.52-0.011c-0.105,0-0.191,0.002-0.261,0.007
		c-0.207,0.014-0.393-0.134-0.44-0.347c-0.045-0.199-0.14-0.438-0.215-0.627c-0.025-0.069-0.048-0.132-0.066-0.188
		c-0.008-0.024-0.018-0.055-0.025-0.08C64.97,25.669,60.208,30.564,59.081,32.023 M69.396,32.766L69.396,32.766
		c0.145,0,0.285-0.027,0.426-0.078c0.238-0.09,0.455-0.26,0.609-0.477c0.17-0.242,0.258-0.536,0.25-0.85
		c-0.009-0.316-0.123-0.574-0.25-0.832c-0.105-0.213-0.216-0.411-0.322-0.602c-0.258-0.466-0.502-0.904-0.652-1.509
		c-0.01-0.035-0.041-0.06-0.076-0.058c-0.036,0.002-0.075,0.033-0.073,0.092c-0.072,0.334-0.216,0.637-0.341,0.902
		c-0.088,0.189-0.19,0.377-0.291,0.56c-0.051,0.089-0.102,0.181-0.149,0.271c-0.025,0.051-0.053,0.101-0.082,0.152
		c-0.123,0.221-0.264,0.473-0.318,0.754c-0.078,0.387-0.002,0.784,0.205,1.09C68.573,32.542,68.981,32.766,69.396,32.766"/>
</g>
</svg>
