<?xml version="1.0" encoding="utf-8"?>
<!-- Generator: Adobe Illustrator 14.0.0, SVG Export Plug-In . SVG Version: 6.00 Build 43363)  -->
<!DOCTYPE svg PUBLIC "-//W3C//DTD SVG 1.0//EN" "http://www.w3.org/TR/2001/REC-SVG-20010904/DTD/svg10.dtd">
<svg version="1.0" id="guajana" xmlns="http://www.w3.org/2000/svg" xmlns:xlink="http://www.w3.org/1999/xlink" x="0px" y="0px"
	 width="181.237px" height="31.069px" viewBox="38.844 10.233 181.237 31.069"
	 enable-background="new 38.844 10.233 181.237 31.069" xml:space="preserve">
<g>
	<path fill="none" stroke="#EFCC00" stroke-width="3.227" stroke-miterlimit="10" d="M211.059,14.132l6.271,10.861
		c0.319,0.553,0.319,1.233,0,1.788l-6.271,10.859c-0.319,0.555-0.91,0.896-1.55,0.896H49.947c-0.651,0-1.249-0.354-1.563-0.923
		l-5.909-10.67c-0.295-0.531-0.3-1.176-0.013-1.711l5.927-11.052c0.312-0.581,0.916-0.942,1.575-0.942H209.51
		C210.148,13.238,210.739,13.579,211.059,14.132z"/>
	<path fill="none" stroke="#EFCC00" stroke-width="3.227" stroke-miterlimit="10" d="M64.016,14.094l6.271,10.86
		c0.319,0.553,0.319,1.235,0,1.788l-6.271,10.861c-0.32,0.553-0.91,0.894-1.55,0.894H49.946c-0.649,0-1.248-0.353-1.563-0.922
		l-5.908-10.671c-0.295-0.531-0.301-1.175-0.014-1.711l5.928-11.051c0.311-0.581,0.916-0.943,1.574-0.943h12.504
		C63.105,13.199,63.695,13.54,64.016,14.094z"/>
	<polygon fill="#FFFFFF" points="200.98,16.646 194.922,14.312 196.678,10.981 202.476,13.84 	"/>
	<polygon fill="none" stroke="#FFFFFF" stroke-width="2" stroke-miterlimit="10" points="200.98,16.646 194.922,14.312 
		196.678,10.981 202.476,13.84 	"/>
	<polygon fill="#EFCC00" points="74.744,35.139 74.744,17.434 85.105,17.434 85.105,21.578 79.623,21.578 79.623,24.07 
		84.816,24.07 84.816,28.057 79.623,28.057 79.623,30.916 85.105,30.916 85.105,35.139 	"/>
	<polygon fill="#EFCC00" points="87.334,35.139 87.334,17.434 92.213,17.434 92.213,30.785 97.092,30.785 97.092,35.139 	"/>
	<polygon fill="#EFCC00" points="98.665,35.139 98.665,17.434 109.025,17.434 109.025,21.578 103.544,21.578 103.544,24.07 
		108.736,24.07 108.736,28.057 103.544,28.057 103.544,30.916 109.025,30.916 109.025,35.139 	"/>
	<polygon fill="#EFCC00" points="119.02,21.63 119.02,35.139 114.141,35.139 114.141,21.63 110.311,21.63 110.311,17.434 
		122.849,17.434 122.849,21.63 	"/>
	<polygon fill="#EFCC00" points="132.188,21.63 132.188,35.139 127.309,35.139 127.309,21.63 123.479,21.63 123.479,17.434 
		136.017,17.434 136.017,21.63 	"/>
	<path fill="#EFCC00" d="M145.721,35.139l-3.33-6.451h-0.186v6.451h-4.879V17.434c1.651-0.104,3.83-0.131,6.061-0.131
		c4.512,0,7.028,1.6,7.028,5.534c0,2.099-1.182,4.119-3.227,4.853c0.473,0.709,0.893,1.365,1.285,2.047l3.174,5.402H145.721z
		 M143.124,21.315c-0.312,0-0.761,0.026-0.918,0.054v3.802c0.186,0.026,0.551,0.053,0.813,0.053c1.338,0,2.256-0.708,2.256-2.019
		C145.275,22.155,144.725,21.315,143.124,21.315"/>
	<rect x="152.697" y="17.434" fill="#EFCC00" width="4.879" height="17.705"/>
	<path fill="#EFCC00" d="M167.938,35.375c-6.951,0-8.396-4.801-8.396-8.367c0-5.902,3.332-9.704,9.129-9.704
		c1.154,0,2.388,0.156,3.41,0.419l-0.551,4.406c-0.84-0.235-1.863-0.394-2.859-0.394c-2.307,0-3.752,1.6-3.752,4.458
		c0,3.07,1.183,4.723,3.937,4.723c0.762,0,1.94-0.184,2.676-0.499l0.577,4.354C170.875,35.165,169.354,35.375,167.938,35.375"/>
	<rect x="174.284" y="17.434" fill="#EFCC00" width="4.879" height="17.705"/>
	<polygon fill="#EFCC00" points="189.183,21.63 189.183,35.139 184.304,35.139 184.304,21.63 180.474,21.63 180.474,17.434 
		193.012,17.434 193.012,21.63 	"/>
	<path fill="#EFCC00" d="M203.682,35.139l-0.918-2.885h-5.455l-0.892,2.885h-4.826l5.771-17.705h5.587l6.06,17.705H203.682z
		 M200.98,16.646l-6.06-2.334l1.756-3.331l5.798,2.859L200.98,16.646z M200.823,26.193c-0.313-1.021-0.63-1.966-0.813-3.067h-0.052
		c-0.157,1.022-0.499,2.203-0.866,3.356l-0.603,1.94h3.042L200.823,26.193z"/>
	<path fill="#EFCC00" d="M55.318,25.706h-3.343c0.039-0.101,5.079-10.101,5.165-10.101c1.633-0.012,3.269-0.009,4.963-0.009
		c-1.486,2.354-2.951,4.672-4.438,7.027h4.268l0.041,0.071c-3.904,4.494-7.811,8.988-11.716,13.48
		c-0.016-0.012-0.029-0.021-0.047-0.033C51.905,32.684,53.598,29.223,55.318,25.706"/>
	<path fill="#EFCC00" d="M49.294,40.107c-0.852,0-1.639-0.453-2.063-1.19l-6.863-11.89c-0.426-0.736-0.426-1.646,0-2.383
		l6.863-11.888c0.426-0.738,1.213-1.192,2.063-1.192h13.729c0.852,0,1.639,0.454,2.063,1.192l6.863,11.888
		c0.426,0.738,0.426,1.646,0,2.383l-6.863,11.89c-0.426,0.737-1.213,1.19-2.063,1.19H49.294z"/>
	<path fill="#FFFFFF" d="M63.792,23.064c-0.082-0.136-0.177-0.204-0.286-0.204h-2.08v-7.275c0-0.218-0.081-0.407-0.243-0.57
		c-0.164-0.163-0.361-0.245-0.594-0.245c-0.231,0-0.428,0.082-0.591,0.245s-0.245,0.353-0.245,0.57v7.275h-6.689v-7.275
		c0-0.218-0.082-0.407-0.246-0.57c-0.162-0.163-0.359-0.245-0.591-0.245c-0.232,0-0.43,0.082-0.593,0.245
		c-0.162,0.163-0.243,0.353-0.243,0.57v7.275h-2.08c-0.109,0-0.211,0.068-0.308,0.204c-0.096,0.136-0.143,0.271-0.143,0.408v1.999
		c0,0.517,0.217,1.142,0.652,1.876c0.436,0.733,0.918,1.428,1.447,2.082c0.53,0.65,1.014,1.446,1.448,2.385s0.653,1.844,0.653,2.713
		v1.307h1.672v1.673h3.346v-1.673h1.673v-1.307c0-0.869,0.219-1.773,0.653-2.713c0.435-0.938,0.91-1.733,1.428-2.385
		c0.517-0.654,0.992-1.349,1.429-2.082c0.436-0.734,0.651-1.36,0.651-1.876v-1.999C63.914,23.336,63.874,23.2,63.792,23.064"/>
</g>
</svg>
