<?xml version="1.0" encoding="utf-8"?>
<!-- Generator: Adobe Illustrator 14.0.0, SVG Export Plug-In . SVG Version: 6.00 Build 43363)  -->
<!DOCTYPE svg PUBLIC "-//W3C//DTD SVG 1.0//EN" "http://www.w3.org/TR/2001/REC-SVG-20010904/DTD/svg10.dtd">
<svg version="1.0" id="guajana" xmlns="http://www.w3.org/2000/svg" xmlns:xlink="http://www.w3.org/1999/xlink" x="0px" y="0px"
	 width="171.742px" height="30.814px" viewBox="43.842 10.137 171.742 30.814"
	 enable-background="new 43.842 10.137 171.742 30.814" xml:space="preserve">
<g>
	<path fill="#E2007A" d="M82.996,35.139c-1.207,0-2.466-0.104-3.646-0.367l0.262-4.459c0.97,0.342,2.438,0.631,3.777,0.631
		c1.18,0,1.939-0.498,1.939-1.312c0-2.57-6.609-1.05-6.609-7.108c0-3.515,2.701-5.771,7.37-5.771c0.892,0,2.125,0.104,3.228,0.288
		l-0.262,4.224c-1.023-0.289-2.074-0.473-3.148-0.473c-1.364,0-1.941,0.551-1.941,1.232c0,2.23,6.61,1.364,6.61,6.899
		C90.576,32.464,87.718,35.139,82.996,35.139"/>
	<rect x="92.491" y="17.093" fill="#E2007A" width="4.879" height="17.705"/>
	<path fill="#E2007A" d="M107.729,35.034c-6.951,0-8.396-4.802-8.396-8.367c0-5.902,3.332-9.705,9.129-9.705
		c1.154,0,2.388,0.157,3.41,0.419l-0.551,4.407c-0.84-0.235-1.863-0.394-2.859-0.394c-2.308,0-3.752,1.6-3.752,4.459
		c0,3.069,1.183,4.722,3.937,4.722c0.762,0,1.94-0.185,2.676-0.499l0.577,4.354C110.667,34.824,109.146,35.034,107.729,35.034"/>
	<path fill="#E2007A" d="M121.265,35.165c-5.691,0-7.188-3.017-7.188-6.769V17.093h4.879v11.069c0,1.888,0.578,2.91,2.598,2.91
		c1.968,0,2.597-0.84,2.597-3.043V17.093h4.826V27.77C128.976,32.909,126.012,35.165,121.265,35.165"/>
	<path fill="#E2007A" d="M140.2,34.798l-3.33-6.452h-0.185v6.452h-4.879V17.093c1.65-0.105,3.83-0.131,6.06-0.131
		c4.512,0,7.029,1.6,7.029,5.534c0,2.099-1.183,4.117-3.228,4.854c0.474,0.707,0.894,1.363,1.285,2.045l3.174,5.403H140.2z
		 M137.604,20.975c-0.313,0-0.762,0.026-0.918,0.053v3.803c0.185,0.026,0.552,0.053,0.812,0.053c1.338,0,2.256-0.708,2.256-2.02
		C139.755,21.814,139.204,20.975,137.604,20.975"/>
	<polygon fill="#E2007A" points="147.177,34.798 147.177,17.093 157.538,17.093 157.538,21.237 152.056,21.237 152.056,23.729 
		157.249,23.729 157.249,27.716 152.056,27.716 152.056,30.575 157.538,30.575 157.538,34.798 	"/>
	<path fill="#E2007A" d="M159.637,34.798v-3.854l4.879-8.499c0.21-0.342,0.42-0.683,0.683-0.997
		c-0.289,0.025-0.604,0.025-2.23,0.025h-3.174v-4.38h11.463v4.039l-5.141,8.446c-0.158,0.236-0.289,0.472-0.5,0.734
		c0.263-0.026,0.972-0.026,2.965-0.026h2.808v4.512H159.637z"/>
	<path fill="#E2007A" d="M173.643,34.798v-3.854l4.879-8.499c0.21-0.342,0.42-0.683,0.683-0.997
		c-0.289,0.025-0.604,0.025-2.229,0.025H173.8v-4.38h11.464v4.039l-5.142,8.446c-0.158,0.236-0.289,0.472-0.5,0.734
		c0.263-0.026,0.972-0.026,2.965-0.026h2.808v4.512H173.643z"/>
	<path fill="#E2007A" d="M198.325,34.798l-0.918-2.885h-5.457l-0.891,2.885h-4.826l5.771-17.705h5.587l6.06,17.705H198.325z
		 M195.466,25.854c-0.313-1.022-0.63-1.968-0.812-3.069h-0.053c-0.156,1.023-0.498,2.204-0.865,3.357l-0.604,1.94h3.042
		L195.466,25.854z"/>
	<path fill="none" stroke="#E2007A" stroke-width="3.227" stroke-miterlimit="10" d="M206.238,13.792l6.271,10.86
		c0.319,0.554,0.319,1.235,0,1.788l-6.271,10.861c-0.319,0.553-0.91,0.895-1.548,0.895H54.425c-0.649,0-1.25-0.354-1.563-0.922
		l-5.91-10.67c-0.294-0.531-0.299-1.176-0.012-1.712l5.927-11.051c0.312-0.581,0.917-0.943,1.575-0.943h150.25
		C205.328,12.897,205.919,13.239,206.238,13.792z"/>
	<path fill="none" stroke="#E2007A" stroke-width="3.227" stroke-miterlimit="10" d="M68.493,13.753l6.271,10.861
		c0.318,0.553,0.318,1.234,0,1.789l-6.271,10.859c-0.32,0.555-0.91,0.895-1.549,0.895H54.424c-0.649,0-1.25-0.354-1.563-0.922
		l-5.91-10.67c-0.294-0.531-0.299-1.176-0.012-1.711l5.927-11.052c0.312-0.581,0.916-0.942,1.575-0.942h12.504
		C67.583,12.859,68.173,13.2,68.493,13.753z"/>
	<path fill="#E2007A" d="M65.656,34.799h-9.584c-0.446,0-0.81-0.363-0.81-0.811v-7.962c0-0.447,0.362-0.81,0.81-0.81h9.584
		c0.447,0,0.81,0.362,0.81,0.81v7.962C66.466,34.436,66.104,34.799,65.656,34.799"/>
	<path fill="none" stroke="#E2007A" stroke-width="1.534" stroke-miterlimit="10" d="M60.963,28.57L60.963,28.57
		c-2.177,0-3.941-1.764-3.941-3.94v-3.185c0-2.177,1.766-3.94,3.941-3.94c2.177,0,3.942,1.764,3.942,3.94v3.185
		C64.905,26.807,63.14,28.57,60.963,28.57z"/>
	<path fill="#E2007A" d="M54.05,39.716c-0.847,0-1.627-0.45-2.051-1.183l-6.813-11.807c-0.424-0.73-0.424-1.633,0-2.366
		l6.813-11.805c0.424-0.731,1.204-1.183,2.051-1.183h13.632c0.845,0,1.625,0.451,2.049,1.183l6.815,11.805
		c0.422,0.732,0.422,1.635,0,2.366L69.73,38.533c-0.424,0.73-1.204,1.183-2.049,1.183H54.05z"/>
	<path fill="#FFFFFF" d="M66.375,34.504H55.354c-0.516,0-0.933-0.417-0.933-0.932v-9.155c0-0.516,0.417-0.933,0.933-0.933h11.021
		c0.515,0,0.932,0.417,0.932,0.933v9.155C67.306,34.087,66.889,34.504,66.375,34.504"/>
	<path fill="none" stroke="#FFFFFF" stroke-width="1.765" stroke-miterlimit="10" d="M60.94,30.016L60.94,30.016
		c-2.504,0-4.533-2.029-4.533-4.534V21.82c0-2.503,2.029-4.532,4.533-4.532c2.502,0,4.533,2.029,4.533,4.532v3.661
		C65.474,27.984,63.442,30.016,60.94,30.016z"/>
</g>
</svg>
