<?xml version="1.0" encoding="utf-8"?>
<!-- Generator: Adobe Illustrator 14.0.0, SVG Export Plug-In . SVG Version: 6.00 Build 43363)  -->
<!DOCTYPE svg PUBLIC "-//W3C//DTD SVG 1.0//EN" "http://www.w3.org/TR/2001/REC-SVG-20010904/DTD/svg10.dtd">
<svg version="1.0" id="guajana" xmlns="http://www.w3.org/2000/svg" xmlns:xlink="http://www.w3.org/1999/xlink" x="0px" y="0px"
	 width="191.196px" height="30.782px" viewBox="33.105 9.424 191.196 30.782" enable-background="new 33.105 9.424 191.196 30.782"
	 xml:space="preserve">
<g>
	<path fill="#635038" d="M75.731,34.396c-5.691,0-7.188-3.017-7.188-6.768V16.325h4.879v11.069c0,1.889,0.578,2.91,2.598,2.91
		c1.968,0,2.597-0.84,2.597-3.043V16.325h4.826v10.676C83.442,32.141,80.479,34.396,75.731,34.396"/>
	<polygon fill="#635038" points="93.514,20.521 93.514,34.031 88.635,34.031 88.635,20.521 84.805,20.521 84.805,16.325 
		97.343,16.325 97.343,20.521 	"/>
	<polygon fill="#635038" points="98.653,34.029 98.653,16.325 109.015,16.325 109.015,20.469 103.532,20.469 103.532,22.961 
		108.726,22.961 108.726,26.947 103.532,26.947 103.532,29.807 109.015,29.807 109.015,34.029 	"/>
	<path fill="#635038" d="M120.528,34.029l-2.964-6.059c-0.684-1.39-1.312-2.806-1.757-3.987c0.104,1.049,0.131,1.652,0.131,2.807
		v7.238h-4.695V16.325h6.243l2.569,5.272c0.762,1.574,1.549,3.174,2.151,4.59c-0.132-1.207-0.185-2.57-0.185-3.672v-6.19h4.693
		v17.704H120.528z"/>
	<path fill="#635038" d="M132.909,34.371c-1.207,0-2.466-0.104-3.646-0.367l0.263-4.459c0.971,0.342,2.439,0.631,3.775,0.631
		c1.181,0,1.941-0.5,1.941-1.312c0-2.57-6.609-1.049-6.609-7.107c0-3.515,2.701-5.771,7.371-5.771c0.892,0,2.125,0.105,3.226,0.288
		l-0.263,4.224c-1.021-0.289-2.071-0.473-3.146-0.473c-1.364,0-1.94,0.551-1.94,1.233c0,2.23,6.609,1.364,6.609,6.899
		C140.489,31.695,137.63,34.371,132.909,34.371"/>
	<rect x="142.404" y="16.325" fill="#635038" width="4.879" height="17.706"/>
	<polygon fill="#635038" points="150.268,34.029 150.268,16.325 155.146,16.325 155.146,29.676 160.025,29.676 160.025,34.029 	"/>
	<polygon fill="#635038" points="161.599,34.029 161.599,16.325 171.96,16.325 171.96,20.469 166.478,20.469 166.478,22.961 
		171.671,22.961 171.671,26.947 166.478,26.947 166.478,29.807 171.96,29.807 171.96,34.029 	"/>
	<path fill="#635038" d="M182.583,34.029l-3.33-6.451h-0.185v6.451h-4.879V16.325c1.65-0.105,3.83-0.131,6.06-0.131
		c4.512,0,7.029,1.6,7.029,5.534c0,2.099-1.182,4.119-3.228,4.853c0.474,0.708,0.894,1.364,1.285,2.046l3.174,5.402H182.583z
		 M179.986,20.207c-0.313,0-0.761,0.026-0.918,0.053v3.802c0.185,0.027,0.552,0.053,0.812,0.053c1.338,0,2.257-0.708,2.257-2.019
		C182.138,21.047,181.587,20.207,179.986,20.207"/>
	<rect x="189.56" y="16.325" fill="#635038" width="4.879" height="17.706"/>
	<path fill="#635038" d="M207.501,34.029l-0.918-2.885h-5.457l-0.891,2.885h-4.826l5.771-17.704h5.587l6.059,17.704H207.501z
		 M204.642,25.085c-0.314-1.022-0.63-1.968-0.812-3.069h-0.053c-0.156,1.023-0.499,2.204-0.865,3.357l-0.604,1.941h3.042
		L204.642,25.085z"/>
	<path fill="none" stroke="#635038" stroke-width="3.227" stroke-miterlimit="10" d="M215.158,13.024l6.271,10.861
		c0.318,0.553,0.318,1.235,0,1.788l-6.271,10.862c-0.319,0.553-0.91,0.895-1.548,0.895H43.646c-0.65,0-1.25-0.354-1.564-0.924
		l-5.91-10.669c-0.294-0.532-0.299-1.176-0.011-1.712l5.926-11.051c0.312-0.581,0.917-0.943,1.575-0.943H213.61
		C214.248,12.13,214.839,12.471,215.158,13.024z"/>
	<path fill="#635038" d="M57.714,12.985l6.271,10.861c0.319,0.553,0.319,1.235,0,1.788l-6.271,10.861
		c-0.319,0.553-0.909,0.894-1.549,0.894h-12.52c-0.65,0-1.25-0.353-1.564-0.922l-5.91-10.67c-0.294-0.532-0.299-1.176-0.012-1.712
		l5.927-11.051c0.312-0.581,0.916-0.943,1.575-0.943h12.504C56.804,12.091,57.394,12.432,57.714,12.985"/>
	<path fill="none" stroke="#635038" stroke-width="3.227" stroke-miterlimit="10" d="M57.714,12.985l6.271,10.861
		c0.319,0.553,0.319,1.235,0,1.788l-6.271,10.861c-0.319,0.553-0.909,0.894-1.549,0.894h-12.52c-0.65,0-1.25-0.353-1.564-0.922
		l-5.91-10.67c-0.294-0.532-0.299-1.176-0.012-1.712l5.927-11.051c0.312-0.581,0.916-0.943,1.575-0.943h12.504
		C56.804,12.091,57.394,12.432,57.714,12.985z"/>
	<path fill="#FFFFFF" d="M57.574,27.083c0-2.627-1.572-7.058-3.89-8.239v6.381c0,0,0.209,2.078-3.601,2.078
		c-3.809,0-3.6-2.078-3.6-2.078v-6.381c-2.317,1.181-3.889,5.612-3.889,8.239c0,2.149,1.053,2.424,2.396,3.422
		c3.107,2.312,0.434,8.481,0.434,8.481l8.353,0.012c0,0-1.723-6.589,1.996-8.777C56.87,29.577,57.574,28.809,57.574,27.083"/>
	<path fill="none" stroke="#635038" stroke-width="3.227" stroke-miterlimit="10" d="M57.714,12.985l6.271,10.861
		c0.319,0.553,0.319,1.235,0,1.788l-6.271,10.861c-0.319,0.553-0.909,0.894-1.549,0.894h-12.52c-0.65,0-1.25-0.353-1.564-0.922
		l-5.91-10.67c-0.294-0.532-0.299-1.176-0.012-1.712l5.927-11.051c0.312-0.581,0.916-0.943,1.575-0.943h12.504
		C56.804,12.091,57.394,12.432,57.714,12.985z"/>
</g>
</svg>
