<?xml version="1.0" encoding="utf-8"?>
<!-- Generator: Adobe Illustrator 14.0.0, SVG Export Plug-In . SVG Version: 6.00 Build 43363)  -->
<!DOCTYPE svg PUBLIC "-//W3C//DTD SVG 1.0//EN" "http://www.w3.org/TR/2001/REC-SVG-20010904/DTD/svg10.dtd">
<svg version="1.0" id="guajana" xmlns="http://www.w3.org/2000/svg" xmlns:xlink="http://www.w3.org/1999/xlink" x="0px" y="0px"
	 width="129.562px" height="30.363px" viewBox="64.375 10.4 129.562 30.363" enable-background="new 64.375 10.4 129.562 30.363"
	 xml:space="preserve">
<g>
	<path fill="#F19FC1" d="M108.33,35.059c-6.951,0-8.393-4.802-8.393-8.367c0-5.902,3.332-9.705,9.127-9.705
		c1.156,0,2.387,0.157,3.412,0.419l-0.552,4.407c-0.842-0.236-1.862-0.394-2.86-0.394c-2.308,0-3.75,1.6-3.75,4.459
		c0,3.069,1.18,4.722,3.934,4.722c0.762,0,1.941-0.185,2.678-0.498l0.576,4.354C111.27,34.85,109.748,35.059,108.33,35.059"/>
	<path fill="#F19FC1" d="M121.521,35.188c-5.562,0-8.289-3.355-8.289-8.969c0-5.719,4.039-9.47,8.998-9.47
		c4.615,0,8.287,2.491,8.287,8.918C130.518,31.438,126.559,35.188,121.521,35.188 M121.863,21.209c-1.705,0-3.438,1.312-3.438,4.644
		c0,3.016,0.972,4.852,3.332,4.852c1.521,0,3.566-1.049,3.566-4.801C125.324,22.81,124.197,21.209,121.863,21.209"/>
	<polygon fill="#F19FC1" points="132.328,34.822 132.328,17.117 137.207,17.117 137.207,30.469 142.086,30.469 142.086,34.822 	"/>
	<path fill="#F19FC1" d="M150.895,35.188c-5.562,0-8.289-3.355-8.289-8.969c0-5.719,4.039-9.47,8.996-9.47
		c4.617,0,8.289,2.491,8.289,8.918C159.891,31.438,155.93,35.188,150.895,35.188 M151.234,21.209c-1.705,0-3.437,1.312-3.437,4.644
		c0,3.016,0.972,4.852,3.332,4.852c1.521,0,3.566-1.049,3.566-4.801C154.697,22.81,153.568,21.209,151.234,21.209"/>
	<path fill="#F19FC1" d="M170.094,34.822l-3.329-6.452h-0.187v6.452h-4.879V17.117c1.652-0.105,3.83-0.132,6.061-0.132
		c4.513,0,7.029,1.601,7.029,5.535c0,2.099-1.182,4.119-3.227,4.853c0.473,0.708,0.893,1.363,1.285,2.046l3.173,5.403H170.094z
		 M167.496,20.999c-0.312,0-0.76,0.025-0.918,0.053v3.803c0.187,0.026,0.551,0.053,0.814,0.053c1.338,0,2.256-0.708,2.256-2.02
		C169.648,21.839,169.098,20.999,167.496,20.999"/>
	<rect x="177.07" y="17.117" fill="#F19FC1" width="4.879" height="17.705"/>
	<path fill="none" stroke="#F19FC1" stroke-width="3.227" stroke-miterlimit="10" d="M185.191,13.816l6.271,10.861
		c0.318,0.553,0.318,1.235,0,1.788l-6.271,10.861c-0.318,0.553-0.91,0.895-1.549,0.895H75.59c-0.651,0-1.25-0.354-1.563-0.923
		l-5.91-10.671c-0.295-0.531-0.299-1.176-0.012-1.711l5.926-11.051c0.312-0.582,0.918-0.943,1.576-0.943h108.037
		C184.281,12.923,184.873,13.264,185.191,13.816z"/>
	<path fill="none" stroke="#F19FC1" stroke-width="3.227" stroke-miterlimit="10" d="M89.658,13.778l6.271,10.86
		c0.319,0.554,0.319,1.235,0,1.788l-6.271,10.861c-0.32,0.553-0.91,0.895-1.549,0.895H75.59c-0.649,0-1.25-0.354-1.563-0.922
		l-5.91-10.671c-0.295-0.532-0.299-1.176-0.012-1.712l5.926-11.051c0.312-0.581,0.916-0.943,1.576-0.943H88.11
		C88.748,12.884,89.338,13.225,89.658,13.778z"/>
	<path fill="#F19FC1" d="M81.449,15.6c-0.184-0.295-0.574-0.384-0.869-0.198l-1.135,0.712c-0.256,0.162-0.361,0.482-0.252,0.765
		l0.877,2.242l-1.654-1.757c-0.207-0.22-0.541-0.262-0.797-0.102l-2.459,1.546c-0.227,0.143-0.34,0.414-0.279,0.675l0.088,0.385
		l-0.329-0.25c-0.209-0.157-0.494-0.171-0.718-0.03l-0.771,0.484c-0.295,0.186-0.385,0.575-0.199,0.87l3.771,5.998l8.498-5.342
		L81.449,15.6z"/>
	<path fill="#F19FC1" d="M77.424,28.057l1.093,1.735c0.09,0.144,0.229,0.242,0.395,0.278c0.162,0.037,0.334,0.009,0.476-0.08
		l1.647-1.035c0.316-0.199,0.701-0.244,1.057-0.121c0.354,0.123,0.63,0.396,0.755,0.749c1.614,4.515,1.897,4.965,1.991,5.112
		c0.668,1.064,2.078,1.386,3.144,0.717c1.064-0.669,1.383-2.079,0.715-3.143c-0.094-0.147-0.377-0.6-3.744-4.01
		c-0.264-0.267-0.389-0.633-0.346-1.006s0.248-0.701,0.563-0.9l1.648-1.034c0.295-0.187,0.383-0.576,0.197-0.871l-1.093-1.736
		L77.424,28.057z M87.49,32.962c0.262,0.417,0.137,0.97-0.279,1.229c-0.418,0.263-0.969,0.138-1.229-0.28
		c-0.265-0.417-0.138-0.968,0.278-1.229C86.678,32.419,87.229,32.545,87.49,32.962"/>
	<path fill="#F19FC1" d="M75.164,39.82c-0.854,0-1.641-0.452-2.065-1.19l-6.865-11.894c-0.426-0.736-0.426-1.646,0-2.384
		l6.865-11.892c0.426-0.738,1.213-1.192,2.065-1.192h13.73c0.854,0,1.641,0.454,2.065,1.192l6.865,11.892
		c0.426,0.738,0.426,1.647,0,2.384L90.961,38.63c-0.426,0.738-1.213,1.19-2.065,1.19H75.164z"/>
	<path fill="#FFFFFF" d="M82.529,15.714c-0.193-0.309-0.603-0.401-0.91-0.207l-1.188,0.746c-0.271,0.17-0.382,0.506-0.267,0.801
		l0.92,2.349l-1.733-1.841c-0.218-0.229-0.566-0.273-0.834-0.105l-2.576,1.619c-0.238,0.149-0.354,0.434-0.293,0.707l0.092,0.402
		l-0.346-0.262c-0.22-0.166-0.519-0.178-0.75-0.032l-0.81,0.509c-0.309,0.193-0.401,0.602-0.207,0.911l3.949,6.283l8.9-5.597
		L82.529,15.714z"/>
	<path fill="#FFFFFF" d="M78.312,28.764l1.145,1.817c0.092,0.147,0.242,0.254,0.412,0.293s0.35,0.009,0.498-0.086l1.725-1.084
		c0.334-0.209,0.736-0.254,1.107-0.127c0.371,0.129,0.658,0.416,0.793,0.784c1.689,4.729,1.986,5.201,2.084,5.355
		c0.701,1.115,2.178,1.451,3.291,0.752c1.115-0.703,1.449-2.18,0.75-3.293c-0.098-0.154-0.395-0.628-3.922-4.199
		c-0.275-0.279-0.408-0.664-0.363-1.054c0.045-0.392,0.263-0.733,0.594-0.942l1.726-1.084c0.309-0.194,0.402-0.603,0.207-0.912
		l-1.144-1.817L78.312,28.764z M88.857,33.9c0.274,0.438,0.143,1.015-0.295,1.289c-0.437,0.274-1.013,0.144-1.287-0.293
		c-0.275-0.438-0.144-1.015,0.295-1.289C88.006,33.333,88.582,33.465,88.857,33.9"/>
</g>
</svg>
