<?xml version="1.0" encoding="utf-8"?>
<!-- Generator: Adobe Illustrator 14.0.0, SVG Export Plug-In . SVG Version: 6.00 Build 43363)  -->
<!DOCTYPE svg PUBLIC "-//W3C//DTD SVG 1.0//EN" "http://www.w3.org/TR/2001/REC-SVG-20010904/DTD/svg10.dtd">
<svg version="1.0" id="Livello_1" xmlns="http://www.w3.org/2000/svg" xmlns:xlink="http://www.w3.org/1999/xlink" x="0px" y="0px"
	 width="375.023px" height="812.126px" viewBox="0 0 375.023 812.126" enable-background="new 0 0 375.023 812.126"
	 xml:space="preserve">
<g>
	<defs>
		<rect id="SVGID_1_" width="375.024" height="812.126"/>
	</defs>
	<clipPath id="SVGID_2_">
		<use xlink:href="#SVGID_1_"  overflow="visible"/>
	</clipPath>
	<g clip-path="url(#SVGID_2_)">
		<defs>
			<rect id="SVGID_3_" width="375.024" height="812.126"/>
		</defs>
		<clipPath id="SVGID_4_">
			<use xlink:href="#SVGID_3_"  overflow="visible"/>
		</clipPath>
		<g opacity="0.02" clip-path="url(#SVGID_4_)">
			<g>
				<defs>
					<rect id="SVGID_5_" x="-39.569" y="198.499" width="76.837" height="70.54"/>
				</defs>
				<clipPath id="SVGID_6_">
					<use xlink:href="#SVGID_5_"  overflow="visible"/>
				</clipPath>
				<path clip-path="url(#SVGID_6_)" d="M18.154,203.443l15.869,28.019c0.809,1.427,0.809,3.186,0,4.612l-15.869,28.02
					c-0.808,1.427-2.302,2.306-3.918,2.306h-31.685c-1.646,0-3.161-0.91-3.958-2.378l-14.957-27.528
					c-0.745-1.37-0.756-3.033-0.029-4.414l14.998-28.51c0.788-1.498,2.32-2.433,3.987-2.433h31.644
					C15.852,201.137,17.346,202.017,18.154,203.443"/>
				<path clip-path="url(#SVGID_6_)" fill="none" stroke="#000000" stroke-width="3.277" stroke-miterlimit="10" d="M18.154,203.443
					l15.869,28.019c0.809,1.427,0.809,3.186,0,4.612l-15.869,28.02c-0.808,1.427-2.302,2.306-3.918,2.306h-31.685
					c-1.646,0-3.161-0.91-3.958-2.378l-14.957-27.528c-0.745-1.37-0.756-3.033-0.029-4.414l14.998-28.51
					c0.788-1.498,2.32-2.433,3.987-2.433h31.644C15.852,201.137,17.346,202.017,18.154,203.443z"/>
			</g>
		</g>
		<g opacity="0.03" clip-path="url(#SVGID_4_)">
			<g>
				<defs>
					<rect id="SVGID_7_" x="-39.569" y="271.942" width="76.837" height="70.54"/>
				</defs>
				<clipPath id="SVGID_8_">
					<use xlink:href="#SVGID_7_"  overflow="visible"/>
				</clipPath>
				<path clip-path="url(#SVGID_8_)" fill="#FFFFFF" d="M18.154,276.887l15.869,28.019c0.809,1.427,0.809,3.186,0,4.612
					l-15.869,28.02c-0.808,1.427-2.302,2.306-3.918,2.306h-31.685c-1.646,0-3.161-0.911-3.958-2.378l-14.957-27.528
					c-0.745-1.37-0.756-3.033-0.029-4.414l14.998-28.511c0.788-1.497,2.32-2.432,3.987-2.432h31.644
					C15.852,274.581,17.346,275.459,18.154,276.887"/>
				<path clip-path="url(#SVGID_8_)" fill="none" stroke="#FFFFFF" stroke-width="3.277" stroke-miterlimit="10" d="M18.154,276.887
					l15.869,28.019c0.809,1.427,0.809,3.186,0,4.612l-15.869,28.02c-0.808,1.427-2.302,2.306-3.918,2.306h-31.685
					c-1.646,0-3.161-0.911-3.958-2.378l-14.957-27.528c-0.745-1.37-0.756-3.033-0.029-4.414l14.998-28.511
					c0.788-1.497,2.32-2.432,3.987-2.432h31.644C15.852,274.581,17.346,275.459,18.154,276.887z"/>
			</g>
		</g>
		<g opacity="0.02" clip-path="url(#SVGID_4_)">
			<g>
				<defs>
					<rect id="SVGID_9_" x="-39.569" y="125.056" width="76.837" height="70.54"/>
				</defs>
				<clipPath id="SVGID_10_">
					<use xlink:href="#SVGID_9_"  overflow="visible"/>
				</clipPath>
				<path clip-path="url(#SVGID_10_)" d="M18.154,130l15.869,28.019c0.809,1.427,0.809,3.186,0,4.612l-15.869,28.02
					c-0.808,1.427-2.302,2.306-3.918,2.306h-31.685c-1.646,0-3.161-0.91-3.958-2.378l-14.957-27.528
					c-0.745-1.37-0.756-3.033-0.029-4.414l14.998-28.51c0.788-1.498,2.32-2.433,3.987-2.433h31.644
					C15.852,127.694,17.346,128.573,18.154,130"/>
				<path clip-path="url(#SVGID_10_)" fill="none" stroke="#000000" stroke-width="3.277" stroke-miterlimit="10" d="M18.154,130
					l15.869,28.019c0.809,1.427,0.809,3.186,0,4.612l-15.869,28.02c-0.808,1.427-2.302,2.306-3.918,2.306h-31.685
					c-1.646,0-3.161-0.91-3.958-2.378l-14.957-27.528c-0.745-1.37-0.756-3.033-0.029-4.414l14.998-28.51
					c0.788-1.498,2.32-2.433,3.987-2.433h31.644C15.852,127.694,17.346,128.573,18.154,130z"/>
			</g>
		</g>
		<g opacity="0.1" clip-path="url(#SVGID_4_)">
			<g>
				<defs>
					<rect id="SVGID_11_" x="-39.569" y="51.613" width="76.837" height="70.54"/>
				</defs>
				<clipPath id="SVGID_12_">
					<use xlink:href="#SVGID_11_"  overflow="visible"/>
				</clipPath>
				<path clip-path="url(#SVGID_12_)" d="M18.154,56.557l15.869,28.019c0.809,1.427,0.809,3.186,0,4.612l-15.869,28.02
					c-0.808,1.427-2.302,2.306-3.918,2.306h-31.685c-1.646,0-3.161-0.91-3.958-2.378l-14.957-27.528
					c-0.745-1.37-0.756-3.033-0.029-4.414l14.998-28.51c0.788-1.498,2.32-2.433,3.987-2.433h31.644
					C15.852,54.251,17.346,55.13,18.154,56.557"/>
				<path clip-path="url(#SVGID_12_)" fill="none" stroke="#000000" stroke-width="3.277" stroke-miterlimit="10" d="M18.154,56.557
					l15.869,28.019c0.809,1.427,0.809,3.186,0,4.612l-15.869,28.02c-0.808,1.427-2.302,2.306-3.918,2.306h-31.685
					c-1.646,0-3.161-0.91-3.958-2.378l-14.957-27.528c-0.745-1.37-0.756-3.033-0.029-4.414l14.998-28.51
					c0.788-1.498,2.32-2.433,3.987-2.433h31.644C15.852,54.251,17.346,55.13,18.154,56.557z"/>
			</g>
		</g>
		<g opacity="0.1" clip-path="url(#SVGID_4_)">
			<g>
				<defs>
					<rect id="SVGID_13_" x="-39.569" y="-21.83" width="76.837" height="70.54"/>
				</defs>
				<clipPath id="SVGID_14_">
					<use xlink:href="#SVGID_13_"  overflow="visible"/>
				</clipPath>
				<path clip-path="url(#SVGID_14_)" d="M18.154-16.886l15.869,28.019c0.809,1.427,0.809,3.186,0,4.613L18.154,43.765
					c-0.808,1.427-2.302,2.306-3.918,2.306h-31.685c-1.646,0-3.161-0.911-3.958-2.378l-14.957-27.528
					c-0.745-1.37-0.756-3.033-0.029-4.414l14.998-28.51c0.788-1.498,2.32-2.433,3.987-2.433h31.644
					C15.852-19.192,17.346-18.312,18.154-16.886"/>
				<path clip-path="url(#SVGID_14_)" fill="none" stroke="#000000" stroke-width="3.277" stroke-miterlimit="10" d="M18.154-16.886
					l15.869,28.019c0.809,1.427,0.809,3.186,0,4.613L18.154,43.765c-0.808,1.427-2.302,2.306-3.918,2.306h-31.685
					c-1.646,0-3.161-0.911-3.958-2.378l-14.957-27.528c-0.745-1.37-0.756-3.033-0.029-4.414l14.998-28.51
					c0.788-1.498,2.32-2.433,3.987-2.433h31.644C15.852-19.192,17.346-18.312,18.154-16.886z"/>
			</g>
		</g>
		<g opacity="0.03" clip-path="url(#SVGID_4_)">
			<g>
				<defs>
					<rect id="SVGID_15_" x="-39.569" y="345.385" width="76.837" height="70.54"/>
				</defs>
				<clipPath id="SVGID_16_">
					<use xlink:href="#SVGID_15_"  overflow="visible"/>
				</clipPath>
				<path clip-path="url(#SVGID_16_)" fill="#FFFFFF" d="M18.154,350.33l15.869,28.019c0.809,1.427,0.809,3.186,0,4.613
					L18.154,410.98c-0.808,1.427-2.302,2.306-3.918,2.306h-31.685c-1.646,0-3.161-0.91-3.958-2.378l-14.957-27.528
					c-0.745-1.37-0.756-3.033-0.029-4.414l14.998-28.51c0.788-1.498,2.32-2.433,3.987-2.433h31.644
					C15.852,348.023,17.346,348.902,18.154,350.33"/>
				<path clip-path="url(#SVGID_16_)" fill="none" stroke="#FFFFFF" stroke-width="3.277" stroke-miterlimit="10" d="M18.154,350.33
					l15.869,28.019c0.809,1.427,0.809,3.186,0,4.613L18.154,410.98c-0.808,1.427-2.302,2.306-3.918,2.306h-31.685
					c-1.646,0-3.161-0.91-3.958-2.378l-14.957-27.528c-0.745-1.37-0.756-3.033-0.029-4.414l14.998-28.51
					c0.788-1.498,2.32-2.433,3.987-2.433h31.644C15.852,348.023,17.346,348.902,18.154,350.33z"/>
			</g>
		</g>
		<g opacity="0.02" clip-path="url(#SVGID_4_)">
			<g>
				<defs>
					<rect id="SVGID_17_" x="-39.569" y="418.828" width="76.837" height="70.54"/>
				</defs>
				<clipPath id="SVGID_18_">
					<use xlink:href="#SVGID_17_"  overflow="visible"/>
				</clipPath>
				<path clip-path="url(#SVGID_18_)" d="M18.154,423.772l15.869,28.02c0.809,1.427,0.809,3.186,0,4.612l-15.869,28.02
					c-0.808,1.427-2.302,2.306-3.918,2.306h-31.685c-1.646,0-3.161-0.911-3.958-2.378l-14.957-27.528
					c-0.745-1.37-0.756-3.032-0.029-4.414l14.998-28.51c0.788-1.498,2.32-2.433,3.987-2.433h31.644
					C15.852,421.467,17.346,422.346,18.154,423.772"/>
				<path clip-path="url(#SVGID_18_)" fill="none" stroke="#000000" stroke-width="3.277" stroke-miterlimit="10" d="
					M18.154,423.772l15.869,28.02c0.809,1.427,0.809,3.186,0,4.612l-15.869,28.02c-0.808,1.427-2.302,2.306-3.918,2.306h-31.685
					c-1.646,0-3.161-0.911-3.958-2.378l-14.957-27.528c-0.745-1.37-0.756-3.032-0.029-4.414l14.998-28.51
					c0.788-1.498,2.32-2.433,3.987-2.433h31.644C15.852,421.467,17.346,422.346,18.154,423.772z"/>
			</g>
		</g>
		<g opacity="0.03" clip-path="url(#SVGID_4_)">
			<g>
				<defs>
					<rect id="SVGID_19_" x="-39.569" y="639.157" width="76.837" height="70.541"/>
				</defs>
				<clipPath id="SVGID_20_">
					<use xlink:href="#SVGID_19_"  overflow="visible"/>
				</clipPath>
				<path clip-path="url(#SVGID_20_)" fill="#FFFFFF" d="M18.154,644.102l15.869,28.02c0.809,1.427,0.809,3.186,0,4.612
					l-15.869,28.02c-0.808,1.427-2.302,2.306-3.918,2.306h-31.685c-1.646,0-3.161-0.911-3.958-2.378l-14.957-27.528
					c-0.745-1.37-0.756-3.032-0.029-4.414l14.998-28.51c0.788-1.498,2.32-2.433,3.987-2.433h31.644
					C15.852,641.796,17.346,642.675,18.154,644.102"/>
				<path clip-path="url(#SVGID_20_)" fill="none" stroke="#FFFFFF" stroke-width="3.277" stroke-miterlimit="10" d="
					M18.154,644.102l15.869,28.02c0.809,1.427,0.809,3.186,0,4.612l-15.869,28.02c-0.808,1.427-2.302,2.306-3.918,2.306h-31.685
					c-1.646,0-3.161-0.911-3.958-2.378l-14.957-27.528c-0.745-1.37-0.756-3.032-0.029-4.414l14.998-28.51
					c0.788-1.498,2.32-2.433,3.987-2.433h31.644C15.852,641.796,17.346,642.675,18.154,644.102z"/>
			</g>
		</g>
		<g opacity="0.02" clip-path="url(#SVGID_4_)">
			<g>
				<defs>
					<rect id="SVGID_21_" x="-39.569" y="712.6" width="76.837" height="70.541"/>
				</defs>
				<clipPath id="SVGID_22_">
					<use xlink:href="#SVGID_21_"  overflow="visible"/>
				</clipPath>
				<path clip-path="url(#SVGID_22_)" d="M18.154,717.545l15.869,28.019c0.809,1.428,0.809,3.187,0,4.613l-15.869,28.019
					c-0.808,1.428-2.302,2.307-3.918,2.307h-31.685c-1.646,0-3.161-0.911-3.958-2.378l-14.957-27.528
					c-0.745-1.37-0.756-3.033-0.029-4.414l14.998-28.51c0.788-1.498,2.32-2.433,3.987-2.433h31.644
					C15.852,715.239,17.346,716.118,18.154,717.545"/>
				<path clip-path="url(#SVGID_22_)" fill="none" stroke="#000000" stroke-width="3.277" stroke-miterlimit="10" d="
					M18.154,717.545l15.869,28.019c0.809,1.428,0.809,3.187,0,4.613l-15.869,28.019c-0.808,1.428-2.302,2.307-3.918,2.307h-31.685
					c-1.646,0-3.161-0.911-3.958-2.378l-14.957-27.528c-0.745-1.37-0.756-3.033-0.029-4.414l14.998-28.51
					c0.788-1.498,2.32-2.433,3.987-2.433h31.644C15.852,715.239,17.346,716.118,18.154,717.545z"/>
			</g>
		</g>
		<g opacity="0.03" clip-path="url(#SVGID_4_)">
			<g>
				<defs>
					<rect id="SVGID_23_" x="-39.569" y="565.714" width="76.837" height="70.54"/>
				</defs>
				<clipPath id="SVGID_24_">
					<use xlink:href="#SVGID_23_"  overflow="visible"/>
				</clipPath>
				<path clip-path="url(#SVGID_24_)" fill="#FFFFFF" d="M18.154,570.658l15.869,28.02c0.809,1.427,0.809,3.186,0,4.613
					L18.154,631.31c-0.808,1.427-2.302,2.306-3.918,2.306h-31.685c-1.646,0-3.161-0.91-3.958-2.378l-14.957-27.527
					c-0.745-1.37-0.756-3.033-0.029-4.414l14.998-28.51c0.788-1.498,2.32-2.434,3.987-2.434h31.644
					C15.852,568.353,17.346,569.231,18.154,570.658"/>
				<path clip-path="url(#SVGID_24_)" fill="none" stroke="#FFFFFF" stroke-width="3.277" stroke-miterlimit="10" d="
					M18.154,570.658l15.869,28.02c0.809,1.427,0.809,3.186,0,4.613L18.154,631.31c-0.808,1.427-2.302,2.306-3.918,2.306h-31.685
					c-1.646,0-3.161-0.91-3.958-2.378l-14.957-27.527c-0.745-1.37-0.756-3.033-0.029-4.414l14.998-28.51
					c0.788-1.498,2.32-2.434,3.987-2.434h31.644C15.852,568.353,17.346,569.231,18.154,570.658z"/>
			</g>
		</g>
		<g opacity="0.02" clip-path="url(#SVGID_4_)">
			<g>
				<defs>
					<rect id="SVGID_25_" x="-39.569" y="492.271" width="76.837" height="70.54"/>
				</defs>
				<clipPath id="SVGID_26_">
					<use xlink:href="#SVGID_25_"  overflow="visible"/>
				</clipPath>
				<path clip-path="url(#SVGID_26_)" d="M18.154,497.216l15.869,28.019c0.809,1.427,0.809,3.187,0,4.612l-15.869,28.02
					c-0.808,1.428-2.302,2.307-3.918,2.307h-31.685c-1.646,0-3.161-0.911-3.958-2.378l-14.957-27.528
					c-0.745-1.37-0.756-3.033-0.029-4.414l14.998-28.511c0.788-1.497,2.32-2.433,3.987-2.433h31.644
					C15.852,494.909,17.346,495.789,18.154,497.216"/>
				<path clip-path="url(#SVGID_26_)" fill="none" stroke="#000000" stroke-width="3.277" stroke-miterlimit="10" d="
					M18.154,497.216l15.869,28.019c0.809,1.427,0.809,3.187,0,4.612l-15.869,28.02c-0.808,1.428-2.302,2.307-3.918,2.307h-31.685
					c-1.646,0-3.161-0.911-3.958-2.378l-14.957-27.528c-0.745-1.37-0.756-3.033-0.029-4.414l14.998-28.511
					c0.788-1.497,2.32-2.433,3.987-2.433h31.644C15.852,494.909,17.346,495.789,18.154,497.216z"/>
			</g>
		</g>
		<g opacity="0.25" clip-path="url(#SVGID_4_)">
			<g>
				<defs>
					<rect id="SVGID_27_" x="-39.569" y="786.043" width="76.837" height="70.541"/>
				</defs>
				<clipPath id="SVGID_28_">
					<use xlink:href="#SVGID_27_"  overflow="visible"/>
				</clipPath>
				<path clip-path="url(#SVGID_28_)" d="M18.154,790.987l15.869,28.02c0.809,1.427,0.809,3.186,0,4.612l-15.869,28.02
					c-0.808,1.427-2.302,2.306-3.918,2.306h-31.685c-1.646,0-3.161-0.91-3.958-2.378l-14.957-27.527
					c-0.745-1.37-0.756-3.033-0.029-4.414l14.998-28.511c0.788-1.497,2.32-2.433,3.987-2.433h31.644
					C15.852,788.682,17.346,789.561,18.154,790.987"/>
				<path clip-path="url(#SVGID_28_)" fill="none" stroke="#000000" stroke-width="3.277" stroke-miterlimit="10" d="
					M18.154,790.987l15.869,28.02c0.809,1.427,0.809,3.186,0,4.612l-15.869,28.02c-0.808,1.427-2.302,2.306-3.918,2.306h-31.685
					c-1.646,0-3.161-0.91-3.958-2.378l-14.957-27.527c-0.745-1.37-0.756-3.033-0.029-4.414l14.998-28.511
					c0.788-1.497,2.32-2.433,3.987-2.433h31.644C15.852,788.682,17.346,789.561,18.154,790.987z"/>
			</g>
		</g>
		<g opacity="0.03" clip-path="url(#SVGID_4_)">
			<g>
				<defs>
					<rect id="SVGID_29_" x="24.152" y="161.959" width="76.837" height="70.541"/>
				</defs>
				<clipPath id="SVGID_30_">
					<use xlink:href="#SVGID_29_"  overflow="visible"/>
				</clipPath>
				<path clip-path="url(#SVGID_30_)" fill="none" stroke="#000000" stroke-width="3.277" stroke-miterlimit="10" d="
					M81.875,166.904l15.869,28.019c0.809,1.427,0.809,3.186,0,4.612l-15.869,28.02c-0.808,1.427-2.302,2.306-3.918,2.306H46.272
					c-1.646,0-3.161-0.91-3.958-2.378l-14.957-27.528c-0.745-1.37-0.756-3.033-0.029-4.414l14.998-28.511
					c0.788-1.497,2.32-2.432,3.987-2.432h31.644C79.573,164.598,81.067,165.477,81.875,166.904z"/>
			</g>
		</g>
		<g opacity="0.03" clip-path="url(#SVGID_4_)">
			<g>
				<defs>
					<rect id="SVGID_31_" x="24.152" y="235.382" width="76.837" height="70.54"/>
				</defs>
				<clipPath id="SVGID_32_">
					<use xlink:href="#SVGID_31_"  overflow="visible"/>
				</clipPath>
				<path clip-path="url(#SVGID_32_)" fill="#FFFFFF" d="M81.875,240.326l15.869,28.019c0.809,1.427,0.809,3.186,0,4.612
					l-15.869,28.02c-0.808,1.427-2.302,2.306-3.918,2.306H46.272c-1.646,0-3.161-0.911-3.958-2.378l-14.957-27.528
					c-0.745-1.37-0.756-3.033-0.029-4.414l14.998-28.51c0.788-1.498,2.32-2.433,3.987-2.433h31.644
					C79.573,238.02,81.067,238.899,81.875,240.326"/>
				<path clip-path="url(#SVGID_32_)" fill="none" stroke="#FFFFFF" stroke-width="3.277" stroke-miterlimit="10" d="
					M81.875,240.326l15.869,28.019c0.809,1.427,0.809,3.186,0,4.612l-15.869,28.02c-0.808,1.427-2.302,2.306-3.918,2.306H46.272
					c-1.646,0-3.161-0.911-3.958-2.378l-14.957-27.528c-0.745-1.37-0.756-3.033-0.029-4.414l14.998-28.51
					c0.788-1.498,2.32-2.433,3.987-2.433h31.644C79.573,238.02,81.067,238.899,81.875,240.326z"/>
			</g>
		</g>
		<g opacity="0.03" clip-path="url(#SVGID_4_)">
			<g>
				<defs>
					<rect id="SVGID_33_" x="24.152" y="88.537" width="76.837" height="70.541"/>
				</defs>
				<clipPath id="SVGID_34_">
					<use xlink:href="#SVGID_33_"  overflow="visible"/>
				</clipPath>
				<path clip-path="url(#SVGID_34_)" fill="#FFFFFF" d="M81.875,93.482l15.869,28.019c0.809,1.427,0.809,3.186,0,4.612
					l-15.869,28.02c-0.808,1.427-2.302,2.306-3.918,2.306H46.272c-1.646,0-3.161-0.911-3.958-2.378l-14.957-27.528
					c-0.745-1.37-0.756-3.033-0.029-4.414l14.998-28.511c0.788-1.497,2.32-2.432,3.987-2.432h31.644
					C79.573,91.176,81.067,92.055,81.875,93.482"/>
				<path clip-path="url(#SVGID_34_)" fill="none" stroke="#FFFFFF" stroke-width="3.277" stroke-miterlimit="10" d="M81.875,93.482
					l15.869,28.019c0.809,1.427,0.809,3.186,0,4.612l-15.869,28.02c-0.808,1.427-2.302,2.306-3.918,2.306H46.272
					c-1.646,0-3.161-0.911-3.958-2.378l-14.957-27.528c-0.745-1.37-0.756-3.033-0.029-4.414l14.998-28.511
					c0.788-1.497,2.32-2.432,3.987-2.432h31.644C79.573,91.176,81.067,92.055,81.875,93.482z"/>
			</g>
		</g>
		<path clip-path="url(#SVGID_4_)" fill="#C6C6C6" d="M81.875,20.06l15.869,28.019c0.809,1.428,0.809,3.186,0,4.613L81.875,80.711
			c-0.808,1.427-2.302,2.306-3.918,2.306H46.272c-1.646,0-3.161-0.91-3.958-2.378L27.357,53.111
			c-0.745-1.37-0.756-3.033-0.029-4.414l14.998-28.51c0.788-1.498,2.32-2.433,3.987-2.433h31.644
			C79.573,17.754,81.067,18.633,81.875,20.06"/>
		<path clip-path="url(#SVGID_4_)" fill="none" stroke="#C6C6C6" stroke-width="3.277" stroke-miterlimit="10" d="M81.875,20.06
			l15.869,28.019c0.809,1.428,0.809,3.186,0,4.613L81.875,80.711c-0.808,1.427-2.302,2.306-3.918,2.306H46.272
			c-1.646,0-3.161-0.91-3.958-2.378L27.357,53.111c-0.745-1.37-0.756-3.033-0.029-4.414l14.998-28.51
			c0.788-1.498,2.32-2.433,3.987-2.433h31.644C79.573,17.754,81.067,18.633,81.875,20.06z"/>
		<g opacity="0.25" clip-path="url(#SVGID_4_)">
			<g>
				<defs>
					<rect id="SVGID_35_" x="24.152" y="-58.307" width="76.837" height="70.54"/>
				</defs>
				<clipPath id="SVGID_36_">
					<use xlink:href="#SVGID_35_"  overflow="visible"/>
				</clipPath>
				<path clip-path="url(#SVGID_36_)" d="M81.875-53.362l15.869,28.019c0.809,1.427,0.809,3.186,0,4.612L81.875,7.289
					c-0.808,1.427-2.302,2.306-3.918,2.306H46.272c-1.646,0-3.161-0.91-3.958-2.378L27.357-20.312
					c-0.745-1.37-0.756-3.033-0.029-4.414l14.998-28.51c0.788-1.498,2.32-2.433,3.987-2.433h31.644
					C79.573-55.668,81.067-54.79,81.875-53.362"/>
				<path clip-path="url(#SVGID_36_)" fill="none" stroke="#000000" stroke-width="3.277" stroke-miterlimit="10" d="M81.875-53.362
					l15.869,28.019c0.809,1.427,0.809,3.186,0,4.612L81.875,7.289c-0.808,1.427-2.302,2.306-3.918,2.306H46.272
					c-1.646,0-3.161-0.91-3.958-2.378L27.357-20.312c-0.745-1.37-0.756-3.033-0.029-4.414l14.998-28.51
					c0.788-1.498,2.32-2.433,3.987-2.433h31.644C79.573-55.668,81.067-54.79,81.875-53.362z"/>
			</g>
		</g>
		<g opacity="0.03" clip-path="url(#SVGID_4_)">
			<g>
				<defs>
					<rect id="SVGID_37_" x="24.152" y="308.804" width="76.837" height="70.54"/>
				</defs>
				<clipPath id="SVGID_38_">
					<use xlink:href="#SVGID_37_"  overflow="visible"/>
				</clipPath>
				<path clip-path="url(#SVGID_38_)" fill="none" stroke="#000000" stroke-width="3.277" stroke-miterlimit="10" d="
					M81.875,313.748l15.869,28.019c0.809,1.427,0.809,3.186,0,4.612l-15.869,28.02c-0.808,1.427-2.302,2.306-3.918,2.306H46.272
					c-1.646,0-3.161-0.911-3.958-2.378l-14.957-27.528c-0.745-1.37-0.756-3.033-0.029-4.414l14.998-28.511
					c0.788-1.497,2.32-2.432,3.987-2.432h31.644C79.573,311.442,81.067,312.321,81.875,313.748z"/>
			</g>
		</g>
		<g opacity="0.03" clip-path="url(#SVGID_4_)">
			<g>
				<defs>
					<rect id="SVGID_39_" x="24.152" y="382.226" width="76.837" height="70.54"/>
				</defs>
				<clipPath id="SVGID_40_">
					<use xlink:href="#SVGID_39_"  overflow="visible"/>
				</clipPath>
				<path clip-path="url(#SVGID_40_)" fill="#FFFFFF" d="M81.875,387.17l15.869,28.019c0.809,1.427,0.809,3.187,0,4.612
					l-15.869,28.02c-0.808,1.427-2.302,2.307-3.918,2.307H46.272c-1.646,0-3.161-0.911-3.958-2.379l-14.957-27.527
					c-0.745-1.37-0.756-3.033-0.029-4.414l14.998-28.511c0.788-1.497,2.32-2.432,3.987-2.432h31.644
					C79.573,384.864,81.067,385.744,81.875,387.17"/>
				<path clip-path="url(#SVGID_40_)" fill="none" stroke="#FFFFFF" stroke-width="3.277" stroke-miterlimit="10" d="M81.875,387.17
					l15.869,28.019c0.809,1.427,0.809,3.187,0,4.612l-15.869,28.02c-0.808,1.427-2.302,2.307-3.918,2.307H46.272
					c-1.646,0-3.161-0.911-3.958-2.379l-14.957-27.527c-0.745-1.37-0.756-3.033-0.029-4.414l14.998-28.511
					c0.788-1.497,2.32-2.432,3.987-2.432h31.644C79.573,384.864,81.067,385.744,81.875,387.17z"/>
			</g>
		</g>
		<g opacity="0.03" clip-path="url(#SVGID_4_)">
			<g>
				<defs>
					<rect id="SVGID_41_" x="24.152" y="602.492" width="76.837" height="70.541"/>
				</defs>
				<clipPath id="SVGID_42_">
					<use xlink:href="#SVGID_41_"  overflow="visible"/>
				</clipPath>
				<path clip-path="url(#SVGID_42_)" fill="none" stroke="#000000" stroke-width="3.277" stroke-miterlimit="10" d="
					M81.875,607.437l15.869,28.02c0.809,1.427,0.809,3.186,0,4.613l-15.869,28.019c-0.808,1.427-2.302,2.306-3.918,2.306H46.272
					c-1.646,0-3.161-0.911-3.958-2.378l-14.957-27.527c-0.745-1.37-0.756-3.033-0.029-4.414l14.998-28.511
					c0.788-1.498,2.32-2.433,3.987-2.433h31.644C79.573,605.131,81.067,606.01,81.875,607.437z"/>
			</g>
		</g>
		<g opacity="0.03" clip-path="url(#SVGID_4_)">
			<g>
				<defs>
					<rect id="SVGID_43_" x="24.152" y="675.914" width="76.837" height="70.541"/>
				</defs>
				<clipPath id="SVGID_44_">
					<use xlink:href="#SVGID_43_"  overflow="visible"/>
				</clipPath>
				<path clip-path="url(#SVGID_44_)" fill="#FFFFFF" d="M81.875,680.859l15.869,28.019c0.809,1.427,0.809,3.187,0,4.612
					l-15.869,28.02c-0.808,1.428-2.302,2.307-3.918,2.307H46.272c-1.646,0-3.161-0.911-3.958-2.378L27.357,713.91
					c-0.745-1.37-0.756-3.033-0.029-4.414l14.998-28.511c0.788-1.497,2.32-2.433,3.987-2.433h31.644
					C79.573,678.553,81.067,679.432,81.875,680.859"/>
				<path clip-path="url(#SVGID_44_)" fill="none" stroke="#FFFFFF" stroke-width="3.277" stroke-miterlimit="10" d="
					M81.875,680.859l15.869,28.019c0.809,1.427,0.809,3.187,0,4.612l-15.869,28.02c-0.808,1.428-2.302,2.307-3.918,2.307H46.272
					c-1.646,0-3.161-0.911-3.958-2.378L27.357,713.91c-0.745-1.37-0.756-3.033-0.029-4.414l14.998-28.511
					c0.788-1.497,2.32-2.433,3.987-2.433h31.644C79.573,678.553,81.067,679.432,81.875,680.859z"/>
			</g>
		</g>
		<g opacity="0.03" clip-path="url(#SVGID_4_)">
			<g>
				<defs>
					<rect id="SVGID_45_" x="24.152" y="529.07" width="76.837" height="70.541"/>
				</defs>
				<clipPath id="SVGID_46_">
					<use xlink:href="#SVGID_45_"  overflow="visible"/>
				</clipPath>
				<path clip-path="url(#SVGID_46_)" fill="#FFFFFF" d="M81.875,534.015l15.869,28.02c0.809,1.427,0.809,3.186,0,4.612
					l-15.869,28.02c-0.808,1.427-2.302,2.306-3.918,2.306H46.272c-1.646,0-3.161-0.911-3.958-2.378l-14.957-27.528
					c-0.745-1.37-0.756-3.032-0.029-4.414l14.998-28.51c0.788-1.498,2.32-2.433,3.987-2.433h31.644
					C79.573,531.709,81.067,532.588,81.875,534.015"/>
				<path clip-path="url(#SVGID_46_)" fill="none" stroke="#FFFFFF" stroke-width="3.277" stroke-miterlimit="10" d="
					M81.875,534.015l15.869,28.02c0.809,1.427,0.809,3.186,0,4.612l-15.869,28.02c-0.808,1.427-2.302,2.306-3.918,2.306H46.272
					c-1.646,0-3.161-0.911-3.958-2.378l-14.957-27.528c-0.745-1.37-0.756-3.032-0.029-4.414l14.998-28.51
					c0.788-1.498,2.32-2.433,3.987-2.433h31.644C79.573,531.709,81.067,532.588,81.875,534.015z"/>
			</g>
		</g>
		<g opacity="0.03" clip-path="url(#SVGID_4_)">
			<g>
				<defs>
					<rect id="SVGID_47_" x="24.152" y="455.648" width="76.837" height="70.54"/>
				</defs>
				<clipPath id="SVGID_48_">
					<use xlink:href="#SVGID_47_"  overflow="visible"/>
				</clipPath>
				<path clip-path="url(#SVGID_48_)" fill="none" stroke="#000000" stroke-width="3.277" stroke-miterlimit="10" d="
					M81.875,460.593l15.869,28.019c0.809,1.428,0.809,3.187,0,4.613l-15.869,28.019c-0.808,1.428-2.302,2.307-3.918,2.307H46.272
					c-1.646,0-3.161-0.911-3.958-2.378l-14.957-27.528c-0.745-1.37-0.756-3.033-0.029-4.414l14.998-28.51
					c0.788-1.498,2.32-2.434,3.987-2.434h31.644C79.573,458.286,81.067,459.166,81.875,460.593z"/>
			</g>
		</g>
		<g opacity="0.1" clip-path="url(#SVGID_4_)">
			<g>
				<defs>
					<rect id="SVGID_49_" x="24.152" y="749.337" width="76.837" height="70.54"/>
				</defs>
				<clipPath id="SVGID_50_">
					<use xlink:href="#SVGID_49_"  overflow="visible"/>
				</clipPath>
				<path clip-path="url(#SVGID_50_)" d="M81.875,754.281L97.744,782.3c0.809,1.428,0.809,3.187,0,4.613l-15.869,28.02
					c-0.808,1.427-2.302,2.306-3.918,2.306H46.272c-1.646,0-3.161-0.911-3.958-2.378l-14.957-27.528
					c-0.745-1.37-0.756-3.033-0.029-4.414l14.998-28.51c0.788-1.498,2.32-2.433,3.987-2.433h31.644
					C79.573,751.976,81.067,752.854,81.875,754.281"/>
				<path clip-path="url(#SVGID_50_)" fill="none" stroke="#000000" stroke-width="3.277" stroke-miterlimit="10" d="
					M81.875,754.281L97.744,782.3c0.809,1.428,0.809,3.187,0,4.613l-15.869,28.02c-0.808,1.427-2.302,2.306-3.918,2.306H46.272
					c-1.646,0-3.161-0.911-3.958-2.378l-14.957-27.528c-0.745-1.37-0.756-3.033-0.029-4.414l14.998-28.51
					c0.788-1.498,2.32-2.433,3.987-2.433h31.644C79.573,751.976,81.067,752.854,81.875,754.281z"/>
			</g>
		</g>
		<g opacity="0.03" clip-path="url(#SVGID_4_)">
			<g>
				<defs>
					<rect id="SVGID_51_" x="87.63" y="198.499" width="76.837" height="70.54"/>
				</defs>
				<clipPath id="SVGID_52_">
					<use xlink:href="#SVGID_51_"  overflow="visible"/>
				</clipPath>
				<path clip-path="url(#SVGID_52_)" fill="none" stroke="#000000" stroke-width="3.277" stroke-miterlimit="10" d="
					M145.353,203.443l15.869,28.019c0.809,1.427,0.809,3.186,0,4.612l-15.869,28.02c-0.808,1.427-2.302,2.306-3.918,2.306H109.75
					c-1.646,0-3.161-0.91-3.958-2.378l-14.957-27.528c-0.745-1.37-0.756-3.033-0.029-4.414l14.998-28.51
					c0.788-1.498,2.32-2.433,3.987-2.433h31.644C143.051,201.137,144.545,202.017,145.353,203.443z"/>
			</g>
		</g>
		<g opacity="0.03" clip-path="url(#SVGID_4_)">
			<g>
				<defs>
					<rect id="SVGID_53_" x="87.63" y="271.942" width="76.837" height="70.54"/>
				</defs>
				<clipPath id="SVGID_54_">
					<use xlink:href="#SVGID_53_"  overflow="visible"/>
				</clipPath>
				<path clip-path="url(#SVGID_54_)" fill="none" stroke="#000000" stroke-width="3.277" stroke-miterlimit="10" d="
					M145.353,276.887l15.869,28.019c0.809,1.427,0.809,3.186,0,4.612l-15.869,28.02c-0.808,1.427-2.302,2.306-3.918,2.306H109.75
					c-1.646,0-3.161-0.911-3.958-2.378l-14.957-27.528c-0.745-1.37-0.756-3.033-0.029-4.414l14.998-28.511
					c0.788-1.497,2.32-2.432,3.987-2.432h31.644C143.051,274.581,144.545,275.459,145.353,276.887z"/>
			</g>
		</g>
		<g opacity="0.03" clip-path="url(#SVGID_4_)">
			<g>
				<defs>
					<rect id="SVGID_55_" x="87.63" y="125.056" width="76.837" height="70.54"/>
				</defs>
				<clipPath id="SVGID_56_">
					<use xlink:href="#SVGID_55_"  overflow="visible"/>
				</clipPath>
				<path clip-path="url(#SVGID_56_)" fill="none" stroke="#000000" stroke-width="3.277" stroke-miterlimit="10" d="M145.353,130
					l15.869,28.019c0.809,1.427,0.809,3.186,0,4.612l-15.869,28.02c-0.808,1.427-2.302,2.306-3.918,2.306H109.75
					c-1.646,0-3.161-0.91-3.958-2.378l-14.957-27.528c-0.745-1.37-0.756-3.033-0.029-4.414l14.998-28.51
					c0.788-1.498,2.32-2.433,3.987-2.433h31.644C143.051,127.694,144.545,128.573,145.353,130z"/>
			</g>
		</g>
		<g opacity="0.02" clip-path="url(#SVGID_4_)">
			<g>
				<defs>
					<rect id="SVGID_57_" x="87.63" y="51.613" width="76.837" height="70.54"/>
				</defs>
				<clipPath id="SVGID_58_">
					<use xlink:href="#SVGID_57_"  overflow="visible"/>
				</clipPath>
				<path clip-path="url(#SVGID_58_)" d="M145.353,56.557l15.869,28.019c0.809,1.427,0.809,3.186,0,4.612l-15.869,28.02
					c-0.808,1.427-2.302,2.306-3.918,2.306H109.75c-1.646,0-3.161-0.91-3.958-2.378L90.835,89.608
					c-0.745-1.37-0.756-3.033-0.029-4.414l14.998-28.51c0.788-1.498,2.32-2.433,3.987-2.433h31.644
					C143.051,54.251,144.545,55.13,145.353,56.557"/>
				<path clip-path="url(#SVGID_58_)" fill="none" stroke="#000000" stroke-width="3.277" stroke-miterlimit="10" d="
					M145.353,56.557l15.869,28.019c0.809,1.427,0.809,3.186,0,4.612l-15.869,28.02c-0.808,1.427-2.302,2.306-3.918,2.306H109.75
					c-1.646,0-3.161-0.91-3.958-2.378L90.835,89.608c-0.745-1.37-0.756-3.033-0.029-4.414l14.998-28.51
					c0.788-1.498,2.32-2.433,3.987-2.433h31.644C143.051,54.251,144.545,55.13,145.353,56.557z"/>
			</g>
		</g>
		<g opacity="0.1" clip-path="url(#SVGID_4_)">
			<g>
				<defs>
					<rect id="SVGID_59_" x="87.63" y="-21.83" width="76.837" height="70.54"/>
				</defs>
				<clipPath id="SVGID_60_">
					<use xlink:href="#SVGID_59_"  overflow="visible"/>
				</clipPath>
				<path clip-path="url(#SVGID_60_)" d="M145.353-16.886l15.869,28.019c0.809,1.427,0.809,3.186,0,4.613l-15.869,28.019
					c-0.808,1.427-2.302,2.306-3.918,2.306H109.75c-1.646,0-3.161-0.911-3.958-2.378L90.835,16.165
					c-0.745-1.37-0.756-3.033-0.029-4.414l14.998-28.51c0.788-1.498,2.32-2.433,3.987-2.433h31.644
					C143.051-19.192,144.545-18.312,145.353-16.886"/>
				<path clip-path="url(#SVGID_60_)" fill="none" stroke="#000000" stroke-width="3.277" stroke-miterlimit="10" d="
					M145.353-16.886l15.869,28.019c0.809,1.427,0.809,3.186,0,4.613l-15.869,28.019c-0.808,1.427-2.302,2.306-3.918,2.306H109.75
					c-1.646,0-3.161-0.911-3.958-2.378L90.835,16.165c-0.745-1.37-0.756-3.033-0.029-4.414l14.998-28.51
					c0.788-1.498,2.32-2.433,3.987-2.433h31.644C143.051-19.192,144.545-18.312,145.353-16.886z"/>
			</g>
		</g>
		<g opacity="0.03" clip-path="url(#SVGID_4_)">
			<g>
				<defs>
					<rect id="SVGID_61_" x="87.63" y="345.385" width="76.837" height="70.54"/>
				</defs>
				<clipPath id="SVGID_62_">
					<use xlink:href="#SVGID_61_"  overflow="visible"/>
				</clipPath>
				<path clip-path="url(#SVGID_62_)" fill="none" stroke="#000000" stroke-width="3.277" stroke-miterlimit="10" d="
					M145.353,350.33l15.869,28.019c0.809,1.427,0.809,3.186,0,4.613l-15.869,28.019c-0.808,1.427-2.302,2.306-3.918,2.306H109.75
					c-1.646,0-3.161-0.91-3.958-2.378L90.835,383.38c-0.745-1.37-0.756-3.033-0.029-4.414l14.998-28.51
					c0.788-1.498,2.32-2.433,3.987-2.433h31.644C143.051,348.023,144.545,348.902,145.353,350.33z"/>
			</g>
		</g>
		<g opacity="0.03" clip-path="url(#SVGID_4_)">
			<g>
				<defs>
					<rect id="SVGID_63_" x="87.63" y="418.828" width="76.837" height="70.54"/>
				</defs>
				<clipPath id="SVGID_64_">
					<use xlink:href="#SVGID_63_"  overflow="visible"/>
				</clipPath>
				<path clip-path="url(#SVGID_64_)" fill="none" stroke="#000000" stroke-width="3.277" stroke-miterlimit="10" d="
					M145.353,423.772l15.869,28.02c0.809,1.427,0.809,3.186,0,4.612l-15.869,28.02c-0.808,1.427-2.302,2.306-3.918,2.306H109.75
					c-1.646,0-3.161-0.911-3.958-2.378l-14.957-27.528c-0.745-1.37-0.756-3.032-0.029-4.414l14.998-28.51
					c0.788-1.498,2.32-2.433,3.987-2.433h31.644C143.051,421.467,144.545,422.346,145.353,423.772z"/>
			</g>
		</g>
		<g opacity="0.03" clip-path="url(#SVGID_4_)">
			<g>
				<defs>
					<rect id="SVGID_65_" x="87.63" y="639.157" width="76.837" height="70.541"/>
				</defs>
				<clipPath id="SVGID_66_">
					<use xlink:href="#SVGID_65_"  overflow="visible"/>
				</clipPath>
				<path clip-path="url(#SVGID_66_)" fill="none" stroke="#000000" stroke-width="3.277" stroke-miterlimit="10" d="
					M145.353,644.102l15.869,28.02c0.809,1.427,0.809,3.186,0,4.612l-15.869,28.02c-0.808,1.427-2.302,2.306-3.918,2.306H109.75
					c-1.646,0-3.161-0.911-3.958-2.378l-14.957-27.528c-0.745-1.37-0.756-3.032-0.029-4.414l14.998-28.51
					c0.788-1.498,2.32-2.433,3.987-2.433h31.644C143.051,641.796,144.545,642.675,145.353,644.102z"/>
			</g>
		</g>
		<g opacity="0.02" clip-path="url(#SVGID_4_)">
			<g>
				<defs>
					<rect id="SVGID_67_" x="87.63" y="712.6" width="76.837" height="70.541"/>
				</defs>
				<clipPath id="SVGID_68_">
					<use xlink:href="#SVGID_67_"  overflow="visible"/>
				</clipPath>
				<path clip-path="url(#SVGID_68_)" d="M145.353,717.545l15.869,28.019c0.809,1.428,0.809,3.187,0,4.613l-15.869,28.019
					c-0.808,1.428-2.302,2.307-3.918,2.307H109.75c-1.646,0-3.161-0.911-3.958-2.378l-14.957-27.528
					c-0.745-1.37-0.756-3.033-0.029-4.414l14.998-28.51c0.788-1.498,2.32-2.433,3.987-2.433h31.644
					C143.051,715.239,144.545,716.118,145.353,717.545"/>
				<path clip-path="url(#SVGID_68_)" fill="none" stroke="#000000" stroke-width="3.277" stroke-miterlimit="10" d="
					M145.353,717.545l15.869,28.019c0.809,1.428,0.809,3.187,0,4.613l-15.869,28.019c-0.808,1.428-2.302,2.307-3.918,2.307H109.75
					c-1.646,0-3.161-0.911-3.958-2.378l-14.957-27.528c-0.745-1.37-0.756-3.033-0.029-4.414l14.998-28.51
					c0.788-1.498,2.32-2.433,3.987-2.433h31.644C143.051,715.239,144.545,716.118,145.353,717.545z"/>
			</g>
		</g>
		<g opacity="0.03" clip-path="url(#SVGID_4_)">
			<g>
				<defs>
					<rect id="SVGID_69_" x="87.63" y="565.714" width="76.837" height="70.54"/>
				</defs>
				<clipPath id="SVGID_70_">
					<use xlink:href="#SVGID_69_"  overflow="visible"/>
				</clipPath>
				<path clip-path="url(#SVGID_70_)" fill="none" stroke="#000000" stroke-width="3.277" stroke-miterlimit="10" d="
					M145.353,570.658l15.869,28.02c0.809,1.427,0.809,3.186,0,4.613l-15.869,28.019c-0.808,1.427-2.302,2.306-3.918,2.306H109.75
					c-1.646,0-3.161-0.91-3.958-2.378L90.835,603.71c-0.745-1.37-0.756-3.033-0.029-4.414l14.998-28.51
					c0.788-1.498,2.32-2.434,3.987-2.434h31.644C143.051,568.353,144.545,569.231,145.353,570.658z"/>
			</g>
		</g>
		<g opacity="0.03" clip-path="url(#SVGID_4_)">
			<g>
				<defs>
					<rect id="SVGID_71_" x="87.63" y="492.271" width="76.837" height="70.54"/>
				</defs>
				<clipPath id="SVGID_72_">
					<use xlink:href="#SVGID_71_"  overflow="visible"/>
				</clipPath>
				<path clip-path="url(#SVGID_72_)" fill="none" stroke="#000000" stroke-width="3.277" stroke-miterlimit="10" d="
					M145.353,497.216l15.869,28.019c0.809,1.427,0.809,3.187,0,4.612l-15.869,28.02c-0.808,1.428-2.302,2.307-3.918,2.307H109.75
					c-1.646,0-3.161-0.911-3.958-2.378l-14.957-27.528c-0.745-1.37-0.756-3.033-0.029-4.414l14.998-28.511
					c0.788-1.497,2.32-2.433,3.987-2.433h31.644C143.051,494.909,144.545,495.789,145.353,497.216z"/>
			</g>
		</g>
		<g opacity="0.25" clip-path="url(#SVGID_4_)">
			<g>
				<defs>
					<rect id="SVGID_73_" x="87.63" y="786.043" width="76.837" height="70.541"/>
				</defs>
				<clipPath id="SVGID_74_">
					<use xlink:href="#SVGID_73_"  overflow="visible"/>
				</clipPath>
				<path clip-path="url(#SVGID_74_)" d="M145.353,790.987l15.869,28.02c0.809,1.427,0.809,3.186,0,4.612l-15.869,28.02
					c-0.808,1.427-2.302,2.306-3.918,2.306H109.75c-1.646,0-3.161-0.91-3.958-2.378l-14.957-27.527
					c-0.745-1.37-0.756-3.033-0.029-4.414l14.998-28.511c0.788-1.497,2.32-2.433,3.987-2.433h31.644
					C143.051,788.682,144.545,789.561,145.353,790.987"/>
				<path clip-path="url(#SVGID_74_)" fill="none" stroke="#000000" stroke-width="3.277" stroke-miterlimit="10" d="
					M145.353,790.987l15.869,28.02c0.809,1.427,0.809,3.186,0,4.612l-15.869,28.02c-0.808,1.427-2.302,2.306-3.918,2.306H109.75
					c-1.646,0-3.161-0.91-3.958-2.378l-14.957-27.527c-0.745-1.37-0.756-3.033-0.029-4.414l14.998-28.511
					c0.788-1.497,2.32-2.433,3.987-2.433h31.644C143.051,788.682,144.545,789.561,145.353,790.987z"/>
			</g>
		</g>
		<g opacity="0.03" clip-path="url(#SVGID_4_)">
			<g>
				<defs>
					<rect id="SVGID_75_" x="151.091" y="161.959" width="76.838" height="70.541"/>
				</defs>
				<clipPath id="SVGID_76_">
					<use xlink:href="#SVGID_75_"  overflow="visible"/>
				</clipPath>
				<path clip-path="url(#SVGID_76_)" fill="none" stroke="#000000" stroke-width="3.277" stroke-miterlimit="10" d="
					M208.814,166.904l15.869,28.019c0.809,1.427,0.809,3.186,0,4.612l-15.869,28.02c-0.809,1.427-2.302,2.306-3.918,2.306h-31.685
					c-1.646,0-3.161-0.91-3.958-2.378l-14.957-27.528c-0.745-1.37-0.756-3.033-0.029-4.414l14.998-28.511
					c0.788-1.497,2.32-2.432,3.987-2.432h31.644C206.513,164.598,208.006,165.477,208.814,166.904z"/>
			</g>
		</g>
		<g opacity="0.03" clip-path="url(#SVGID_4_)">
			<g>
				<defs>
					<rect id="SVGID_77_" x="151.091" y="235.382" width="76.838" height="70.54"/>
				</defs>
				<clipPath id="SVGID_78_">
					<use xlink:href="#SVGID_77_"  overflow="visible"/>
				</clipPath>
				<path clip-path="url(#SVGID_78_)" fill="#FFFFFF" d="M208.814,240.326l15.869,28.019c0.809,1.427,0.809,3.186,0,4.612
					l-15.869,28.02c-0.809,1.427-2.302,2.306-3.918,2.306h-31.685c-1.646,0-3.161-0.911-3.958-2.378l-14.957-27.528
					c-0.745-1.37-0.756-3.033-0.029-4.414l14.998-28.51c0.788-1.498,2.32-2.433,3.987-2.433h31.644
					C206.513,238.02,208.006,238.899,208.814,240.326"/>
				<path clip-path="url(#SVGID_78_)" fill="none" stroke="#FFFFFF" stroke-width="3.277" stroke-miterlimit="10" d="
					M208.814,240.326l15.869,28.019c0.809,1.427,0.809,3.186,0,4.612l-15.869,28.02c-0.809,1.427-2.302,2.306-3.918,2.306h-31.685
					c-1.646,0-3.161-0.911-3.958-2.378l-14.957-27.528c-0.745-1.37-0.756-3.033-0.029-4.414l14.998-28.51
					c0.788-1.498,2.32-2.433,3.987-2.433h31.644C206.513,238.02,208.006,238.899,208.814,240.326z"/>
			</g>
		</g>
		<g opacity="0.03" clip-path="url(#SVGID_4_)">
			<g>
				<defs>
					<rect id="SVGID_79_" x="151.091" y="88.537" width="76.838" height="70.541"/>
				</defs>
				<clipPath id="SVGID_80_">
					<use xlink:href="#SVGID_79_"  overflow="visible"/>
				</clipPath>
				<path clip-path="url(#SVGID_80_)" fill="#FFFFFF" d="M208.814,93.482l15.869,28.019c0.809,1.427,0.809,3.186,0,4.612
					l-15.869,28.02c-0.809,1.427-2.302,2.306-3.918,2.306h-31.685c-1.646,0-3.161-0.911-3.958-2.378l-14.957-27.528
					c-0.745-1.37-0.756-3.033-0.029-4.414l14.998-28.511c0.788-1.497,2.32-2.432,3.987-2.432h31.644
					C206.513,91.176,208.006,92.055,208.814,93.482"/>
				<path clip-path="url(#SVGID_80_)" fill="none" stroke="#FFFFFF" stroke-width="3.277" stroke-miterlimit="10" d="
					M208.814,93.482l15.869,28.019c0.809,1.427,0.809,3.186,0,4.612l-15.869,28.02c-0.809,1.427-2.302,2.306-3.918,2.306h-31.685
					c-1.646,0-3.161-0.911-3.958-2.378l-14.957-27.528c-0.745-1.37-0.756-3.033-0.029-4.414l14.998-28.511
					c0.788-1.497,2.32-2.432,3.987-2.432h31.644C206.513,91.176,208.006,92.055,208.814,93.482z"/>
			</g>
		</g>
		<g opacity="0.02" clip-path="url(#SVGID_4_)">
			<g>
				<defs>
					<rect id="SVGID_81_" x="151.091" y="15.115" width="76.838" height="70.541"/>
				</defs>
				<clipPath id="SVGID_82_">
					<use xlink:href="#SVGID_81_"  overflow="visible"/>
				</clipPath>
				<path clip-path="url(#SVGID_82_)" d="M208.814,20.06l15.869,28.019c0.809,1.428,0.809,3.186,0,4.613l-15.869,28.019
					c-0.809,1.427-2.302,2.306-3.918,2.306h-31.685c-1.646,0-3.161-0.91-3.958-2.378l-14.957-27.528
					c-0.745-1.37-0.756-3.033-0.029-4.414l14.998-28.51c0.788-1.498,2.32-2.433,3.987-2.433h31.644
					C206.513,17.754,208.006,18.633,208.814,20.06"/>
				<path clip-path="url(#SVGID_82_)" fill="none" stroke="#000000" stroke-width="3.277" stroke-miterlimit="10" d="M208.814,20.06
					l15.869,28.019c0.809,1.428,0.809,3.186,0,4.613l-15.869,28.019c-0.809,1.427-2.302,2.306-3.918,2.306h-31.685
					c-1.646,0-3.161-0.91-3.958-2.378l-14.957-27.528c-0.745-1.37-0.756-3.033-0.029-4.414l14.998-28.51
					c0.788-1.498,2.32-2.433,3.987-2.433h31.644C206.513,17.754,208.006,18.633,208.814,20.06z"/>
			</g>
		</g>
		<g opacity="0.25" clip-path="url(#SVGID_4_)">
			<g>
				<defs>
					<rect id="SVGID_83_" x="151.091" y="-58.307" width="76.838" height="70.54"/>
				</defs>
				<clipPath id="SVGID_84_">
					<use xlink:href="#SVGID_83_"  overflow="visible"/>
				</clipPath>
				<path clip-path="url(#SVGID_84_)" d="M208.814-53.362l15.869,28.019c0.809,1.427,0.809,3.186,0,4.612l-15.869,28.02
					c-0.809,1.427-2.302,2.306-3.918,2.306h-31.685c-1.646,0-3.161-0.91-3.958-2.378l-14.957-27.528
					c-0.745-1.37-0.756-3.033-0.029-4.414l14.998-28.51c0.788-1.498,2.32-2.433,3.987-2.433h31.644
					C206.513-55.668,208.006-54.79,208.814-53.362"/>
				<path clip-path="url(#SVGID_84_)" fill="none" stroke="#000000" stroke-width="3.277" stroke-miterlimit="10" d="
					M208.814-53.362l15.869,28.019c0.809,1.427,0.809,3.186,0,4.612l-15.869,28.02c-0.809,1.427-2.302,2.306-3.918,2.306h-31.685
					c-1.646,0-3.161-0.91-3.958-2.378l-14.957-27.528c-0.745-1.37-0.756-3.033-0.029-4.414l14.998-28.51
					c0.788-1.498,2.32-2.433,3.987-2.433h31.644C206.513-55.668,208.006-54.79,208.814-53.362z"/>
			</g>
		</g>
		<g opacity="0.03" clip-path="url(#SVGID_4_)">
			<g>
				<defs>
					<rect id="SVGID_85_" x="151.091" y="308.804" width="76.838" height="70.54"/>
				</defs>
				<clipPath id="SVGID_86_">
					<use xlink:href="#SVGID_85_"  overflow="visible"/>
				</clipPath>
				<path clip-path="url(#SVGID_86_)" fill="none" stroke="#000000" stroke-width="3.277" stroke-miterlimit="10" d="
					M208.814,313.748l15.869,28.019c0.809,1.427,0.809,3.186,0,4.612l-15.869,28.02c-0.809,1.427-2.302,2.306-3.918,2.306h-31.685
					c-1.646,0-3.161-0.911-3.958-2.378l-14.957-27.528c-0.745-1.37-0.756-3.033-0.029-4.414l14.998-28.511
					c0.788-1.497,2.32-2.432,3.987-2.432h31.644C206.513,311.442,208.006,312.321,208.814,313.748z"/>
			</g>
		</g>
		<g opacity="0.03" clip-path="url(#SVGID_4_)">
			<g>
				<defs>
					<rect id="SVGID_87_" x="151.091" y="382.226" width="76.838" height="70.54"/>
				</defs>
				<clipPath id="SVGID_88_">
					<use xlink:href="#SVGID_87_"  overflow="visible"/>
				</clipPath>
				<path clip-path="url(#SVGID_88_)" fill="#FFFFFF" d="M208.814,387.17l15.869,28.019c0.809,1.427,0.809,3.187,0,4.612
					l-15.869,28.02c-0.809,1.427-2.302,2.307-3.918,2.307h-31.685c-1.646,0-3.161-0.911-3.958-2.379l-14.957-27.527
					c-0.745-1.37-0.756-3.033-0.029-4.414l14.998-28.511c0.788-1.497,2.32-2.432,3.987-2.432h31.644
					C206.513,384.864,208.006,385.744,208.814,387.17"/>
				<path clip-path="url(#SVGID_88_)" fill="none" stroke="#FFFFFF" stroke-width="3.277" stroke-miterlimit="10" d="
					M208.814,387.17l15.869,28.019c0.809,1.427,0.809,3.187,0,4.612l-15.869,28.02c-0.809,1.427-2.302,2.307-3.918,2.307h-31.685
					c-1.646,0-3.161-0.911-3.958-2.379l-14.957-27.527c-0.745-1.37-0.756-3.033-0.029-4.414l14.998-28.511
					c0.788-1.497,2.32-2.432,3.987-2.432h31.644C206.513,384.864,208.006,385.744,208.814,387.17z"/>
			</g>
		</g>
		<g opacity="0.03" clip-path="url(#SVGID_4_)">
			<g>
				<defs>
					<rect id="SVGID_89_" x="151.091" y="602.492" width="76.838" height="70.541"/>
				</defs>
				<clipPath id="SVGID_90_">
					<use xlink:href="#SVGID_89_"  overflow="visible"/>
				</clipPath>
				<path clip-path="url(#SVGID_90_)" fill="none" stroke="#000000" stroke-width="3.277" stroke-miterlimit="10" d="
					M208.814,607.437l15.869,28.02c0.809,1.427,0.809,3.186,0,4.613l-15.869,28.019c-0.809,1.427-2.302,2.306-3.918,2.306h-31.685
					c-1.646,0-3.161-0.911-3.958-2.378l-14.957-27.527c-0.745-1.37-0.756-3.033-0.029-4.414l14.998-28.511
					c0.788-1.498,2.32-2.433,3.987-2.433h31.644C206.513,605.131,208.006,606.01,208.814,607.437z"/>
			</g>
		</g>
		<g opacity="0.03" clip-path="url(#SVGID_4_)">
			<g>
				<defs>
					<rect id="SVGID_91_" x="151.091" y="675.914" width="76.838" height="70.541"/>
				</defs>
				<clipPath id="SVGID_92_">
					<use xlink:href="#SVGID_91_"  overflow="visible"/>
				</clipPath>
				<path clip-path="url(#SVGID_92_)" fill="#FFFFFF" d="M208.814,680.859l15.869,28.019c0.809,1.427,0.809,3.187,0,4.612
					l-15.869,28.02c-0.809,1.428-2.302,2.307-3.918,2.307h-31.685c-1.646,0-3.161-0.911-3.958-2.378l-14.957-27.528
					c-0.745-1.37-0.756-3.033-0.029-4.414l14.998-28.511c0.788-1.497,2.32-2.433,3.987-2.433h31.644
					C206.513,678.553,208.006,679.432,208.814,680.859"/>
				<path clip-path="url(#SVGID_92_)" fill="none" stroke="#FFFFFF" stroke-width="3.277" stroke-miterlimit="10" d="
					M208.814,680.859l15.869,28.019c0.809,1.427,0.809,3.187,0,4.612l-15.869,28.02c-0.809,1.428-2.302,2.307-3.918,2.307h-31.685
					c-1.646,0-3.161-0.911-3.958-2.378l-14.957-27.528c-0.745-1.37-0.756-3.033-0.029-4.414l14.998-28.511
					c0.788-1.497,2.32-2.433,3.987-2.433h31.644C206.513,678.553,208.006,679.432,208.814,680.859z"/>
			</g>
		</g>
		<g opacity="0.03" clip-path="url(#SVGID_4_)">
			<g>
				<defs>
					<rect id="SVGID_93_" x="151.091" y="529.07" width="76.838" height="70.541"/>
				</defs>
				<clipPath id="SVGID_94_">
					<use xlink:href="#SVGID_93_"  overflow="visible"/>
				</clipPath>
				<path clip-path="url(#SVGID_94_)" fill="#FFFFFF" d="M208.814,534.015l15.869,28.02c0.809,1.427,0.809,3.186,0,4.612
					l-15.869,28.02c-0.809,1.427-2.302,2.306-3.918,2.306h-31.685c-1.646,0-3.161-0.911-3.958-2.378l-14.957-27.528
					c-0.745-1.37-0.756-3.032-0.029-4.414l14.998-28.51c0.788-1.498,2.32-2.433,3.987-2.433h31.644
					C206.513,531.709,208.006,532.588,208.814,534.015"/>
				<path clip-path="url(#SVGID_94_)" fill="none" stroke="#FFFFFF" stroke-width="3.277" stroke-miterlimit="10" d="
					M208.814,534.015l15.869,28.02c0.809,1.427,0.809,3.186,0,4.612l-15.869,28.02c-0.809,1.427-2.302,2.306-3.918,2.306h-31.685
					c-1.646,0-3.161-0.911-3.958-2.378l-14.957-27.528c-0.745-1.37-0.756-3.032-0.029-4.414l14.998-28.51
					c0.788-1.498,2.32-2.433,3.987-2.433h31.644C206.513,531.709,208.006,532.588,208.814,534.015z"/>
			</g>
		</g>
		<g opacity="0.03" clip-path="url(#SVGID_4_)">
			<g>
				<defs>
					<rect id="SVGID_95_" x="151.091" y="455.648" width="76.838" height="70.54"/>
				</defs>
				<clipPath id="SVGID_96_">
					<use xlink:href="#SVGID_95_"  overflow="visible"/>
				</clipPath>
				<path clip-path="url(#SVGID_96_)" fill="none" stroke="#000000" stroke-width="3.277" stroke-miterlimit="10" d="
					M208.814,460.593l15.869,28.019c0.809,1.428,0.809,3.187,0,4.613l-15.869,28.019c-0.809,1.428-2.302,2.307-3.918,2.307h-31.685
					c-1.646,0-3.161-0.911-3.958-2.378l-14.957-27.528c-0.745-1.37-0.756-3.033-0.029-4.414l14.998-28.51
					c0.788-1.498,2.32-2.434,3.987-2.434h31.644C206.513,458.286,208.006,459.166,208.814,460.593z"/>
			</g>
		</g>
		<g opacity="0.1" clip-path="url(#SVGID_4_)">
			<g>
				<defs>
					<rect id="SVGID_97_" x="151.091" y="749.337" width="76.838" height="70.54"/>
				</defs>
				<clipPath id="SVGID_98_">
					<use xlink:href="#SVGID_97_"  overflow="visible"/>
				</clipPath>
				<path clip-path="url(#SVGID_98_)" d="M208.814,754.281l15.869,28.019c0.809,1.428,0.809,3.187,0,4.613l-15.869,28.02
					c-0.809,1.427-2.302,2.306-3.918,2.306h-31.685c-1.646,0-3.161-0.911-3.958-2.378l-14.957-27.528
					c-0.745-1.37-0.756-3.033-0.029-4.414l14.998-28.51c0.788-1.498,2.32-2.433,3.987-2.433h31.644
					C206.513,751.976,208.006,752.854,208.814,754.281"/>
				<path clip-path="url(#SVGID_98_)" fill="none" stroke="#000000" stroke-width="3.277" stroke-miterlimit="10" d="
					M208.814,754.281l15.869,28.019c0.809,1.428,0.809,3.187,0,4.613l-15.869,28.02c-0.809,1.427-2.302,2.306-3.918,2.306h-31.685
					c-1.646,0-3.161-0.911-3.958-2.378l-14.957-27.528c-0.745-1.37-0.756-3.033-0.029-4.414l14.998-28.51
					c0.788-1.498,2.32-2.433,3.987-2.433h31.644C206.513,751.976,208.006,752.854,208.814,754.281z"/>
			</g>
		</g>
		<g opacity="0.03" clip-path="url(#SVGID_4_)">
			<g>
				<defs>
					<rect id="SVGID_99_" x="214.569" y="198.499" width="76.837" height="70.54"/>
				</defs>
				<clipPath id="SVGID_100_">
					<use xlink:href="#SVGID_99_"  overflow="visible"/>
				</clipPath>
				<path clip-path="url(#SVGID_100_)" fill="none" stroke="#000000" stroke-width="3.277" stroke-miterlimit="10" d="
					M272.292,203.443l15.869,28.019c0.809,1.427,0.809,3.186,0,4.612l-15.869,28.02c-0.808,1.427-2.302,2.306-3.918,2.306h-31.685
					c-1.646,0-3.161-0.91-3.958-2.378l-14.957-27.528c-0.745-1.37-0.756-3.033-0.029-4.414l14.998-28.51
					c0.788-1.498,2.32-2.433,3.987-2.433h31.644C269.99,201.137,271.484,202.017,272.292,203.443z"/>
			</g>
		</g>
		<g opacity="0.03" clip-path="url(#SVGID_4_)">
			<g>
				<defs>
					<rect id="SVGID_101_" x="214.569" y="271.942" width="76.837" height="70.54"/>
				</defs>
				<clipPath id="SVGID_102_">
					<use xlink:href="#SVGID_101_"  overflow="visible"/>
				</clipPath>
				<path clip-path="url(#SVGID_102_)" fill="none" stroke="#000000" stroke-width="3.277" stroke-miterlimit="10" d="
					M272.292,276.887l15.869,28.019c0.809,1.427,0.809,3.186,0,4.612l-15.869,28.02c-0.808,1.427-2.302,2.306-3.918,2.306h-31.685
					c-1.646,0-3.161-0.911-3.958-2.378l-14.957-27.528c-0.745-1.37-0.756-3.033-0.029-4.414l14.998-28.511
					c0.788-1.497,2.32-2.432,3.987-2.432h31.644C269.99,274.581,271.484,275.459,272.292,276.887z"/>
			</g>
		</g>
		<g opacity="0.03" clip-path="url(#SVGID_4_)">
			<g>
				<defs>
					<rect id="SVGID_103_" x="214.569" y="125.056" width="76.837" height="70.54"/>
				</defs>
				<clipPath id="SVGID_104_">
					<use xlink:href="#SVGID_103_"  overflow="visible"/>
				</clipPath>
				<path clip-path="url(#SVGID_104_)" fill="none" stroke="#000000" stroke-width="3.277" stroke-miterlimit="10" d="M272.292,130
					l15.869,28.019c0.809,1.427,0.809,3.186,0,4.612l-15.869,28.02c-0.808,1.427-2.302,2.306-3.918,2.306h-31.685
					c-1.646,0-3.161-0.91-3.958-2.378l-14.957-27.528c-0.745-1.37-0.756-3.033-0.029-4.414l14.998-28.51
					c0.788-1.498,2.32-2.433,3.987-2.433h31.644C269.99,127.694,271.484,128.573,272.292,130z"/>
			</g>
		</g>
		<g opacity="0.02" clip-path="url(#SVGID_4_)">
			<g>
				<defs>
					<rect id="SVGID_105_" x="214.569" y="51.613" width="76.837" height="70.54"/>
				</defs>
				<clipPath id="SVGID_106_">
					<use xlink:href="#SVGID_105_"  overflow="visible"/>
				</clipPath>
				<path clip-path="url(#SVGID_106_)" d="M272.292,56.557l15.869,28.019c0.809,1.427,0.809,3.186,0,4.612l-15.869,28.02
					c-0.808,1.427-2.302,2.306-3.918,2.306h-31.685c-1.646,0-3.161-0.91-3.958-2.378l-14.957-27.528
					c-0.745-1.37-0.756-3.033-0.029-4.414l14.998-28.51c0.788-1.498,2.32-2.433,3.987-2.433h31.644
					C269.99,54.251,271.484,55.13,272.292,56.557"/>
				<path clip-path="url(#SVGID_106_)" fill="none" stroke="#000000" stroke-width="3.277" stroke-miterlimit="10" d="
					M272.292,56.557l15.869,28.019c0.809,1.427,0.809,3.186,0,4.612l-15.869,28.02c-0.808,1.427-2.302,2.306-3.918,2.306h-31.685
					c-1.646,0-3.161-0.91-3.958-2.378l-14.957-27.528c-0.745-1.37-0.756-3.033-0.029-4.414l14.998-28.51
					c0.788-1.498,2.32-2.433,3.987-2.433h31.644C269.99,54.251,271.484,55.13,272.292,56.557z"/>
			</g>
		</g>
		<g opacity="0.1" clip-path="url(#SVGID_4_)">
			<g>
				<defs>
					<rect id="SVGID_107_" x="214.569" y="-21.83" width="76.837" height="70.54"/>
				</defs>
				<clipPath id="SVGID_108_">
					<use xlink:href="#SVGID_107_"  overflow="visible"/>
				</clipPath>
				<path clip-path="url(#SVGID_108_)" d="M272.292-16.886l15.869,28.019c0.809,1.427,0.809,3.186,0,4.613l-15.869,28.019
					c-0.808,1.427-2.302,2.306-3.918,2.306h-31.685c-1.646,0-3.161-0.911-3.958-2.378l-14.957-27.528
					c-0.745-1.37-0.756-3.033-0.029-4.414l14.998-28.51c0.788-1.498,2.32-2.433,3.987-2.433h31.644
					C269.99-19.192,271.484-18.312,272.292-16.886"/>
				<path clip-path="url(#SVGID_108_)" fill="none" stroke="#000000" stroke-width="3.277" stroke-miterlimit="10" d="
					M272.292-16.886l15.869,28.019c0.809,1.427,0.809,3.186,0,4.613l-15.869,28.019c-0.808,1.427-2.302,2.306-3.918,2.306h-31.685
					c-1.646,0-3.161-0.911-3.958-2.378l-14.957-27.528c-0.745-1.37-0.756-3.033-0.029-4.414l14.998-28.51
					c0.788-1.498,2.32-2.433,3.987-2.433h31.644C269.99-19.192,271.484-18.312,272.292-16.886z"/>
			</g>
		</g>
		<g opacity="0.03" clip-path="url(#SVGID_4_)">
			<g>
				<defs>
					<rect id="SVGID_109_" x="214.569" y="345.385" width="76.837" height="70.54"/>
				</defs>
				<clipPath id="SVGID_110_">
					<use xlink:href="#SVGID_109_"  overflow="visible"/>
				</clipPath>
				<path clip-path="url(#SVGID_110_)" fill="none" stroke="#000000" stroke-width="3.277" stroke-miterlimit="10" d="
					M272.292,350.33l15.869,28.019c0.809,1.427,0.809,3.186,0,4.613l-15.869,28.019c-0.808,1.427-2.302,2.306-3.918,2.306h-31.685
					c-1.646,0-3.161-0.91-3.958-2.378l-14.957-27.528c-0.745-1.37-0.756-3.033-0.029-4.414l14.998-28.51
					c0.788-1.498,2.32-2.433,3.987-2.433h31.644C269.99,348.023,271.484,348.902,272.292,350.33z"/>
			</g>
		</g>
		<g opacity="0.03" clip-path="url(#SVGID_4_)">
			<g>
				<defs>
					<rect id="SVGID_111_" x="214.569" y="418.828" width="76.837" height="70.54"/>
				</defs>
				<clipPath id="SVGID_112_">
					<use xlink:href="#SVGID_111_"  overflow="visible"/>
				</clipPath>
				<path clip-path="url(#SVGID_112_)" fill="none" stroke="#000000" stroke-width="3.277" stroke-miterlimit="10" d="
					M272.292,423.772l15.869,28.02c0.809,1.427,0.809,3.186,0,4.612l-15.869,28.02c-0.808,1.427-2.302,2.306-3.918,2.306h-31.685
					c-1.646,0-3.161-0.911-3.958-2.378l-14.957-27.528c-0.745-1.37-0.756-3.032-0.029-4.414l14.998-28.51
					c0.788-1.498,2.32-2.433,3.987-2.433h31.644C269.99,421.467,271.484,422.346,272.292,423.772z"/>
			</g>
		</g>
		<g opacity="0.03" clip-path="url(#SVGID_4_)">
			<g>
				<defs>
					<rect id="SVGID_113_" x="214.569" y="639.157" width="76.837" height="70.541"/>
				</defs>
				<clipPath id="SVGID_114_">
					<use xlink:href="#SVGID_113_"  overflow="visible"/>
				</clipPath>
				<path clip-path="url(#SVGID_114_)" fill="none" stroke="#000000" stroke-width="3.277" stroke-miterlimit="10" d="
					M272.292,644.102l15.869,28.02c0.809,1.427,0.809,3.186,0,4.612l-15.869,28.02c-0.808,1.427-2.302,2.306-3.918,2.306h-31.685
					c-1.646,0-3.161-0.911-3.958-2.378l-14.957-27.528c-0.745-1.37-0.756-3.032-0.029-4.414l14.998-28.51
					c0.788-1.498,2.32-2.433,3.987-2.433h31.644C269.99,641.796,271.484,642.675,272.292,644.102z"/>
			</g>
		</g>
		<g opacity="0.02" clip-path="url(#SVGID_4_)">
			<g>
				<defs>
					<rect id="SVGID_115_" x="214.569" y="712.6" width="76.837" height="70.541"/>
				</defs>
				<clipPath id="SVGID_116_">
					<use xlink:href="#SVGID_115_"  overflow="visible"/>
				</clipPath>
				<path clip-path="url(#SVGID_116_)" d="M272.292,717.545l15.869,28.019c0.809,1.428,0.809,3.187,0,4.613l-15.869,28.019
					c-0.808,1.428-2.302,2.307-3.918,2.307h-31.685c-1.646,0-3.161-0.911-3.958-2.378l-14.957-27.528
					c-0.745-1.37-0.756-3.033-0.029-4.414l14.998-28.51c0.788-1.498,2.32-2.433,3.987-2.433h31.644
					C269.99,715.239,271.484,716.118,272.292,717.545"/>
				<path clip-path="url(#SVGID_116_)" fill="none" stroke="#000000" stroke-width="3.277" stroke-miterlimit="10" d="
					M272.292,717.545l15.869,28.019c0.809,1.428,0.809,3.187,0,4.613l-15.869,28.019c-0.808,1.428-2.302,2.307-3.918,2.307h-31.685
					c-1.646,0-3.161-0.911-3.958-2.378l-14.957-27.528c-0.745-1.37-0.756-3.033-0.029-4.414l14.998-28.51
					c0.788-1.498,2.32-2.433,3.987-2.433h31.644C269.99,715.239,271.484,716.118,272.292,717.545z"/>
			</g>
		</g>
		<g opacity="0.03" clip-path="url(#SVGID_4_)">
			<g>
				<defs>
					<rect id="SVGID_117_" x="214.569" y="565.714" width="76.837" height="70.54"/>
				</defs>
				<clipPath id="SVGID_118_">
					<use xlink:href="#SVGID_117_"  overflow="visible"/>
				</clipPath>
				<path clip-path="url(#SVGID_118_)" fill="none" stroke="#000000" stroke-width="3.277" stroke-miterlimit="10" d="
					M272.292,570.658l15.869,28.02c0.809,1.427,0.809,3.186,0,4.613l-15.869,28.019c-0.808,1.427-2.302,2.306-3.918,2.306h-31.685
					c-1.646,0-3.161-0.91-3.958-2.378l-14.957-27.527c-0.745-1.37-0.756-3.033-0.029-4.414l14.998-28.51
					c0.788-1.498,2.32-2.434,3.987-2.434h31.644C269.99,568.353,271.484,569.231,272.292,570.658z"/>
			</g>
		</g>
		<g opacity="0.03" clip-path="url(#SVGID_4_)">
			<g>
				<defs>
					<rect id="SVGID_119_" x="214.569" y="492.271" width="76.837" height="70.54"/>
				</defs>
				<clipPath id="SVGID_120_">
					<use xlink:href="#SVGID_119_"  overflow="visible"/>
				</clipPath>
				<path clip-path="url(#SVGID_120_)" fill="none" stroke="#000000" stroke-width="3.277" stroke-miterlimit="10" d="
					M272.292,497.216l15.869,28.019c0.809,1.427,0.809,3.187,0,4.612l-15.869,28.02c-0.808,1.428-2.302,2.307-3.918,2.307h-31.685
					c-1.646,0-3.161-0.911-3.958-2.378l-14.957-27.528c-0.745-1.37-0.756-3.033-0.029-4.414l14.998-28.511
					c0.788-1.497,2.32-2.433,3.987-2.433h31.644C269.99,494.909,271.484,495.789,272.292,497.216z"/>
			</g>
		</g>
		<g opacity="0.25" clip-path="url(#SVGID_4_)">
			<g>
				<defs>
					<rect id="SVGID_121_" x="214.569" y="786.043" width="76.837" height="70.541"/>
				</defs>
				<clipPath id="SVGID_122_">
					<use xlink:href="#SVGID_121_"  overflow="visible"/>
				</clipPath>
				<path clip-path="url(#SVGID_122_)" d="M272.292,790.987l15.869,28.02c0.809,1.427,0.809,3.186,0,4.612l-15.869,28.02
					c-0.808,1.427-2.302,2.306-3.918,2.306h-31.685c-1.646,0-3.161-0.91-3.958-2.378l-14.957-27.527
					c-0.745-1.37-0.756-3.033-0.029-4.414l14.998-28.511c0.788-1.497,2.32-2.433,3.987-2.433h31.644
					C269.99,788.682,271.484,789.561,272.292,790.987"/>
				<path clip-path="url(#SVGID_122_)" fill="none" stroke="#000000" stroke-width="3.277" stroke-miterlimit="10" d="
					M272.292,790.987l15.869,28.02c0.809,1.427,0.809,3.186,0,4.612l-15.869,28.02c-0.808,1.427-2.302,2.306-3.918,2.306h-31.685
					c-1.646,0-3.161-0.91-3.958-2.378l-14.957-27.527c-0.745-1.37-0.756-3.033-0.029-4.414l14.998-28.511
					c0.788-1.497,2.32-2.433,3.987-2.433h31.644C269.99,788.682,271.484,789.561,272.292,790.987z"/>
			</g>
		</g>
		<g opacity="0.03" clip-path="url(#SVGID_4_)">
			<g>
				<defs>
					<rect id="SVGID_123_" x="278.29" y="161.959" width="76.838" height="70.541"/>
				</defs>
				<clipPath id="SVGID_124_">
					<use xlink:href="#SVGID_123_"  overflow="visible"/>
				</clipPath>
				<path clip-path="url(#SVGID_124_)" fill="none" stroke="#000000" stroke-width="3.277" stroke-miterlimit="10" d="
					M336.014,166.904l15.869,28.019c0.809,1.427,0.809,3.186,0,4.612l-15.869,28.02c-0.808,1.427-2.302,2.306-3.918,2.306H300.41
					c-1.646,0-3.16-0.91-3.958-2.378l-14.956-27.528c-0.745-1.37-0.757-3.033-0.029-4.414l14.998-28.511
					c0.788-1.497,2.319-2.432,3.986-2.432h31.645C333.712,164.598,335.206,165.477,336.014,166.904z"/>
			</g>
		</g>
		<g opacity="0.03" clip-path="url(#SVGID_4_)">
			<g>
				<defs>
					<rect id="SVGID_125_" x="278.29" y="235.382" width="76.838" height="70.54"/>
				</defs>
				<clipPath id="SVGID_126_">
					<use xlink:href="#SVGID_125_"  overflow="visible"/>
				</clipPath>
				<path clip-path="url(#SVGID_126_)" fill="#FFFFFF" d="M336.014,240.326l15.869,28.019c0.809,1.427,0.809,3.186,0,4.612
					l-15.869,28.02c-0.808,1.427-2.302,2.306-3.918,2.306H300.41c-1.646,0-3.16-0.911-3.958-2.378l-14.956-27.528
					c-0.745-1.37-0.757-3.033-0.029-4.414l14.998-28.51c0.788-1.498,2.319-2.433,3.986-2.433h31.645
					C333.712,238.02,335.206,238.899,336.014,240.326"/>
				<path clip-path="url(#SVGID_126_)" fill="none" stroke="#FFFFFF" stroke-width="3.277" stroke-miterlimit="10" d="
					M336.014,240.326l15.869,28.019c0.809,1.427,0.809,3.186,0,4.612l-15.869,28.02c-0.808,1.427-2.302,2.306-3.918,2.306H300.41
					c-1.646,0-3.16-0.911-3.958-2.378l-14.956-27.528c-0.745-1.37-0.757-3.033-0.029-4.414l14.998-28.51
					c0.788-1.498,2.319-2.433,3.986-2.433h31.645C333.712,238.02,335.206,238.899,336.014,240.326z"/>
			</g>
		</g>
		<g opacity="0.03" clip-path="url(#SVGID_4_)">
			<g>
				<defs>
					<rect id="SVGID_127_" x="278.29" y="88.537" width="76.838" height="70.541"/>
				</defs>
				<clipPath id="SVGID_128_">
					<use xlink:href="#SVGID_127_"  overflow="visible"/>
				</clipPath>
				<path clip-path="url(#SVGID_128_)" fill="#FFFFFF" d="M336.014,93.482l15.869,28.019c0.809,1.427,0.809,3.186,0,4.612
					l-15.869,28.02c-0.808,1.427-2.302,2.306-3.918,2.306H300.41c-1.646,0-3.16-0.911-3.958-2.378l-14.956-27.528
					c-0.745-1.37-0.757-3.033-0.029-4.414l14.998-28.511c0.788-1.497,2.319-2.432,3.986-2.432h31.645
					C333.712,91.176,335.206,92.055,336.014,93.482"/>
				<path clip-path="url(#SVGID_128_)" fill="none" stroke="#FFFFFF" stroke-width="3.277" stroke-miterlimit="10" d="
					M336.014,93.482l15.869,28.019c0.809,1.427,0.809,3.186,0,4.612l-15.869,28.02c-0.808,1.427-2.302,2.306-3.918,2.306H300.41
					c-1.646,0-3.16-0.911-3.958-2.378l-14.956-27.528c-0.745-1.37-0.757-3.033-0.029-4.414l14.998-28.511
					c0.788-1.497,2.319-2.432,3.986-2.432h31.645C333.712,91.176,335.206,92.055,336.014,93.482z"/>
			</g>
		</g>
		<g opacity="0.02" clip-path="url(#SVGID_4_)">
			<g>
				<defs>
					<rect id="SVGID_129_" x="278.29" y="15.115" width="76.838" height="70.541"/>
				</defs>
				<clipPath id="SVGID_130_">
					<use xlink:href="#SVGID_129_"  overflow="visible"/>
				</clipPath>
				<path clip-path="url(#SVGID_130_)" d="M336.014,20.06l15.869,28.019c0.809,1.428,0.809,3.186,0,4.613l-15.869,28.019
					c-0.808,1.427-2.302,2.306-3.918,2.306H300.41c-1.646,0-3.16-0.91-3.958-2.378l-14.956-27.528
					c-0.745-1.37-0.757-3.033-0.029-4.414l14.998-28.51c0.788-1.498,2.319-2.433,3.986-2.433h31.645
					C333.712,17.754,335.206,18.633,336.014,20.06"/>
				<path clip-path="url(#SVGID_130_)" fill="none" stroke="#000000" stroke-width="3.277" stroke-miterlimit="10" d="
					M336.014,20.06l15.869,28.019c0.809,1.428,0.809,3.186,0,4.613l-15.869,28.019c-0.808,1.427-2.302,2.306-3.918,2.306H300.41
					c-1.646,0-3.16-0.91-3.958-2.378l-14.956-27.528c-0.745-1.37-0.757-3.033-0.029-4.414l14.998-28.51
					c0.788-1.498,2.319-2.433,3.986-2.433h31.645C333.712,17.754,335.206,18.633,336.014,20.06z"/>
			</g>
		</g>
		<g opacity="0.25" clip-path="url(#SVGID_4_)">
			<g>
				<defs>
					<rect id="SVGID_131_" x="278.29" y="-58.307" width="76.838" height="70.54"/>
				</defs>
				<clipPath id="SVGID_132_">
					<use xlink:href="#SVGID_131_"  overflow="visible"/>
				</clipPath>
				<path clip-path="url(#SVGID_132_)" d="M336.014-53.362l15.869,28.019c0.809,1.427,0.809,3.186,0,4.612l-15.869,28.02
					c-0.808,1.427-2.302,2.306-3.918,2.306H300.41c-1.646,0-3.16-0.91-3.958-2.378l-14.956-27.528
					c-0.745-1.37-0.757-3.033-0.029-4.414l14.998-28.51c0.788-1.498,2.319-2.433,3.986-2.433h31.645
					C333.712-55.668,335.206-54.79,336.014-53.362"/>
				<path clip-path="url(#SVGID_132_)" fill="none" stroke="#000000" stroke-width="3.277" stroke-miterlimit="10" d="
					M336.014-53.362l15.869,28.019c0.809,1.427,0.809,3.186,0,4.612l-15.869,28.02c-0.808,1.427-2.302,2.306-3.918,2.306H300.41
					c-1.646,0-3.16-0.91-3.958-2.378l-14.956-27.528c-0.745-1.37-0.757-3.033-0.029-4.414l14.998-28.51
					c0.788-1.498,2.319-2.433,3.986-2.433h31.645C333.712-55.668,335.206-54.79,336.014-53.362z"/>
			</g>
		</g>
		<g opacity="0.03" clip-path="url(#SVGID_4_)">
			<g>
				<defs>
					<rect id="SVGID_133_" x="278.29" y="308.804" width="76.838" height="70.54"/>
				</defs>
				<clipPath id="SVGID_134_">
					<use xlink:href="#SVGID_133_"  overflow="visible"/>
				</clipPath>
				<path clip-path="url(#SVGID_134_)" fill="none" stroke="#000000" stroke-width="3.277" stroke-miterlimit="10" d="
					M336.014,313.748l15.869,28.019c0.809,1.427,0.809,3.186,0,4.612l-15.869,28.02c-0.808,1.427-2.302,2.306-3.918,2.306H300.41
					c-1.646,0-3.16-0.911-3.958-2.378l-14.956-27.528c-0.745-1.37-0.757-3.033-0.029-4.414l14.998-28.511
					c0.788-1.497,2.319-2.432,3.986-2.432h31.645C333.712,311.442,335.206,312.321,336.014,313.748z"/>
			</g>
		</g>
		<g opacity="0.03" clip-path="url(#SVGID_4_)">
			<g>
				<defs>
					<rect id="SVGID_135_" x="278.29" y="382.226" width="76.838" height="70.54"/>
				</defs>
				<clipPath id="SVGID_136_">
					<use xlink:href="#SVGID_135_"  overflow="visible"/>
				</clipPath>
				<path clip-path="url(#SVGID_136_)" fill="#FFFFFF" d="M336.014,387.17l15.869,28.019c0.809,1.427,0.809,3.187,0,4.612
					l-15.869,28.02c-0.808,1.427-2.302,2.307-3.918,2.307H300.41c-1.646,0-3.16-0.911-3.958-2.379l-14.956-27.527
					c-0.745-1.37-0.757-3.033-0.029-4.414l14.998-28.511c0.788-1.497,2.319-2.432,3.986-2.432h31.645
					C333.712,384.864,335.206,385.744,336.014,387.17"/>
				<path clip-path="url(#SVGID_136_)" fill="none" stroke="#FFFFFF" stroke-width="3.277" stroke-miterlimit="10" d="
					M336.014,387.17l15.869,28.019c0.809,1.427,0.809,3.187,0,4.612l-15.869,28.02c-0.808,1.427-2.302,2.307-3.918,2.307H300.41
					c-1.646,0-3.16-0.911-3.958-2.379l-14.956-27.527c-0.745-1.37-0.757-3.033-0.029-4.414l14.998-28.511
					c0.788-1.497,2.319-2.432,3.986-2.432h31.645C333.712,384.864,335.206,385.744,336.014,387.17z"/>
			</g>
		</g>
		<g opacity="0.03" clip-path="url(#SVGID_4_)">
			<g>
				<defs>
					<rect id="SVGID_137_" x="278.29" y="602.492" width="76.838" height="70.541"/>
				</defs>
				<clipPath id="SVGID_138_">
					<use xlink:href="#SVGID_137_"  overflow="visible"/>
				</clipPath>
				<path clip-path="url(#SVGID_138_)" fill="none" stroke="#000000" stroke-width="3.277" stroke-miterlimit="10" d="
					M336.014,607.437l15.869,28.02c0.809,1.427,0.809,3.186,0,4.613l-15.869,28.019c-0.808,1.427-2.302,2.306-3.918,2.306H300.41
					c-1.646,0-3.16-0.911-3.958-2.378l-14.956-27.527c-0.745-1.37-0.757-3.033-0.029-4.414l14.998-28.511
					c0.788-1.498,2.319-2.433,3.986-2.433h31.645C333.712,605.131,335.206,606.01,336.014,607.437z"/>
			</g>
		</g>
		<g opacity="0.03" clip-path="url(#SVGID_4_)">
			<g>
				<defs>
					<rect id="SVGID_139_" x="278.29" y="675.914" width="76.838" height="70.541"/>
				</defs>
				<clipPath id="SVGID_140_">
					<use xlink:href="#SVGID_139_"  overflow="visible"/>
				</clipPath>
				<path clip-path="url(#SVGID_140_)" fill="#FFFFFF" d="M336.014,680.859l15.869,28.019c0.809,1.427,0.809,3.187,0,4.612
					l-15.869,28.02c-0.808,1.428-2.302,2.307-3.918,2.307H300.41c-1.646,0-3.16-0.911-3.958-2.378l-14.956-27.528
					c-0.745-1.37-0.757-3.033-0.029-4.414l14.998-28.511c0.788-1.497,2.319-2.433,3.986-2.433h31.645
					C333.712,678.553,335.206,679.432,336.014,680.859"/>
				<path clip-path="url(#SVGID_140_)" fill="none" stroke="#FFFFFF" stroke-width="3.277" stroke-miterlimit="10" d="
					M336.014,680.859l15.869,28.019c0.809,1.427,0.809,3.187,0,4.612l-15.869,28.02c-0.808,1.428-2.302,2.307-3.918,2.307H300.41
					c-1.646,0-3.16-0.911-3.958-2.378l-14.956-27.528c-0.745-1.37-0.757-3.033-0.029-4.414l14.998-28.511
					c0.788-1.497,2.319-2.433,3.986-2.433h31.645C333.712,678.553,335.206,679.432,336.014,680.859z"/>
			</g>
		</g>
		<g opacity="0.03" clip-path="url(#SVGID_4_)">
			<g>
				<defs>
					<rect id="SVGID_141_" x="278.29" y="529.07" width="76.838" height="70.541"/>
				</defs>
				<clipPath id="SVGID_142_">
					<use xlink:href="#SVGID_141_"  overflow="visible"/>
				</clipPath>
				<path clip-path="url(#SVGID_142_)" fill="#FFFFFF" d="M336.014,534.015l15.869,28.02c0.809,1.427,0.809,3.186,0,4.612
					l-15.869,28.02c-0.808,1.427-2.302,2.306-3.918,2.306H300.41c-1.646,0-3.16-0.911-3.958-2.378l-14.956-27.528
					c-0.745-1.37-0.757-3.032-0.029-4.414l14.998-28.51c0.788-1.498,2.319-2.433,3.986-2.433h31.645
					C333.712,531.709,335.206,532.588,336.014,534.015"/>
				<path clip-path="url(#SVGID_142_)" fill="none" stroke="#FFFFFF" stroke-width="3.277" stroke-miterlimit="10" d="
					M336.014,534.015l15.869,28.02c0.809,1.427,0.809,3.186,0,4.612l-15.869,28.02c-0.808,1.427-2.302,2.306-3.918,2.306H300.41
					c-1.646,0-3.16-0.911-3.958-2.378l-14.956-27.528c-0.745-1.37-0.757-3.032-0.029-4.414l14.998-28.51
					c0.788-1.498,2.319-2.433,3.986-2.433h31.645C333.712,531.709,335.206,532.588,336.014,534.015z"/>
			</g>
		</g>
		<g opacity="0.03" clip-path="url(#SVGID_4_)">
			<g>
				<defs>
					<rect id="SVGID_143_" x="278.29" y="455.648" width="76.838" height="70.54"/>
				</defs>
				<clipPath id="SVGID_144_">
					<use xlink:href="#SVGID_143_"  overflow="visible"/>
				</clipPath>
				<path clip-path="url(#SVGID_144_)" fill="none" stroke="#000000" stroke-width="3.277" stroke-miterlimit="10" d="
					M336.014,460.593l15.869,28.019c0.809,1.428,0.809,3.187,0,4.613l-15.869,28.019c-0.808,1.428-2.302,2.307-3.918,2.307H300.41
					c-1.646,0-3.16-0.911-3.958-2.378l-14.956-27.528c-0.745-1.37-0.757-3.033-0.029-4.414l14.998-28.51
					c0.788-1.498,2.319-2.434,3.986-2.434h31.645C333.712,458.286,335.206,459.166,336.014,460.593z"/>
			</g>
		</g>
		<path clip-path="url(#SVGID_4_)" fill="#C6C6C6" d="M336.014,754.281l15.869,28.019c0.809,1.428,0.809,3.187,0,4.613
			l-15.869,28.02c-0.808,1.427-2.302,2.306-3.918,2.306H300.41c-1.646,0-3.16-0.911-3.958-2.378l-14.956-27.528
			c-0.745-1.37-0.757-3.033-0.029-4.414l14.998-28.51c0.788-1.498,2.319-2.433,3.986-2.433h31.645
			C333.712,751.976,335.206,752.854,336.014,754.281"/>
		<path clip-path="url(#SVGID_4_)" fill="none" stroke="#C6C6C6" stroke-width="3.277" stroke-miterlimit="10" d="M336.014,754.281
			l15.869,28.019c0.809,1.428,0.809,3.187,0,4.613l-15.869,28.02c-0.808,1.427-2.302,2.306-3.918,2.306H300.41
			c-1.646,0-3.16-0.911-3.958-2.378l-14.956-27.528c-0.745-1.37-0.757-3.033-0.029-4.414l14.998-28.51
			c0.788-1.498,2.319-2.433,3.986-2.433h31.645C333.712,751.976,335.206,752.854,336.014,754.281z"/>
		<g opacity="0.02" clip-path="url(#SVGID_4_)">
			<g>
				<defs>
					<rect id="SVGID_145_" x="341.768" y="198.499" width="76.839" height="70.54"/>
				</defs>
				<clipPath id="SVGID_146_">
					<use xlink:href="#SVGID_145_"  overflow="visible"/>
				</clipPath>
				<path clip-path="url(#SVGID_146_)" d="M399.491,203.443l15.869,28.019c0.809,1.427,0.809,3.186,0,4.612l-15.869,28.02
					c-0.808,1.427-2.302,2.306-3.918,2.306h-31.685c-1.646,0-3.161-0.91-3.958-2.378l-14.957-27.528
					c-0.745-1.37-0.757-3.033-0.029-4.414l14.998-28.51c0.788-1.498,2.32-2.433,3.987-2.433h31.644
					C397.189,201.137,398.684,202.017,399.491,203.443"/>
				<path clip-path="url(#SVGID_146_)" fill="none" stroke="#000000" stroke-width="3.277" stroke-miterlimit="10" d="
					M399.491,203.443l15.869,28.019c0.809,1.427,0.809,3.186,0,4.612l-15.869,28.02c-0.808,1.427-2.302,2.306-3.918,2.306h-31.685
					c-1.646,0-3.161-0.91-3.958-2.378l-14.957-27.528c-0.745-1.37-0.757-3.033-0.029-4.414l14.998-28.51
					c0.788-1.498,2.32-2.433,3.987-2.433h31.644C397.189,201.137,398.684,202.017,399.491,203.443z"/>
			</g>
		</g>
		<g opacity="0.03" clip-path="url(#SVGID_4_)">
			<g>
				<defs>
					<rect id="SVGID_147_" x="341.768" y="271.942" width="76.839" height="70.54"/>
				</defs>
				<clipPath id="SVGID_148_">
					<use xlink:href="#SVGID_147_"  overflow="visible"/>
				</clipPath>
				<path clip-path="url(#SVGID_148_)" fill="#FFFFFF" d="M399.491,276.887l15.869,28.019c0.809,1.427,0.809,3.186,0,4.612
					l-15.869,28.02c-0.808,1.427-2.302,2.306-3.918,2.306h-31.685c-1.646,0-3.161-0.911-3.958-2.378l-14.957-27.528
					c-0.745-1.37-0.757-3.033-0.029-4.414l14.998-28.511c0.788-1.497,2.32-2.432,3.987-2.432h31.644
					C397.189,274.581,398.684,275.459,399.491,276.887"/>
				<path clip-path="url(#SVGID_148_)" fill="none" stroke="#FFFFFF" stroke-width="3.277" stroke-miterlimit="10" d="
					M399.491,276.887l15.869,28.019c0.809,1.427,0.809,3.186,0,4.612l-15.869,28.02c-0.808,1.427-2.302,2.306-3.918,2.306h-31.685
					c-1.646,0-3.161-0.911-3.958-2.378l-14.957-27.528c-0.745-1.37-0.757-3.033-0.029-4.414l14.998-28.511
					c0.788-1.497,2.32-2.432,3.987-2.432h31.644C397.189,274.581,398.684,275.459,399.491,276.887z"/>
			</g>
		</g>
		<g opacity="0.03" clip-path="url(#SVGID_4_)">
			<g>
				<defs>
					<rect id="SVGID_149_" x="341.768" y="125.056" width="76.839" height="70.54"/>
				</defs>
				<clipPath id="SVGID_150_">
					<use xlink:href="#SVGID_149_"  overflow="visible"/>
				</clipPath>
				<path clip-path="url(#SVGID_150_)" fill="#FFFFFF" d="M399.491,130l15.869,28.019c0.809,1.427,0.809,3.186,0,4.612
					l-15.869,28.02c-0.808,1.427-2.302,2.306-3.918,2.306h-31.685c-1.646,0-3.161-0.91-3.958-2.378l-14.957-27.528
					c-0.745-1.37-0.757-3.033-0.029-4.414l14.998-28.51c0.788-1.498,2.32-2.433,3.987-2.433h31.644
					C397.189,127.694,398.684,128.573,399.491,130"/>
				<path clip-path="url(#SVGID_150_)" fill="none" stroke="#FFFFFF" stroke-width="3.277" stroke-miterlimit="10" d="M399.491,130
					l15.869,28.019c0.809,1.427,0.809,3.186,0,4.612l-15.869,28.02c-0.808,1.427-2.302,2.306-3.918,2.306h-31.685
					c-1.646,0-3.161-0.91-3.958-2.378l-14.957-27.528c-0.745-1.37-0.757-3.033-0.029-4.414l14.998-28.51
					c0.788-1.498,2.32-2.433,3.987-2.433h31.644C397.189,127.694,398.684,128.573,399.491,130z"/>
			</g>
		</g>
		<g opacity="0.03" clip-path="url(#SVGID_4_)">
			<g>
				<defs>
					<rect id="SVGID_151_" x="341.768" y="51.613" width="76.839" height="70.54"/>
				</defs>
				<clipPath id="SVGID_152_">
					<use xlink:href="#SVGID_151_"  overflow="visible"/>
				</clipPath>
				<path clip-path="url(#SVGID_152_)" fill="#FFFFFF" d="M399.491,56.557l15.869,28.019c0.809,1.427,0.809,3.186,0,4.612
					l-15.869,28.02c-0.808,1.427-2.302,2.306-3.918,2.306h-31.685c-1.646,0-3.161-0.91-3.958-2.378l-14.957-27.528
					c-0.745-1.37-0.757-3.033-0.029-4.414l14.998-28.51c0.788-1.498,2.32-2.433,3.987-2.433h31.644
					C397.189,54.251,398.684,55.13,399.491,56.557"/>
				<path clip-path="url(#SVGID_152_)" fill="none" stroke="#FFFFFF" stroke-width="3.277" stroke-miterlimit="10" d="
					M399.491,56.557l15.869,28.019c0.809,1.427,0.809,3.186,0,4.612l-15.869,28.02c-0.808,1.427-2.302,2.306-3.918,2.306h-31.685
					c-1.646,0-3.161-0.91-3.958-2.378l-14.957-27.528c-0.745-1.37-0.757-3.033-0.029-4.414l14.998-28.51
					c0.788-1.498,2.32-2.433,3.987-2.433h31.644C397.189,54.251,398.684,55.13,399.491,56.557z"/>
			</g>
		</g>
		<g opacity="0.1" clip-path="url(#SVGID_4_)">
			<g>
				<defs>
					<rect id="SVGID_153_" x="341.768" y="-21.83" width="76.839" height="70.54"/>
				</defs>
				<clipPath id="SVGID_154_">
					<use xlink:href="#SVGID_153_"  overflow="visible"/>
				</clipPath>
				<path clip-path="url(#SVGID_154_)" d="M399.491-16.886l15.869,28.019c0.809,1.427,0.809,3.186,0,4.613l-15.869,28.019
					c-0.808,1.427-2.302,2.306-3.918,2.306h-31.685c-1.646,0-3.161-0.911-3.958-2.378l-14.957-27.528
					c-0.745-1.37-0.757-3.033-0.029-4.414l14.998-28.51c0.788-1.498,2.32-2.433,3.987-2.433h31.644
					C397.189-19.192,398.684-18.312,399.491-16.886"/>
				<path clip-path="url(#SVGID_154_)" fill="none" stroke="#000000" stroke-width="3.277" stroke-miterlimit="10" d="
					M399.491-16.886l15.869,28.019c0.809,1.427,0.809,3.186,0,4.613l-15.869,28.019c-0.808,1.427-2.302,2.306-3.918,2.306h-31.685
					c-1.646,0-3.161-0.911-3.958-2.378l-14.957-27.528c-0.745-1.37-0.757-3.033-0.029-4.414l14.998-28.51
					c0.788-1.498,2.32-2.433,3.987-2.433h31.644C397.189-19.192,398.684-18.312,399.491-16.886z"/>
			</g>
		</g>
		<g opacity="0.03" clip-path="url(#SVGID_4_)">
			<g>
				<defs>
					<rect id="SVGID_155_" x="341.768" y="345.385" width="76.839" height="70.54"/>
				</defs>
				<clipPath id="SVGID_156_">
					<use xlink:href="#SVGID_155_"  overflow="visible"/>
				</clipPath>
				<path clip-path="url(#SVGID_156_)" fill="#FFFFFF" d="M399.491,350.33l15.869,28.019c0.809,1.427,0.809,3.186,0,4.613
					l-15.869,28.019c-0.808,1.427-2.302,2.306-3.918,2.306h-31.685c-1.646,0-3.161-0.91-3.958-2.378l-14.957-27.528
					c-0.745-1.37-0.757-3.033-0.029-4.414l14.998-28.51c0.788-1.498,2.32-2.433,3.987-2.433h31.644
					C397.189,348.023,398.684,348.902,399.491,350.33"/>
				<path clip-path="url(#SVGID_156_)" fill="none" stroke="#FFFFFF" stroke-width="3.277" stroke-miterlimit="10" d="
					M399.491,350.33l15.869,28.019c0.809,1.427,0.809,3.186,0,4.613l-15.869,28.019c-0.808,1.427-2.302,2.306-3.918,2.306h-31.685
					c-1.646,0-3.161-0.91-3.958-2.378l-14.957-27.528c-0.745-1.37-0.757-3.033-0.029-4.414l14.998-28.51
					c0.788-1.498,2.32-2.433,3.987-2.433h31.644C397.189,348.023,398.684,348.902,399.491,350.33z"/>
			</g>
		</g>
		<g opacity="0.02" clip-path="url(#SVGID_4_)">
			<g>
				<defs>
					<rect id="SVGID_157_" x="341.768" y="418.828" width="76.839" height="70.54"/>
				</defs>
				<clipPath id="SVGID_158_">
					<use xlink:href="#SVGID_157_"  overflow="visible"/>
				</clipPath>
				<path clip-path="url(#SVGID_158_)" d="M399.491,423.772l15.869,28.02c0.809,1.427,0.809,3.186,0,4.612l-15.869,28.02
					c-0.808,1.427-2.302,2.306-3.918,2.306h-31.685c-1.646,0-3.161-0.911-3.958-2.378l-14.957-27.528
					c-0.745-1.37-0.757-3.032-0.029-4.414l14.998-28.51c0.788-1.498,2.32-2.433,3.987-2.433h31.644
					C397.189,421.467,398.684,422.346,399.491,423.772"/>
				<path clip-path="url(#SVGID_158_)" fill="none" stroke="#000000" stroke-width="3.277" stroke-miterlimit="10" d="
					M399.491,423.772l15.869,28.02c0.809,1.427,0.809,3.186,0,4.612l-15.869,28.02c-0.808,1.427-2.302,2.306-3.918,2.306h-31.685
					c-1.646,0-3.161-0.911-3.958-2.378l-14.957-27.528c-0.745-1.37-0.757-3.032-0.029-4.414l14.998-28.51
					c0.788-1.498,2.32-2.433,3.987-2.433h31.644C397.189,421.467,398.684,422.346,399.491,423.772z"/>
			</g>
		</g>
		<g opacity="0.02" clip-path="url(#SVGID_4_)">
			<g>
				<defs>
					<rect id="SVGID_159_" x="341.768" y="639.157" width="76.839" height="70.541"/>
				</defs>
				<clipPath id="SVGID_160_">
					<use xlink:href="#SVGID_159_"  overflow="visible"/>
				</clipPath>
				<path clip-path="url(#SVGID_160_)" d="M399.491,644.102l15.869,28.02c0.809,1.427,0.809,3.186,0,4.612l-15.869,28.02
					c-0.808,1.427-2.302,2.306-3.918,2.306h-31.685c-1.646,0-3.161-0.911-3.958-2.378l-14.957-27.528
					c-0.745-1.37-0.757-3.032-0.029-4.414l14.998-28.51c0.788-1.498,2.32-2.433,3.987-2.433h31.644
					C397.189,641.796,398.684,642.675,399.491,644.102"/>
				<path clip-path="url(#SVGID_160_)" fill="none" stroke="#000000" stroke-width="3.277" stroke-miterlimit="10" d="
					M399.491,644.102l15.869,28.02c0.809,1.427,0.809,3.186,0,4.612l-15.869,28.02c-0.808,1.427-2.302,2.306-3.918,2.306h-31.685
					c-1.646,0-3.161-0.911-3.958-2.378l-14.957-27.528c-0.745-1.37-0.757-3.032-0.029-4.414l14.998-28.51
					c0.788-1.498,2.32-2.433,3.987-2.433h31.644C397.189,641.796,398.684,642.675,399.491,644.102z"/>
			</g>
		</g>
		<g opacity="0.1" clip-path="url(#SVGID_4_)">
			<g>
				<defs>
					<rect id="SVGID_161_" x="341.768" y="712.6" width="76.839" height="70.541"/>
				</defs>
				<clipPath id="SVGID_162_">
					<use xlink:href="#SVGID_161_"  overflow="visible"/>
				</clipPath>
				<path clip-path="url(#SVGID_162_)" d="M399.491,717.545l15.869,28.019c0.809,1.428,0.809,3.187,0,4.613l-15.869,28.019
					c-0.808,1.428-2.302,2.307-3.918,2.307h-31.685c-1.646,0-3.161-0.911-3.958-2.378l-14.957-27.528
					c-0.745-1.37-0.757-3.033-0.029-4.414l14.998-28.51c0.788-1.498,2.32-2.433,3.987-2.433h31.644
					C397.189,715.239,398.684,716.118,399.491,717.545"/>
				<path clip-path="url(#SVGID_162_)" fill="none" stroke="#000000" stroke-width="3.277" stroke-miterlimit="10" d="
					M399.491,717.545l15.869,28.019c0.809,1.428,0.809,3.187,0,4.613l-15.869,28.019c-0.808,1.428-2.302,2.307-3.918,2.307h-31.685
					c-1.646,0-3.161-0.911-3.958-2.378l-14.957-27.528c-0.745-1.37-0.757-3.033-0.029-4.414l14.998-28.51
					c0.788-1.498,2.32-2.433,3.987-2.433h31.644C397.189,715.239,398.684,716.118,399.491,717.545z"/>
			</g>
		</g>
		<g opacity="0.03" clip-path="url(#SVGID_4_)">
			<g>
				<defs>
					<rect id="SVGID_163_" x="341.768" y="565.714" width="76.839" height="70.54"/>
				</defs>
				<clipPath id="SVGID_164_">
					<use xlink:href="#SVGID_163_"  overflow="visible"/>
				</clipPath>
				<path clip-path="url(#SVGID_164_)" fill="#FFFFFF" d="M399.491,570.658l15.869,28.02c0.809,1.427,0.809,3.186,0,4.613
					l-15.869,28.019c-0.808,1.427-2.302,2.306-3.918,2.306h-31.685c-1.646,0-3.161-0.91-3.958-2.378l-14.957-27.527
					c-0.745-1.37-0.757-3.033-0.029-4.414l14.998-28.51c0.788-1.498,2.32-2.434,3.987-2.434h31.644
					C397.189,568.353,398.684,569.231,399.491,570.658"/>
				<path clip-path="url(#SVGID_164_)" fill="none" stroke="#FFFFFF" stroke-width="3.277" stroke-miterlimit="10" d="
					M399.491,570.658l15.869,28.02c0.809,1.427,0.809,3.186,0,4.613l-15.869,28.019c-0.808,1.427-2.302,2.306-3.918,2.306h-31.685
					c-1.646,0-3.161-0.91-3.958-2.378l-14.957-27.527c-0.745-1.37-0.757-3.033-0.029-4.414l14.998-28.51
					c0.788-1.498,2.32-2.434,3.987-2.434h31.644C397.189,568.353,398.684,569.231,399.491,570.658z"/>
			</g>
		</g>
		<g opacity="0.03" clip-path="url(#SVGID_4_)">
			<g>
				<defs>
					<rect id="SVGID_165_" x="341.768" y="492.271" width="76.839" height="70.54"/>
				</defs>
				<clipPath id="SVGID_166_">
					<use xlink:href="#SVGID_165_"  overflow="visible"/>
				</clipPath>
				<path clip-path="url(#SVGID_166_)" fill="#FFFFFF" d="M399.491,497.216l15.869,28.019c0.809,1.427,0.809,3.187,0,4.612
					l-15.869,28.02c-0.808,1.428-2.302,2.307-3.918,2.307h-31.685c-1.646,0-3.161-0.911-3.958-2.378l-14.957-27.528
					c-0.745-1.37-0.757-3.033-0.029-4.414l14.998-28.511c0.788-1.497,2.32-2.433,3.987-2.433h31.644
					C397.189,494.909,398.684,495.789,399.491,497.216"/>
				<path clip-path="url(#SVGID_166_)" fill="none" stroke="#FFFFFF" stroke-width="3.277" stroke-miterlimit="10" d="
					M399.491,497.216l15.869,28.019c0.809,1.427,0.809,3.187,0,4.612l-15.869,28.02c-0.808,1.428-2.302,2.307-3.918,2.307h-31.685
					c-1.646,0-3.161-0.911-3.958-2.378l-14.957-27.528c-0.745-1.37-0.757-3.033-0.029-4.414l14.998-28.511
					c0.788-1.497,2.32-2.433,3.987-2.433h31.644C397.189,494.909,398.684,495.789,399.491,497.216z"/>
			</g>
		</g>
		<g opacity="0.25" clip-path="url(#SVGID_4_)">
			<g>
				<defs>
					<rect id="SVGID_167_" x="341.768" y="786.043" width="76.839" height="70.541"/>
				</defs>
				<clipPath id="SVGID_168_">
					<use xlink:href="#SVGID_167_"  overflow="visible"/>
				</clipPath>
				<path clip-path="url(#SVGID_168_)" d="M399.491,790.987l15.869,28.02c0.809,1.427,0.809,3.186,0,4.612l-15.869,28.02
					c-0.808,1.427-2.302,2.306-3.918,2.306h-31.685c-1.646,0-3.161-0.91-3.958-2.378l-14.957-27.527
					c-0.745-1.37-0.757-3.033-0.029-4.414l14.998-28.511c0.788-1.497,2.32-2.433,3.987-2.433h31.644
					C397.189,788.682,398.684,789.561,399.491,790.987"/>
				<path clip-path="url(#SVGID_168_)" fill="none" stroke="#000000" stroke-width="3.277" stroke-miterlimit="10" d="
					M399.491,790.987l15.869,28.02c0.809,1.427,0.809,3.186,0,4.612l-15.869,28.02c-0.808,1.427-2.302,2.306-3.918,2.306h-31.685
					c-1.646,0-3.161-0.91-3.958-2.378l-14.957-27.527c-0.745-1.37-0.757-3.033-0.029-4.414l14.998-28.511
					c0.788-1.497,2.32-2.433,3.987-2.433h31.644C397.189,788.682,398.684,789.561,399.491,790.987z"/>
			</g>
		</g>
	</g>
</g>
</svg>
