<svg id="Capa_1" enable-background="new 0 0 512 512" height="512" viewBox="0 0 512 512" width="512" xmlns="http://www.w3.org/2000/svg"><g><path d="m198.394 174.394-39.394 39.393-14.394-14.393c-5.857-5.858-15.355-5.858-21.213 0s-5.858 15.355 0 21.213l25 25c2.929 2.929 6.768 4.393 10.607 4.393s7.678-1.464 10.606-4.394l50-50c5.858-5.858 5.858-15.355 0-21.213-5.857-5.858-15.355-5.858-21.212.001z"/><path d="m198.394 271.894-39.394 39.393-14.394-14.393c-5.857-5.858-15.355-5.858-21.213 0s-5.858 15.355 0 21.213l25 25c2.929 2.929 6.768 4.394 10.606 4.394s7.678-1.464 10.606-4.394l50-50c5.858-5.858 5.858-15.355 0-21.213-5.856-5.859-15.354-5.859-21.211 0z"/><path d="m198.394 369.394-39.394 39.393-14.394-14.393c-5.857-5.858-15.355-5.858-21.213 0s-5.858 15.355 0 21.213l25 25c2.929 2.929 6.768 4.393 10.607 4.393s7.678-1.464 10.606-4.394l50-50c5.858-5.858 5.858-15.355 0-21.213-5.857-5.858-15.355-5.858-21.212.001z"/><path d="m498.607 242.617-56.568-56.568c-5.857-5.858-15.355-5.858-21.213 0l-21.826 21.824v-125.873c0-8.284-6.716-15-15-15h-85v-20c0-8.284-6.716-15-15-15h-25v-17c0-8.284-6.716-15-15-15h-80c-8.284 0-15 6.716-15 15v17h-25c-8.284 0-15 6.716-15 15v20h-85c-8.284 0-15 6.716-15 15v415c0 8.284 6.716 15 15 15h360c8.284 0 15-6.716 15-15v-133.564l99.606-99.607c5.858-5.857 5.858-15.354.001-21.212zm-359.607-180.617h25c8.284 0 15-6.716 15-15v-17h50v17c0 8.284 6.716 15 15 15h25v40h-130zm230 420h-330v-385h70v20c0 8.284 6.716 15 15 15h160c8.284 0 15-6.716 15-15v-20h70v140.873l-96.667 96.667v.008c-1.619 1.62-2.876 3.611-3.624 5.855l-28.284 84.853c-1.796 5.39-.394 11.333 3.624 15.35 2.859 2.859 6.692 4.394 10.608 4.394 1.586 0 3.188-.252 4.741-.77l84.853-28.284c2.244-.748 4.235-2.005 5.855-3.624h.008l18.886-18.886zm-57.261-86.839-33.368 11.123 11.123-33.368zm61.656-48.546c-.001.001-.002.002-.002.002l-33.884 33.885-35.355-35.355 127.279-127.279 35.355 35.355z"/><circle cx="84" cy="230" r="15"/><circle cx="84" cy="327.5" r="15"/><circle cx="84" cy="425" r="15"/></g></svg>