<svg height="512" viewBox="0 0 60 60" width="512" xmlns="http://www.w3.org/2000/svg"><g id="Page-1" fill="none" fill-rule="evenodd"><g id="029---Lane-Split" fill="rgb(0,0,0)" fill-rule="nonzero" transform="translate(0 -1)"><path id="Shape" d="m.2217 20.9136c.34024864.6687071 1.02801191 1.0888758 1.7783 1.0864h5v3c.00610498.0520946.01647308.1036007.031.154.31327837 7.3276455 3.6128957 14.2075488 9.1311 19.0389l2.459 2.1489c2.7825365 2.4384686 4.3784196 5.958384 4.3789 9.6582v3c.0012675 1.1040441.8959559 1.9987325 2 2h10c1.1040441-.0012675 1.9987325-.8959559 2-2v-3c.0003724-3.69934 1.5958793-7.2188651 4.3779-9.6572l2.46-2.15c5.515342-4.8284475 8.8145731-11.7035468 9.1307-19.027.0148714-.0509476.0253761-.1030693.0314-.1558v-3.01h5c.7502881.0024758 1.4380514-.4176929 1.7783-1.0864.3398093-.6575426.2813269-1.4502447-.1513-2.0508l-12.0381-17.041c-.378394-.52016346-.983697-.82680623-1.6269273-.82419139-.6432303.00261483-1.2460202.3141687-1.6201727.83739139l-11.9629 17.019c-.4354292.6063471-.4942708 1.4055866-.1523361 2.0691648.3419348.6635783 1.0269455 1.0795186 1.7734361 1.0768352h5v2c-.0005551 3.6993005-1.5960294 7.2187537-4.3779 9.6572l-2.4629 2.1528c-.7596735.6767824-1.4805526 1.3958921-2.1592 2.1539-.679617-.7589731-1.4014612-1.4790478-2.1621-2.1568l-2.459-2.1489c-2.7823756-2.4385879-4.3782238-5.9584264-4.3789-9.6582v-2h5c.7502881.0024758 1.4380514-.4176929 1.7783-1.0864.3398093-.6575426.2813269-1.4502447-.1513-2.0508l-12.0381-17.041c-.378394-.52016346-.983697-.82680623-1.6269273-.82419139-.6432303.00261483-1.2460202.3141687-1.6201727.83739139l-11.9629 17.019c-.4369777.601819-.49777971 1.3984336-.1572 2.0596zm33.2568 16.3994 2.461-2.1509c2.8554642-2.507239 4.6404336-6.014256 4.9871-9.7984.047169-.1155242.0720729-.2389243.0734-.3637v-4c0-.5522847-.4477153-1-1-1l-5.9922.0151 11.9561-17.0278 12.0429 17.0127h-6.0068c-.5522847 0-1 .4477153-1 1v3c-.0000851 7.1599969-3.0905557 13.9715348-8.4785 18.687l-2.461 2.1509c-1.6035828 1.405717-2.8855566 3.1403568-3.7587 5.0859-.0481-.2061-.108-.4091-.1607-.614-.0364-.141-.072-.2819-.1106-.4223-.1794-.6511-.38-1.2956-.6072-1.9307-.0389-.1086-.083-.2149-.1233-.3229-.2133333-.5716-.4458333-1.1353667-.6975-1.6913-.0507-.1122-.0976-.2257-.15-.3373-.2838-.6043-.5926-1.1967-.9214-1.7791-.077-.1365-.1571-.2708-.2367-.406-.333-.5668-.6816-1.1251-1.0569-1.6673-.02-.0292-.0383-.06-.0585-.089-.2814-.4028-.5741333-.7982667-.8782-1.1864.6812289-.7650939 1.4084785-1.4879354 2.1777-2.1645zm-19.5146-34.3257 12.0361 17.0127h-6c-.5522847 0-1 .4477153-1 1v4.01c.0011624.1258552.0262762.2503383.074.3668.3500406 3.7798763 2.1348463 7.282032 4.9875 9.7865l2.4571 2.147c5.3744582 4.7268839 8.4627766 11.5323342 8.4814 18.6897v3h-10v-3c-.0008728-4.2763005-1.8454886-8.3445867-5.0615-11.1631l-2.46-2.1494c-5.3878822-4.7157238-8.4783236-11.5273795-8.4785-18.6875v-3c0-.5522847-.44771525-1-1-1l-5.9922.0151z"/></g></g></svg>