<svg id="Layer_5" enable-background="new 0 0 64 64" height="512" viewBox="0 0 64 64" width="512" xmlns="http://www.w3.org/2000/svg"><path d="m5 59h6v-6h-6zm2-4h2v2h-2z"/><path d="m13 59h6v-6h-6zm2-4h2v2h-2z"/><path d="m21 59h6v-6h-6zm2-4h2v2h-2z"/><path d="m5 51h6v-6h-6zm2-4h2v2h-2z"/><path d="m13 51h6v-6h-6zm2-4h2v2h-2z"/><path d="m21 51h6v-6h-6zm2-4h2v2h-2z"/><path d="m5 43h6v-6h-6zm2-4h2v2h-2z"/><path d="m13 43h6v-6h-6zm2-4h2v2h-2z"/><path d="m21 43h6v-6h-6zm2-4h2v2h-2z"/><path d="m16 23c-.552 0-1-.449-1-1h-2c0 1.302.839 2.402 2 2.816v2.184h2v-2h2v-3c0-1.654-1.346-3-3-3-.552 0-1-.449-1-1v-1h1c.552 0 1 .449 1 1h2c0-1.302-.839-2.402-2-2.816v-2.184h-2v2h-2v3c0 1.654 1.346 3 3 3 .552 0 1 .449 1 1v1z"/><circle cx="10" cy="20" r="1"/><circle cx="22" cy="20" r="1"/><path d="m62.159 46.821-2.702-2.631c-.088-.125-.177-.248-.288-.359-.836-.836-2.168-1.031-3.804-.593-.851-2.071-2.482-4.339-4.373-6.23-3.719-3.717-8.896-6.446-11.161-4.177-.111.111-.201.235-.288.359l-2.712 2.641c-1.887 1.887-.312 5.786 2.411 9.184-3.133.097-6.279.788-8.242 2.026v-23.041c0-2.43-1.744-4.456-4.046-4.904-.462-5.643-5.194-10.096-10.954-10.096s-10.492 4.453-10.954 10.096c-2.302.448-4.046 2.474-4.046 4.904v34c0 2.757 2.243 5 5 5h20c1.857 0 3.462-1.029 4.324-2.536 1.985 1.658 5.909 2.536 9.676 2.536 2.459 0 4.804-.345 6.697-.975l.134.144c.573.573 1.331.827 2.204.827 2.585 0 6.178-2.226 8.957-5.004 3.718-3.718 6.445-8.893 4.167-11.171zm-1.973 4.951-1.538-1.538c.555-.997.97-1.979 1.182-2.889l.924.9c.468.467.306 1.793-.568 3.527zm-5.923 3.906 1.593 1.593c-.794.732-1.572 1.344-2.313 1.854l-1.572-1.586c.788-.56 1.559-1.186 2.292-1.861zm1.421-1.408c.677-.735 1.308-1.513 1.869-2.303l1.573 1.573c-.511.742-1.123 1.521-1.856 2.316zm2.071-9.025c.847.847-.359 4.515-4.177 8.333-3.819 3.818-7.487 5.022-8.333 4.177-.628-.628-.104-3.115 2.357-6.261.834.307 1.634.492 2.353.492.885 0 1.654-.258 2.237-.841l2.363-2.531c.22-.12.429-.26.612-.444.743-.743.942-1.802.753-3.016.866-.229 1.54-.204 1.835.091zm-14.751 11.541c-.651.086-1.319.144-2.004.172v-1.985c.822-.032 1.627-.104 2.407-.212-.252.729-.386 1.408-.403 2.025zm-12.004-3.828c.574.362 1.253.675 2 .943v1.875c-1.284-.563-2-1.225-2-1.776zm4 1.516c1.264.279 2.63.45 4 .506v2c-1.524-.062-2.865-.263-4-.544zm4 4.506v2c-1.524-.062-2.865-.263-4-.544v-1.962c1.264.279 2.63.45 4 .506zm4.316-15.71-1.586 1.586c-.732-.795-1.345-1.574-1.856-2.316l1.573-1.573c.56.791 1.192 1.568 1.869 2.303zm1.421 1.408c.733.675 1.504 1.302 2.292 1.861l-1.571 1.585c-.742-.51-1.52-1.122-2.314-1.854zm2.487 4.505 1.532-1.545c.995.555 1.971.958 2.881 1.172l-.881.944c-.468.467-1.796.305-3.532-.571zm-5.979-14.938c.17-.17.454-.257.83-.257 1.496 0 4.451 1.383 7.503 4.434 3.817 3.818 5.023 7.486 4.177 8.333s-4.515-.359-8.333-4.177-5.024-7.486-4.177-8.333zm-3.01 3.01.934-.91c.213.91.627 1.892 1.182 2.889l-1.539 1.539c-.874-1.733-1.038-3.057-.577-3.518zm1.765 9.745c.356 0 .702.015 1.048.03 1.432 1.425 3.074 2.694 4.685 3.594-.496.658-.931 1.305-1.295 1.932-1.362.286-2.882.444-4.438.444-5.494 0-9-1.776-9-3s3.506-3 9-3zm-33-20.695c1.992 2.834 5.28 4.695 9 4.695s7.008-1.861 9-4.695v6.695h-18zm9-15.305c4.963 0 9 4.038 9 9s-4.037 9-9 9-9-4.038-9-9 4.037-9 9-9zm10 50h-20c-1.654 0-3-1.346-3-3v-34c0-1.302.839-2.402 2-2.816v13.816h22v-13.816c1.161.414 2 1.514 2 2.816v26 4 4c0 1.654-1.346 3-3 3zm5-3v-1.042c.574.362 1.253.675 2 .943v1.875c-1.284-.563-2-1.225-2-1.776zm10 2.962v-2.004c.852-.033 1.682-.105 2.489-.221.1.153.211.3.342.431.184.184.393.324.612.444l.729.781c-1.242.323-2.672.507-4.172.569zm7.27-.183-.905-.969c.909-.214 1.885-.617 2.88-1.172l1.534 1.548c-1.733.879-3.056 1.047-3.509.593z"/><path d="m58 7h2v2h-2z"/><path d="m62.805 23h-2.805v-12h-2v14h1.195l-3.195 5.113-3.195-5.113h1.195v-24h-2v22h-2.805l6.805 10.887z"/><path d="m58 3h2v2h-2z"/><path d="m38 23h2v2h-2z"/><path d="m38 21h2v-10h-1.195l3.195-5.113 3.195 5.113h-1.195v20h2v-18h2.805l-6.805-10.887-6.805 10.887h2.805z"/><path d="m38 27h2v2h-2z"/></svg>