<?xml version="1.0"?>
<svg xmlns="http://www.w3.org/2000/svg" xmlns:xlink="http://www.w3.org/1999/xlink" xmlns:svgjs="http://svgjs.com/svgjs" version="1.1" width="512" height="512" x="0" y="0" viewBox="0 0 512 512" style="enable-background:new 0 0 512 512" xml:space="preserve"><g><g xmlns="http://www.w3.org/2000/svg"><path d="m392 297.463h-16v-226.937c-2.717-32.604-22.237-59.174-49.729-67.689-27.246-8.436-56.287 2.203-77.692 28.466-23.862 29.276-134.607 228.93-167.981 289.424-8.804 15.958-7.205 35.881 4.659 50.345 8.659 10.556 21.812 16.393 35.466 16.393h165.277v79.535c0 24.853 20.147 45 45 45 24.853 0 45-20.147 45-45v-79.537h16c24.853 0 45-20.147 45-45 0-24.852-20.147-45-45-45zm-106 0h-89.542l89.542-157.127z" fill="#ffffff" data-original="#000000" style=""/></g></g></svg>
