<?xml version="1.0"?>
<svg xmlns="http://www.w3.org/2000/svg" xmlns:xlink="http://www.w3.org/1999/xlink" xmlns:svgjs="http://svgjs.com/svgjs" version="1.1" width="512" height="512" x="0" y="0" viewBox="0 0 100 100" style="enable-background:new 0 0 512 512" xml:space="preserve" class=""><g><path xmlns="http://www.w3.org/2000/svg" id="Icon_34_" d="m75.598 31.91c0 3.776-.935 7.108-2.806 9.993-1.87 2.886-4.444 5.202-7.722 6.947 3.705 1.817 6.644 4.302 8.818 7.455 2.173 3.153 3.26 6.886 3.26 11.196 0 6.947-2.396 12.434-7.188 16.46-4.792 4.027-11.392 6.039-19.8 6.039-8.444 0-15.106-2.022-19.987-6.065s-7.321-9.521-7.321-16.433c0-4.168 1.069-7.856 3.206-11.062s5.166-5.736 9.085-7.589c-3.313-1.745-5.914-4.061-7.802-6.947s-2.832-6.217-2.832-9.993c0-6.768 2.298-12.112 6.894-16.032 4.596-3.92 10.795-5.879 18.597-5.879 7.874 0 14.108 1.959 18.704 5.878 4.596 3.92 6.894 9.264 6.894 16.032zm-16.513 34.149c0-3.206-.828-5.673-2.485-7.401s-3.839-2.592-6.546-2.592-4.899.864-6.573 2.592c-1.674 1.729-2.512 4.195-2.512 7.401 0 3.1.846 5.55 2.538 7.348 1.692 1.799 3.91 2.699 6.653 2.699 2.672 0 4.827-.89 6.466-2.672s2.459-4.24 2.459-7.375zm-9.085-42.165c-2.423 0-4.266.793-5.531 2.378s-1.897 3.786-1.897 6.6c0 2.779.641 5.023 1.924 6.733s3.171 2.565 5.665 2.565c2.458 0 4.302-.855 5.531-2.565s1.844-3.955 1.844-6.733c0-2.779-.632-4.97-1.897-6.573s-3.145-2.405-5.639-2.405z" fill="#ffffff" data-original="#2196f3" style="" class=""/></g></svg>
