<?xml version="1.0"?>
<svg xmlns="http://www.w3.org/2000/svg" xmlns:xlink="http://www.w3.org/1999/xlink" xmlns:svgjs="http://svgjs.com/svgjs" version="1.1" width="512" height="512" x="0" y="0" viewBox="0 0 512 512" style="enable-background:new 0 0 512 512" xml:space="preserve"><g><g xmlns="http://www.w3.org/2000/svg"><path d="m256 0c-92.831 0-168.355 75.523-168.355 168.354 0 92.832 75.524 168.355 168.355 168.355 8.433 0 16.721-.631 24.825-1.834-6.376 10.578-13.292 20.951-20.755 31.104-30.166 41.033-58.699 63.391-60.702 64.938-10.991 8.205-18.108 21.312-18.108 36.083 0 24.853 20.147 45 45 45 10.138 0 19.492-3.355 27.016-9.012 7.646-5.723 145.187-111.303 169.081-308.689 1.314-8.459 2-17.123 2-25.944-.002-92.832-75.526-168.355-168.357-168.355zm77.645 178.745c-5.016 38.19-37.963 68-77.645 67.965-43.205 0-78.355-35.15-78.355-78.355s35.15-78.355 78.355-78.355 78.355 35.149 78.355 78.354c0 3.525-.257 6.989-.71 10.391z" fill="#ffffff" data-original="#000000" style=""/></g></g></svg>
