<?xml version="1.0"?>
<svg xmlns="http://www.w3.org/2000/svg" xmlns:xlink="http://www.w3.org/1999/xlink" xmlns:svgjs="http://svgjs.com/svgjs" version="1.1" width="512" height="512" x="0" y="0" viewBox="0 0 512 512" style="enable-background:new 0 0 512 512" xml:space="preserve" class=""><g><g xmlns="http://www.w3.org/2000/svg" id="_x34_9_Add_location"><g><path d="m283.381 416.922c-4.388 9.874-8.492 19.828-12.271 29.865-2.398 6.297-8.329 10.402-15.116 10.402-6.867 0-12.798-4.187-15.156-10.646-3.21-8.939-6.989-18.853-11.579-29.662-52.131 4.957-90.976 24.135-90.976 46.93 0 26.573 52.66 48.189 117.711 48.189 65.012 0 117.752-21.616 117.752-48.189 0-22.673-38.519-41.81-90.365-46.889z" fill="#ffffff" data-original="#000000" style="" class=""/><path d="m249.535.13c-80.219 3.286-145.583 68.335-149.122 148.553-1.833 41.597 12.705 79.776 37.676 108.728 70.33 81.491 97.81 151.587 110.391 186.37 2.53 6.997 12.386 7.073 15.016.115 12.949-34.246 43.324-106.159 112.025-188.38 22.568-27.056 36.221-61.824 36.221-99.815.001-88.121-73.265-159.174-162.207-155.571zm6.408 273.084c-64.777 0-117.434-52.658-117.434-117.539 0-64.776 52.657-117.434 117.434-117.434 64.88 0 117.538 52.658 117.538 117.434.001 64.881-52.658 117.539-117.538 117.539z" fill="#ffffff" data-original="#000000" style="" class=""/><path d="m324.378 134.514h-47.195v-47.195c0-2.277-1.801-4.079-4.078-4.079l-34.217-.001c-2.278 0-4.079 1.801-4.079 4.08l-.001 47.195h-47.249c-2.277 0-4.08 1.8-4.08 4.079l.053 34.27c0 2.224 1.801 4.08 4.08 4.08h47.196l-.001 47.194c0 2.276 1.8 4.079 4.08 4.079h34.217c2.277 0 4.079-1.801 4.079-4.079l.001-47.194h47.248c2.276 0 4.079-1.854 4.079-4.08l-.053-34.269c-.001-2.279-1.802-4.08-4.08-4.08z" fill="#ffffff" data-original="#000000" style="" class=""/></g></g></g></svg>
