<?xml version="1.0"?>
<svg xmlns="http://www.w3.org/2000/svg" xmlns:xlink="http://www.w3.org/1999/xlink" xmlns:svgjs="http://svgjs.com/svgjs" version="1.1" width="512" height="512" x="0" y="0" viewBox="0 0 480 480" style="enable-background:new 0 0 512 512" xml:space="preserve"><g><g xmlns="http://www.w3.org/2000/svg"><path d="m240 480c-17.665-.02-31.98-14.335-32-32v-194.745l-144-144v50.745c0 17.673-14.327 32-32 32s-32-14.327-32-32v-128c.02-17.665 14.335-31.98 32-32h128c17.673 0 32 14.327 32 32s-14.327 32-32 32h-50.745l130.745 130.745 130.745-130.745h-50.745c-17.673 0-32-14.327-32-32s14.327-32 32-32h128c17.665.02 31.98 14.335 32 32v128c0 17.673-14.327 32-32 32s-32-14.327-32-32v-50.745l-144 144v194.745c-.02 17.665-14.335 31.98-32 32zm-184-398.059c2.122-.001 4.158.842 5.659 2.343l160 160c1.5 1.501 2.342 3.536 2.341 5.657v198.059c0 8.837 7.163 16 16 16s16-7.163 16-16v-198.059c0-2.122.843-4.157 2.343-5.657l160-160c3.124-3.124 8.189-3.124 11.314 0 1.5 1.5 2.343 3.535 2.343 5.657v70.059c0 8.837 7.163 16 16 16s16-7.163 16-16v-128c-.01-8.832-7.168-15.99-16-16h-128c-8.837 0-16 7.163-16 16s7.163 16 16 16h70.059c4.418 0 8 3.581 8 8 0 2.122-.843 4.157-2.343 5.657l-150.059 150.059c-3.124 3.124-8.189 3.124-11.314 0l-150.059-150.059c-3.124-3.124-3.124-8.189 0-11.314 1.5-1.5 3.535-2.343 5.657-2.343h70.059c8.837 0 16-7.163 16-16s-7.163-16-16-16h-128c-8.832.01-15.99 7.168-16 16v128c0 8.837 7.163 16 16 16s16-7.163 16-16v-70.059c0-4.418 3.582-8 8-8z" fill="#ffffff" data-original="#000000" style=""/></g></g></svg>
