<?xml version="1.0"?>
<svg xmlns="http://www.w3.org/2000/svg" xmlns:xlink="http://www.w3.org/1999/xlink" xmlns:svgjs="http://svgjs.com/svgjs" version="1.1" width="512" height="512" x="0" y="0" viewBox="0 0 480 480" style="enable-background:new 0 0 512 512" xml:space="preserve" class=""><g>
<g xmlns="http://www.w3.org/2000/svg">
	<g>
		<path d="M224,432h-12.904l10.4-31.312c1.639-4.9,2.474-10.033,2.472-15.2v-56.92c0.038-12.737-5.027-24.959-14.064-33.936    l-64.28-64.288c-11.922-11.959-31.282-11.99-43.241-0.068c-4.436,4.423-7.407,10.101-8.511,16.268L64,220.368V104    c0-17.673-14.327-32-32-32S0,86.327,0,104v132.68c-0.004,8.883,2.464,17.592,7.128,25.152l52.12,84.72    c3.115,5.049,4.761,10.867,4.752,16.8V432h-8c-4.418,0-8,3.582-8,8v32c0,4.418,3.582,8,8,8h168c4.418,0,8-3.582,8-8v-32    C232,435.582,228.418,432,224,432z M20.752,253.448c-3.109-5.04-4.755-10.846-4.752-16.768V104c0-8.837,7.163-16,16-16    s16,7.163,16,16v120c-0.005,2.307,0.994,4.503,2.736,6.016l63.776,55.816l39.832,39.824l11.312-11.312l-52-52    c-5.59-5.836-5.391-15.098,0.445-20.688c5.659-5.421,14.584-5.421,20.243,0l64.28,64.288c6.025,5.984,9.402,14.132,9.376,22.624    v56.936c0.014,3.437-0.527,6.854-1.6,10.12L194.24,432H80v-68.68c0.004-8.883-2.464-17.592-7.128-25.152L20.752,253.448z M216,464    H64v-16h152V464z" fill="#ffffff" data-original="#000000"/>
	</g>
</g>
<g xmlns="http://www.w3.org/2000/svg">
	<g>
		<path d="M352,0H128c-4.418,0-8,3.582-8,8v168c0,4.418,3.582,8,8,8h224c4.418,0,8-3.582,8-8V8C360,3.582,356.418,0,352,0z M208,16    h64v32h-64V16z M344,168H136V16h56v40c0,4.418,3.582,8,8,8h80c4.418,0,8-3.582,8-8V16h56V168z" fill="#ffffff" data-original="#000000"/>
	</g>
</g>
<g xmlns="http://www.w3.org/2000/svg">
	<g>
		<rect x="152" y="136" width="16" height="16" fill="#ffffff" data-original="#000000"/>
	</g>
</g>
<g xmlns="http://www.w3.org/2000/svg">
	<g>
		<rect x="184" y="136" width="16" height="16" fill="#ffffff" data-original="#000000"/>
	</g>
</g>
<g xmlns="http://www.w3.org/2000/svg">
	<g>
		<rect x="216" y="136" width="16" height="16" fill="#ffffff" data-original="#000000"/>
	</g>
</g>
<g xmlns="http://www.w3.org/2000/svg">
	<g>
		<rect x="128" y="192" width="224" height="16" fill="#ffffff" data-original="#000000"/>
	</g>
</g>
<g xmlns="http://www.w3.org/2000/svg">
	<g>
		<path d="M448,72c-17.673,0-32,14.327-32,32v116.368l-29.904,26.176c-2.975-16.623-18.862-27.686-35.484-24.711    c-6.166,1.104-11.845,4.075-16.268,8.511l-64.28,64.28c-9.036,8.98-14.101,21.204-14.064,33.944v56.936    c-0.002,5.167,0.833,10.3,2.472,15.2L268.904,432H256c-4.418,0-8,3.582-8,8v32c0,4.418,3.582,8,8,8h168c4.418,0,8-3.582,8-8v-32    c0-4.418-3.582-8-8-8h-8v-68.68c-0.008-5.933,1.637-11.751,4.752-16.8l52.12-84.72c4.658-7.551,7.126-16.248,7.128-25.12V104    C480,86.327,465.673,72,448,72z M416,464H264v-16h152V464z M464,236.68c0.008,5.933-1.637,11.751-4.752,16.8l-52.12,84.72    c-4.658,7.551-7.126,16.248-7.128,25.12V432H285.76l-12.12-36.376c-1.073-3.266-1.614-6.683-1.6-10.12v-56.936    c-0.026-8.492,3.351-16.64,9.376-22.624l64.28-64.288c5.836-5.59,15.098-5.391,20.688,0.445c5.421,5.659,5.421,14.584,0,20.243    l-52,52l11.312,11.312l39.832-39.824l63.776-55.816c1.728-1.52,2.711-3.715,2.696-6.016V104c0-8.837,7.163-16,16-16    s16,7.163,16,16V236.68z" fill="#ffffff" data-original="#000000"/>
	</g>
</g>
<g xmlns="http://www.w3.org/2000/svg">
</g>
<g xmlns="http://www.w3.org/2000/svg">
</g>
<g xmlns="http://www.w3.org/2000/svg">
</g>
<g xmlns="http://www.w3.org/2000/svg">
</g>
<g xmlns="http://www.w3.org/2000/svg">
</g>
<g xmlns="http://www.w3.org/2000/svg">
</g>
<g xmlns="http://www.w3.org/2000/svg">
</g>
<g xmlns="http://www.w3.org/2000/svg">
</g>
<g xmlns="http://www.w3.org/2000/svg">
</g>
<g xmlns="http://www.w3.org/2000/svg">
</g>
<g xmlns="http://www.w3.org/2000/svg">
</g>
<g xmlns="http://www.w3.org/2000/svg">
</g>
<g xmlns="http://www.w3.org/2000/svg">
</g>
<g xmlns="http://www.w3.org/2000/svg">
</g>
<g xmlns="http://www.w3.org/2000/svg">
</g>
</g></svg>
