<svg xmlns="http://www.w3.org/2000/svg" version="1.1" xmlns:xlink="http://www.w3.org/1999/xlink" xmlns:svgjs="http://svgjs.com/svgjs" width="512" height="512" x="0" y="0" viewBox="0 0 682.667 682.667" style="enable-background:new 0 0 512 512" xml:space="preserve" class=""><g><defs><clipPath id="a" clipPathUnits="userSpaceOnUse"><path d="M0 512h512V0H0Z" fill="#ffffff" data-original="#000000"></path></clipPath></defs><g clip-path="url(#a)" transform="matrix(1.33333 0 0 -1.33333 0 682.667)"><path d="M0 0h39.996C49.095 0 56.55-7.456 56.55-16.555v-104.968c0-9.071-7.455-16.527-16.554-16.527H0c-9.1 0-16.526 7.456-16.526 16.527v104.968C-16.526-7.456-9.1 0 0 0Z" style="stroke-width:20.148;stroke-linecap:round;stroke-linejoin:round;stroke-miterlimit:10;stroke-dasharray:none;stroke-opacity:1" transform="translate(46.636 169.746)" fill="none" stroke="#ffffff" stroke-width="20.148" stroke-linecap="round" stroke-linejoin="round" stroke-miterlimit="10" stroke-dasharray="none" stroke-opacity="" data-original="#000000" class=""></path><path d="M0 0h20.807c7.908.34 9.042.312 17.659 3.713 40.082 15.818 72.821 17.661 112.931-20.098 5.017-4.705 6.151-6.037 14.145-6.037h54.396c14.825 0 26.986-12.133 26.986-26.987 0-14.825-12.161-26.958-26.986-26.958h-88.157" style="stroke-width:20.148;stroke-linecap:round;stroke-linejoin:round;stroke-miterlimit:10;stroke-dasharray:none;stroke-opacity:1" transform="translate(103.186 151.519)" fill="none" stroke="#ffffff" stroke-width="20.148" stroke-linecap="round" stroke-linejoin="round" stroke-miterlimit="10" stroke-dasharray="none" stroke-opacity="" data-original="#000000" class=""></path><path d="M0 0a134.083 134.083 0 0 1 42.462 17.604l9.184-9.185c4.819-4.847 12.728-4.847 17.546 0l24.605 24.577c4.819 4.819 4.819 12.728 0 17.546l-9.184 9.185a135.322 135.322 0 0 1 17.603 42.463h12.954c6.832 0 12.416 5.613 12.416 12.416v34.782c0 6.832-5.584 12.416-12.416 12.416h-12.954a135.318 135.318 0 0 1-17.603 42.464l9.184 9.184c4.819 4.819 4.819 12.728 0 17.547l-24.605 24.577c-4.818 4.847-12.727 4.847-17.546 0l-9.184-9.185A134.787 134.787 0 0 1 0 264.023v12.955c0 6.831-5.584 12.416-12.416 12.416h-34.752c-6.832 0-12.416-5.585-12.416-12.416v-12.955a135.218 135.218 0 0 1-42.491-17.632l-9.184 9.185c-4.819 4.847-12.727 4.847-17.546 0l-24.576-24.577c-4.819-4.819-4.819-12.728 0-17.547l9.184-9.184c-8.135-12.87-14.173-27.185-17.603-42.464h-12.982c-6.832 0-12.416-5.584-12.416-12.416v-34.782c0-6.803 5.584-12.416 12.416-12.416h12.982c3.43-15.278 9.468-29.593 17.603-42.463l-9.184-9.185c-4.819-4.818-4.819-12.727 0-17.546l24.576-24.577c4.819-4.847 12.727-4.847 17.546 0l9.184 9.185C-89.206 9.468-74.891 3.43-59.584 0v-12.983c0-6.831 5.584-12.416 12.416-12.416h34.752C-5.584-25.399 0-19.814 0-12.983z" style="stroke-width:20.148;stroke-linecap:round;stroke-linejoin:round;stroke-miterlimit:10;stroke-dasharray:none;stroke-opacity:1" transform="translate(354.305 212.606)" fill="none" stroke="#ffffff" stroke-width="20.148" stroke-linecap="round" stroke-linejoin="round" stroke-miterlimit="10" stroke-dasharray="none" stroke-opacity="" data-original="#000000" class=""></path><path d="M0 0v63.043c29.934 11.112 51.42 40.026 51.42 73.731 0 26.901-13.691 50.741-34.469 64.943-21.77 14.882-17.575-8.646-17.575-12.615v-47.197c0-16.498-12.926-30.133-29.168-31.21-16.242 1.077-29.196 14.712-29.196 31.21v47.197c0 3.969 4.223 27.497-17.575 12.615-20.778-14.202-34.469-38.042-34.469-64.943 0-33.705 21.486-62.619 51.448-73.731V0" style="stroke-width:20.148;stroke-linecap:round;stroke-linejoin:round;stroke-miterlimit:10;stroke-dasharray:none;stroke-opacity:1" transform="translate(354.305 212.606)" fill="none" stroke="#ffffff" stroke-width="20.148" stroke-linecap="round" stroke-linejoin="round" stroke-miterlimit="10" stroke-dasharray="none" stroke-opacity="" data-original="#000000" class=""></path><path d="m0 0-19.758-14.089c-34.582-23.046-49.18-13.974-85.577-4.138L-208.854 9.468c-6.208 1.672-5.84 1.87-10.064 1.87h-31.152M-6.463 76.48l86.881 44.618c12.756 6.548 28.346 3.741 35.857-8.448 7.54-12.189 3.204-27.553-8.447-35.858l-34.667-24.69M36.623 26.079l-.028-.028" style="stroke-width:20.148;stroke-linecap:round;stroke-linejoin:round;stroke-miterlimit:10;stroke-dasharray:none;stroke-opacity:1" transform="translate(353.256 38.557)" fill="none" stroke="#ffffff" stroke-width="20.148" stroke-linecap="round" stroke-linejoin="round" stroke-miterlimit="10" stroke-dasharray="none" stroke-opacity="" data-original="#000000" class=""></path></g></g></svg>