<?xml version="1.0"?>
<svg xmlns="http://www.w3.org/2000/svg" xmlns:xlink="http://www.w3.org/1999/xlink" xmlns:svgjs="http://svgjs.com/svgjs" version="1.1" width="512" height="512" x="0" y="0" viewBox="0 0 512 512" style="enable-background:new 0 0 512 512" xml:space="preserve" class=""><g><g xmlns="http://www.w3.org/2000/svg"><g><path d="m375.812 483.001c-5.185 0-9.448 3.945-9.951 8.998h-75.253l-11.872-71.489 13.196-13.195c1.875-1.875 2.929-4.419 2.929-7.071s-1.054-5.195-2.929-7.071l-11.676-11.676h19.951c21.896 0 42.271 10.868 54.5 29.072 3.08 4.584 9.294 5.803 13.877 2.724 4.584-3.08 5.804-9.293 2.724-13.878-15.826-23.556-42.115-37.686-70.428-37.908 9.687-10.728 15.596-24.93 15.596-40.488v-14.667c0-33.348-27.13-60.478-60.478-60.478s-60.478 27.13-60.478 60.478v14.667c0 15.562 5.911 29.766 15.601 40.495-46.894.362-84.935 38.609-84.935 85.587v54.898c0 5.522 4.477 10 10 10h239.624c5.523 0 10-4.478 10-10v-8.998c.002-5.522-4.475-10-9.998-10zm-119.697-68.153-14.605-14.604 14.605-14.604 14.605 14.604zm-5.176 22.687c1.587.962 3.379 1.455 5.175 1.455s3.589-.492 5.175-1.455l9.045 54.464h-28.44zm-35.417-131.183c0-22.319 18.158-40.478 40.478-40.478s40.478 18.158 40.478 40.478v14.667c0 22.319-18.158 40.478-40.478 40.478s-40.478-18.158-40.478-40.478zm-69.334 140.749c0-36.175 29.43-65.604 65.604-65.604h20.18l-11.676 11.676c-1.875 1.876-2.929 4.419-2.929 7.071s1.054 5.196 2.929 7.071l13.196 13.195-11.872 71.489h-75.433v-44.898z" fill="#ffffff" data-original="#000000" class=""/><path d="m127.885 63.943c0-35.258-28.685-63.942-63.942-63.942s-63.943 28.685-63.943 63.942 28.685 63.942 63.942 63.942 63.943-28.684 63.943-63.942zm-107.885 0c0-24.229 19.712-43.942 43.942-43.942s43.942 19.713 43.942 43.942-19.712 43.942-43.942 43.942-43.942-19.712-43.942-43.942z" fill="#ffffff" data-original="#000000" class=""/><path d="m202.058 127.886h107.885c5.523 0 10-4.478 10-10v-107.885c0-5.522-4.477-10-10-10h-107.885c-5.523 0-10 4.478-10 10v107.885c0 5.522 4.477 10 10 10zm10-107.885h87.885v87.885h-87.885z" fill="#ffffff" data-original="#000000" class=""/><path d="m510.66 108.913-57.701-99.94c-1.786-3.094-5.087-5-8.66-5s-6.874 1.906-8.66 5l-57.701 99.94c-1.787 3.094-1.787 6.906 0 10 1.786 3.094 5.087 5 8.66 5h115.402c3.573 0 6.874-1.906 8.66-5 1.787-3.094 1.787-6.906 0-10zm-106.742-5 40.38-69.94 40.38 69.94z" fill="#ffffff" data-original="#000000" class=""/><path d="m256 226.243c5.523 0 10-4.478 10-10v-28.533l.405.565c1.953 2.729 5.023 4.182 8.141 4.182 2.014 0 4.048-.607 5.812-1.869 4.491-3.214 5.526-9.46 2.312-13.951l-18.537-25.903c-1.878-2.624-4.906-4.181-8.132-4.181s-6.254 1.557-8.132 4.181l-18.537 25.903c-3.214 4.491-2.179 10.737 2.312 13.951s10.737 2.18 13.952-2.312l.404-.566v28.533c0 5.523 4.477 10 10 10z" fill="#ffffff" data-original="#000000" class=""/><path d="m173.667 307.233c0-5.522-4.477-10-10-10h-89.667v-109.523l.405.565c1.953 2.729 5.023 4.182 8.141 4.182 2.014 0 4.048-.607 5.812-1.869 4.491-3.214 5.526-9.46 2.312-13.951l-18.537-25.903c-1.878-2.624-4.906-4.181-8.132-4.181s-6.254 1.557-8.132 4.181l-18.537 25.903c-3.214 4.491-2.179 10.737 2.312 13.951 4.49 3.214 10.737 2.18 13.952-2.312l.404-.566v119.523c0 5.522 4.477 10 10 10h99.667c5.522 0 10-4.477 10-10z" fill="#ffffff" data-original="#000000" class=""/><path d="m456.132 150.733c-1.878-2.624-4.906-4.181-8.132-4.181s-6.254 1.557-8.132 4.181l-18.537 25.903c-3.214 4.491-2.179 10.737 2.312 13.951s10.738 2.18 13.952-2.312l.405-.565v109.523h-89.667c-5.523 0-10 4.478-10 10s4.477 10 10 10h99.667c5.523 0 10-4.478 10-10v-119.523l.405.565c1.953 2.729 5.023 4.182 8.141 4.182 2.014 0 4.048-.607 5.812-1.869 4.491-3.214 5.526-9.46 2.312-13.951z" fill="#ffffff" data-original="#000000" class=""/><circle cx="375.81" cy="448.003" r="10" fill="#ffffff" data-original="#000000" class=""/></g></g></g></svg>
