<?xml version="1.0"?>
<svg xmlns="http://www.w3.org/2000/svg" xmlns:xlink="http://www.w3.org/1999/xlink" xmlns:svgjs="http://svgjs.com/svgjs" version="1.1" width="512" height="512" x="0" y="0" viewBox="0 0 512 512" style="enable-background:new 0 0 512 512" xml:space="preserve" class=""><g><g xmlns="http://www.w3.org/2000/svg" fill-rule="evenodd"><path d="m341.5 310.279a85.5 85.5 0 1 0 -85.5 85.5 85.591 85.591 0 0 0 85.5-85.5zm-85.5-188.754a30.515 30.515 0 1 0 -30.519-30.52 30.554 30.554 0 0 0 30.519 30.52zm65.625 188.754a65.625 65.625 0 1 1 -65.625-65.634 65.7 65.7 0 0 1 65.625 65.634zm-65.625-53.632a53.625 53.625 0 1 1 -53.626 53.632 53.689 53.689 0 0 1 53.626-53.632zm31.589 30.387a6 6 0 1 1 -10.564 5.695c-4.126-7.653-10.672-12.234-17.511-12.234-7.991 0-14.984 5.95-18.761 14.772h22.635a6 6 0 0 1 0 12h-25.5c-.072.986-.109 1.986-.109 3.01s.037 2.019.109 3h25.5a6 6 0 1 1 0 12h-22.634c3.777 8.831 10.77 14.771 18.761 14.771 6.839 0 13.385-4.571 17.511-12.228a6 6 0 0 1 10.564 5.68c-6.253 11.611-16.749 18.541-28.075 18.541-14.33 0-26.595-11.119-31.475-26.768h-10.274a6 6 0 0 1 0-12h8.113c-.057-.99-.1-1.99-.1-3s.041-2.015.1-3.01h-8.113a6 6 0 0 1 0-12h10.274c4.88-15.64 17.145-26.769 31.475-26.769 11.326.006 21.822 6.93 28.075 18.54z" fill="#5eb2fc" data-original="#5eb2fc" style="" class=""/><path d="m486.8 500h-461.6v-17.692h461.6zm-434.783-47.385h407.966v17.691h-407.966zm23.549-29.015h360.87v17.022h-360.87zm25.334-27.934h50.67l7.41 15.932h-65.494l7.412-15.932zm58.5-187.881-7.83 16.815h-50.67l-7.827-16.814zm-83.834-29.019h360.87v17.021h-360.87zm-23.54-29.689h407.947l.008 17.691h-407.962zm102.274-69.522 101.7-66.388 101.7 66.388 88.105 57.52h-379.605zm256.8 145.045h-50.668l-7.827-16.814h66.323zm-50.668 171.066h50.668l7.413 15.932h-65.494zm48.5-159.07v147.068h-46.327v-147.064zm-236.713 175-10.822-23.249v-156.421l11.236-24.141h166.736l11.236 24.141v156.423l-10.821 23.251zm-69.144-27.934v-147.062h46.321v147.064zm384.765 86.642h-15.854v-18.72a10.982 10.982 0 0 0 -10.97-10.969h-12.581v-18.06a10.978 10.978 0 0 0 -10.965-10.955h-5.721l-10.821-23.249v-156.425l11.236-24.141h5.306a10.969 10.969 0 0 0 10.965-10.959v-18.06h17.548a6.007 6.007 0 0 0 6-6l-.015-29.689a6.011 6.011 0 0 0 -2.721-5.029l-209.966-137.072a6.014 6.014 0 0 0 -6.561 0l-104.978 68.54-104.993 68.531a6.017 6.017 0 0 0 -2.72 5.029l-.013 29.689a6 6 0 0 0 6 6h17.549v18.06a10.968 10.968 0 0 0 10.966 10.959h5.3l11.237 24.141v156.424l-10.818 23.251h-5.719a10.977 10.977 0 0 0 -10.966 10.959v18.06h-12.582a10.981 10.981 0 0 0 -10.967 10.969v18.72h-15.851a10.981 10.981 0 0 0 -10.965 10.967v24.725a6 6 0 0 0 6 6h473.6a6 6 0 0 0 6-6v-24.725a10.98 10.98 0 0 0 -10.963-10.969z" fill="#ffffff" data-original="#4b6274" style="" class=""/></g></g></svg>
