<svg xmlns="http://www.w3.org/2000/svg" version="1.1" xmlns:xlink="http://www.w3.org/1999/xlink" xmlns:svgjs="http://svgjs.com/svgjs" width="512" height="512" x="0" y="0" viewBox="0 0 612 612" style="enable-background:new 0 0 512 512" xml:space="preserve" class=""><g><path d="M0 85h40.8v442H0zM61.2 85h27.2v326.4H61.2zM136 85h27.2v326.4H136zM183.6 85h40.8v326.4h-40.8zM102 85h20.4v326.4H102zM238 85h20.4v326.4H238zM376.264 85H333.2v326.4h81.6V85h-26.064zM272 85h34v326.4h-34zM523.6 85h40.8v326.4h-40.8zM478.264 85H442v326.4h61.2V85h-18.136zM578 85h34v442h-34zM112.152 490.491c0 23.276-8.636 36.122-23.8 36.122-13.376 0-22.433-12.532-22.644-35.176 0-22.957 9.901-35.591 23.8-35.591 14.43-.008 22.644 12.844 22.644 34.645zm-37.175 1.047c0 17.802 5.474 27.907 13.899 27.907 9.479 0 14.008-11.057 14.008-28.54 0-16.85-4.318-27.907-13.899-27.907-8.106 0-14.008 9.901-14.008 28.54zM141.875 465.637h-.211l-11.9 6.419-1.795-7.052 14.953-8.01h7.902v68.456h-8.949v-59.813zM176.868 525.45v-5.685l7.262-7.058c17.483-16.64 25.378-25.486 25.486-35.809 0-6.95-3.373-13.376-13.586-13.376-6.215 0-11.376 3.155-14.538 5.794l-2.951-6.528c4.74-4.005 11.485-6.95 19.387-6.95 14.742 0 20.958 10.105 20.958 19.904 0 12.634-9.166 22.855-23.596 36.754l-5.481 5.059v.204h30.75v7.691h-43.691zM234.178 514.814c2.632 1.686 8.738 4.318 15.164 4.318 11.907 0 15.592-7.575 15.484-13.267-.109-9.581-8.745-13.695-17.7-13.695h-5.161v-6.943h5.161c6.739 0 15.273-3.482 15.273-11.587 0-5.474-3.475-10.316-12.009-10.316-5.481 0-10.744 2.421-13.695 4.529l-2.414-6.739c3.577-2.638 10.533-5.263 17.904-5.263 13.478 0 19.591 8.004 19.591 16.32 0 7.058-4.216 13.063-12.641 16.116v.204c8.425 1.686 15.273 8.01 15.273 17.592 0 10.948-8.534 20.536-24.963 20.536-7.684 0-14.423-2.414-17.796-4.631l2.529-7.174zM315.717 525.45v-18.639h-31.804v-6.113l30.539-43.71h10.01v42.554h9.581v7.262h-9.581v18.639h-8.745v.007zm0-25.902v-22.855c0-3.577.109-7.16.32-10.744h-.32a199.733 199.733 0 0 1-5.685 10.112l-16.748 23.276v.211h22.433zM383.044 464.794h-26.119l-2.638 17.592c1.578-.211 3.053-.428 5.583-.428 5.263 0 10.533 1.163 14.742 3.686 5.372 3.053 9.792 8.949 9.792 17.592 0 13.376-10.635 23.378-25.486 23.378-7.48 0-13.79-2.108-17.061-4.209l2.319-7.058c2.842 1.686 8.425 3.794 14.634 3.794 8.745 0 16.225-5.685 16.225-14.851-.109-8.847-6.004-15.157-19.693-15.157-3.896 0-6.95.422-9.479.734l4.42-32.864h32.749v7.793h.012zM436.356 463.529c-1.89-.109-4.318 0-6.95.422-14.538 2.421-22.229 13.063-23.8 24.33h.313c3.264-4.325 8.949-7.902 16.538-7.902 12.111 0 20.645 8.745 20.645 22.12 0 12.532-8.534 24.113-22.753 24.113-14.64 0-24.228-11.37-24.228-29.172 0-13.478 4.848-24.113 11.587-30.852 5.685-5.583 13.267-9.058 21.91-10.112a44.257 44.257 0 0 1 6.732-.524v7.575h.006zm-2.632 39.494c0-9.792-5.583-15.694-14.11-15.694-5.583 0-10.744 3.475-13.267 8.425-.639 1.047-1.054 2.414-1.054 4.107.211 11.268 5.372 19.591 15.062 19.591 7.997 0 13.369-6.637 13.369-16.429zM496.828 456.994v6.106l-29.804 62.349h-9.581l29.696-60.554v-.211h-33.49v-7.691l43.179.001zM506.654 508.076c0-8.629 5.161-14.742 13.586-18.319l-.109-.32c-7.582-3.577-10.853-9.479-10.853-15.375 0-10.853 9.166-18.224 21.168-18.224 13.267 0 19.904 8.323 19.904 16.85 0 5.794-2.842 12.009-11.268 16.007v.32c8.534 3.366 13.797 9.37 13.797 17.694 0 11.9-10.214 19.904-23.276 19.904-14.319-.007-22.949-8.535-22.949-18.537zm36.863-.422c0-8.323-5.8-12.328-15.062-14.953-8.01 2.319-12.328 7.582-12.328 14.11-.313 6.95 4.957 13.056 13.695 13.056 8.323 0 13.695-5.161 13.695-12.213zm-25.486-34.231c0 6.848 5.161 10.533 13.056 12.641 5.896-2.006 10.424-6.215 10.424-12.43 0-5.474-3.257-11.166-11.58-11.166-7.691.007-11.9 5.059-11.9 10.955z" fill="#ffffff" data-original="#000000" class=""></path></g></svg>