<?xml version="1.0"?>
<svg xmlns="http://www.w3.org/2000/svg" xmlns:xlink="http://www.w3.org/1999/xlink" xmlns:svgjs="http://svgjs.com/svgjs" version="1.1" width="512" height="512" x="0" y="0" viewBox="0 0 64 64" style="enable-background:new 0 0 512 512" xml:space="preserve" class=""><g><g xmlns="http://www.w3.org/2000/svg" id="Boxes"><path d="m45 14h-9v9a1 1 0 0 1 -1.555.832l-2.445-1.632-2.445 1.63a1 1 0 0 1 -1.555-.83v-9h-9v22h26z" fill="#ffffff" data-original="#000000" style="" class=""/><path d="m16.847 32-.666 4h.819v-4z" fill="#ffffff" data-original="#000000" style="" class=""/><path d="m28.82 8h-6.285l-2.667 4h8.285z" fill="#ffffff" data-original="#000000" style="" class=""/><path d="m44.132 12-2.667-4h-6.285l.667 4z" fill="#ffffff" data-original="#000000" style="" class=""/><path d="m16 45.131 1.445-.963a1 1 0 0 1 1.11 0l1.445.963v-7.131h-4z" fill="#ffffff" data-original="#000000" style="" class=""/><path d="m14.82 32h-6.285l-2.667 4h8.285z" fill="#ffffff" data-original="#000000" style="" class=""/><path d="m22 47a1 1 0 0 1 -1.555.832l-2.445-1.632-2.445 1.63a1 1 0 0 1 -1.555-.83v-9h-9v22h26v-22h-9z" fill="#ffffff" data-original="#000000" style="" class=""/><path d="m59 38h-9v9a1 1 0 0 1 -1.555.832l-2.445-1.632-2.445 1.63a1 1 0 0 1 -1.555-.83v-9h-9v22h26z" fill="#ffffff" data-original="#000000" style="" class=""/><path d="m58.132 36-2.667-4h-6.285l.667 4z" fill="#ffffff" data-original="#000000" style="" class=""/><path d="m47 32v4h.819l-.666-4z" fill="#ffffff" data-original="#000000" style="" class=""/><path d="m33.153 8h-2.306l-.666 4h3.638z" fill="#ffffff" data-original="#000000" style="" class=""/><path d="m44 45.131 1.445-.963a1 1 0 0 1 1.11 0l1.445.963v-7.131h-4z" fill="#ffffff" data-original="#000000" style="" class=""/><path d="m30 21.131 1.445-.963a1 1 0 0 1 1.11 0l1.445.963v-7.131h-4z" fill="#ffffff" data-original="#000000" style="" class=""/></g></g></svg>
