<?xml version="1.0"?>
<svg xmlns="http://www.w3.org/2000/svg" id="Layer_1" enable-background="new 0 0 512 512" height="512px" viewBox="0 0 512 512" width="512px" class=""><g><path d="m485.139 137.729c-40.063-18.205-134.445-61.105-154.767-70.342l-29.758-44.637c-2.492-3.739-6.53-6.164-11.002-6.606-4.476-.438-8.908 1.143-12.085 4.32l-27.741 27.74h-31.175l-12.647-37.943c-2.62-7.859-11.113-12.106-18.974-9.487l-48.2 16.066c-6.125 2.042-10.257 7.774-10.257 14.23v8.074c0 6.05-3.265 11.653-8.532 14.631-5.26 2.979-11.745 2.898-16.924-.212-.164-.098-.329-.192-.496-.284-11.088-6.444-24.838-6.529-36.025-.19-11.322 6.421-18.356 18.492-18.356 31.499v36.669l-43.806 43.806c-2.814 2.813-4.394 6.628-4.394 10.607s1.581 7.794 4.394 10.606l48.2 48.199c4.565 4.565 11.54 5.699 17.314 2.81l42.559-21.278v23.93c0 6.456 4.131 12.188 10.257 14.23l37.943 12.647v21.322c0 5.682 3.21 10.876 8.292 13.416l23.841 11.921v38.929c0 4.722 2.223 9.167 6 12l34.623 25.962c8.315 6.239 9.229 18.44 1.841 25.828l-22.003 22.003c-5.858 5.857-5.858 15.355 0 21.213l48.2 48.2c2.813 2.813 6.628 4.394 10.606 4.394s7.794-1.58 10.606-4.394l48.2-48.2c2.813-2.812 4.394-6.628 4.394-10.606v-16.082c0-27.685 22.555-49.251 49.267-49.251 3.979 0 7.794-1.58 10.606-4.393l64.267-64.266c2.813-2.812 4.394-6.628 4.394-10.606v-58.053l35.123-35.123c8.433-8.433 13.077-19.648 13.077-31.581-.001-17.923-10.543-34.298-26.862-41.718zm-7.429 52.084-39.517 39.516c-2.813 2.813-4.394 6.628-4.394 10.606v58.053l-55.737 55.736c-40.698 3.257-72.796 37.299-72.796 78.994v9.869l-33.2 33.2-26.986-26.987 11.397-11.396c20.26-20.263 17.895-53.825-5.056-71.041l-28.621-21.462v-40.699c0-5.682-3.21-10.876-8.292-13.416l-23.841-11.921v-22.863c0-6.456-4.131-12.188-10.257-14.23l-37.943-12.647v-37.388c0-5.198-2.692-10.026-7.114-12.76-4.422-2.732-9.944-2.981-14.594-.656l-54.597 27.298-29.949-29.949 37.593-37.593c2.813-2.813 4.394-6.628 4.394-10.606v-42.883c0-2.229 1.209-4.301 3.15-5.401 1.94-1.098 4.331-1.069 6.238.077.158.095.318.188.479.276 14.362 8.412 32.216 8.553 46.708.345 13.849-7.829 22.74-22.201 23.675-37.976l23.795-7.932 11.323 33.969c2.042 6.125 7.774 10.257 14.23 10.257h48.202c3.979 0 7.794-1.58 10.606-4.394l19.196-19.195 21.983 32.975c1.552 2.329 3.726 4.177 6.273 5.335 0 0 113.641 51.655 158.664 72.114 5.635 2.562 9.276 8.218 9.276 14.406.002 3.92-1.521 7.603-4.288 10.369z" data-original="#000000" class="active-path" data-old_color="#000000" fill="#FFFFFF"/></g> </svg>
