<?xml version="1.0"?>
<svg xmlns="http://www.w3.org/2000/svg" xmlns:xlink="http://www.w3.org/1999/xlink" xmlns:svgjs="http://svgjs.com/svgjs" version="1.1" width="512" height="512" x="0" y="0" viewBox="0 0 60 60" style="enable-background:new 0 0 512 512" xml:space="preserve" class=""><g><g xmlns="http://www.w3.org/2000/svg" id="Page-1" fill="none" fill-rule="evenodd"><g id="023---Schedule-Deadline" fill="rgb(0,0,0)" fill-rule="nonzero"><path id="Shape" d="m49.14 20.588c-.4801421.0617942-.9009456.3515155-1.13.778-.566 1.046-1.3 1.646-2.01 1.646-1.24 0-2.436-1.744-2.846-4.156-.1210388-.6754369-.5468284-1.2573001-1.154-1.577v-12.279c0-1.65685425-1.3431458-3-3-3h-2v-1c0-.55228475-.4477153-1-1-1s-1 .44771525-1 1v1h-4v-1c0-.55228475-.4477153-1-1-1s-1 .44771525-1 1v1h-4v-1c0-.55228475-.4477153-1-1-1s-1 .44771525-1 1v1h-4v-1c0-.55228475-.4477153-1-1-1s-1 .44771525-1 1v1h-4v-1c0-.55228475-.4477153-1-1-1s-1 .44771525-1 1v1h-4v-1c0-.55228475-.44771525-1-1-1s-1 .44771525-1 1v1h-2c-1.65685425 0-3 1.34314575-3 3v36c0 1.6568542 1.34314575 3 3 3h21.115c.1193022 1.0707094.3314337 2.1290246.634 3.163 1.9990738 6.7848762 7.8084136 11.7546232 14.821 12.679.7884422.1037692 1.5827597.1565456 2.378.158 4.7829001.0138173 9.3746408-1.8765042 12.7615506-5.2536578s5.2904694-7.9634221 5.2904494-12.7463422c0-6.931-4.822-15.784-9.584-20.946-.3232623-.3550595-.8000002-.529166-1.276-.466zm-46.14-16.588h2v1c0 .55228475.44771525 1 1 1s1-.44771525 1-1v-1h4v1c0 .55228475.4477153 1 1 1s1-.44771525 1-1v-1h4v1c0 .55228475.4477153 1 1 1s1-.44771525 1-1v-1h4v1c0 .55228475.4477153 1 1 1s1-.44771525 1-1v-1h4v1c0 .55228475.4477153 1 1 1s1-.44771525 1-1v-1h4v1c0 .55228475.4477153 1 1 1s1-.44771525 1-1v-1h2c.5522847 0 1 .44771525 1 1v4h-38v-4c0-.55228475.44771525-1 1-1zm-1 37v-30h38v6.247c-.1190633.0564082-.232849.1233409-.34.2-5.084 3.802-15.708 13.135-15.669 24.553h-20.991c-.55228475 0-1-.4477153-1-1zm50.553 13.026c-3.4779022 3.0747457-8.1265279 4.4747405-12.724 3.832-6.2047117-.8707128-11.3401072-5.2632278-13.162-11.258-3.8-12.863 9.9-24.343 14.194-27.556.061587-.0411408.1404048-.0464292.2069358-.0138846s.1107376.098012.1160642.1718846c.591 3.477 2.526 5.813 4.816 5.813 1.4130907-.0809829 2.6907449-.8671161 3.4-2.092 4.35 4.928 8.6 12.877 8.6 19.077-.0001139 4.6058114-1.9850431 8.9881795-5.447 12.026z" fill="#ffffff" data-original="#000000" style="" class=""/><path id="Shape" d="m42 28c-7.7319865 0-14 6.2680135-14 14s6.2680135 14 14 14 14-6.2680135 14-14c-.0285162-7.7201438-6.2798562-13.9714838-14-14zm6.839 23.847-.473-.821c-.2761424-.4785547-.8879453-.6426423-1.3665-.3664999-.4785547.2761423-.6426423.8879452-.3665 1.3664999l.472.818c-1.2906496.6128-2.6812402.9878022-4.105 1.107v-.951c0-.5522847-.4477153-1-1-1s-1 .4477153-1 1v.949c-1.4239749-.1184496-2.814909-.4927755-4.106-1.105l.472-.818c.2761423-.4785547.1120547-1.0903576-.3665-1.3664999-.4785547-.2761424-1.0903576-.1120548-1.3665.3664999l-.473.821c-1.1719897-.8169577-2.1900423-1.8350103-3.007-3.007l.82-.474c.4742136-.2780058.6351286-.886647.3602745-1.3626943-.274854-.4760473-.8824145-.640996-1.3602745-.3693057l-.817.472c-.6125453-1.2910962-.9875318-2.6819675-1.107-4.106h.951c.5522847 0 1-.4477153 1-1s-.4477153-1-1-1h-.95c.1193109-1.4219035.4936131-2.810717 1.105-4.1l.817.472c.3095704.1814844.6926495.1831833 1.0038174.0044519.311168-.1787315.5027136-.5104885.5019247-.8693336s-.1937913-.6897567-.5057421-.8671183l-.82-.474c.8166978-1.1722073 1.8347927-2.1903022 3.007-3.007l.473.821c.2761424.4785547.8879453.6426424 1.3665.3665s.6426424-.8879453.3665-1.3665l-.472-.818c1.2911384-.6137227 2.6824327-.9894094 4.107-1.109v.947c0 .5522847.4477153 1 1 1s1-.4477153 1-1v-.949c1.4219299.11916 2.81077.4934694 4.1 1.105l-.472.818c-.2761423.4785547-.1120547 1.0903576.3665 1.3665.4785547.2761423 1.0903576.1120547 1.3665-.3665l.473-.821c1.1722073.8166978 2.1903022 1.8347927 3.007 3.007l-.82.474c-.3119508.1773616-.5049532.5082732-.5057421.8671183s.1907567.6906021.5019247.8693336c.3111679.1787314.694247.1770325 1.0038174-.0044519l.817-.472c.6138084 1.2908159.9898247 2.6817372 1.11 4.106h-.948c-.5522847 0-1 .4477153-1 1s.4477153 1 1 1h.949c-.1191533 1.4239697-.4938002 2.8148382-1.106 4.106l-.817-.472c-.3095704-.1814844-.6926495-.1831833-1.0038174-.0044519-.311168.1787315-.5027136.5104885-.5019247.8693336s.1937913.6897567.5057421.8671183l.82.474c-.8170724 1.1727921-1.8354795 2.1915378-3.008 3.009z" fill="#ffffff" data-original="#000000" style="" class=""/><path id="Shape" d="m43.143 41.732 1.8-5.414c.1128959-.3394023.0361471-.7132523-.201336-.9807242-.237483-.2674719-.599621-.3879304-.95-.316-.350379.0719305-.6357681.3253219-.748664.6647242l-2 6c-.1195324.3593148-.0258526.7553247.242 1.023l3 3c.3890846.3923983 1.0226017.3950846 1.415.006s.3950846-1.0226017.006-1.415z" fill="#ffffff" data-original="#000000" style="" class=""/><path id="Shape" d="m11 13h-3.984c-1.1045695 0-2 .8954305-2 2v3c0 1.1045695.8954305 2 2 2h3.984c1.1045695 0 2-.8954305 2-2v-3c0-1.1045695-.8954305-2-2-2zm-3.984 5v-3h3.984v3z" fill="#ffffff" data-original="#000000" style="" class=""/><path id="Shape" d="m19 20h3.984c1.1045695 0 2-.8954305 2-2v-3c0-1.1045695-.8954305-2-2-2h-3.984c-1.1045695 0-2 .8954305-2 2v3c0 1.1045695.8954305 2 2 2zm0-5h3.984v3h-3.984z" fill="#ffffff" data-original="#000000" style="" class=""/><path id="Shape" d="m30.984 20h2.016c.5522847 0 1-.4477153 1-1s-.4477153-1-1-1h-2.016v-3h4.016v1c0 .5522847.4477153 1 1 1s1-.4477153 1-1v-1c0-1.1045695-.8954305-2-2-2h-4.016c-1.1045695 0-2 .8954305-2 2v3c0 1.1045695.8954305 2 2 2z" fill="#ffffff" data-original="#000000" style="" class=""/><path id="Shape" d="m11 22h-3.984c-1.1045695 0-2 .8954305-2 2v3c0 1.1045695.8954305 2 2 2h3.984c1.1045695 0 2-.8954305 2-2v-3c0-1.1045695-.8954305-2-2-2zm-3.984 5v-3h3.984v3z" fill="#ffffff" data-original="#000000" style="" class=""/><path id="Shape" d="m19 29h3.984c1.1045695 0 2-.8954305 2-2v-3c0-1.1045695-.8954305-2-2-2h-3.984c-1.1045695 0-2 .8954305-2 2v3c0 1.1045695.8954305 2 2 2zm0-5h3.984v3h-3.984z" fill="#ffffff" data-original="#000000" style="" class=""/><path id="Shape" d="m11 31h-3.984c-1.1045695 0-2 .8954305-2 2v3c0 1.1045695.8954305 2 2 2h3.984c1.1045695 0 2-.8954305 2-2v-3c0-1.1045695-.8954305-2-2-2zm-3.984 5v-3h3.984v3z" fill="#ffffff" data-original="#000000" style="" class=""/><path id="Shape" d="m22.984 33c.5522847 0 1-.4477153 1-1s-.4477153-1-1-1h-3.984c-1.1045695 0-2 .8954305-2 2v3c0 1.1045695.8954305 2 2 2h3c.5522847 0 1-.4477153 1-1s-.4477153-1-1-1h-3v-3z" fill="#ffffff" data-original="#000000" style="" class=""/></g></g></g></svg>
