<?xml version="1.0"?>
<svg xmlns="http://www.w3.org/2000/svg" xmlns:xlink="http://www.w3.org/1999/xlink" xmlns:svgjs="http://svgjs.com/svgjs" version="1.1" width="512" height="512" x="0" y="0" viewBox="0 0 32 32" style="enable-background:new 0 0 512 512" xml:space="preserve" class=""><g><g xmlns="http://www.w3.org/2000/svg" transform="translate(-184.174 -77.426)"><path d="m214.174 103.426v3c0 .553-.448 1-1 1h-26c-.552 0-1-.447-1-1v-3zm-13-12h.013c.404-.005.751-.25.904-.599l.009-.023.011-.028.01-.029.01-.029.008-.03.008-.03.007-.03.005-.031.005-.031.004-.031.003-.032.002-.032.001-.032v-.013-4h2v-1h-1c-.552 0-1-.447-1-1v-4c0-.552.448-1 1-1h8c.552 0 1 .448 1 1v4c0 .553-.448 1-1 1h-1v1h1c.552 0 1 .448 1 1v11.698l1.535 2.302h-27.07l1.535-2.302v-11.698c0-.552.448-1 1-1h2v4 .001c0 .463.316.853.744.966l.032.008.031.007.035.006.031.004.031.004.032.002.032.002h.032zm4 6h2c.552 0 1-.448 1-1s-.448-1-1-1h-2c-.552 0-1 .448-1 1s.448 1 1 1zm-3-2c.552 0 1 .448 1 1s-.448 1-1 1-1-.448-1-1 .448-1 1-1zm-9 0c.552 0 1 .448 1 1s-.448 1-1 1-1-.448-1-1 .448-1 1-1zm3 0c.552 0 1 .448 1 1s-.448 1-1 1-1-.448-1-1 .448-1 1-1zm3 0c-.552 0-1 .448-1 1s.448 1 1 1h.006c.549-.003.994-.45.994-1 0-.549-.445-.996-.994-1zm3-3c.552 0 1 .448 1 1s-.448 1-1 1-1-.448-1-1 .448-1 1-1zm3 0c.552 0 1 .448 1 1s-.448 1-1 1-1-.448-1-1 .448-1 1-1zm-12 0c.552 0 1 .448 1 1s-.448 1-1 1-1-.448-1-1 .448-1 1-1zm3 0c.552 0 1 .448 1 1s-.448 1-1 1-1-.448-1-1 .448-1 1-1zm3 0c-.552 0-1 .448-1 1s.448 1 1 1h.006c.549-.003.994-.45.994-1 0-.549-.445-.996-.994-1zm1-12c0-.552-.448-1-1-1h-5c-.552 0-1 .448-1 1v8c0 .553.448 1 1 1h5c.552 0 1-.447 1-1zm10 1h-6v2h6z" fill="#ffffff" data-original="#000000" style="" class=""/></g></g></svg>
