<?xml version="1.0"?>
<svg xmlns="http://www.w3.org/2000/svg" xmlns:xlink="http://www.w3.org/1999/xlink" xmlns:svgjs="http://svgjs.com/svgjs" version="1.1" width="512" height="512" x="0" y="0" viewBox="0 0 24 24" style="enable-background:new 0 0 512 512" xml:space="preserve" class=""><g><g xmlns="http://www.w3.org/2000/svg" id="check" fill="none" fill-rule="evenodd"><path id="Rectangle" d="m5 4c-.55228475 0-1 .44771525-1 1v14c0 .5522847.44771525 1 1 1h14c.5522847 0 1-.4477153 1-1v-14c0-.55228475-.4477153-1-1-1zm0-2h14c1.6568542 0 3 1.34314575 3 3v14c0 1.6568542-1.3431458 3-3 3h-14c-1.65685425 0-3-1.3431458-3-3v-14c0-1.65685425 1.34314575-3 3-3z" fill="#ededed" fill-rule="nonzero" data-original="#000000" class=""/></g></g></svg>
