<?xml version="1.0"?>
<svg xmlns="http://www.w3.org/2000/svg" xmlns:xlink="http://www.w3.org/1999/xlink" xmlns:svgjs="http://svgjs.com/svgjs" version="1.1" width="512" height="512" x="0" y="0" viewBox="0 0 91 91" style="enable-background:new 0 0 512 512" xml:space="preserve" class=""><g><g xmlns="http://www.w3.org/2000/svg"><g><g><g><g><g><path d="" fill="#ffffff" data-original="#000000" class=""/></g><g><path d="m71.3 25.7c-2.2-2.8-5.3-4.4-8.8-4.8-3.5-.3-6.9.7-9.6 2.9s-4.3 5.3-4.7 8.8c-.3 3.5.7 6.9 2.9 9.6 2.2 2.8 5.3 4.4 8.8 4.8.4.1.9.1 1.3.1 3 0 5.9-1 8.3-3 2.7-2.2 4.3-5.3 4.7-8.8.3-3.5-.7-6.9-2.9-9.6zm.6 9.3c-.3 2.9-1.7 5.4-3.9 7.2-2.3 1.8-5.1 2.7-7.9 2.4s-5.4-1.7-7.2-3.9-2.6-5-2.3-7.8 1.7-5.4 3.9-7.2c1.9-1.6 4.2-2.4 6.7-2.4h1.1c2.8.3 5.4 1.7 7.2 3.9s2.7 5 2.4 7.8z" fill="#ffffff" data-original="#000000" class=""/><path d="m90.6 62.8-13.5-16.5c-.4-.5-1.1-.6-1.6-.3l-.7-.8c2.2-2.7 3.6-5.9 3.9-9.4.5-4.7-.9-9.3-3.9-13-3-3.6-7.2-5.9-11.9-6.4-1.5-.2-3-.1-4.5.1l-14.4-8.5-6.7 12.1-6.5-12.1-29 17 7.3 13.4-7.3 13.6 7.4 4.3v13.8l28.1 16.2 28.1-16.2v-13.8l5.5-3.2 12.6 15.6c.4.3 1.1.4 1.4.4 3.1 0 5.7-2.3 6-5.4 0-.3-.1-.7-.3-.9zm-85.6-36.9 24.9-14.5 5.9 11-24.9 14.3zm0 25.1 5.9-10.9 24.9 14.5-5.9 10.8zm31.1 31.9-24.5-14.2v-11.1l19.2 11.1 5.3-9.7zm0-31.1-23.2-13.5 9.8-5.7 13.4-7.6zm26.7-33c4 .5 7.7 2.4 10.3 5.6 2.6 3.1 3.8 7.1 3.4 11.2s-2.3 7.7-5.5 10.3-7.2 3.8-11.3 3.4c-4-.4-7.7-2.4-10.3-5.6s-3.8-7.1-3.4-11.2c.4-4 2.3-7.7 5.5-10.3 2.8-2.3 6.2-3.5 9.7-3.5.5 0 1 0 1.6.1zm-17.9-7.6 10.4 6.1c-1.9.7-3.7 1.7-5.3 3-1.9 1.6-3.4 3.5-4.5 5.7l-6.5-3.8zm-6.4 13.8 5.9 3.4c-.4 1.2-.7 2.5-.8 3.8-.5 4.7.9 9.3 3.9 13 .3.4.6.7 1 1l-10 5.8zm24.5 43.7-24.5 14.2v-24.1l5.4 9.9 19.1-11.1zm-18.1-3.3-5.9-10.8 11.3-6.7c2.6 2 5.7 3.4 9.1 3.7.6.1 1.2.1 1.8.1 2.9 0 5.7-.7 8.2-2l.8 1zm26.6-17 1.7-1.4.5.6-1.8 1.4zm1.2 3.1 3.4-2.7.7.9-3.4 2.7zm10.9 13.4-8.6-10.6 3.4-2.7 8.6 10.6c-1.2.9-2.3 1.9-3.4 2.7zm1.7 1.7c1-.8 2.1-1.7 3.1-2.5-.5 1.4-1.7 2.4-3.1 2.5z" fill="#ffffff" data-original="#000000" class=""/></g></g></g></g><path d="m52 33.1h14v2.4h-14z" transform="matrix(.698 -.716 .716 .698 -6.767 52.625)" fill="#ffffff" data-original="#000000" class=""/><path d="m61.2 33.1h9.3v2.4h-9.3z" transform="matrix(.698 -.716 .716 .698 -4.637 57.517)" fill="#ffffff" data-original="#000000" class=""/></g><g><path d="m82.1 32.6c-.7 0-1.2-.5-1.2-1.2 0-.8-.1-1.6-.2-2.3s.2-1.2 1-1.3c.7-.1 1.3.4 1.3 1 .1.9.2 1.8.2 2.7 0 .5-.4 1.1-1.1 1.1z" fill="#ffffff" data-original="#000000" class=""/><path d="m80.1 25.9c-2.4-7.2-9.1-12.1-16.7-12.1-.7 0-1.2-.5-1.2-1.2s.5-1.2 1.2-1.2c8.6 0 16.3 5.5 18.9 13.7.2.6 0 1.3-.8 1.5-.5.1-1.3-.2-1.4-.7z" fill="#ffffff" data-original="#000000" class=""/></g></g></g></svg>
