<?xml version="1.0"?>
<svg xmlns="http://www.w3.org/2000/svg" xmlns:xlink="http://www.w3.org/1999/xlink" xmlns:svgjs="http://svgjs.com/svgjs" version="1.1" width="512" height="512" x="0" y="0" viewBox="0 0 511.998 511.998" style="enable-background:new 0 0 512 512" xml:space="preserve"><g><g xmlns="http://www.w3.org/2000/svg"><path d="m427.568 337.854h-13.459v65.084h13.459c8.537 0 13.584-4.788 13.584-14.881v-35.324c0-10.092-5.047-14.879-13.584-14.879z" fill="#ffffff" data-original="#000000" style=""/><path d="m216.408 337.854c-8.541 0-13.457 4.656-13.457 14.879v36.102c0 10.221 4.916 14.879 13.457 14.879 8.41 0 13.588-4.658 13.588-14.879v-36.102c0-10.222-5.178-14.879-13.588-14.879z" fill="#ffffff" data-original="#000000" style=""/><path d="m456.832 229.311h-47.225l-68.368-128.445c-4.642 10.465-11.153 19.922-19.112 27.942l53.496 100.503h-239.246l53.495-100.502c-7.959-8.021-14.471-17.478-19.112-27.943l-68.367 128.445h-47.225c-30.42 0-55.168 24.748-55.168 55.167v172.353c0 30.419 24.747 55.167 55.167 55.167h401.664c30.418 0 55.166-24.748 55.166-55.167v-172.353c.001-30.419-24.747-55.167-55.165-55.167zm-372.139 174.403c11.773 0 12.809-8.41 13.197-13.846.258-4.008 3.883-5.303 8.281-5.303 5.822 0 8.539 1.682 8.539 8.281 0 15.656-12.809 25.619-30.926 25.619-16.301 0-29.76-8.022-29.76-29.631v-36.102c0-21.609 13.588-29.633 29.889-29.633 17.988 0 30.797 9.576 30.797 24.586 0 6.729-2.717 8.281-8.41 8.281-4.787 0-8.281-1.424-8.41-5.305-.26-4.012-1.164-12.809-13.459-12.809-8.666 0-13.584 4.786-13.584 14.879v36.102c0 10.096 4.918 14.881 13.846 14.881zm89.793 13.976h-41.02c-3.75 0-7.375-1.81-7.375-5.307v-84.105c0-3.623 4.141-5.178 8.41-5.178 4.143 0 8.41 1.555 8.41 5.178v74.66h31.574c3.365 0 5.047 3.623 5.047 7.377.001 3.624-1.681 7.375-5.046 7.375zm72.328-28.855c0 21.608-13.326 29.631-30.406 29.631s-30.279-8.022-30.279-29.631v-36.102c0-21.609 13.199-29.633 30.279-29.633s30.406 8.023 30.406 29.633zm39.59 30.019c-16.949 0-29.889-8.539-29.889-16.045 0-3.624 3.363-9.059 7.373-9.059 5.307 0 8.803 9.963 22.002 9.963 7.762 0 14.488-3.492 14.488-11.256 0-19.41-41.535-13.459-41.535-44.124 0-19.279 16.562-25.879 31.441-25.879 7.635 0 24.588 1.81 24.588 10.352 0 2.977-2.072 8.928-6.728 8.928-4.01 0-6.988-4.918-17.859-4.918-9.312 0-14.619 3.754-14.619 9.963 0 16.045 41.537 10.481 41.537 43.996 0 18.505-12.94 28.079-30.799 28.079zm78.799-55.123c3.363 0 5.303 3.236 5.303 6.728 0 2.977-1.682 6.471-5.303 6.471h-19.67v26.008h36.619c3.363 0 5.305 3.494 5.305 7.505 0 3.495-1.682 7.247-5.305 7.247h-46.066c-3.75 0-7.371-1.81-7.371-5.307v-83.977c0-3.495 3.621-5.307 7.371-5.307h46.066c3.623 0 5.305 3.754 5.305 7.248 0 4.01-1.941 7.506-5.305 7.506h-36.619v25.877h19.67zm92.771 24.327c0 21.609-13.33 29.633-30.406 29.633h-22.904c-4.402 0-7.375-2.46-7.375-5.176v-84.236c0-2.717 2.973-5.178 7.375-5.178h22.904c17.076 0 30.406 8.023 30.406 29.633z" fill="#ffffff" data-original="#000000" style=""/><path d="m256 126.399c34.848 0 63.199-28.351 63.199-63.199 0-34.849-28.352-63.2-63.199-63.2-34.849 0-63.199 28.351-63.199 63.2s28.35 63.199 63.199 63.199z" fill="#ffffff" data-original="#000000" style=""/></g></g></svg>
