<?xml version="1.0"?>
<svg xmlns="http://www.w3.org/2000/svg" xmlns:xlink="http://www.w3.org/1999/xlink" xmlns:svgjs="http://svgjs.com/svgjs" version="1.1" width="512" height="512" x="0" y="0" viewBox="0 0 448 448" style="enable-background:new 0 0 512 512" xml:space="preserve"><g><g xmlns="http://www.w3.org/2000/svg"><g transform="translate(0 -198)"><path clip-rule="evenodd" d="m448 358.56c0-8.024-4.008-15.512-10.688-19.968-37.352-24.896-208.872-139.248-208.872-139.248-2.688-1.792-6.192-1.792-8.88 0 0 0-171.52 114.352-208.872 139.248-6.68 4.456-10.688 11.944-10.688 19.968v263.44c0 13.256 10.744 24 24 24h400c13.256 0 24-10.744 24-24zm-48 271.44h24c4.416 0 8-3.584 8-8v-263.44c0-2.672-1.336-5.168-3.56-6.656l-204.44-136.288-204.44 136.288c-2.224 1.488-3.56 3.984-3.56 6.656v263.44c0 4.416 3.584 8 8 8h24v-240c0-13.256 10.744-24 24-24h304c13.256 0 24 10.744 24 24zm-41.368 0h25.368v-240c0-4.416-3.584-8-8-8h-304c-4.416 0-8 3.584-8 8v240h25.368c-.888-2.504-1.368-5.192-1.368-8v-80c0-6.144 2.312-11.752 6.112-16-3.8-4.248-6.112-9.856-6.112-16v-80c0-13.256 10.744-24 24-24h80c13.256 0 24 10.744 24 24v80c0 6.144-2.312 11.752-6.112 16 3.8 4.248 6.112 9.856 6.112 16v80c0 2.808-.48 5.496-1.368 8h18.736c-.888-2.504-1.368-5.192-1.368-8v-80c0-6.144 2.312-11.752 6.112-16-3.8-4.248-6.112-9.856-6.112-16v-80c0-13.256 10.744-24 24-24h80c13.256 0 24 10.744 24 24v80c0 6.144-2.312 11.752-6.112 16 3.8 4.248 6.112 9.856 6.112 16v80c0 2.808-.48 5.496-1.368 8zm-166.632 0c4.416 0 8-3.584 8-8v-80c0-4.416-3.584-8-8-8h-80c-4.416 0-8 3.584-8 8v80c0 4.416 3.584 8 8 8zm144 0c4.416 0 8-3.584 8-8v-80c0-4.416-3.584-8-8-8h-80c-4.416 0-8 3.584-8 8v80c0 4.416 3.584 8 8 8zm-24-16h16c4.416 0 8-3.584 8-8s-3.584-8-8-8h-16c-4.416 0-8 3.584-8 8s3.584 8 8 8zm-144 0h16c4.416 0 8-3.584 8-8s-3.584-8-8-8h-16c-4.416 0-8 3.584-8 8s3.584 8 8 8zm144-24h16c4.416 0 8-3.584 8-8s-3.584-8-8-8h-16c-4.416 0-8 3.584-8 8s3.584 8 8 8zm-144 0h16c4.416 0 8-3.584 8-8s-3.584-8-8-8h-16c-4.416 0-8 3.584-8 8s3.584 8 8 8zm176-160c0-4.416-3.584-8-8-8h-80c-4.416 0-8 3.584-8 8v80c0 4.416 3.584 8 8 8h80c4.416 0 8-3.584 8-8zm-144 0c0-4.416-3.584-8-8-8h-80c-4.416 0-8 3.584-8 8v80c0 4.416 3.584 8 8 8h80c4.416 0 8-3.584 8-8zm112 72h16c4.416 0 8-3.584 8-8s-3.584-8-8-8h-16c-4.416 0-8 3.584-8 8s3.584 8 8 8zm-144 0h16c4.416 0 8-3.584 8-8s-3.584-8-8-8h-16c-4.416 0-8 3.584-8 8s3.584 8 8 8zm0-24h16c4.416 0 8-3.584 8-8s-3.584-8-8-8h-16c-4.416 0-8 3.584-8 8s3.584 8 8 8zm144 0h16c4.416 0 8-3.584 8-8s-3.584-8-8-8h-16c-4.416 0-8 3.584-8 8s3.584 8 8 8zm-32-184c0-2.672-1.336-5.176-3.56-6.656l-48-32c-2.688-1.792-6.192-1.792-8.88 0l-48 32c-2.224 1.48-3.56 3.984-3.56 6.656v32c0 4.416 3.584 8 8 8h96c4.416 0 8-3.584 8-8zm-96 4.28v19.72h80v-19.72l-40-26.664z" fill-rule="evenodd" fill="#ffffff" data-original="#000000"/></g></g></g></svg>
