<?xml version="1.0"?>
<svg xmlns="http://www.w3.org/2000/svg" xmlns:xlink="http://www.w3.org/1999/xlink" xmlns:svgjs="http://svgjs.com/svgjs" version="1.1" width="512" height="512" x="0" y="0" viewBox="0 0 60 60" style="enable-background:new 0 0 512 512" xml:space="preserve" class=""><g><g xmlns="http://www.w3.org/2000/svg" id="Page-1" fill="none" fill-rule="evenodd"><g id="134---Copy-Files" fill="rgb(0,0,0)" fill-rule="nonzero"><path id="Shape" d="m29 6h6c.5522847 0 1-.44771525 1-1s-.4477153-1-1-1h-6c-.5522847 0-1 .44771525-1 1s.4477153 1 1 1z" fill="#ffffff" data-original="#000000" class=""/><path id="Shape" d="m39 6h2c.5522847 0 1-.44771525 1-1s-.4477153-1-1-1h-2c-.5522847 0-1 .44771525-1 1s.4477153 1 1 1z" fill="#ffffff" data-original="#000000" class=""/><path id="Shape" d="m9 20h9c.5522847 0 1-.4477153 1-1s-.4477153-1-1-1h-9c-.55228475 0-1 .4477153-1 1s.44771525 1 1 1z" fill="#ffffff" data-original="#000000" class=""/><path id="Shape" d="m23 20h15c.5522847 0 1-.4477153 1-1s-.4477153-1-1-1h-15c-.5522847 0-1 .4477153-1 1s.4477153 1 1 1z" fill="#ffffff" data-original="#000000" class=""/><path id="Shape" d="m38 23h-9c-.5522847 0-1 .4477153-1 1s.4477153 1 1 1h9c.5522847 0 1-.4477153 1-1s-.4477153-1-1-1z" fill="#ffffff" data-original="#000000" class=""/><path id="Shape" d="m9 25h15c.5522847 0 1-.4477153 1-1s-.4477153-1-1-1h-15c-.55228475 0-1 .4477153-1 1s.44771525 1 1 1z" fill="#ffffff" data-original="#000000" class=""/><path id="Shape" d="m19 29c0-.5522847-.4477153-1-1-1h-9c-.55228475 0-1 .4477153-1 1s.44771525 1 1 1h9c.5522847 0 1-.4477153 1-1z" fill="#ffffff" data-original="#000000" class=""/><path id="Shape" d="m38 28h-15c-.5522847 0-1 .4477153-1 1s.4477153 1 1 1h15c.5522847 0 1-.4477153 1-1s-.4477153-1-1-1z" fill="#ffffff" data-original="#000000" class=""/><path id="Shape" d="m55 4h-9.1c-.4784327-2.3264168-2.5248992-3.99700171-4.9-4h-27c-.2651948.00005664-.5195073.10545063-.707.293l-13 13c-.18754937.1874927-.29294336.4418052-.293.707v37c.00330612 2.7600532 2.23994685 4.9966939 5 5h9.1c.4784327 2.3264168 2.5248992 3.9970017 4.9 4h36c2.7600532-.0033061 4.9966939-2.2399468 5-5v-46c-.0033061-2.76005315-2.2399468-4.99669388-5-5zm-13 44v-.5c0-.8284271-.6715729-1.5-1.5-1.5h-10.5v-4h10.5c.8284271 0 1.5-.6715729 1.5-1.5v-.5l5.334 4zm-29-44.586v6.586c0 1.6568542-1.3431458 3-3 3h-6.586zm-11 47.586v-36h8c2.7600532-.0033061 4.9966939-2.2399468 5-5v-8h26c1.6568542 0 3 1.34314575 3 3v34l-1.6-1.2c-.4545265-.3408949-1.0626444-.3957288-1.5708204-.1416408s-.8291796.7734827-.8291796 1.3416408v1h-10.5c-.8284271 0-1.5.6715729-1.5 1.5v5c0 .8284271.6715729 1.5 1.5 1.5h10.5v1c0 .5681581.3210036 1.0875528.8291796 1.3416408s1.1162939.1992541 1.5708204-.1416408l1.6-1.2v2c0 1.6568542-1.3431458 3-3 3h-36c-1.65685425 0-3-1.3431458-3-3zm56 4c0 1.6568542-1.3431458 3-3 3h-36c-1.2667854-.0052514-2.3937454-.8056491-2.816-2h24.816c2.7600532-.0033061 4.9966939-2.2399468 5-5v-3.5l3.067-2.3c.3777088-.2832816.6-.727864.6-1.2s-.2222912-.9167184-.6-1.2l-3.067-2.3v-6.5h6c.5522847 0 1-.4477153 1-1s-.4477153-1-1-1h-6v-3h6c.5522847 0 1-.4477153 1-1s-.4477153-1-1-1h-6v-3h6c.5522847 0 1-.4477153 1-1s-.4477153-1-1-1h-6v-12h3c.5522847 0 1-.44771525 1-1s-.4477153-1-1-1h-3v-2h9c1.6568542 0 3 1.34314575 3 3z" fill="#ffffff" data-original="#000000" class=""/><path id="Shape" d="m55 8h-2c-.5522847 0-1 .44771525-1 1s.4477153 1 1 1h2c.5522847 0 1-.44771525 1-1s-.4477153-1-1-1z" fill="#ffffff" data-original="#000000" class=""/></g></g></g></svg>
