<?xml version="1.0"?>
<svg xmlns="http://www.w3.org/2000/svg" xmlns:xlink="http://www.w3.org/1999/xlink" version="1.1" id="Capa_1" x="0px" y="0px" viewBox="0 0 297 297" style="enable-background:new 0 0 297 297;" xml:space="preserve" width="512px" height="512px" class=""><g><path d="M295.72,118.168l-28.407-49.203c-1.705-2.955-4.858-4.775-8.271-4.775h-50.26l-26.465-45.841  c-1.706-2.954-4.859-4.774-8.271-4.774h-56.816c-3.411,0-6.564,1.82-8.271,4.774L80.554,67.552c-1.706,2.954-1.706,6.596,0,9.55  l27.1,46.941l-23.873,41.875H37.958c-3.412,0-6.565,1.82-8.271,4.775L1.28,219.897c-1.706,2.954-1.706,6.596,0,9.55l28.407,49.204  c1.706,2.954,4.859,4.774,8.271,4.774h56.814c3.411,0,6.564-1.82,8.271-4.774l28.407-49.204c1.706-2.954,1.706-6.596,0-9.55  l-28.407-49.204l0,0l22.584-39.612h41.864l26.465,45.841c1.706,2.954,4.859,4.775,8.27,4.775h56.815  c3.412,0,6.565-1.821,8.271-4.775l28.407-49.203C297.426,124.763,297.426,121.123,295.72,118.168z M122.744,32.674h45.789  l22.893,39.654l-22.893,39.653h-45.789L99.852,72.328L122.744,32.674z M112.153,224.673l-22.894,39.652H43.472l-22.895-39.652  l22.895-39.654h45.787L112.153,224.673z M253.529,162.596H207.74l-22.892-39.653L207.74,83.29h45.788l22.894,39.653L253.529,162.596  z" data-original="#000000" class="active-path" data-old_color="#000000" fill="#FFFFFF"/></g> </svg>
