<?xml version="1.0"?>
<svg xmlns="http://www.w3.org/2000/svg" xmlns:xlink="http://www.w3.org/1999/xlink" xmlns:svgjs="http://svgjs.com/svgjs" version="1.1" width="512" height="512" x="0" y="0" viewBox="0 0 512.017 512.017" style="enable-background:new 0 0 512 512" xml:space="preserve" class=""><g><g xmlns="http://www.w3.org/2000/svg"><path d="m507.606 395.402c-74.74-74.74-117.606-176.468-117.606-279.099v-10.294c0-8.284-6.716-15-15-15h-135v-45c0-8.284-6.716-15-15-15h-60c-8.284 0-15 6.716-15 15v45h-135c-8.284 0-15 6.716-15 15v360c0 8.284 6.716 15 15 15h360c8.284 0 15-6.716 15-15v-45h107c13.316 0 20.05-16.164 10.606-25.607zm-327.606-334.393h30v90h-30zm180 390h-330v-177.93c21.521 54.137 53.296 102.439 94.394 143.536 2.813 2.813 6.628 4.394 10.606 4.394h225zm-218.721-60c-70.718-72.904-110.073-168.385-111.252-270h119.973v45c0 8.284 6.716 15 15 15h60c8.284 0 15-6.716 15-15v-45h120.026c.614 54.108 11.827 107.218 33.353 157.942 17.316 40.805 40.574 78.372 69.339 112.058z" fill="#ffffff" data-original="#000000" class=""/><path d="m195 241.009h120c8.284 0 15-6.716 15-15s-6.716-15-15-15h-120c-8.284 0-15 6.716-15 15s6.716 15 15 15z" fill="#ffffff" data-original="#000000" class=""/><path d="m345 271.009h-210c-8.284 0-15 6.716-15 15s6.716 15 15 15h210c8.284 0 15-6.716 15-15s-6.716-15-15-15z" fill="#ffffff" data-original="#000000" class=""/><path d="m315 331.009h-150c-8.284 0-15 6.716-15 15s6.716 15 15 15h150c8.284 0 15-6.716 15-15s-6.716-15-15-15z" fill="#ffffff" data-original="#000000" class=""/></g></g></svg>
