<?xml version="1.0"?>
<svg xmlns="http://www.w3.org/2000/svg" xmlns:xlink="http://www.w3.org/1999/xlink" xmlns:svgjs="http://svgjs.com/svgjs" version="1.1" width="512" height="512" x="0" y="0" viewBox="0 0 60 60" style="enable-background:new 0 0 512 512" xml:space="preserve" class=""><g><path xmlns="http://www.w3.org/2000/svg" d="m57 18a3 3 0 0 0 0-6h-1v-9a3 3 0 0 0 -6 0v9h-18v-8a2 2 0 0 0 -2-2h-10a2 2 0 0 0 -2 2v8h-8v-9a3 3 0 0 0 -6 0v9h-1a3 3 0 0 0 0 6h1v12h-1a3 3 0 0 0 0 6h1v12h-1a3 3 0 0 0 0 6h1v3a3 3 0 0 0 6 0v-3h40v3a3 3 0 0 0 6 0v-3h1a3 3 0 0 0 0-6h-1v-12h1a3 3 0 0 0 0-6h-1v-12zm0-4a1 1 0 0 1 0 2h-1v-2zm-16 29h-2v-3h2zm-2 2h2a2 2 0 0 0 2-2v-3h2v8h-10v-8h2v3a2 2 0 0 0 2 2zm6-7h-10a2 2 0 0 0 -2 2v8h-4v-8a2 2 0 0 0 -2-2h-10a2 2 0 0 0 -2 2v8h-5v-12h40v12h-3v-8a2 2 0 0 0 -2-2zm-22 5h-2v-3h2zm-2 2h2a2 2 0 0 0 2-2v-3h2v8h-10v-8h2v3a2 2 0 0 0 2 2zm-11-13h40v2h-40zm11-7h-2v-3h2zm-2 2h2a2 2 0 0 0 2-2v-3h2v8h-10v-8h2v3a2 2 0 0 0 2 2zm20-2h-2v-3h2zm-2 2h2a2 2 0 0 0 2-2v-3h2v8h-10v-8h2v3a2 2 0 0 0 2 2zm13 3h-5v-8a2 2 0 0 0 -2-2h-10a2 2 0 0 0 -2 2v8h-4v-8a2 2 0 0 0 -2-2h-10a2 2 0 0 0 -2 2v8h-3v-12h40zm-24-26v3h-2v-3zm-6 0h2v3a2 2 0 0 0 2 2h2a2 2 0 0 0 2-2v-3h2v8h-10zm-1 10h31v2h-40v-2zm-16 2a1 1 0 0 1 0-2h1v2zm0 18a1 1 0 0 1 0-2h1v2zm0 18a1 1 0 0 1 0-2h1v2zm5 5a1 1 0 0 1 -2 0v-54a1 1 0 0 1 2 0zm2-5v-2h40v2zm44 5a1 1 0 0 1 -2 0v-54a1 1 0 0 1 2 0zm3-7a1 1 0 0 1 0 2h-1v-2zm0-18a1 1 0 0 1 0 2h-1v-2z" fill="#ffffff" data-original="#000000" style="" class=""/></g></svg>
