<?xml version="1.0"?>
<svg xmlns="http://www.w3.org/2000/svg" xmlns:xlink="http://www.w3.org/1999/xlink" xmlns:svgjs="http://svgjs.com/svgjs" version="1.1" width="512" height="512" x="0" y="0" viewBox="0 0 64 64" style="enable-background:new 0 0 512 512" xml:space="preserve" class=""><g><g id="Layer_3"><g><g id="LINE_1182_"><g><path d="m12.667 23c-.552 0-1-.448-1-1v-1c0-.552.448-1 1-1s1 .448 1 1v1c0 .552-.448 1-1 1z" fill="#ffffff" data-original="#000000" class=""/></g></g><g id="LINE_972_"><g><path d="m52.197 44.159c-.251 0-.501-.093-.695-.281l-11.531-11.159c-.397-.384-.407-1.017-.023-1.414.385-.397 1.018-.407 1.414-.023l11.531 11.158c.397.384.407 1.017.023 1.414-.196.203-.457.305-.719.305z" fill="#ffffff" data-original="#000000" class=""/></g></g><g id="ARC_580_"><g><path d="m34.333 35.191c-2.092 0-4.184-.595-6.009-1.786-.462-.301-.593-.921-.291-1.384.301-.462.921-.593 1.384-.291 2.986 1.948 6.846 1.948 9.833 0 .46-.303 1.08-.172 1.384.292.302.463.171 1.083-.292 1.384-1.825 1.19-3.917 1.785-6.009 1.785z" fill="#ffffff" data-original="#000000" class=""/></g></g><g id="LINE_971_"><g><path d="m39.797 33.568c-.327 0-.646-.16-.839-.454-.302-.463-.171-1.083.292-1.384l16.204-10.568c.461-.303 1.081-.172 1.384.291.302.463.171 1.083-.292 1.384l-16.204 10.568c-.168.111-.358.163-.545.163z" fill="#ffffff" data-original="#000000" class=""/></g></g><g id="LINE_970_"><g><path d="m28.87 33.568c-.188 0-.376-.052-.545-.163l-16.205-10.568c-.462-.301-.593-.921-.291-1.384.301-.463.921-.594 1.384-.291l16.204 10.568c.462.301.593.921.291 1.384-.191.294-.512.454-.838.454z" fill="#ffffff" data-original="#000000" class=""/></g></g><g id="LINE_969_"><g><path d="m16.078 30h-8.078c-.552 0-1-.448-1-1s.448-1 1-1h8.078c.552 0 1 .448 1 1s-.448 1-1 1z" fill="#ffffff" data-original="#000000" class=""/></g></g><g id="LINE_968_"><g><path d="m25.277 36h-13.277c-.552 0-1-.448-1-1s.448-1 1-1h13.277c.552 0 1 .448 1 1s-.447 1-1 1z" fill="#ffffff" data-original="#000000" class=""/></g></g><g id="LINE_967_"><g><path d="m34.478 42h-18.478c-.552 0-1-.448-1-1s.448-1 1-1h18.478c.553 0 1 .448 1 1s-.448 1-1 1z" fill="#ffffff" data-original="#000000" class=""/></g></g><g id="LINE_966_"><g><path d="m52 48h-32c-.552 0-1-.448-1-1s.448-1 1-1h32c.553 0 1 .448 1 1s-.447 1-1 1z" fill="#ffffff" data-original="#000000" class=""/></g></g><g id="LINE_965_"><g><path d="m56 44c-.553 0-1-.448-1-1v-22c0-.552.447-1 1-1s1 .448 1 1v22c0 .552-.447 1-1 1z" fill="#ffffff" data-original="#000000" class=""/></g></g><g id="LINE_964_"><g><path d="m52 18h-35.333c-.552 0-1-.448-1-1s.448-1 1-1h35.333c.553 0 1 .448 1 1s-.447 1-1 1z" fill="#ffffff" data-original="#000000" class=""/></g></g><g id="ARC_464_"><g><path d="m52 48c-.553 0-1-.448-1-1s.447-1 1-1c1.654 0 3-1.346 3-3 0-.552.447-1 1-1s1 .448 1 1c0 2.757-2.243 5-5 5z" fill="#ffffff" data-original="#000000" class=""/></g></g><g id="ARC_463_"><g><path d="m56 22c-.553 0-1-.448-1-1 0-1.654-1.346-3-3-3-.553 0-1-.448-1-1s.447-1 1-1c2.757 0 5 2.243 5 5 0 .552-.447 1-1 1z" fill="#ffffff" data-original="#000000" class=""/></g></g><g id="ARC_462_"><g><path d="m12.667 22c-.552 0-1-.448-1-1 0-2.757 2.243-5 5-5 .552 0 1 .448 1 1s-.448 1-1 1c-1.654 0-3 1.346-3 3 0 .552-.448 1-1 1z" fill="#ffffff" data-original="#000000" class=""/></g></g></g></g></g></svg>
