<?xml version="1.0"?>
<svg xmlns="http://www.w3.org/2000/svg" xmlns:xlink="http://www.w3.org/1999/xlink" xmlns:svgjs="http://svgjs.com/svgjs" version="1.1" width="512" height="512" x="0" y="0" viewBox="0 0 512 512" style="enable-background:new 0 0 512 512" xml:space="preserve" class=""><g>
<g xmlns="http://www.w3.org/2000/svg">
	<g>
		<path d="M456.563,220.826c4.182,0,7.57-3.389,7.57-7.571V48.636c0-26.816-21.816-48.633-48.633-48.633    C398.195,0.003,116.963,0,101.758,0C72.043,0,47.867,24.175,47.867,53.891v437.228c0,11.513,9.367,20.881,20.882,20.881h291.873    c11.513,0,20.881-9.366,20.881-20.881V354.864h63.782c10.394,0,18.85-8.456,18.85-18.849v-92.478c0-4.182-3.389-7.571-7.57-7.571    c-4.182,0-7.571,3.389-7.571,7.571v92.478c0,2.044-1.664,3.708-3.709,3.708h-63.782c-0.002-12.194-0.038-268.884-0.041-291.086    c0-16.141,11.48-29.652,26.703-32.8c21.573-4.447,40.829,11.828,40.829,32.8v164.619    C448.992,217.436,452.382,220.826,456.563,220.826z M370.11,29.816c-5.526,13.12-3.774,6.749-3.791,317.477    c0,0.169,0.041,143.652,0.041,143.826c0,3.165-2.575,5.74-5.74,5.74H68.748c-3.166,0-5.74-2.575-5.74-5.74V53.891    c0-21.367,17.383-38.75,38.75-38.75h277.948C375.81,19.24,372.433,24.305,370.11,29.816z" fill="#ffffff" data-original="#000000" class=""/>
	</g>
</g>
<g xmlns="http://www.w3.org/2000/svg">
	<g>
		<path d="M123.308,62.683c-14.208,0-25.768,11.559-25.768,25.767c0,14.208,11.56,25.767,25.768,25.767s25.767-11.559,25.767-25.767    C149.075,74.242,137.516,62.683,123.308,62.683z M123.308,99.076c-5.859,0-10.626-4.767-10.626-10.626s4.766-10.626,10.626-10.626    s10.626,4.767,10.626,10.626S129.166,99.076,123.308,99.076z" fill="#ffffff" data-original="#000000" class=""/>
	</g>
</g>
<g xmlns="http://www.w3.org/2000/svg">
	<g>
		<path d="M196.981,80.88h-14.542c-4.182,0-7.571,3.389-7.571,7.571c0,4.182,3.389,7.571,7.571,7.571h14.542    c4.182,0,7.571-3.389,7.571-7.571C204.552,84.268,201.163,80.88,196.981,80.88z" fill="#ffffff" data-original="#000000" class=""/>
	</g>
</g>
<g xmlns="http://www.w3.org/2000/svg">
	<g>
		<path d="M330.223,80.88H227.263c-4.182,0-7.571,3.389-7.571,7.571c0,4.182,3.389,7.571,7.57,7.571h102.959    c4.182,0,7.571-3.389,7.571-7.571C337.793,84.268,334.405,80.88,330.223,80.88z" fill="#ffffff" data-original="#000000" class=""/>
	</g>
</g>
<g xmlns="http://www.w3.org/2000/svg">
	<g>
		<path d="M123.308,147.001c-14.208,0-25.767,11.559-25.767,25.767s11.559,25.767,25.767,25.767s25.767-11.559,25.767-25.767    C149.075,158.56,137.516,147.001,123.308,147.001z M123.308,183.395c-5.86,0-10.626-4.767-10.626-10.626    s4.767-10.626,10.626-10.626s10.626,4.767,10.626,10.626S129.166,183.395,123.308,183.395z" fill="#ffffff" data-original="#000000" class=""/>
	</g>
</g>
<g xmlns="http://www.w3.org/2000/svg">
	<g>
		<path d="M330.223,165.197H182.439c-4.182,0-7.571,3.389-7.571,7.57c0,4.182,3.389,7.571,7.571,7.571h147.784    c4.182,0,7.571-3.389,7.571-7.571C337.793,168.586,334.405,165.197,330.223,165.197z" fill="#ffffff" data-original="#000000" class=""/>
	</g>
</g>
<g xmlns="http://www.w3.org/2000/svg">
	<g>
		<path d="M123.308,231.318c-14.208,0-25.767,11.559-25.767,25.767c0,14.208,11.559,25.767,25.767,25.767    s25.767-11.559,25.767-25.767C149.075,242.877,137.516,231.318,123.308,231.318z M123.308,267.713    c-5.86,0-10.626-4.767-10.626-10.626c0-5.859,4.767-10.626,10.626-10.626s10.626,4.767,10.626,10.626    S129.166,267.713,123.308,267.713z" fill="#ffffff" data-original="#000000" class=""/>
	</g>
</g>
<g xmlns="http://www.w3.org/2000/svg">
	<g>
		<path d="M330.223,249.515H315.68c-4.182,0-7.571,3.389-7.571,7.571c0,4.182,3.389,7.57,7.571,7.57h14.543    c4.182,0,7.571-3.389,7.571-7.57C337.793,252.904,334.405,249.515,330.223,249.515z" fill="#ffffff" data-original="#000000" class=""/>
	</g>
</g>
<g xmlns="http://www.w3.org/2000/svg">
	<g>
		<path d="M285.398,249.515H182.439c-4.182,0-7.571,3.389-7.571,7.571c0,4.182,3.389,7.57,7.571,7.57h102.959    c4.182,0,7.57-3.389,7.57-7.57C292.968,252.904,289.58,249.515,285.398,249.515z" fill="#ffffff" data-original="#000000" class=""/>
	</g>
</g>
<g xmlns="http://www.w3.org/2000/svg">
	<g>
		<path d="M123.308,314.42c-14.208,0-25.767,11.559-25.767,25.767c0,14.208,11.559,25.767,25.767,25.767    s25.767-11.559,25.767-25.767C149.075,325.979,137.516,314.42,123.308,314.42z M123.308,350.814    c-5.86,0-10.626-4.767-10.626-10.626s4.767-10.626,10.626-10.626s10.626,4.767,10.626,10.626S129.166,350.814,123.308,350.814z" fill="#ffffff" data-original="#000000" class=""/>
	</g>
</g>
<g xmlns="http://www.w3.org/2000/svg">
	<g>
		<path d="M330.223,332.617H182.439c-4.182,0-7.571,3.389-7.571,7.571s3.389,7.571,7.571,7.571h147.784    c4.182,0,7.571-3.389,7.571-7.571S334.405,332.617,330.223,332.617z" fill="#ffffff" data-original="#000000" class=""/>
	</g>
</g>
<g xmlns="http://www.w3.org/2000/svg">
	<g>
		<path d="M123.308,398.738c-14.208,0-25.767,11.559-25.767,25.767c0,14.208,11.559,25.767,25.767,25.767    s25.767-11.559,25.767-25.767C149.075,410.296,137.516,398.738,123.308,398.738z M123.308,435.132    c-5.86,0-10.626-4.767-10.626-10.626c0-5.859,4.767-10.626,10.626-10.626s10.626,4.767,10.626,10.626    C133.934,430.364,129.166,435.132,123.308,435.132z" fill="#ffffff" data-original="#000000" class=""/>
	</g>
</g>
<g xmlns="http://www.w3.org/2000/svg">
	<g>
		<path d="M330.223,416.935H182.439c-4.182,0-7.571,3.389-7.571,7.571c0,4.182,3.389,7.571,7.571,7.571h147.784    c4.182,0,7.571-3.389,7.571-7.571C337.793,420.324,334.405,416.935,330.223,416.935z" fill="#ffffff" data-original="#000000" class=""/>
	</g>
</g>
<g xmlns="http://www.w3.org/2000/svg">
</g>
<g xmlns="http://www.w3.org/2000/svg">
</g>
<g xmlns="http://www.w3.org/2000/svg">
</g>
<g xmlns="http://www.w3.org/2000/svg">
</g>
<g xmlns="http://www.w3.org/2000/svg">
</g>
<g xmlns="http://www.w3.org/2000/svg">
</g>
<g xmlns="http://www.w3.org/2000/svg">
</g>
<g xmlns="http://www.w3.org/2000/svg">
</g>
<g xmlns="http://www.w3.org/2000/svg">
</g>
<g xmlns="http://www.w3.org/2000/svg">
</g>
<g xmlns="http://www.w3.org/2000/svg">
</g>
<g xmlns="http://www.w3.org/2000/svg">
</g>
<g xmlns="http://www.w3.org/2000/svg">
</g>
<g xmlns="http://www.w3.org/2000/svg">
</g>
<g xmlns="http://www.w3.org/2000/svg">
</g>
</g></svg>
