<?xml version="1.0"?>
<svg xmlns="http://www.w3.org/2000/svg" xmlns:xlink="http://www.w3.org/1999/xlink" xmlns:svgjs="http://svgjs.com/svgjs" version="1.1" width="512" height="512" x="0" y="0" viewBox="0 0 512 512" style="enable-background:new 0 0 512 512" xml:space="preserve" class=""><g><g xmlns="http://www.w3.org/2000/svg"><path d="m49.094 231.934c0-4.14 3.345-7.484 7.484-7.484s7.512 3.345 7.512 7.484v82.942h66.473v-192.899h-66.473v75.997c0 4.139-3.374 7.483-7.512 7.483-4.139 0-7.484-3.345-7.484-7.483v-81.129l-46.517-64.348c-2.522-3.487-3.515-7.767-1.502-11.735 1.984-3.94 6.151-5.755 10.431-5.755h390.961c4.309 0 8.448 1.758 10.46 5.698 2.041 3.996 1.049 8.277-1.502 11.792l-46.518 64.348v51.109c11.849.567 23.358 2.494 34.413 5.612 13.777 3.856 26.788 9.61 38.722 16.924 3.515 2.154 4.649 6.747 2.494 10.262-2.154 3.543-6.774 4.648-10.29 2.494-10.772-6.604-22.507-11.792-34.952-15.278-12.019-3.373-24.719-5.188-37.899-5.188-38.552 0-73.447 15.619-98.705 40.904-25.257 25.257-40.904 60.152-40.904 98.704s15.647 73.447 40.904 98.704c25.257 25.286 60.152 40.905 98.705 40.905 38.551 0 73.447-15.619 98.732-40.905 25.257-25.257 40.876-60.152 40.876-98.704 0-19.077-3.798-37.22-10.715-53.746-7.172-17.178-17.66-32.599-30.729-45.525-2.948-2.892-2.977-7.653-.057-10.602 2.919-2.948 7.654-2.977 10.602-.057 14.428 14.258 26.051 31.381 34.016 50.43 7.654 18.34 11.877 38.438 11.877 59.5 0 42.69-17.291 81.356-45.27 109.334s-66.644 45.271-109.334 45.271c-42.691 0-81.328-17.292-109.306-45.271-26.334-26.334-43.229-62.137-45.1-101.822h-139.464c-4.337 0-7.767-1.162-10.432-3.771-2.693-2.607-3.997-6.094-3.997-10.686zm300.818-63.98v-45.978h-65.057v20.891c0 4.195-1.729 8.022-4.478 10.771-2.778 2.778-6.605 4.479-10.8 4.479h-43.683c-4.195 0-8.022-1.7-10.772-4.479-2.778-2.749-4.479-6.576-4.479-10.771v-20.891h-65.056v192.899h57.403c1.871-39.686 18.766-75.487 45.1-101.822 26.306-26.304 62.108-43.199 101.822-45.099zm-84.842 183.122c0 4.139-3.345 7.512-7.512 7.512-4.139 0-7.483-3.373-7.483-7.512v-56.468c0-4.166 3.345-7.512 7.483-7.512 2.778 0 5.216 1.503 6.52 3.742l25.456 36.907-.311-33.194c-.028-4.139 3.288-7.512 7.427-7.54 4.11-.028 7.483 3.288 7.512 7.427l.539 54.001c.369 3.799-1.757 7.568-5.329 8.958-3.713 1.417-7.54-.057-9.751-3.26l-24.549-35.52v32.459zm105.535-54.454c-1.36-3.912.737-8.164 4.649-9.525 3.913-1.332 8.193.737 9.525 4.678l12.586 36.623 13.267-37.191c1.361-3.911 5.641-5.952 9.553-4.563 2.268.794 3.912 2.58 4.621 4.734l12.558 36.821 12.813-36.538c1.36-3.884 5.612-5.953 9.525-4.593 3.883 1.361 5.953 5.613 4.592 9.524l-19.843 56.609c-.68 2.268-2.381 4.167-4.79 4.96-3.912 1.333-8.165-.765-9.468-4.677l-12.643-37.05-13.125 36.823c-.68 2.211-2.381 4.11-4.762 4.903-3.912 1.361-8.163-.736-9.524-4.648zm-20.098-9.128c4.139 0 7.513 3.373 7.513 7.512s-3.374 7.512-7.513 7.512h-16.129v13.039h14.4c4.139 0 7.484 3.345 7.484 7.483 0 4.139-3.345 7.512-7.484 7.512h-14.4v13.041h16.129c4.139 0 7.513 3.345 7.513 7.483 0 4.139-3.374 7.512-7.513 7.512h-23.612c-4.139 0-7.512-3.373-7.512-7.512v-56.07c0-4.139 3.374-7.512 7.512-7.512zm-80.675-165.517h-44.193v21.146h44.193c0-7.058 0-14.117 0-21.146zm17.49-34.103c2.41-3.345 7.086-4.082 10.432-1.672 3.373 2.409 4.11 7.058 1.701 10.402l-7.456 10.347h61.598l41.188-56.949h-61.626l-13.777 19.079c-2.438 3.344-7.087 4.109-10.432 1.7-3.373-2.409-4.11-7.088-1.701-10.433l7.455-10.347h-40.763l-41.16 56.949h40.763zm-72.994 19.077 41.188-56.949h-61.626l-41.16 56.949zm-153.951 0h73.9l41.16-56.949h-156.22z" fill="#ffffff" data-original="#000000" style="" class=""/></g></g></svg>
