<?xml version="1.0"?>
<svg xmlns="http://www.w3.org/2000/svg" xmlns:xlink="http://www.w3.org/1999/xlink" xmlns:svgjs="http://svgjs.com/svgjs" version="1.1" width="512" height="512" x="0" y="0" viewBox="0 0 512 512" style="enable-background:new 0 0 512 512" xml:space="preserve" class=""><g><path xmlns="http://www.w3.org/2000/svg" d="m8 429.965c-4.418 0-8 3.582-8 8s3.582 8 8 8h8.628v52.656c0 4.418 3.582 8 8 8h372.736c4.418 0 8-3.582 8-8v-11.441c0-4.418-3.582-8-8-8s-8 3.582-8 8v3.441h-289.234v-469.242h289.233v203.614c0 4.418 3.582 8 8 8s8-3.582 8-8v-211.614c0-4.418-3.582-8-8-8h-372.735c-4.418 0-8 3.582-8 8v52.655h-8.628c-4.418 0-8 3.582-8 8s3.582 8 8 8h8.628v44.655h-8.628c-4.418 0-8 3.582-8 8s3.582 8 8 8h8.628v44.655h-8.628c-4.418 0-8 3.582-8 8s3.582 8 8 8h8.628v44.656h-8.628c-4.418 0-8 3.582-8 8s3.582 8 8 8h8.628v44.656h-8.628c-4.418 0-8 3.582-8 8s3.582 8 8 8h8.628v44.655h-8.628c-4.418 0-8 3.582-8 8s3.582 8 8 8h8.628v44.654zm24.628-44.654h9.607c4.418 0 8-3.582 8-8s-3.582-8-8-8h-9.607v-44.655h9.607c4.418 0 8-3.582 8-8s-3.582-8-8-8h-9.607v-44.656h9.607c4.418 0 8-3.581 8-8s-3.582-8-8-8h-9.607v-44.655h9.607c4.418 0 8-3.582 8-8s-3.582-8-8-8h-9.607v-44.655h9.607c4.418 0 8-3.582 8-8s-3.582-8-8-8h-9.607v-44.656h9.607c4.418 0 8-3.582 8-8s-3.582-8-8-8h-9.607v-44.655h51.502v469.242h-51.502v-44.656h9.607c4.418 0 8-3.582 8-8s-3.582-8-8-8h-9.607zm292.469-145.766v-144.7c0-4.418-3.582-8-8-8h-144.7c-4.418 0-8 3.582-8 8v144.7c0 4.418 3.582 8 8 8h144.699c4.419 0 8.001-3.581 8.001-8zm-48.425-8h-63.85v-7.367c0-17.604 14.321-31.925 31.925-31.925s31.925 14.321 31.925 31.925zm32.425 0h-16.424v-7.367c0-26.426-21.499-47.925-47.925-47.925s-47.925 21.499-47.925 47.925v7.367h-16.425v-128.7h128.699zm-64.349-57.808c16.321 0 29.6-13.278 29.6-29.6s-13.278-29.6-29.6-29.6-29.6 13.279-29.6 29.6 13.278 29.6 29.6 29.6zm0-43.199c7.499 0 13.6 6.101 13.6 13.6s-6.101 13.6-13.6 13.6-13.6-6.101-13.6-13.6 6.101-13.6 13.6-13.6zm-80.396 194.654c0-4.418 3.582-8 8-8h97.581c4.418 0 8 3.582 8 8s-3.582 8-8 8h-97.581c-4.418 0-8-3.582-8-8zm0 45.981c0-4.418 3.582-8 8-8h94.778c4.418 0 8 3.582 8 8s-3.582 8-8 8h-94.778c-4.418 0-8-3.582-8-8zm0 45.98c0-4.418 3.582-8 8-8h108.984c4.418 0 8 3.582 8 8s-3.582 8-8 8h-108.984c-4.418 0-8-3.582-8-8zm291.919-89.15h-30.824v-30.824c0-4.418-3.582-8-8-8h-40.167c-4.418 0-8 3.582-8 8v30.824h-30.824c-4.418 0-8 3.582-8 8v40.167c0 4.418 3.582 8 8 8h30.824v30.824c0 4.418 3.582 8 8 8h40.167c4.418 0 8-3.582 8-8v-30.824h30.824c4.418 0 8-3.582 8-8v-40.167c0-4.418-3.581-8-8-8zm-8 40.167h-30.824c-4.418 0-8 3.582-8 8v30.824h-24.167v-30.824c0-4.418-3.582-8-8-8h-30.824v-24.167h30.824c4.418 0 8-3.582 8-8v-30.824h24.167v30.824c0 4.418 3.582 8 8 8h30.824zm-50.907-126.719c-63.21 0-114.636 51.425-114.636 114.635 0 63.211 51.425 114.637 114.636 114.637s114.636-51.426 114.636-114.637c0-63.21-51.425-114.635-114.636-114.635zm0 213.272c-54.388 0-98.636-44.248-98.636-98.637 0-54.388 44.248-98.636 98.636-98.636s98.636 44.248 98.636 98.636c0 54.389-44.248 98.637-98.636 98.637z" fill="#ffffff" data-original="#000000" style="" class=""/></g></svg>
