<?xml version="1.0"?>
<svg xmlns="http://www.w3.org/2000/svg" xmlns:xlink="http://www.w3.org/1999/xlink" xmlns:svgjs="http://svgjs.com/svgjs" version="1.1" width="512" height="512" x="0" y="0" viewBox="0 0 512 512" style="enable-background:new 0 0 512 512" xml:space="preserve" class=""><g><g xmlns="http://www.w3.org/2000/svg" id="Outline"><path d="m365.974 17.771-10.809 10.808c-20.983-7.115-42.456-2.8-57.073 11.819l-22.628 22.627c-20.524 20.525-19.937 53.914.305 78.891l-22.439 22.44a82.225 82.225 0 0 1 -9.878-19.019l-15.176 5.072c.256.766 6.4 18.9 18.905 31.411s30.644 18.648 31.41 18.9l5.072-15.176a82.246 82.246 0 0 1 -19.019-9.878l22.438-22.437c12.62 10.228 27.384 15.448 41.557 15.448a52.093 52.093 0 0 0 37.336-15.145l22.625-22.624c14.615-14.616 18.935-36.087 11.818-57.072l10.808-10.809c9.516-9.516 7.031-26.91-5.657-39.6s-30.077-15.172-39.595-5.656zm5.657 39.6a41.176 41.176 0 0 0 13.532 9.1l-24.845 24.839c-2.306 2.306-10.063 1.251-16.971-5.658s-7.963-14.663-5.657-16.969l24.846-24.846a41.174 41.174 0 0 0 9.095 13.531zm-46.279 95.17c-11.837-.911-23.527-6.583-32.916-15.974s-15.063-21.079-15.974-32.916a37.4 37.4 0 0 1 6.5-24.789c.313 16.128 7.33 32.933 20.789 46.392s30.278 20.466 46.414 20.771a37.379 37.379 0 0 1 -24.813 6.513zm51.937-32.944-.016.016c-15.864 15.841-43.184 13.352-62.209-5.673s-21.515-46.345-5.674-62.208l.017-.017c8.384-8.381 20.2-11.829 32.572-9.944l-15.6 15.6c-9.516 9.517-7.03 26.91 5.657 39.6 7.5 7.5 16.64 11.435 24.829 11.434a20.435 20.435 0 0 0 14.77-5.776l15.6-15.6c1.884 12.362-1.564 24.182-9.946 32.565zm16.969-84.853c6.906 6.905 7.963 14.663 5.656 16.97-1.038 1.039-3.187 1.354-5.744.842a23.154 23.154 0 0 1 -11.227-6.5 23.153 23.153 0 0 1 -6.5-11.226c-.511-2.555-.2-4.7.837-5.739a4.912 4.912 0 0 1 3.5-1.1c3.51-.008 8.699 1.971 13.478 6.75z" fill="#ffffff" data-original="#000000" style="" class=""/><path d="m430.683 132.552-22.6-7.471-5.021 15.191 15 4.96-97.922 296.235-258.256-85.367 97.926-296.239 85.851 28.381 5.022-15.191-93.448-30.892a8 8 0 0 0 -10.106 5.085l-102.947 311.426a8 8 0 0 0 5.085 10.106l273.447 90.393a7.993 7.993 0 0 0 10.106-5.085l102.948-311.426a8 8 0 0 0 -5.085-10.106z" fill="#ffffff" data-original="#000000" style="" class=""/><path d="m-24.621 179.829h200v16h-200z" transform="matrix(.314 -.949 .949 .314 -126.616 200.45)" fill="#ffffff" data-original="#000000" style="" class=""/><path d="m28.46 297.563h16v16h-16z" transform="matrix(.314 -.949 .949 .314 -265.106 244.281)" fill="#ffffff" data-original="#000000" style="" class=""/><path d="m169.89 201.077h16v16.001h-16z" transform="matrix(.314 -.949 .949 .314 -76.453 312.361)" fill="#ffffff" data-original="#000000" style="" class=""/><path d="m261.039 167.208h16v143.999h-16z" transform="matrix(.314 -.949 .949 .314 -42.523 419.573)" fill="#ffffff" data-original="#000000" style="" class=""/><path d="m228.209 166.058h16v192h-16z" transform="matrix(.314 -.949 .949 .314 -86.744 404.08)" fill="#ffffff" data-original="#000000" style="" class=""/><path d="m218.165 196.441h16v192h-16z" transform="matrix(.314 -.949 .949 .314 -122.484 415.391)" fill="#ffffff" data-original="#000000" style="" class=""/><path d="m208.121 226.824h16v192h-16z" transform="matrix(.314 -.949 .949 .314 -158.223 426.701)" fill="#ffffff" data-original="#000000" style="" class=""/><path d="m182.886 268.185h16v160h-16z" transform="matrix(.314 -.949 .949 .314 -199.616 420.144)" fill="#ffffff" data-original="#000000" style="" class=""/><path d="m128 416v64a8 8 0 0 0 8 8h288a8 8 0 0 0 8-8v-240h-16v232h-272v-56z" fill="#ffffff" data-original="#000000" style="" class=""/></g></g></svg>
