<?xml version="1.0"?>
<svg xmlns="http://www.w3.org/2000/svg" xmlns:xlink="http://www.w3.org/1999/xlink" xmlns:svgjs="http://svgjs.com/svgjs" version="1.1" width="512" height="512" x="0" y="0" viewBox="0 0 64 64" style="enable-background:new 0 0 512 512" xml:space="preserve"><g><g xmlns="http://www.w3.org/2000/svg"><path d="m5 9h-1.457c-.213.629-.366 1.287-.435 1.976l-.003.024h1.895z" fill="#ffffff" data-original="#000000"/><path d="m2.998 13h20.002v2h-20.002z" fill="#ffffff" data-original="#000000"/><path d="m18.472 17h-6.472c-1.103 0-2 .897-2 2v2h-1c-.551 0-1 .448-1 1 0 .378.147.732.415 1l1 1c.372.372.585.888.585 1.414v8.586c1.943.001 3.642 1.126 4.464 2.787.318.047.635.095.955.125-.737-1.186-1.202-2.523-1.356-3.912l-.042-2h1.565c.635 0 1.257-.258 1.707-.707.357-.357.583-.807.667-1.294h-1.724c-1.76 0-3.343-.979-4.13-2.553l1.789-.895c.446.894 1.343 1.449 2.341 1.449h1.764v-1.72l2.978-.993c-.208-3.432-1.849-6.274-2.506-7.287z" fill="#ffffff" data-original="#000000"/><path d="m19 11h1.78l-.176-.881c-.077-.385-.186-.756-.31-1.119h-1.294z" fill="#ffffff" data-original="#000000"/><path d="m11 7h2v4h-2z" fill="#ffffff" data-original="#000000"/><path d="m7 9v2h2v-4c0-1.103.897-2 2-2h2c1.103 0 2 .897 2 2v4h2v-2c0-1.103.897-2 2-2h.312c-1.602-2.428-4.349-4-7.392-4-3.093 0-5.825 1.574-7.41 4h.49c1.103 0 2 .897 2 2z" fill="#ffffff" data-original="#000000"/><path d="m7 49.416v11.584h13v-3.999h-1.191c-5.148 0-9.724-3.087-11.809-7.585z" fill="#ffffff" data-original="#000000"/><path d="m36 50c0-.552-.449-1-1.001-1h-3.619l-.741-1.481c-.27-.541-1.074-.671-1.504-.243l-1.14 1.139v4.585h5.003c1.655 0 3.002-1.346 3.002-3z" fill="#ffffff" data-original="#000000"/><path d="m42.403 46.966c-.539-1.282-.284-2.68.635-3.593l.446-.444-1.413-1.413-.444.446c-.914.919-2.311 1.174-3.56.648-1.268-.526-2.067-1.686-2.067-2.97v-.64h-2v.64c0 1.284-.799 2.444-2.035 2.957-1.28.54-2.678.284-3.592-.635l-.445-.446-1.413 1.413.447.445c.632.628.941 1.485.907 2.365.537-.471 1.21-.739 1.93-.739.505 0 .984.132 1.407.363 1.035-.848 2.354-1.363 3.794-1.363 3.31 0 6 2.69 6 6s-2.69 6-6 6c-1.221 0-2.352-.372-3.3-1h-3.704c0 .963-.685 1.77-1.594 1.958l1.526 1.526.444-.446c.915-.919 2.311-1.175 3.56-.648 1.269.526 2.068 1.686 2.068 2.97v.64h2v-.64c0-1.284.799-2.444 2.035-2.957 1.281-.538 2.678-.284 3.592.635l.445.446 1.413-1.413-.447-.445c-.918-.914-1.172-2.311-.648-3.558.526-1.269 1.686-2.068 2.971-2.068h.639v-2h-.639c-1.285 0-2.445-.799-2.958-2.034z" fill="#ffffff" data-original="#000000"/><path d="m8 25.414-1-1c-.645-.645-1-1.503-1-2.414 0-1.304.836-2.416 2-2.829v-.171c0-.732.212-1.409.556-2h-5.258c-.194.589-.298 1.21-.298 1.828v.416c0 2.655 1.29 5.163 3.452 6.707l1.548 1.106z" fill="#ffffff" data-original="#000000"/><path d="m13.724 43.156-.746-4.456c-.185-1.561-1.462-2.7-2.98-2.7-.123 0-.248.008-.344.021-.943.111-1.756.638-2.246 1.448-.335.555-.471 1.279-.381 2.04l.891 6.085c.786 5.363 5.467 9.407 10.89 9.407l7.188-.001v-6l-5.364.001c-3.436 0-6.34-2.458-6.908-5.845z" fill="#ffffff" data-original="#000000"/><path d="m15.034 38.877.662 3.949c.361 2.152 2.045 3.771 4.14 4.104l-.15-1.051c-.356-2.488-1.299-4.844-2.739-6.888-.638-.007-1.276-.048-1.913-.114z" fill="#ffffff" data-original="#000000"/><path d="m37 22.762-3.933 4.719-2.774-2.774 1.414-1.414 1.226 1.226 2.932-3.519h-6.865v8h8z" fill="#ffffff" data-original="#000000"/><path d="m56.057 31.471-2.764-2.764 1.414-1.414 1.236 1.236 4.74-5.529h-9.683v10h10v-7.297z" fill="#ffffff" data-original="#000000"/><path d="m59 3h-14v12h14zm-8.943 10.471-2.764-2.764 1.414-1.414 1.236 1.236 5.297-6.18 1.519 1.301z" fill="#ffffff" data-original="#000000"/><path d="m59 47.184v-12.184h-2v12.184c-.847.302-1.514.969-1.816 1.816h-7.184v2h7.184c.414 1.161 1.514 2 2.816 2 1.654 0 3-1.346 3-3 0-1.302-.839-2.402-2-2.816z" fill="#ffffff" data-original="#000000"/><path d="m55 17h2v4h-2z" fill="#ffffff" data-original="#000000"/><path d="m31 12.816v6.184h2v-6.184c.847-.302 1.514-.969 1.816-1.816h8.184v-2h-8.184c-.414-1.161-1.514-2-2.816-2-1.654 0-3 1.346-3 3 0 1.302.839 2.402 2 2.816z" fill="#ffffff" data-original="#000000"/><path d="m34 31h2v6h-2z" fill="#ffffff" data-original="#000000"/></g></g></svg>
