<?xml version="1.0"?>
<svg xmlns="http://www.w3.org/2000/svg" xmlns:xlink="http://www.w3.org/1999/xlink" xmlns:svgjs="http://svgjs.com/svgjs" version="1.1" width="512" height="512" x="0" y="0" viewBox="0 0 64 64" style="enable-background:new 0 0 512 512" xml:space="preserve" class=""><g><path xmlns="http://www.w3.org/2000/svg" d="M40.6,37.05a3.68,3.68,0,1,0-3.68-3.68A3.68,3.68,0,0,0,40.6,37.05Zm0-5.36a1.68,1.68,0,1,1-1.68,1.68A1.68,1.68,0,0,1,40.6,31.69Z" fill="#ffffff" data-original="#000000" class=""/><path xmlns="http://www.w3.org/2000/svg" d="M43.75,43.28a3.68,3.68,0,1,0,3.68-3.68A3.68,3.68,0,0,0,43.75,43.28Zm5.36,0a1.68,1.68,0,1,1-1.68-1.68A1.68,1.68,0,0,1,49.11,43.28Z" fill="#ffffff" data-original="#000000" class=""/><rect xmlns="http://www.w3.org/2000/svg" x="34.71" y="37.34" width="18.32" height="2" transform="translate(-12.84 51.71) rotate(-54.42)" fill="#ffffff" data-original="#000000" class=""/><path xmlns="http://www.w3.org/2000/svg" d="M51,2.88a13.54,13.54,0,0,1-2.94,6.39,4.91,4.91,0,0,0-5.82-.95l-8.73.16a8.9,8.9,0,0,0-6.2,2.63L4.85,33.58a5,5,0,0,0,0,7.07L11,46.81a5,5,0,0,0,2.32,3l16.45,9.5A5,5,0,0,0,32,60a4.91,4.91,0,0,0,3,1H54a5,5,0,0,0,5-5V24.23A9,9,0,0,0,56.48,18l-7-7.26A15.26,15.26,0,0,0,53,3.12ZM6.26,35,28.73,12.52a7,7,0,0,1,4.82-2l2.32-.05-3.17.91a9,9,0,0,0-5.3,4.15L11.51,43a5.15,5.15,0,0,0-.44,1L6.26,39.23A3,3,0,0,1,6.26,35ZM14.34,48.1A3,3,0,0,1,13.24,44L29.13,16.49a7,7,0,0,1,4.12-3.23l5.28-1.51-6,6.23A9,9,0,0,0,30,24.23V56a4.72,4.72,0,0,0,.18,1.25ZM57,24.23V56a3,3,0,0,1-3,3H35a3,3,0,0,1-3-3V24.23a7,7,0,0,1,2-4.86l8.38-8.69a3.06,3.06,0,0,1,4.25,0,9,9,0,0,1-.79.52,2,2,0,1,0,.66,1.92,11.4,11.4,0,0,0,1.55-1l7,7.29A7,7,0,0,1,57,24.23Z" fill="#ffffff" data-original="#000000" class=""/></g></svg>
