<svg xmlns="http://www.w3.org/2000/svg" version="1.1" xmlns:xlink="http://www.w3.org/1999/xlink" xmlns:svgjs="http://svgjs.com/svgjs" width="512" height="512" x="0" y="0" viewBox="0 0 512 512" style="enable-background:new 0 0 512 512" xml:space="preserve" class=""><g><path d="M30 30h90V0H0v120h30zM392 0v30h90v90h30V0zM482 482h-90v30h120V392h-30zM30 392H0v120h120v-30H30zm0 0" fill="#ffffff" data-original="#000000" class=""></path><path d="M61 60v150h150v-90h30V90h-30V60zm120 120H91V90h90zM451 450V300h-60v-30h-30v30h-90v30h30v30h-30v30h30v60zM331 330h90v90h-90zM151 270h60v-30H61v30h60v30H91v30h30v60H91v30h30v30h150v-30h-30v-30h-30v30h-60v-30h30v-30h-30zm0 0" fill="#ffffff" data-original="#000000" class=""></path><path d="M121 120h30v30h-30zM361 120h30v30h-30zm0 0" fill="#ffffff" data-original="#000000" class=""></path><path d="M391 210h60V60H301v150h60v30h30zm-60-30V90h90v90zM451 270v-30h-60v30zM361 360h30v30h-30zM241 330h30v30h-30zM181 360h30v-60h-30zM211 270h30v30h-30zM91 330H61v60h30v-60zM61 420h30v30H61zM241 60h30v30h-30zM241 180h30v-60h-30zM271 240v-30h-30v60h120v-30zm0 0" fill="#ffffff" data-original="#000000" class=""></path></g></svg>