<?xml version="1.0"?>
<svg xmlns="http://www.w3.org/2000/svg" xmlns:xlink="http://www.w3.org/1999/xlink" xmlns:svgjs="http://svgjs.com/svgjs" version="1.1" width="512" height="512" x="0" y="0" viewBox="0 0 91 91" style="enable-background:new 0 0 512 512" xml:space="preserve" class=""><g><path xmlns="http://www.w3.org/2000/svg" d="m45.51 69.7a1.29 1.29 0 0 1 -.54-.12l-22.87-11a1.26 1.26 0 0 1 -.7-1.12v-24.62a1.24 1.24 0 0 1 1.78-1.12l22.87 11a1.26 1.26 0 0 1 .7 1.12v24.62a1.24 1.24 0 0 1 -.58 1.05 1.21 1.21 0 0 1 -.66.19zm-21.63-13 20.39 9.82v-21.89l-20.39-9.82z" fill="#ffffff" data-original="#000000" class=""/><path xmlns="http://www.w3.org/2000/svg" d="m45.51 45.07a1.25 1.25 0 0 1 -.51-.07l-22.87-11a1.23 1.23 0 0 1 0-2.23l22.87-11.05a1.25 1.25 0 0 1 1.07 0l22.87 11a1.24 1.24 0 0 1 .7 1.12 1.23 1.23 0 0 1 -.7 1.11l-22.94 11.05a1.24 1.24 0 0 1 -.49.07zm-20-12.24 20 9.63 20-9.61-20-9.64z" fill="#ffffff" data-original="#000000" class=""/><path xmlns="http://www.w3.org/2000/svg" d="m45.51 69.7a1.21 1.21 0 0 1 -.66-.19 1.24 1.24 0 0 1 -.58-1.05v-24.61a1.24 1.24 0 0 1 .7-1.12l22.87-11a1.24 1.24 0 0 1 1.78 1.12v24.6a1.24 1.24 0 0 1 -.7 1.12l-22.92 11.01a1.24 1.24 0 0 1 -.49.12zm1.24-25.07v21.86l20.39-9.82v-21.86z" fill="#ffffff" data-original="#000000" class=""/><path xmlns="http://www.w3.org/2000/svg" d="m34.07 39.57a1.24 1.24 0 0 1 -.54-2.35l22.88-11a1.24 1.24 0 0 1 1.65.58 1.23 1.23 0 0 1 -.58 1.65l-22.87 11a1.32 1.32 0 0 1 -.54.12z" fill="#ffffff" data-original="#000000" class=""/><path xmlns="http://www.w3.org/2000/svg" d="m37.14 50.37a1.25 1.25 0 0 1 -.54-.12l-6.75-3.25a1.23 1.23 0 0 1 -.58-1.65 1.24 1.24 0 0 1 1.65-.58l6.75 3.23a1.24 1.24 0 0 1 -.53 2.35z" fill="#ffffff" data-original="#000000" class=""/><path xmlns="http://www.w3.org/2000/svg" d="m7.94 61.73a1.24 1.24 0 0 1 -1.15-.73 41.73 41.73 0 0 1 71.21-41.79 1.24 1.24 0 1 1 -1.92 1.56 39.25 39.25 0 0 0 -66.99 39.23 1.24 1.24 0 0 1 -1.15 1.7z" fill="#ffffff" data-original="#000000" class=""/><path xmlns="http://www.w3.org/2000/svg" d="m45.56 87.09a41.69 41.69 0 0 1 -32.56-15.53 1.24 1.24 0 0 1 2-1.56 39.25 39.25 0 0 0 66.78-39.64 1.24 1.24 0 1 1 2.29-.95 42 42 0 0 1 -12.38 48.47 41.52 41.52 0 0 1 -26.13 9.21z" fill="#ffffff" data-original="#000000" class=""/><path xmlns="http://www.w3.org/2000/svg" d="m77.14 21.32h-.14l-11.55-1.25a1.24 1.24 0 0 1 .27-2.46l10.28 1.11 1.15-10.32a1.24 1.24 0 1 1 2.46.27l-1.24 11.55a1.24 1.24 0 0 1 -.46.83 1.21 1.21 0 0 1 -.77.27z" fill="#ffffff" data-original="#000000" class=""/><path xmlns="http://www.w3.org/2000/svg" d="m12.65 83.47h-.14a1.24 1.24 0 0 1 -1.1-1.36l1.25-11.55a1.21 1.21 0 0 1 .45-.83 1.25 1.25 0 0 1 .91-.27l11.55 1.24a1.24 1.24 0 0 1 -.26 2.46l-10.31-1.11-1.13 10.32a1.23 1.23 0 0 1 -1.22 1.1z" fill="#ffffff" data-original="#000000" class=""/></g></svg>
