<?xml version="1.0"?>
<svg xmlns="http://www.w3.org/2000/svg" xmlns:xlink="http://www.w3.org/1999/xlink" xmlns:svgjs="http://svgjs.com/svgjs" version="1.1" width="512" height="512" x="0" y="0" viewBox="0 0 135 135" style="enable-background:new 0 0 512 512" xml:space="preserve"><g><g xmlns="http://www.w3.org/2000/svg"><path d="m14.9 20.5c1.4 0 2.6-1.1 2.6-2.5s-1.2-2.6-2.6-2.6-2.6 1.1-2.6 2.6c0 1.4 1.2 2.5 2.6 2.5zm0-4.1c.9 0 1.6.7 1.6 1.6s-.7 1.5-1.6 1.5-1.6-.7-1.6-1.5c0-.9.7-1.6 1.6-1.6z" fill="#ffffff" data-original="#000000"/><path d="m14.9 70c1.4 0 2.6-1.1 2.6-2.5s-1.2-2.6-2.6-2.6-2.6 1.1-2.6 2.6c0 1.4 1.2 2.5 2.6 2.5zm0-4.1c.9 0 1.6.7 1.6 1.6s-.7 1.5-1.6 1.5-1.6-.7-1.6-1.5c0-.9.7-1.6 1.6-1.6z" fill="#ffffff" data-original="#000000"/><path d="m120.1 20.5c1.4 0 2.6-1.1 2.6-2.5s-1.2-2.6-2.6-2.6-2.6 1.1-2.6 2.6c0 1.4 1.2 2.5 2.6 2.5zm0-4.1c.9 0 1.6.7 1.6 1.6s-.7 1.5-1.6 1.5-1.6-.7-1.6-1.5c0-.9.7-1.6 1.6-1.6z" fill="#ffffff" data-original="#000000"/><path d="m120.1 70c1.4 0 2.6-1.1 2.6-2.5s-1.2-2.6-2.6-2.6-2.6 1.1-2.6 2.6c0 1.4 1.2 2.5 2.6 2.5zm0-4.1c.9 0 1.6.7 1.6 1.6s-.7 1.5-1.6 1.5-1.6-.7-1.6-1.5c0-.9.7-1.6 1.6-1.6z" fill="#ffffff" data-original="#000000"/><path d="m118.8 108.4h-.5c-.3 0-.5.2-.5.5s.2.5.5.5h.5c.3 0 .5-.2.5-.5s-.3-.5-.5-.5z" fill="#ffffff" data-original="#000000"/><path d="m16.8 25.6h-.5c-.3 0-.5.2-.5.5s.2.5.5.5h.5c.3 0 .5-.2.5-.5s-.3-.5-.5-.5z" fill="#ffffff" data-original="#000000"/><path d="m79.1 80.2c-.2-.2-.5-.2-.7 0l-3.3 3.3c-.2.2-.2.5 0 .7.1.1.2.1.4.1s.3 0 .4-.1l3.3-3.3c.1-.2.1-.5-.1-.7z" fill="#ffffff" data-original="#000000"/><path d="m79 82.3-1.8 1.8c-.2.2-.2.5 0 .7.1.1.2.1.4.1s.3 0 .4-.1l1.8-1.8c.2-.2.2-.5 0-.7s-.6-.2-.8 0z" fill="#ffffff" data-original="#000000"/><path d="m46.8 30h-1.5c-.3 0-.5.2-.5.5s.2.5.5.5h1.5c.3 0 .5-.2.5-.5s-.2-.5-.5-.5z" fill="#ffffff" data-original="#000000"/><path d="m45.3 102.8h-13.6c-.3 0-.5.2-.5.5s.2.5.5.5h13.5c.3 0 .5-.2.5-.5s-.2-.5-.4-.5z" fill="#ffffff" data-original="#000000"/><path d="m40.9 105.8h-9.2c-.3 0-.5.2-.5.5s.2.5.5.5h9.2c.3 0 .5-.2.5-.5s-.2-.5-.5-.5z" fill="#ffffff" data-original="#000000"/><path d="m39.1 82.3-5.5 4.2c-.2.2-.3.5-.1.7.1.1.2.2.4.2.1 0 .2 0 .3-.1l5.9-4.5h5l5.8 4.5c.1.1.2.1.3.1.2 0 .3-.1.4-.2.2-.2.1-.5-.1-.7l-5.5-4.2 5.5-4.2c.2-.2.3-.5.1-.7s-.5-.3-.7-.1l-5.8 4.5h-5l-5.8-4.5c-.2-.2-.5-.1-.7.1s-.1.5.1.7z" fill="#ffffff" data-original="#000000"/><path d="m80.1 34.7c-.2-.2-.5-.2-.7 0l-1.7 1.7c-.2.2-.2.5 0 .7s.5.2.7 0l1.7-1.7c.2-.2.2-.5 0-.7z" fill="#ffffff" data-original="#000000"/><path d="m81.9 35.8c-.2-.2-.5-.2-.7 0l-2.4 2.4c-.2.2-.2.5 0 .7s.5.2.7 0l2.4-2.4c.2-.2.2-.5 0-.7z" fill="#ffffff" data-original="#000000"/><path d="m95.2 52.1h-.9c-.3 0-.5.2-.5.5s.2.5.5.5h.9c.3 0 .5-.2.5-.5s-.2-.5-.5-.5z" fill="#ffffff" data-original="#000000"/><path d="m39.7 113.6h5.8v1h-5.8z" fill="#ffffff" data-original="#000000"/><path d="m39.7 115.8h5.8v1h-5.8z" fill="#ffffff" data-original="#000000"/><path d="m39.7 63.8h5.8v1h-5.8z" fill="#ffffff" data-original="#000000"/><path d="m39.7 66h5.8v1h-5.8z" fill="#ffffff" data-original="#000000"/><path d="m90.2 113.6h5.8v1h-5.8z" fill="#ffffff" data-original="#000000"/><path d="m90.2 115.8h5.8v1h-5.8z" fill="#ffffff" data-original="#000000"/><path d="m90.2 63.8h5.8v1h-5.8z" fill="#ffffff" data-original="#000000"/><path d="m90.2 66h5.8v1h-5.8z" fill="#ffffff" data-original="#000000"/><path d="m3.5 122.9h.5c.3 0 .5-.2.5-.5s-.2-.5-.5-.5h-.5c-.3 0-.5.2-.5.5s.2.5.5.5z" fill="#ffffff" data-original="#000000"/><path d="m14.9 119.7c1.4 0 2.6-1.1 2.6-2.6 0-1.4-1.2-2.6-2.6-2.6s-2.6 1.1-2.6 2.6 1.2 2.6 2.6 2.6zm0-4.1c.9 0 1.6.7 1.6 1.6s-.7 1.6-1.6 1.6-1.6-.7-1.6-1.6.7-1.6 1.6-1.6z" fill="#ffffff" data-original="#000000"/><path d="m120.1 119.7c1.4 0 2.6-1.1 2.6-2.6 0-1.4-1.2-2.6-2.6-2.6s-2.6 1.1-2.6 2.6 1.2 2.6 2.6 2.6zm0-4.1c.9 0 1.6.7 1.6 1.6s-.7 1.6-1.6 1.6-1.6-.7-1.6-1.6.7-1.6 1.6-1.6z" fill="#ffffff" data-original="#000000"/><path d="m129.6 122.4c0-.3-.2-.5-.5-.5h-1.6c.3-.4.5-1 .5-1.5v-6.4c0-1.3-1-2.3-2.2-2.5v-38.3c1.2-.2 2.2-1.2 2.2-2.5v-6.3c0-1.3-1-2.3-2.2-2.5v-38.4c1.2-.2 2.2-1.2 2.2-2.5v-6.3c0-1.4-1.1-2.5-2.6-2.5h-115.9c-1.4 0-2.5 1.1-2.5 2.5v6.3c0 1.3 1 2.3 2.2 2.5v38.3c-1.2.2-2.2 1.2-2.2 2.5v6.3c0 1.3 1 2.3 2.2 2.5v38.3c-1.2.3-2.2 1.3-2.2 2.6v6.3c0 .6.2 1.1.5 1.5h-1c-.3 0-.5.2-.5.5s.2.5.5.5h122.6c.3.1.5-.1.5-.4zm-20.8-10.9c.9-.8 1.5-1.9 1.5-3.3v-28.3c0-2.3-1.9-4.3-4.3-4.3.1 0-25.8 0-30.1 0-2.3 0-4.3 1.9-4.3 4.3v28.3c0 1.3.6 2.5 1.5 3.3h-15c.3-.4.4-.8.4-1.3v-16.9h.6c.6 0 1.2-.5 1.2-1.2v-3.1c0-.6-.5-1.2-1.2-1.2h-4.4c.2-.3.3-.7.3-1.2v-8.8c0-1.2-1-2.2-2.1-2.2h-20.6c-1.2 0-2.1 1-2.1 2.1v8.8c0 .4.1.8.3 1.2h-4.5c-.6 0-1.2.5-1.2 1.2v3.2c0 .6.5 1.2 1.2 1.2h.6v16.8c0 .5.2 1 .4 1.3h-6.5v-38.2h93.8v38.3zm-9.8 1v5.5h-11.9v-5.5zm-23.1-1c-1.8 0-3.3-1.5-3.3-3.3v-28.3c0-1.8 1.5-3.3 3.3-3.3h7.9v7.4c0 .2.1.3.2.4s.3.1.5 0l3.1-1.6 3.1 1.6c.1.1.3.1.5 0l3.1-1.6 3.1 1.6c.1 0 .2.1.2.1.1 0 .2 0 .3-.1s.2-.3.2-.4v-7.4h7.9c1.8 0 3.3 1.5 3.3 3.3v28.3c0 1.8-1.5 3.3-3.3 3.3zm21.3-34.8v6.6l-2.6-1.3c-.1-.1-.3-.1-.5 0l-3.1 1.6-3.1-1.6c-.1 0-.2-.1-.2-.1s-.2 0-.2.1l-2.6 1.4v-6.6h12.3zm-48.7 35.8v5.5h-11.8v-5.5zm-19.5-1c-.7 0-1.3-.6-1.3-1.3v-16.9h29.9v16.8c0 .7-.6 1.3-1.3 1.3h-27.3zm2.1-24.8v-8.8c0-.6.5-1.1 1.1-1.1h20.7c.6 0 1.1.5 1.1 1.2v8.8c0 .6-.5 1.1-1.1 1.1h-20.6c-.7-.1-1.2-.6-1.2-1.2zm28.1 2.1c.1 0 .2.1.2.2v3.2c0 .1-.1.2-.2.2h-33.2c-.1 0-.2-.1-.2-.2v-3.2c0-.1.1-.2.2-.2zm-49-15.6h9.4v38.3h-9.4zm105.2 0h9.4v35.2h-4c-.3 0-.5.2-.5.5s.2.5.5.5h4v2.1h-9.4zm-3.7-11.4c.3-.4.5-.9.5-1.4v-32c0-1.3-1.1-2.4-2.4-2.4h-3.5-30.5-3.5c-1.3 0-2.4 1.1-2.4 2.4v31.9c0 .5.2 1 .5 1.4h-8.1c.2-.3.4-.8.4-1.2v-32.8c0-1.2-1-2.2-2.2-2.2h-35.6c-1.2 0-2.2 1-2.2 2.2v32.9c0 .4.1.8.4 1.2h-2.4v-38.3h93.8v38.3zm-24.6 1h11.9v5.4h-11.9zm12.7-1c-.1-.1-.2-.1-.3-.1h-12.9c-.1 0-.2 0-.3.1h-9.6v-4.9h28.5v4.9zm-28.9-1.4v-32c0-.8.6-1.4 1.4-1.4h3.5v5.9 21.8 2.1 4.9h-3.5c-.8.1-1.4-.5-1.4-1.3zm5.9-27.5h20.8l-20.8 20.9zm0 22.3 22.2-22.3h6.2v.7l-22.2 22.3h-6.2zm28.4-20.1v17.1c-.1 0-.1 0-.2 0h-7.9c-.3 0-.5.2-.5.5s.2.5.5.5h7.9.2v2.8h-20.8zm0-3.2c-10.6 0-17.8 0-28.5 0v-4.9h28.5zm1-4.9h3.5c.8 0 1.4.6 1.4 1.4v31.9c0 .8-.6 1.4-1.4 1.4h-3.5c0-12.5 0-21.6 0-34.7zm-69.5 35.8h11.9v5.4h-11.9zm12.6-1c-.1-.1-.2-.1-.3-.1h-12.8c-.1 0-.2 0-.3.1h-11c-.1 0-.3 0-.4-.1l17.1-16.9c.7.4 1.5.4 2.2 0l17.1 16.9c-.1 0-.3.1-.4.1zm12.2-34.5c0 .1.1.3.1.4v32.9c0 .1 0 .3-.1.4l-17-16.9c3.7-3.7 13.1-13 17-16.8zm-4.2 2.7h-9c-.3 0-.5.2-.5.5s.2.5.5.5h7.9l-12.8 12.8c-.4.4-1.1.4-1.5 0l-17.4-17.2c.1 0 .3-.1.4-.1h35.5c.1 0 .3 0 .4.1zm-33.5 31c0-.1-.1-.3-.1-.4v-32.9c0-.1 0-.3.1-.4l17 16.8zm-13.6-34.4h4c.3 0 .5-.2.5-.5s-.2-.5-.5-.5h-4v-2.1h9.4v38.3h-9.4zm105.2-3.1h9.4v38.3h-9.4zm-107.4-2.5v-6.3c0-.8.7-1.5 1.5-1.5h115.9c.9 0 1.6.7 1.6 1.5v6.3c0 .8-.7 1.5-1.6 1.5h-.1c-9.8 0-13.8 0-115.8 0-.8 0-1.5-.7-1.5-1.5zm0 49.7v-6.3c0-.9.7-1.5 1.5-1.5h26.1v5.9c0 .3.2.5.5.5h12.9c.3 0 .5-.2.5-.5v-5.9h36.6v5.9c0 .3.2.5.5.5h12.9c.3 0 .5-.2.5-.5v-5.9h25.5c.9 0 1.6.7 1.6 1.5v6.3c0 .8-.7 1.5-1.6 1.5h-.1c-28.2 0-87.4 0-115.8 0-.9 0-1.6-.7-1.6-1.5zm0 43.3c0-.9.7-1.5 1.5-1.5h26.1v6c0 .3.2.5.5.5h12.9c.3 0 .5-.2.5-.5v-6h36.6v6c0 .3.2.5.5.5h12.9c.3 0 .5-.2.5-.5v-6h25.5c.9 0 1.6.7 1.6 1.5v6.3c0 .8-.7 1.5-1.6 1.5h-116c-.8 0-1.5-.7-1.5-1.5z" fill="#ffffff" data-original="#000000"/><path d="m131.5 121.9h-.4c-.3 0-.5.2-.5.5s.2.5.5.5h.4c.3 0 .5-.2.5-.5s-.2-.5-.5-.5z" fill="#ffffff" data-original="#000000"/><path d="m22 18 1.7-1.7c.2-.2.2-.5 0-.7s-.5-.2-.7 0l-1.7 1.7c-.2.2-.2.5 0 .7s.5.2.7 0z" fill="#ffffff" data-original="#000000"/><path d="m22.3 19.9c.2.2.5.2.7 0l2.4-2.4c.2-.2.2-.5 0-.7s-.5-.2-.7 0l-2.4 2.4c-.2.2-.2.5 0 .7z" fill="#ffffff" data-original="#000000"/><path d="m100.9 102.6v4.4c0 .1.1.1.1.1h1c.1 0 .1-.1.1-.1v-4.4h.4c.1 0 .2-.1.1-.2l-1-1.6c-.1-.1-.2-.1-.2 0l-1 1.6c-.1.1 0 .2.1.2z" fill="#ffffff" data-original="#000000"/><path d="m104.1 102.6v4.4c0 .1.1.1.1.1h1c.1 0 .1-.1.1-.1v-4.4h.4c.1 0 .2-.1.1-.2l-1-1.6c-.1-.1-.2-.1-.2 0l-1 1.6c-.1.1 0 .2.1.2z" fill="#ffffff" data-original="#000000"/><path d="m106.2 108.7v-.9c0-.1-.1-.1-.1-.1h-5.7c-.1 0-.1.1-.1.1v.9c0 .1.1.1.1.1h5.7s.1 0 .1-.1z" fill="#ffffff" data-original="#000000"/><path d="m47.6 49.8h-9.9c-.3 0-.5.2-.5.5 0 1.4.6 2.8 1.6 3.8 0 0 0 0 .1.1.7.7 1.7 1.2 2.8 1.3v2.8h-.7c-.3 0-.5.2-.5.5v1.1c0 .3.2.5.5.5h3.4c.3 0 .5-.2.5-.5v-1.1c0-.3-.2-.5-.5-.5h-.7v-2.8c.9-.1 1.7-.5 2.3-1 1.3-1 2.1-2.6 2.1-4.3 0-.2-.3-.4-.5-.4zm-2.2 4c-.6.5-1.4.8-2.3.8-.3 0-.5.2-.5.5v3.7c0 .3.2.5.5.5h.7v.1h-2.4v-.1h.6c.3 0 .5-.2.5-.5v-3.7c0-.3-.2-.5-.5-.5-1-.1-1.9-.5-2.6-1.1-.7-.7-1.2-1.6-1.3-2.6h5.9l-.2.3c-.1.1-.1.2-.1.3 0 .3.2.6.4.7l-.3.8c-.1.2 0 .5.2.7.2.1.5 0 .7-.2l.8-1.5c.1-.2.1-.3 0-.5-.1-.1-.3-.2-.4-.2h-.1l.2-.4h1.8c-.1 1.1-.7 2.1-1.6 2.9z" fill="#ffffff" data-original="#000000"/></g></g></svg>
