<?xml version="1.0"?>
<svg xmlns="http://www.w3.org/2000/svg" xmlns:xlink="http://www.w3.org/1999/xlink" xmlns:svgjs="http://svgjs.com/svgjs" version="1.1" width="512" height="512" x="0" y="0" viewBox="0 0 512.005 512.005" style="enable-background:new 0 0 512 512" xml:space="preserve" class=""><g><g xmlns="http://www.w3.org/2000/svg"><g id="Page-1_38_"><g id="_x30_39---Slideshow"><path id="Shape_210_" d="m443.733 298.667v-204.8c0-14.138-11.462-25.6-25.6-25.6h-8.533v-8.533c0-14.138-11.462-25.6-25.6-25.6h-8.533v-8.534c0-14.138-11.462-25.6-25.6-25.6h-324.267c-14.138 0-25.6 11.462-25.6 25.6v324.267c0 14.138 11.462 25.6 25.6 25.6h8.533v8.533c0 14.138 11.462 25.6 25.6 25.6h8.533v8.533c0 14.138 11.462 25.6 25.6 25.6h204.8c19.289 46.294 67.238 73.888 116.956 67.307s88.837-45.7 95.418-95.418c6.582-49.717-21.013-97.666-67.307-116.955zm-418.133 59.733c-4.713 0-8.533-3.821-8.533-8.533v-324.267c0-4.713 3.821-8.533 8.533-8.533h324.267c4.713 0 8.533 3.821 8.533 8.533v8.533h-298.667c-14.138 0-25.6 11.462-25.6 25.6v298.667zm34.133 34.133c-4.713 0-8.533-3.82-8.533-8.533v-324.267c0-4.713 3.821-8.533 8.533-8.533h324.267c4.713 0 8.533 3.821 8.533 8.533v8.533h-298.666c-14.138 0-25.6 11.462-25.6 25.6v298.667zm34.134 34.134c-4.713 0-8.533-3.82-8.533-8.533v-324.267c0-4.713 3.821-8.533 8.533-8.533h324.267c4.713 0 8.533 3.821 8.533 8.533v199.364c-37.448-9.055-76.91 2.039-104.153 29.282s-38.338 66.705-29.282 104.153h-199.365zm307.2 68.266c-51.841 0-93.867-42.026-93.867-93.867s42.026-93.867 93.867-93.867 93.867 42.026 93.867 93.867c-.062 51.816-42.052 93.806-93.867 93.867z" fill="#ffffff" data-original="#000000" class=""/><path id="Shape_209_" d="m450.987 386.21-76.433-34.731c-5.526-2.524-11.956-2.064-17.067 1.22-4.707 2.941-7.582 8.086-7.62 13.636v69.461c.025 5.549 2.887 10.7 7.586 13.653 2.88 1.847 6.23 2.824 9.651 2.816 2.569-.006 5.108-.555 7.45-1.613l76.433-34.739c5.951-2.54 9.812-8.386 9.812-14.857s-3.861-12.316-9.812-14.857zm-83.508 48.905-.546.683v-69.461l75.477 34.731z" fill="#ffffff" data-original="#000000" class=""/><path id="Shape_208_" d="m256 102.4h-136.533c-9.426 0-17.067 7.641-17.067 17.067v153.6c0 9.426 7.641 17.067 17.067 17.067h136.533c9.426 0 17.067-7.641 17.067-17.067v-153.6c0-9.426-7.641-17.067-17.067-17.067zm0 17.067v107.409l-36.642-36.642c-3.332-3.331-8.734-3.331-12.066 0l-28.092 28.1-11.034-11.034c-3.332-3.331-8.734-3.331-12.066 0l-36.634 36.634v-124.467zm-136.533 153.6v-5.001l42.667-42.667 28.1 28.1c3.348 3.234 8.671 3.188 11.962-.104 3.292-3.292 3.338-8.614.104-11.962l-11.034-11.033 22.067-22.067 42.667 42.666v22.067h-136.533z" fill="#ffffff" data-original="#000000" class=""/><path id="Shape_207_" d="m162.133 187.733c14.138 0 25.6-11.462 25.6-25.6 0-14.139-11.462-25.6-25.6-25.6-14.139 0-25.6 11.462-25.6 25.6 0 14.139 11.462 25.6 25.6 25.6zm0-34.133c4.713 0 8.533 3.821 8.533 8.533 0 4.713-3.821 8.533-8.533 8.533-4.713 0-8.533-3.821-8.533-8.533s3.821-8.533 8.533-8.533z" fill="#ffffff" data-original="#000000" class=""/><path id="Shape_206_" d="m221.867 315.733h-110.934c-4.713 0-8.533 3.821-8.533 8.533s3.821 8.533 8.533 8.533h110.933c4.713 0 8.533-3.82 8.533-8.533s-3.82-8.533-8.532-8.533z" fill="#ffffff" data-original="#000000" class=""/><path id="Shape_205_" d="m170.667 349.867h-59.733c-4.713 0-8.533 3.82-8.533 8.533s3.821 8.533 8.533 8.533h59.733c4.713 0 8.533-3.82 8.533-8.533s-3.82-8.533-8.533-8.533z" fill="#ffffff" data-original="#000000" class=""/><path id="Shape_204_" d="m128 384h-17.067c-4.713 0-8.533 3.82-8.533 8.533s3.821 8.533 8.533 8.533h17.067c4.713 0 8.533-3.82 8.533-8.533s-3.82-8.533-8.533-8.533z" fill="#ffffff" data-original="#000000" class=""/><path id="Shape_203_" d="m307.2 128h85.333c4.713 0 8.533-3.821 8.533-8.533 0-4.713-3.82-8.533-8.533-8.533h-85.333c-4.713 0-8.533 3.821-8.533 8.533s3.82 8.533 8.533 8.533z" fill="#ffffff" data-original="#000000" class=""/><path id="Shape_202_" d="m307.2 162.133h59.733c4.713 0 8.533-3.821 8.533-8.533s-3.82-8.533-8.533-8.533h-59.733c-4.713 0-8.533 3.82-8.533 8.533s3.82 8.533 8.533 8.533z" fill="#ffffff" data-original="#000000" class=""/><path id="Shape_201_" d="m307.2 196.267h25.6c4.713 0 8.533-3.821 8.533-8.533 0-4.713-3.82-8.533-8.533-8.533h-25.6c-4.713 0-8.533 3.821-8.533 8.533s3.82 8.533 8.533 8.533z" fill="#ffffff" data-original="#000000" class=""/><path id="Shape_200_" d="m392.533 179.2h-25.6c-4.713 0-8.533 3.821-8.533 8.533 0 4.713 3.82 8.533 8.533 8.533h25.6c4.713 0 8.533-3.821 8.533-8.533.001-4.712-3.82-8.533-8.533-8.533z" fill="#ffffff" data-original="#000000" class=""/></g></g></g></g></svg>
