<?xml version="1.0"?>
<svg xmlns="http://www.w3.org/2000/svg" xmlns:xlink="http://www.w3.org/1999/xlink" xmlns:svgjs="http://svgjs.com/svgjs" version="1.1" width="512" height="512" x="0" y="0" viewBox="0 0 512 512" style="enable-background:new 0 0 512 512" xml:space="preserve" class=""><g><g xmlns="http://www.w3.org/2000/svg"><path d="m412.031 37.301c4.143 0 7.5-3.357 7.5-7.5v-22.301c0-4.143-3.357-7.5-7.5-7.5s-7.5 3.357-7.5 7.5v22.3c-.001 4.143 3.357 7.501 7.5 7.501z" fill="#ffffff" data-original="#000000" class=""/><path d="m334.521 54.942c1.464 1.465 3.384 2.197 5.304 2.197 1.919 0 3.838-.732 5.303-2.196 2.929-2.928 2.93-7.677.001-10.607l-15.769-15.774c-2.928-2.929-7.677-2.93-10.607-.001-2.929 2.928-2.93 7.677-.001 10.607z" fill="#ffffff" data-original="#000000" class=""/><path d="m505.308 28.561c-2.931-2.932-7.68-2.929-10.607.001l-15.769 15.774c-2.929 2.93-2.928 7.679.001 10.607 1.465 1.465 3.384 2.196 5.303 2.196 1.92 0 3.84-.732 5.304-2.197l15.769-15.774c2.928-2.93 2.928-7.679-.001-10.607z" fill="#ffffff" data-original="#000000" class=""/><path d="m311.177 295.6h-185.679c-4.143 0-7.5 3.358-7.5 7.5 0 4.143 3.357 7.5 7.5 7.5h185.679c4.143 0 7.5-3.357 7.5-7.5s-3.357-7.5-7.5-7.5z" fill="#ffffff" data-original="#000000" class=""/><path d="m264.128 244.673h-138.63c-4.143 0-7.5 3.357-7.5 7.5s3.357 7.5 7.5 7.5h138.631c4.143 0 7.5-3.357 7.5-7.5s-3.358-7.5-7.501-7.5z" fill="#ffffff" data-original="#000000" class=""/><path d="m311.177 346.498h-185.679c-4.143 0-7.5 3.357-7.5 7.5s3.357 7.5 7.5 7.5h185.679c4.143 0 7.5-3.358 7.5-7.5 0-4.143-3.357-7.5-7.5-7.5z" fill="#ffffff" data-original="#000000" class=""/><path d="m415.563 61.551c-4.15-.06-7.57 3.2-7.65 7.34-.09 4.14 3.2 7.57 7.34 7.65 36.651.77 73.651 23.71 73.701 73.241.03 26.41-11.96 40.871-24.66 56.191-10.78 13.01-21.892 26.43-25.517 46.857h-19.304v-45.712c13.113-3.348 22.838-15.261 22.838-29.404 0-16.732-13.61-30.344-30.338-30.344s-30.338 13.613-30.338 30.344c0 14.143 9.725 26.056 22.837 29.404v45.713h-19.299c-3.612-20.437-14.723-33.849-25.502-46.867-11.25-13.57-21.95-26.48-24.2-47.641-.3-2.71-.45-5.55-.45-8.54 0-2.92.14-5.77.4-8.56 2.77-29.12 19.72-50.821 47.451-60.231 3.92-1.33 6.02-5.59 4.69-9.52-1.33-3.92-5.58-6.02-9.51-4.69-31.531 10.7-52.051 35.501-56.911 67.811-21.06-8.65-43.771-13.19-67.141-13.19h-18.12c-4.14 0-7.5 3.36-7.5 7.5 0 4.15 3.36 7.5 7.5 7.5h18.12c23.49 0 45.831 5.01 66.021 14.02.17 31.411 15 49.311 28.091 65.111 9.545 11.522 18.622 22.488 21.938 38.152-5.157 1.914-8.849 6.87-8.849 12.685v23.732c0 7.466 6.073 13.54 13.538 13.54h2.203v11.253c0 14.47 11.77 26.251 26.241 26.251h9.73c-15.93 73.101-81.131 128.012-158.913 128.012h-106.602c-3.91 0-5.09.28-8.83 2.2l-58.271 23.58-.44-57.241c.4-2.82-.6-5.46-2.79-7.31-36.591-31.11-57.571-76.272-57.571-123.912v-7.38c0-89.712 72.951-162.693 162.613-162.693h20.721c4.14 0 7.5-3.35 7.5-7.5 0-4.14-3.36-7.5-7.5-7.5h-20.721c-47.251 0-91.802 18.54-125.443 52.201-33.64 33.66-52.171 78.221-52.171 125.492v7.38c0 50.961 21.96 99.312 60.381 133.193l.46 60.751c-.21 5.34 2.09 8.21 4.08 9.68 1.33.98 3.29 1.9 5.99 1.9 1.51 0 3.25-.29 5.23-1.02.07-.02.15-.05.23-.08l63.641-25.771c.21-.08.41-.17.61-.28l.31-.15c.37-.19.76-.4 1.05-.54h107.523c47.261 0 91.822-18.53 125.462-52.181 25.551-25.561 42.381-57.421 49.001-91.982 10.72-3.3 18.54-13.31 18.54-25.1v-11.253h2.202c7.466 0 13.539-6.074 13.539-13.54v-23.732c0-5.814-3.689-10.769-8.844-12.684 3.323-15.666 12.399-26.623 21.943-38.144 13.19-15.91 28.14-33.951 28.11-65.781-.058-59.34-45.859-87.321-88.39-88.211zm-18.927 116.163c0-8.461 6.88-15.344 15.337-15.344s15.338 6.883 15.338 15.344-6.881 15.344-15.338 15.344-15.337-6.882-15.337-15.344zm35.368 137.182c0 1.49-.29 2.92-.82 4.22-1.67 4.12-5.71 7.03-10.42 7.03h-17.58c-6.2 0-11.24-5.05-11.24-11.25v-11.25l39.691-.002v.002h.37v11.25zm15.741-26.253h-71.543v-20.812h71.543z" fill="#ffffff" data-original="#000000" class=""/></g></g></svg>
