<?xml version="1.0"?>
<svg xmlns="http://www.w3.org/2000/svg" xmlns:xlink="http://www.w3.org/1999/xlink" xmlns:svgjs="http://svgjs.com/svgjs" version="1.1" width="512" height="512" x="0" y="0" viewBox="0 0 512 512" style="enable-background:new 0 0 512 512" xml:space="preserve" class=""><g><g xmlns="http://www.w3.org/2000/svg"><path d="m90.375 0v391.626h-60.25v75.249c0 24.882 20.243 45.125 45.125 45.125h361.5c24.882 0 45.125-20.243 45.125-45.125v-466.875zm-30.25 466.875v-45.249h30.25v45.249c0 8.34-6.785 15.125-15.125 15.125s-15.125-6.785-15.125-15.125zm391.75 0c0 8.34-6.785 15.125-15.125 15.125h-318.991c1.689-4.731 2.616-9.821 2.616-15.125v-75.249-361.626h331.5z" fill="#ffffff" data-original="#000000" style="" class=""/><path d="m150.625 240.999h271v30h-271z" fill="#ffffff" data-original="#000000" style="" class=""/><path d="m150.625 301.245h271v30h-271z" fill="#ffffff" data-original="#000000" style="" class=""/><path d="m150.625 361.492h271v30h-271z" fill="#ffffff" data-original="#000000" style="" class=""/><path d="m150.625 421.75h271v30h-271z" fill="#ffffff" data-original="#000000" style="" class=""/><path d="m169.781 195.75h30v-90.5h30.334v-30h-90.667v30h30.333z" fill="#ffffff" data-original="#000000" style="" class=""/><path d="m271 165.5h30.251v30.25h30v-75.375c0-24.882-20.243-45.125-45.125-45.125-24.883 0-45.126 20.243-45.126 45.125v75.375h30zm0-45.125c0-8.34 6.785-15.125 15.126-15.125 8.34 0 15.125 6.785 15.125 15.125v15.125h-30.251z" fill="#ffffff" data-original="#000000" style="" class=""/><path d="m374.224 195.75 11.718-24.956 11.718 24.956h33.142l-28.289-60.25 28.289-60.25h-33.142l-11.718 24.956-11.718-24.956h-33.142l28.289 60.25-28.289 60.25z" fill="#ffffff" data-original="#000000" style="" class=""/></g></g></svg>
