<svg xmlns="http://www.w3.org/2000/svg" version="1.1" xmlns:xlink="http://www.w3.org/1999/xlink" xmlns:svgjs="http://svgjs.com/svgjs" width="512" height="512" x="0" y="0" viewBox="0 0 511.905 511.905" style="enable-background:new 0 0 512 512" xml:space="preserve" class=""><g><path d="M256 350.712c96.863 0 175.667-78.804 175.667-175.666-8.831-232.726-342.538-232.662-351.334.002 0 96.861 78.804 175.664 175.667 175.664zm0-321.333c80.321 0 145.667 65.346 145.667 145.667-7.323 192.98-284.04 192.928-291.334-.002 0-80.319 65.346-145.665 145.667-145.665zM497 481.379h-17.134v-18.2h9.101c19.881-.738 19.866-29.269 0-30h-9.101v-18.2H497c19.881-.738 19.866-29.269 0-30h-32.134c-8.284 0-15 6.716-15 15v96.4c0 8.284 6.716 15 15 15H497c19.881-.738 19.866-29.269 0-30zM312.233 384.979c-21.56 0-39.1 17.54-39.1 39.101v72.3c.738 19.881 29.269 19.866 30 0v-17.134h18.199v17.134c.738 19.881 29.269 19.866 30 0v-72.3c.001-21.561-17.539-39.101-39.099-39.101zm9.1 64.266h-18.199v-25.166c.428-12.048 17.775-12.039 18.199 0zM424.7 384.979h-48.2c-19.881.738-19.866 29.269 0 30h9.1v81.4c.738 19.881 29.269 19.866 30 0v-81.4h9.101c19.88-.738 19.865-29.269-.001-30zM63.2 384.979c-8.284 0-15 6.716-15 15v72.301c-.429 12.046-17.776 12.038-18.2 0v-72.301c-.738-19.881-29.269-19.866-30 0v72.301c1.972 51.813 76.247 51.773 78.2 0v-72.301c0-8.284-6.716-15-15-15z" fill="#ffffff" data-original="#000000" class=""></path><path d="M199.767 384.979c-8.284 0-15 6.716-15 15v96.4c0 8.284 6.716 15 15 15 83.736-3.178 83.696-123.241 0-126.4zm15 92.814v-59.229c24.117 12.04 24.104 47.199 0 59.229z" fill="#ffffff" data-original="#000000" class=""></path><path d="M127.467 384.979H111.4c-8.284 0-15 6.716-15 15v96.4c.738 19.881 29.269 19.866 30 0v-17.134h1.066c62.649-2.404 62.239-92.106.001-94.266zm0 64.266H126.4v-34.267h1.066c22.619.784 22.778 33.382.001 34.267zM188.371 220.921c7.59-3.32 11.05-12.165 7.729-19.755-18.481-40.508 11.541-89.224 55.668-91.302l-6.375 6.375c-5.858 5.857-5.858 15.355 0 21.213 5.857 5.857 15.355 5.857 21.213 0l32.134-32.134c5.858-5.857 5.858-15.355 0-21.213l-32.134-32.134c-5.856-5.856-15.353-5.86-21.213 0-5.858 5.857-5.858 15.355 0 21.213l6.617 6.617c-65.523 1.631-110.729 73.479-83.394 133.39 3.322 7.591 12.166 11.051 19.755 7.73zM321.333 175.046c0 34.602-27.044 62.991-61.102 65.181l6.375-6.375c5.858-5.857 5.858-15.355 0-21.213-5.857-5.857-15.355-5.857-21.213 0l-32.134 32.134c-5.858 5.857-5.858 15.355 0 21.213l32.134 32.134c5.856 5.856 15.353 5.86 21.213 0 5.858-5.857 5.858-15.355 0-21.213l-6.617-6.617c65.523-1.631 110.729-73.479 83.394-133.39-3.321-7.59-12.166-11.05-19.755-7.729-7.59 3.32-11.05 12.165-7.729 19.755 3.606 8.239 5.434 17.028 5.434 26.12z" fill="#ffffff" data-original="#000000" class=""></path></g></svg>