<svg id="Livello_1" data-name="Livello 1" xmlns="http://www.w3.org/2000/svg" viewBox="0 0 595.28 526.69"><defs><style>.cls-1{fill:#fff;}</style></defs><path class="cls-1" d="M463.55,217v-.22c5.7-1.66,6.88-2.5,6.88-9.46,0-9.08-3.48-11.33-18.09-11.33h-8.49c-15.44,0-20.76,1.19-20.76,12.26v2.19H435v-1.69c0-3,1.19-3.9,5.36-3.9h12.41c3.84,0,5.77.8,5.77,4,0,2.95-.71,4-4.81,4H442v8.52h12.91c3.86,0,4.58,1.23,4.58,4s-.47,3.85-4.43,3.85H440c-4.36,0-5.41-.89-5.41-4.35V223H422.67v4.39c0,8.49,6.19,10.6,13.45,10.6h21c11.35,0,14.24-3.12,14.24-11.2C471.35,220.19,470.26,218.11,463.55,217Z"/><path class="cls-1" d="M282,196H252.44c-19.08,0-32.18,5.75-32.18,32.09v6.66c0,29.79,18.27,33,35.66,33h26.74c15,0,30.55-5.3,30.55-24v-6.17H287.8v1.65c0,6.36-6.65,8.06-14.05,8.06H260.41c-8.23,0-14-2.78-14-11.77V226.3c0-7.65,5.27-10.67,16.2-10.67h10c11.46,0,15.14,2.66,15.14,9.73h25.41v-6.31C313.21,203.11,301.36,196,282,196Z"/><rect class="cls-1" x="184.37" y="197.11" width="26.19" height="69.57"/><path class="cls-1" d="M412,237.73V226c0-24.14-11.54-30-39.41-30H354.29c-19,0-32.23,5.75-32.23,32.09v6.66c0,29.79,18.31,33,35.74,33h19.58c19,0,34.58-3.79,34.58-21.25v-3.05H387.33c0,4.11-.66,7.94-14.84,7.94h-8.08c-10.91,0-16.17-2-16.17-9.43v-4.25Zm-44.49-25.35c15.26,0,19,1.52,19,9.82H348.24C348.24,213.9,350.35,212.38,367.47,212.38Z"/><path class="cls-1" d="M49.76,303.33h-.1l-4.55,25.76h-5l8-40.66,13.4,30.73,13.39-30.73,8,40.66h-5l-4.55-25.76h-.1L61.46,329.92Z"/><path class="cls-1" d="M93.73,319.31l-4.45,9.78H84.06l18.62-40.66,18.63,40.66h-5.23l-4.45-9.78Zm9-20.23-6.93,15.78h13.86Z"/><path class="cls-1" d="M125.18,290.08h8.07c11.95,0,21.89,6.31,21.89,19.3,0,13.3-9.73,19.71-22,19.71h-7.92ZM130,324.64h1.71c9.93,0,18.52-3.72,18.52-15.05s-8.59-15.06-18.52-15.06H130Z"/><path class="cls-1" d="M161,290.08H182v4.45H165.89v10.92h15.62v4.45H165.89v14.74H182v4.45H161Z"/><path class="cls-1" d="M243.12,309.59a20.44,20.44,0,0,1-40.87,0,20.44,20.44,0,0,1,40.87,0Zm-4.86,0c0-8.59-6.42-15.78-15.57-15.78s-15.58,7.19-15.58,15.78a15.58,15.58,0,1,0,31.15,0Z"/><path class="cls-1" d="M253.67,294.53v11h13.55V310H253.67v19.14h-4.86v-39h18.88v4.45Z"/><path class="cls-1" d="M318.8,297.53a15.81,15.81,0,0,0-10.3-3.83c-8.74,0-15.42,7.3-15.42,15.94s6.63,15.83,15.32,15.83a15.6,15.6,0,0,0,10.4-4v5.75a21.08,21.08,0,0,1-10.25,2.74,20.2,20.2,0,0,1-20.33-20.13A20.51,20.51,0,0,1,309,289.25a18.84,18.84,0,0,1,9.83,2.64Z"/><path class="cls-1" d="M363.75,309.59a20.44,20.44,0,0,1-40.87,0,20.44,20.44,0,0,1,40.87,0Zm-4.86,0c0-8.59-6.42-15.78-15.58-15.78s-15.57,7.19-15.57,15.78a15.58,15.58,0,1,0,31.15,0Z"/><path class="cls-1" d="M407.61,309.59a20.44,20.44,0,0,1-40.87,0,20.44,20.44,0,0,1,40.87,0Zm-4.86,0c0-8.59-6.41-15.78-15.57-15.78s-15.57,7.19-15.57,15.78a15.57,15.57,0,1,0,31.14,0Z"/><path class="cls-1" d="M418.21,324.64h11.85v4.45H413.35v-39h4.86Z"/><path class="cls-1" d="M433.83,288.22l29.29,30.68V290.08H468v40.61L438.7,300v29.07h-4.87Z"/><path class="cls-1" d="M475.94,290.08h20.95v4.45H480.8v10.92h15.63v4.45H480.8v14.74h16.09v4.45H475.94Z"/><path class="cls-1" d="M521.25,297.48a6.67,6.67,0,0,0-6.26-3.67c-3.1,0-6.52,2.12-6.52,5.53,0,3.05,3,4.66,5.44,5.59L516.7,306c5.54,2.17,9.68,5.22,9.68,11.74,0,7.09-5.49,12.16-12.47,12.16A12.17,12.17,0,0,1,501.85,319l4.92-1a7.37,7.37,0,1,0,14.74-.21c0-4.19-3.36-6-6.72-7.4l-2.69-1.14c-4.45-1.91-8.49-4.45-8.49-9.88,0-6.31,5.59-10.09,11.49-10.09a11.14,11.14,0,0,1,10,5.9Z"/><path class="cls-1" d="M550.07,297.48a6.7,6.7,0,0,0-6.27-3.67c-3.1,0-6.51,2.12-6.51,5.53,0,3.05,3,4.66,5.43,5.59l2.79,1.09c5.54,2.17,9.68,5.22,9.68,11.74,0,7.09-5.49,12.16-12.47,12.16A12.17,12.17,0,0,1,530.66,319l4.92-1a7.37,7.37,0,1,0,14.74-.21c0-4.19-3.36-6-6.72-7.4l-2.69-1.14c-4.45-1.91-8.49-4.45-8.49-9.88,0-6.31,5.59-10.09,11.49-10.09a11.16,11.16,0,0,1,10,5.9Z"/></svg>