<svg id="Livello_1" data-name="Livello 1" xmlns="http://www.w3.org/2000/svg" viewBox="0 0 320.34 50"><defs><style>.cls-1{fill:#fff;}</style></defs><path class="cls-1" d="M112.15,19.74v-.08c2-.59,2.43-.88,2.43-3.34,0-3.21-1.23-4-6.4-4h-3c-5.46,0-7.34.42-7.34,4.33v.78H102v-.6c0-1.07.42-1.38,1.89-1.38h4.39c1.36,0,2,.28,2,1.4s-.25,1.4-1.7,1.4h-4.15v3h4.56c1.37,0,1.62.43,1.62,1.4S110.53,24,109.13,24h-5.3c-1.55,0-1.92-.31-1.92-1.54v-.63H97.69V23.4c0,3,2.19,3.75,4.76,3.75h7.42c4,0,5-1.11,5-4C114.9,20.86,114.52,20.13,112.15,19.74Z"/><path class="cls-1" d="M47.94,12.31H37.5c-6.74,0-11.38,2-11.38,11.34V26c0,10.53,6.46,11.68,12.61,11.68h9.46c5.3,0,10.8-1.87,10.8-8.48V27H50v.58c0,2.25-2.36,2.86-5,2.86H40.32c-2.91,0-4.94-1-4.94-4.17V23c0-2.7,1.86-3.77,5.72-3.77h3.55c4.05,0,5.36.94,5.36,3.44h9V20.46C59,14.83,54.8,12.31,47.94,12.31Z"/><rect class="cls-1" x="13.43" y="12.71" width="9.26" height="24.6"/><path class="cls-1" d="M93.9,27.07V22.93c0-8.53-4.08-10.62-13.93-10.62H73.51c-6.73,0-11.39,2-11.39,11.34V26c0,10.53,6.47,11.68,12.63,11.68h6.93c6.71,0,12.22-1.34,12.22-7.51V29.1H85.2c0,1.45-.24,2.81-5.25,2.81H77.09c-3.86,0-5.71-.73-5.71-3.34v-1.5Zm-15.73-9c5.4,0,6.74.54,6.74,3.48H71.38C71.38,18.64,72.12,18.1,78.17,18.1Z"/><path class="cls-1" d="M126.92,27.48h0l-1.62,9.17h-1.79l2.84-14.48,4.77,10.94,4.77-10.94,2.84,14.48H136.9l-1.62-9.17h0L131.08,37Z"/><path class="cls-1" d="M142.58,33.17,141,36.65h-1.86l6.63-14.48,6.64,14.48h-1.86L149,33.17ZM145.76,26l-2.46,5.62h4.93Z"/><path class="cls-1" d="M153.78,22.76h2.87c4.26,0,7.79,2.25,7.79,6.87s-3.46,7-7.84,7h-2.82Zm1.73,12.31h.61c3.53,0,6.59-1.33,6.59-5.37s-3.06-5.36-6.59-5.36h-.61Z"/><path class="cls-1" d="M166.54,22.76H174v1.58h-5.73v3.89h5.57v1.59h-5.57v5.25H174v1.58h-7.46Z"/><path class="cls-1" d="M195.78,29.7a7.28,7.28,0,0,1-14.56,0,7.28,7.28,0,0,1,14.56,0Zm-1.73,0a5.55,5.55,0,1,0-11.09,0,5.55,5.55,0,1,0,11.09,0Z"/><path class="cls-1" d="M199.53,24.34v3.91h4.83v1.58h-4.83v6.82H197.8V22.76h6.73v1.58Z"/><path class="cls-1" d="M222.73,25.41a5.65,5.65,0,0,0-3.67-1.36,5.66,5.66,0,1,0,3.67,9.87v2a7.48,7.48,0,0,1-3.65,1,7.2,7.2,0,0,1-7.24-7.17,7.31,7.31,0,0,1,7.39-7.32,6.76,6.76,0,0,1,3.5.94Z"/><path class="cls-1" d="M238.74,29.7a7.28,7.28,0,0,1-14.56,0,7.28,7.28,0,0,1,14.56,0Zm-1.73,0a5.55,5.55,0,1,0-11.1,0,5.55,5.55,0,1,0,11.1,0Z"/><path class="cls-1" d="M254.36,29.7a7.28,7.28,0,0,1-14.56,0,7.28,7.28,0,0,1,14.56,0Zm-1.73,0a5.55,5.55,0,1,0-11.1,0,5.55,5.55,0,1,0,11.1,0Z"/><path class="cls-1" d="M258.13,35.07h4.22v1.58h-6V22.76h1.73Z"/><path class="cls-1" d="M263.7,22.1,274.12,33V22.76h1.74V37.22L265.43,26.3V36.65H263.7Z"/><path class="cls-1" d="M278.69,22.76h7.46v1.58h-5.73v3.89H286v1.59h-5.57v5.25h5.73v1.58h-7.46Z"/><path class="cls-1" d="M294.83,25.39a2.39,2.39,0,0,0-2.23-1.3,2.18,2.18,0,0,0-2.32,2c0,1.08,1.07,1.65,1.93,2l1,.38c2,.78,3.44,1.86,3.44,4.19a4.38,4.38,0,0,1-8.73.44l1.75-.37a2.63,2.63,0,1,0,5.25-.07c0-1.5-1.2-2.14-2.4-2.64l-.95-.4c-1.59-.69-3-1.59-3-3.52,0-2.25,2-3.6,4.09-3.6a4,4,0,0,1,3.57,2.1Z"/><path class="cls-1" d="M305.09,25.39a2.39,2.39,0,0,0-2.23-1.3,2.18,2.18,0,0,0-2.32,2c0,1.08,1.07,1.65,1.93,2l1,.38c2,.78,3.44,1.86,3.44,4.19a4.38,4.38,0,0,1-8.73.44l1.75-.37a2.63,2.63,0,1,0,5.25-.07c0-1.5-1.2-2.14-2.39-2.64l-1-.4c-1.59-.69-3-1.59-3-3.52,0-2.25,2-3.6,4.09-3.6a4,4,0,0,1,3.57,2.1Z"/></svg>