<?xml version="1.0" encoding="utf-8"?>
<!-- Generator: Adobe Illustrator 24.1.2, SVG Export Plug-In . SVG Version: 6.00 Build 0)  -->
<svg version="1.1" id="Livello_1" xmlns="http://www.w3.org/2000/svg" xmlns:xlink="http://www.w3.org/1999/xlink" x="0px" y="0px"
	 viewBox="0 0 622.3 99.7" style="enable-background:new 0 0 622.3 99.7;" xml:space="preserve">
<style type="text/css">
	.st0{fill:#FFFFFF;}
</style>
<g>
	<path class="st0" d="M11.7,33.1v5.1H0.4V25.5c6.5-2.1,14.1-3.2,21.8-3.2c7.8,0,15.5,1.1,22,3.2v49.8c-6.5,2.2-14.4,3.3-22.2,3.3
		c-7.6,0-15.5-1.1-22-3.3v-29h32.9V33.1c-2.9-0.5-6.6-0.8-10.7-0.8C18.4,32.3,14.6,32.6,11.7,33.1z M32.9,55.4H11.3v12.4
		c2.9,0.6,6.8,0.9,10.7,0.9c4,0,8-0.3,10.9-0.9L32.9,55.4L32.9,55.4z"/>
	<path class="st0" d="M54.1,23.1H95v7.7L67.3,67.3c4.7-0.3,8.8-0.4,12.5-0.4h16.4v10.9H52v-8.1l27.8-37.1c-4.3,0.4-8.6,0.6-12.9,0.6
		H54.1L54.1,23.1L54.1,23.1z"/>
	<path class="st0" d="M114.1,13.7h-11.3V0h11.3V13.7z M114.1,77.8h-11.3V23.1h11.3V77.8z"/>
	<path class="st0" d="M156.5,67.8v-5.2h11.3v12.8c-6.5,2.2-14.4,3.3-22.1,3.3c-7.7,0-15.6-1.1-22.1-3.3V25.5
		c6.5-2.1,14.4-3.2,22.1-3.2s15.6,1.1,22.1,3.2v27.9h-32.9v14.3c2.9,0.6,6.8,0.9,10.8,0.9C149.6,68.7,153.6,68.4,156.5,67.8z
		 M134.9,44.4h21.6V33.1c-2.9-0.5-6.8-0.8-10.8-0.8c-3.9,0-7.9,0.3-10.8,0.8L134.9,44.4L134.9,44.4z"/>
	<path class="st0" d="M188.7,33.1v44.6h-11.3V25.5c6.5-2.1,14.4-3.2,22.1-3.2c7.7,0,15.6,1.1,22.1,3.2v52.2h-11.3V33.1
		c-2.9-0.5-6.8-0.8-10.8-0.8C195.6,32.3,191.6,32.6,188.7,33.1z"/>
	<path class="st0" d="M264,0h11.3v75.4c-6.5,2.2-14.4,3.3-22.2,3.3c-7.6,0-15.5-1.1-22-3.3V25.5c6.5-2.1,14.4-3.2,22-3.2
		c3.9,0,7.5,0.2,10.9,0.6L264,0L264,0z M264,67.8V33.1c-2.9-0.5-6.8-0.8-10.9-0.8c-3.8,0-7.8,0.3-10.7,0.8v34.6
		c2.9,0.6,6.8,0.9,10.7,0.9C257.1,68.7,261.1,68.4,264,67.8z"/>
	<path class="st0" d="M296.5,33.1v5.1h-11.3V25.5c6.5-2.1,14.1-3.2,21.8-3.2c7.8,0,15.5,1.1,22,3.2v49.8c-6.5,2.2-14.4,3.3-22.2,3.3
		c-7.6,0-15.5-1.1-22-3.3v-29h32.9V33.1c-2.9-0.5-6.6-0.8-10.7-0.8C303.2,32.3,299.4,32.6,296.5,33.1z M317.8,55.4h-21.6v12.4
		c2.9,0.6,6.8,0.9,10.7,0.9c4,0,8-0.3,10.9-0.9V55.4z"/>
</g>
<g>
	<path class="st0" d="M338.6,99.7V25.5c6.5-2.1,14.4-3.2,22.1-3.2c7.7,0,15.6,1.1,22.1,3.2v49.8c-6.5,2.2-14.4,3.3-22.1,3.3
		c-3.8,0-7.4-0.2-10.8-0.6v21.6L338.6,99.7L338.6,99.7z M371.5,67.8V33.1c-2.9-0.5-6.8-0.8-10.8-0.8c-3.9,0-7.9,0.3-10.8,0.8v34.6
		c2.9,0.6,6.8,0.9,10.8,0.9C364.6,68.7,368.6,68.4,371.5,67.8z"/>
	<path class="st0" d="M419.9,32.3h-6.3c-3.4,0-7.1,0.5-10,2.2v43.2h-11.3V27.6c6.5-3.8,14.4-5.3,21.5-5.3h6.1L419.9,32.3L419.9,32.3
		z"/>
	<path class="st0" d="M437.7,33.1v5.1h-11.3V25.5c6.5-2.1,14.1-3.2,21.8-3.2c7.8,0,15.5,1.1,22,3.2v49.8c-6.5,2.2-14.4,3.3-22.2,3.3
		c-7.6,0-15.5-1.1-22-3.3v-29h32.9V33.1c-2.9-0.5-6.6-0.8-10.7-0.8C444.4,32.3,440.6,32.6,437.7,33.1z M458.9,55.4h-21.6v12.4
		c2.9,0.6,6.8,0.9,10.7,0.9c4,0,8-0.3,10.9-0.9V55.4z"/>
	<path class="st0" d="M498.9,77.8h-2.3c-7.1,0-12.4-1.3-17.5-4.7V32.1h-4.4v-9h4.4V8h11.3v15.1h8.5v9h-8.5v34.6c1.9,0.9,3.5,1,6,1
		h2.5L498.9,77.8L498.9,77.8z"/>
	<path class="st0" d="M516.4,13.7h-11.3V0h11.3V13.7z M516.4,77.8h-11.3V23.1h11.3V77.8z"/>
	<path class="st0" d="M558.9,67.8v-5.2h11.3v12.8c-6.5,2.2-14.4,3.3-22.1,3.3c-7.7,0-15.6-1.1-22.1-3.3V25.5
		c6.5-2.1,14.2-3.2,22-3.2c7.6,0,15.3,1.1,21.8,3.2v12.6h-11.3v-5c-2.9-0.5-6.6-0.8-10.5-0.8c-4,0-7.8,0.3-10.7,0.8v34.6
		c2.9,0.6,6.8,0.9,10.8,0.9C552,68.7,556,68.4,558.9,67.8z"/>
	<path class="st0" d="M590.7,33.1v5.1h-11.3V25.5c6.5-2.1,14.1-3.2,21.8-3.2c7.8,0,15.5,1.1,22,3.2v49.8c-6.5,2.2-14.4,3.3-22.2,3.3
		c-7.6,0-15.5-1.1-22-3.3v-29h32.9V33.1c-2.9-0.5-6.6-0.8-10.7-0.8C597.4,32.3,593.6,32.6,590.7,33.1z M611.9,55.4h-21.6v12.4
		c2.9,0.6,6.8,0.9,10.7,0.9c4,0,8-0.3,10.9-0.9L611.9,55.4L611.9,55.4z"/>
</g>
<g>
	<g>
		<path class="st0" d="M368.2,95.6c0,1.3-0.5,2.4-1.5,3.2c-1,0.8-2.3,1.2-4,1.2c-1.6,0-3-0.3-4.2-0.9v-2.9c1,0.4,1.8,0.8,2.5,0.9
			c0.7,0.2,1.3,0.3,1.9,0.3c0.7,0,1.2-0.1,1.6-0.4c0.4-0.3,0.5-0.7,0.5-1.2c0-0.3-0.1-0.6-0.2-0.8c-0.2-0.2-0.4-0.4-0.7-0.7
			s-1-0.6-1.9-1c-0.9-0.4-1.6-0.8-2-1.2s-0.8-0.9-1.1-1.4c-0.3-0.5-0.4-1.1-0.4-1.8c0-1.3,0.5-2.4,1.3-3.1c0.9-0.8,2.1-1.1,3.7-1.1
			c0.8,0,1.5,0.1,2.2,0.3c0.7,0.2,1.4,0.4,2.2,0.8l-1,2.4c-0.8-0.3-1.5-0.6-2-0.7c-0.5-0.1-1-0.2-1.5-0.2c-0.6,0-1,0.1-1.4,0.4
			s-0.5,0.6-0.5,1.1c0,0.3,0.1,0.5,0.2,0.7c0.1,0.2,0.3,0.4,0.6,0.6c0.3,0.2,1,0.5,2,1c1.4,0.7,2.3,1.3,2.9,2
			C367.9,93.8,368.2,94.6,368.2,95.6z"/>
		<path class="st0" d="M385.2,92.2c0,2.5-0.6,4.4-1.8,5.7c-1.2,1.3-3,2-5.2,2c-2.3,0-4-0.7-5.2-2c-1.2-1.3-1.8-3.2-1.8-5.7
			s0.6-4.4,1.8-5.7c1.2-1.3,3-2,5.3-2c2.3,0,4,0.7,5.2,2C384.6,87.9,385.2,89.8,385.2,92.2z M374.3,92.2c0,1.7,0.3,2.9,0.9,3.8
			s1.6,1.3,2.8,1.3c2.5,0,3.8-1.7,3.8-5c0-3.4-1.2-5-3.8-5c-1.2,0-2.2,0.4-2.8,1.3C374.7,89.3,374.3,90.6,374.3,92.2z"/>
		<path class="st0" d="M392.2,99.7h-3.1V84.8h8.5v2.6h-5.4v3.8h5v2.6h-5V99.7L392.2,99.7z"/>
		<path class="st0" d="M407,99.7h-3.2V87.4h-4v-2.6h11.2v2.6h-4L407,99.7L407,99.7z"/>
		<path class="st0" d="M428.6,99.7H425l-2-7.8c-0.1-0.3-0.2-0.9-0.4-1.7s-0.3-1.5-0.3-1.8c0,0.4-0.1,0.9-0.3,1.8s-0.3,1.4-0.4,1.7
			l-2,7.8h-3.6l-3.8-14.9h3.1l1.9,8.1c0.3,1.5,0.6,2.8,0.7,3.9c0-0.4,0.1-1,0.3-1.8s0.3-1.4,0.4-1.9l2.2-8.3h3l2.2,8.3
			c0.1,0.4,0.2,0.9,0.4,1.7c0.1,0.8,0.2,1.4,0.3,2c0.1-0.5,0.2-1.2,0.3-2s0.3-1.4,0.4-1.9l1.9-8.1h3.1L428.6,99.7z"/>
		<path class="st0" d="M444.2,99.7l-1.1-3.5h-5.4l-1.1,3.5h-3.4l5.2-14.9h3.8l5.3,14.9H444.2z M442.4,93.5c-1-3.2-1.6-5-1.7-5.4
			s-0.2-0.8-0.3-1c-0.2,0.9-0.9,3-1.9,6.4L442.4,93.5L442.4,93.5z"/>
		<path class="st0" d="M453.4,94v5.7h-3.2V84.8h4.3c2,0,3.5,0.4,4.5,1.1c1,0.7,1.5,1.9,1.5,3.4c0,0.9-0.2,1.6-0.7,2.3
			c-0.5,0.7-1.2,1.2-2,1.6c2.2,3.3,3.7,5.5,4.4,6.5h-3.5l-3.5-5.7L453.4,94L453.4,94z M453.4,91.4h1c1,0,1.7-0.2,2.2-0.5
			c0.5-0.3,0.7-0.9,0.7-1.6c0-0.7-0.2-1.2-0.7-1.5c-0.5-0.3-1.2-0.4-2.2-0.4h-1L453.4,91.4L453.4,91.4z"/>
		<path class="st0" d="M473.4,99.7h-8.6V84.8h8.6v2.6H468v3.3h5v2.6h-5v3.8h5.4V99.7z"/>
		<path class="st0" d="M495.4,91.3h5.9V99c-1,0.3-1.8,0.5-2.7,0.7c-0.8,0.1-1.7,0.2-2.6,0.2c-2.2,0-4-0.7-5.1-2
			c-1.2-1.3-1.8-3.2-1.8-5.7c0-2.4,0.7-4.3,2.1-5.6s3.3-2,5.7-2c1.5,0,3,0.3,4.4,0.9l-1,2.5c-1.1-0.5-2.2-0.8-3.4-0.8
			c-1.4,0-2.5,0.5-3.3,1.4c-0.8,0.9-1.2,2.1-1.2,3.7c0,1.6,0.3,2.8,1,3.7s1.6,1.3,2.9,1.3c0.7,0,1.3-0.1,2-0.2V94h-2.8L495.4,91.3
			L495.4,91.3z"/>
		<path class="st0" d="M514.2,99.7h-8.6V84.8h8.6v2.6h-5.4v3.3h5v2.6h-5v3.8h5.4V99.7z"/>
		<path class="st0" d="M526.9,95.6c0,1.3-0.5,2.4-1.5,3.2c-1,0.8-2.3,1.2-4,1.2c-1.6,0-3-0.3-4.2-0.9v-2.9c1,0.4,1.8,0.8,2.5,0.9
			c0.7,0.2,1.3,0.3,1.9,0.3c0.7,0,1.2-0.1,1.6-0.4c0.4-0.3,0.5-0.7,0.5-1.2c0-0.3-0.1-0.6-0.2-0.8s-0.4-0.4-0.7-0.7
			c-0.3-0.2-1-0.6-1.9-1c-0.9-0.4-1.6-0.8-2-1.2c-0.5-0.4-0.8-0.9-1.1-1.4c-0.3-0.5-0.4-1.1-0.4-1.8c0-1.3,0.5-2.4,1.3-3.1
			s2.1-1.1,3.7-1.1c0.8,0,1.5,0.1,2.2,0.3c0.7,0.2,1.4,0.4,2.2,0.8l-1,2.4c-0.8-0.3-1.5-0.6-2-0.7c-0.5-0.1-1-0.2-1.5-0.2
			c-0.6,0-1,0.1-1.4,0.4s-0.5,0.6-0.5,1.1c0,0.3,0.1,0.5,0.2,0.7c0.1,0.2,0.3,0.4,0.6,0.6c0.3,0.2,1,0.5,2,1c1.4,0.7,2.3,1.3,2.9,2
			C526.6,93.8,526.9,94.6,526.9,95.6z"/>
		<path class="st0" d="M536.1,99.7h-3.2V87.4h-4v-2.6h11.2v2.6h-4L536.1,99.7L536.1,99.7z"/>
		<path class="st0" d="M543.2,99.7V84.8h3.2v14.9H543.2z"/>
		<path class="st0" d="M564.4,92.2c0,2.5-0.6,4.4-1.8,5.7c-1.2,1.3-3,2-5.2,2c-2.3,0-4-0.7-5.2-2c-1.2-1.3-1.8-3.2-1.8-5.7
			s0.6-4.4,1.8-5.7c1.2-1.3,3-2,5.3-2s4,0.7,5.2,2C563.8,87.9,564.4,89.8,564.4,92.2z M553.6,92.2c0,1.7,0.3,2.9,0.9,3.8
			s1.6,1.3,2.8,1.3c2.5,0,3.8-1.7,3.8-5c0-3.4-1.2-5-3.8-5c-1.2,0-2.2,0.4-2.8,1.3C553.9,89.3,553.6,90.6,553.6,92.2z"/>
		<path class="st0" d="M581.5,99.7h-4L571,88.4h-0.1c0.1,2,0.2,3.4,0.2,4.2v7h-2.8V84.8h4l6.5,11.1h0.1c-0.1-1.9-0.2-3.3-0.2-4.1v-7
			h2.8L581.5,99.7L581.5,99.7z"/>
		<path class="st0" d="M595.1,99.7l-1.1-3.5h-5.4l-1.1,3.5h-3.4l5.2-14.9h3.8l5.3,14.9H595.1z M593.3,93.5c-1-3.2-1.6-5-1.7-5.4
			s-0.2-0.8-0.3-1c-0.2,0.9-0.9,3-1.9,6.4L593.3,93.5L593.3,93.5z"/>
		<path class="st0" d="M601.2,99.7V84.8h3.2v12.3h6v2.6H601.2z"/>
		<path class="st0" d="M622.3,99.7h-8.6V84.8h8.6v2.6h-5.4v3.3h5v2.6h-5v3.8h5.4V99.7z"/>
	</g>
</g>
</svg>
