<?xml version="1.0" encoding="utf-8"?>
<!-- Generator: Adobe Illustrator 24.1.2, SVG Export Plug-In . SVG Version: 6.00 Build 0)  -->
<svg version="1.1" id="Livello_1" xmlns="http://www.w3.org/2000/svg" xmlns:xlink="http://www.w3.org/1999/xlink" x="0px" y="0px"
	 viewBox="0 0 622.3 598" style="enable-background:new 0 0 622.3 598;" xml:space="preserve">
<style type="text/css">
	.st0{fill:url(#SVGID_1_);}
	.st1{fill:url(#SVGID_2_);}
	.st2{fill:url(#SVGID_3_);}
	.st3{fill:url(#SVGID_4_);}
	.st4{fill:url(#SVGID_5_);}
	.st5{fill:url(#SVGID_6_);}
	.st6{fill:url(#SVGID_7_);}
	.st7{fill:url(#SVGID_8_);}
	.st8{fill:url(#SVGID_9_);}
	.st9{fill:url(#SVGID_10_);}
	.st10{fill:url(#SVGID_11_);}
	.st11{fill:url(#SVGID_12_);}
	.st12{fill:url(#SVGID_13_);}
	.st13{fill:url(#SVGID_14_);}
	.st14{fill:#54565A;}
	.st15{fill:url(#SVGID_15_);}
	.st16{fill:url(#SVGID_16_);}
	.st17{fill:url(#SVGID_17_);}
	.st18{opacity:0.2;enable-background:new    ;}
	.st19{fill:url(#SVGID_18_);}
	.st20{fill:none;}
</style>
<g>
	
		<radialGradient id="SVGID_1_" cx="22.115" cy="48.2756" r="25.3241" gradientTransform="matrix(1 0 0 -1 0 597.0756)" gradientUnits="userSpaceOnUse">
		<stop  offset="0" style="stop-color:#005D95"/>
		<stop  offset="1" style="stop-color:#005D95"/>
	</radialGradient>
	<path class="st0" d="M11.7,531.4v5.1H0.4v-12.7c6.5-2.1,14.1-3.2,21.8-3.2c7.8,0,15.5,1.1,22,3.2v49.8c-6.5,2.2-14.4,3.3-22.2,3.3
		c-7.6,0-15.5-1.1-22-3.3v-29h32.9v-13.2c-2.9-0.5-6.6-0.8-10.7-0.8C18.4,530.6,14.6,530.9,11.7,531.4z M32.9,553.7H11.3v12.4
		c2.9,0.6,6.8,0.9,10.7,0.9c4,0,8-0.3,10.9-0.9L32.9,553.7L32.9,553.7z"/>
	
		<radialGradient id="SVGID_2_" cx="74.14" cy="48.3206" r="24.8591" gradientTransform="matrix(1 0 0 -1 0 597.0756)" gradientUnits="userSpaceOnUse">
		<stop  offset="0" style="stop-color:#005D95"/>
		<stop  offset="1" style="stop-color:#005D95"/>
	</radialGradient>
	<path class="st1" d="M54.1,521.4H95v7.7l-27.6,36.4c4.7-0.3,8.8-0.4,12.5-0.4h16.4v10.9H52V568l27.8-37.1
		c-4.3,0.4-8.6,0.6-12.9,0.6H54.1L54.1,521.4L54.1,521.4z"/>
	
		<radialGradient id="SVGID_3_" cx="108.435" cy="59.8756" r="27.7816" gradientTransform="matrix(1 0 0 -1 0 597.0756)" gradientUnits="userSpaceOnUse">
		<stop  offset="0" style="stop-color:#005D95"/>
		<stop  offset="1" style="stop-color:#005D95"/>
	</radialGradient>
	<path class="st2" d="M114.1,512h-11.3v-13.7h11.3V512z M114.1,576.1h-11.3v-54.6h11.3V576.1z"/>
	
		<radialGradient id="SVGID_4_" cx="145.71" cy="48.2656" r="25.3263" gradientTransform="matrix(1 0 0 -1 0 597.0756)" gradientUnits="userSpaceOnUse">
		<stop  offset="0" style="stop-color:#005D95"/>
		<stop  offset="1" style="stop-color:#005D95"/>
	</radialGradient>
	<path class="st3" d="M156.5,566.1v-5.2h11.3v12.8c-6.5,2.2-14.4,3.3-22.1,3.3c-7.7,0-15.6-1.1-22.1-3.3v-49.8
		c6.5-2.1,14.4-3.2,22.1-3.2s15.6,1.1,22.1,3.2v27.9h-32.9v14.3c2.9,0.6,6.8,0.9,10.8,0.9C149.6,567,153.6,566.7,156.5,566.1z
		 M134.9,542.8h21.6v-11.3c-2.9-0.5-6.8-0.8-10.8-0.8c-3.9,0-7.9,0.3-10.8,0.8L134.9,542.8L134.9,542.8z"/>
	
		<radialGradient id="SVGID_5_" cx="199.46" cy="48.7256" r="25.0768" gradientTransform="matrix(1 0 0 -1 0 597.0756)" gradientUnits="userSpaceOnUse">
		<stop  offset="0" style="stop-color:#005D95"/>
		<stop  offset="1" style="stop-color:#005D95"/>
	</radialGradient>
	<path class="st4" d="M188.7,531.4v44.6h-11.3v-52.2c6.5-2.1,14.4-3.2,22.1-3.2c7.7,0,15.6,1.1,22.1,3.2v52.2h-11.3v-44.6
		c-2.9-0.5-6.8-0.8-10.8-0.8C195.6,530.6,191.6,530.9,188.7,531.4z"/>
	
		<radialGradient id="SVGID_6_" cx="253.205" cy="59.4256" r="31.9055" gradientTransform="matrix(1 0 0 -1 0 597.0756)" gradientUnits="userSpaceOnUse">
		<stop  offset="0" style="stop-color:#005D95"/>
		<stop  offset="1" style="stop-color:#005D95"/>
	</radialGradient>
	<path class="st5" d="M264,498.3h11.3v75.4c-6.5,2.2-14.4,3.3-22.2,3.3c-7.6,0-15.5-1.1-22-3.3v-49.8c6.5-2.1,14.4-3.2,22-3.2
		c3.9,0,7.5,0.2,10.9,0.6L264,498.3L264,498.3z M264,566.1v-34.6c-2.9-0.5-6.8-0.8-10.9-0.8c-3.8,0-7.8,0.3-10.7,0.8v34.6
		c2.9,0.6,6.8,0.9,10.7,0.9C257.1,567,261.1,566.7,264,566.1z"/>
	
		<radialGradient id="SVGID_7_" cx="306.95" cy="48.2756" r="25.3263" gradientTransform="matrix(1 0 0 -1 0 597.0756)" gradientUnits="userSpaceOnUse">
		<stop  offset="0" style="stop-color:#005D95"/>
		<stop  offset="1" style="stop-color:#005D95"/>
	</radialGradient>
	<path class="st6" d="M296.5,531.4v5.1h-11.3v-12.7c6.5-2.1,14.1-3.2,21.8-3.2c7.8,0,15.5,1.1,22,3.2v49.8
		c-6.5,2.2-14.4,3.3-22.2,3.3c-7.6,0-15.5-1.1-22-3.3v-29h32.9v-13.2c-2.9-0.5-6.6-0.8-10.7-0.8
		C303.2,530.6,299.4,530.9,296.5,531.4z M317.8,553.7h-21.6v12.4c2.9,0.6,6.8,0.9,10.7,0.9c4,0,8-0.3,10.9-0.9V553.7z"/>
</g>
<g>
	
		<radialGradient id="SVGID_8_" cx="360.7" cy="37.7556" r="31.5074" gradientTransform="matrix(1 0 0 -1 0 597.0756)" gradientUnits="userSpaceOnUse">
		<stop  offset="0" style="stop-color:#2A642C"/>
		<stop  offset="1" style="stop-color:#2A642C"/>
	</radialGradient>
	<path class="st7" d="M338.6,598v-74.2c6.5-2.1,14.4-3.2,22.1-3.2c7.7,0,15.6,1.1,22.1,3.2v49.8c-6.5,2.2-14.4,3.3-22.1,3.3
		c-3.8,0-7.4-0.2-10.8-0.6V598L338.6,598L338.6,598z M371.5,566.1v-34.6c-2.9-0.5-6.8-0.8-10.8-0.8c-3.9,0-7.9,0.3-10.8,0.8v34.6
		c2.9,0.6,6.8,0.9,10.8,0.9C364.6,567,368.6,566.7,371.5,566.1z"/>
	
		<radialGradient id="SVGID_9_" cx="406.125" cy="48.7256" r="21.9004" gradientTransform="matrix(1 0 0 -1 0 597.0756)" gradientUnits="userSpaceOnUse">
		<stop  offset="0" style="stop-color:#2A642C"/>
		<stop  offset="1" style="stop-color:#2A642C"/>
	</radialGradient>
	<path class="st8" d="M419.9,530.6h-6.3c-3.4,0-7.1,0.5-10,2.2v43.2h-11.3v-50.1c6.5-3.8,14.4-5.3,21.5-5.3h6.1L419.9,530.6
		L419.9,530.6z"/>
	
		<radialGradient id="SVGID_10_" cx="448.0751" cy="48.2756" r="25.3241" gradientTransform="matrix(1 0 0 -1 0 597.0756)" gradientUnits="userSpaceOnUse">
		<stop  offset="0" style="stop-color:#2A642C"/>
		<stop  offset="1" style="stop-color:#2A642C"/>
	</radialGradient>
	<path class="st9" d="M437.7,531.4v5.1h-11.3v-12.7c6.5-2.1,14.1-3.2,21.8-3.2c7.8,0,15.5,1.1,22,3.2v49.8
		c-6.5,2.2-14.4,3.3-22.2,3.3c-7.6,0-15.5-1.1-22-3.3v-29h32.9v-13.2c-2.9-0.5-6.6-0.8-10.7-0.8
		C444.4,530.6,440.6,530.9,437.7,531.4z M458.9,553.7h-21.6v12.4c2.9,0.6,6.8,0.9,10.7,0.9c4,0,8-0.3,10.9-0.9V553.7z"/>
	
		<radialGradient id="SVGID_11_" cx="486.81" cy="55.8706" r="26.1048" gradientTransform="matrix(1 0 0 -1 0 597.0756)" gradientUnits="userSpaceOnUse">
		<stop  offset="0" style="stop-color:#2A642C"/>
		<stop  offset="1" style="stop-color:#2A642C"/>
	</radialGradient>
	<path class="st10" d="M498.9,576.1h-2.3c-7.1,0-12.4-1.3-17.5-4.7v-40.9h-4.4v-9h4.4v-15.1h11.3v15.1h8.5v9h-8.5v34.6
		c1.9,0.9,3.5,1,6,1h2.5L498.9,576.1L498.9,576.1z"/>
	
		<radialGradient id="SVGID_12_" cx="510.775" cy="59.8756" r="27.7816" gradientTransform="matrix(1 0 0 -1 0 597.0756)" gradientUnits="userSpaceOnUse">
		<stop  offset="0" style="stop-color:#2A642C"/>
		<stop  offset="1" style="stop-color:#2A642C"/>
	</radialGradient>
	<path class="st11" d="M516.4,512h-11.3v-13.7h11.3V512z M516.4,576.1h-11.3v-54.6h11.3V576.1z"/>
	
		<radialGradient id="SVGID_13_" cx="548.05" cy="48.2656" r="25.3263" gradientTransform="matrix(1 0 0 -1 0 597.0756)" gradientUnits="userSpaceOnUse">
		<stop  offset="0" style="stop-color:#2A642C"/>
		<stop  offset="1" style="stop-color:#2A642C"/>
	</radialGradient>
	<path class="st12" d="M558.9,566.1v-5.2h11.3v12.8c-6.5,2.2-14.4,3.3-22.1,3.3c-7.7,0-15.6-1.1-22.1-3.3v-49.8
		c6.5-2.1,14.2-3.2,22-3.2c7.6,0,15.3,1.1,21.8,3.2v12.6h-11.3v-5c-2.9-0.5-6.6-0.8-10.5-0.8c-4,0-7.8,0.3-10.7,0.8v34.6
		c2.9,0.6,6.8,0.9,10.8,0.9C552,567,556,566.7,558.9,566.1z"/>
	
		<radialGradient id="SVGID_14_" cx="601.105" cy="48.2756" r="25.3241" gradientTransform="matrix(1 0 0 -1 0 597.0756)" gradientUnits="userSpaceOnUse">
		<stop  offset="0" style="stop-color:#2A642C"/>
		<stop  offset="1" style="stop-color:#2A642C"/>
	</radialGradient>
	<path class="st13" d="M590.7,531.4v5.1h-11.3v-12.7c6.5-2.1,14.1-3.2,21.8-3.2c7.8,0,15.5,1.1,22,3.2v49.8
		c-6.5,2.2-14.4,3.3-22.2,3.3c-7.6,0-15.5-1.1-22-3.3v-29h32.9v-13.2c-2.9-0.5-6.6-0.8-10.7-0.8
		C597.4,530.6,593.6,530.9,590.7,531.4z M611.9,553.7h-21.6v12.4c2.9,0.6,6.8,0.9,10.7,0.9c4,0,8-0.3,10.9-0.9L611.9,553.7
		L611.9,553.7z"/>
</g>
<g>
	<g>
		<path class="st14" d="M368.2,593.9c0,1.3-0.5,2.4-1.5,3.2c-1,0.8-2.3,1.2-4,1.2c-1.6,0-3-0.3-4.2-0.9v-2.9c1,0.5,1.8,0.8,2.5,1
			c0.7,0.2,1.3,0.3,1.9,0.3c0.7,0,1.2-0.1,1.6-0.4c0.4-0.3,0.5-0.7,0.5-1.2c0-0.3-0.1-0.5-0.2-0.8c-0.2-0.2-0.4-0.5-0.7-0.7
			c-0.3-0.2-1-0.5-1.9-1c-0.9-0.4-1.6-0.8-2-1.2c-0.5-0.4-0.8-0.8-1.1-1.4c-0.3-0.5-0.4-1.1-0.4-1.8c0-1.3,0.5-2.3,1.3-3.1
			c0.9-0.8,2.1-1.1,3.7-1.1c0.8,0,1.5,0.1,2.2,0.3s1.4,0.4,2.2,0.8l-1,2.5c-0.8-0.3-1.5-0.5-2-0.7c-0.5-0.1-1-0.2-1.5-0.2
			c-0.6,0-1,0.1-1.4,0.4c-0.3,0.3-0.5,0.6-0.5,1.1c0,0.3,0.1,0.5,0.2,0.7c0.1,0.2,0.3,0.4,0.6,0.6c0.3,0.2,1,0.5,2,1
			c1.4,0.7,2.3,1.3,2.9,2C367.9,592.1,368.2,592.9,368.2,593.9z"/>
		<path class="st14" d="M385.2,590.5c0,2.5-0.6,4.3-1.8,5.7c-1.2,1.3-3,2-5.2,2c-2.3,0-4-0.7-5.2-2c-1.2-1.3-1.8-3.2-1.8-5.7
			c0-2.5,0.6-4.4,1.8-5.7c1.2-1.3,3-2,5.3-2c2.3,0,4,0.7,5.2,2C384.6,586.2,385.2,588.1,385.2,590.5z M374.3,590.5
			c0,1.7,0.3,2.9,0.9,3.8s1.6,1.3,2.8,1.3c2.5,0,3.8-1.7,3.8-5c0-3.3-1.2-5-3.8-5c-1.2,0-2.2,0.4-2.8,1.3
			C374.7,587.6,374.3,588.9,374.3,590.5z"/>
		<path class="st14" d="M392.2,598h-3.1v-14.9h8.5v2.6h-5.4v3.8h5v2.6h-5V598L392.2,598z"/>
		<path class="st14" d="M407,598h-3.2v-12.2h-4v-2.6h11.2v2.6h-4L407,598L407,598z"/>
		<path class="st14" d="M428.6,598H425l-2-7.8c-0.1-0.3-0.2-0.8-0.4-1.7s-0.3-1.5-0.3-1.8c0,0.4-0.1,1-0.3,1.8s-0.3,1.4-0.4,1.7
			l-2,7.8h-3.6l-3.8-14.9h3.1l1.9,8.1c0.3,1.5,0.6,2.8,0.7,3.9c0-0.4,0.1-1,0.3-1.8s0.3-1.4,0.4-1.9l2.2-8.3h3l2.2,8.3
			c0.1,0.4,0.2,0.9,0.4,1.7c0.1,0.8,0.2,1.4,0.3,2c0.1-0.5,0.2-1.2,0.3-2s0.3-1.4,0.4-1.9l1.9-8.1h3.1L428.6,598z"/>
		<path class="st14" d="M444.2,598l-1.1-3.5h-5.4l-1.1,3.5h-3.4l5.2-14.9h3.8l5.3,14.9H444.2z M442.4,591.8c-1-3.2-1.6-5-1.7-5.4
			s-0.2-0.8-0.3-1c-0.2,0.9-0.9,3-1.9,6.4L442.4,591.8L442.4,591.8z"/>
		<path class="st14" d="M453.4,592.3v5.7h-3.2v-14.9h4.3c2,0,3.5,0.4,4.5,1.1c1,0.7,1.5,1.8,1.5,3.3c0,0.9-0.2,1.7-0.7,2.3
			s-1.2,1.2-2,1.6c2.2,3.3,3.7,5.5,4.4,6.5h-3.5l-3.5-5.7L453.4,592.3L453.4,592.3z M453.4,589.7h1c1,0,1.7-0.2,2.2-0.5
			c0.5-0.3,0.7-0.8,0.7-1.6c0-0.7-0.2-1.2-0.7-1.5c-0.5-0.3-1.2-0.5-2.2-0.5h-1L453.4,589.7L453.4,589.7z"/>
		<path class="st14" d="M473.4,598h-8.6v-14.9h8.6v2.6H468v3.3h5v2.6h-5v3.8h5.4V598z"/>
		<path class="st14" d="M495.4,589.7h5.9v7.7c-1,0.3-1.8,0.5-2.7,0.7c-0.8,0.1-1.7,0.2-2.6,0.2c-2.2,0-4-0.7-5.1-2s-1.8-3.2-1.8-5.7
			c0-2.4,0.7-4.3,2.1-5.6c1.4-1.3,3.3-2,5.7-2c1.5,0,3,0.3,4.4,0.9l-1,2.5c-1.1-0.5-2.2-0.8-3.4-0.8c-1.4,0-2.5,0.5-3.3,1.4
			s-1.2,2.1-1.2,3.7c0,1.6,0.3,2.8,1,3.7s1.6,1.3,2.9,1.3c0.7,0,1.3-0.1,2-0.2v-3.1h-2.8L495.4,589.7L495.4,589.7z"/>
		<path class="st14" d="M514.2,598h-8.6v-14.9h8.6v2.6h-5.4v3.3h5v2.6h-5v3.8h5.4V598z"/>
		<path class="st14" d="M526.9,593.9c0,1.3-0.5,2.4-1.5,3.2c-1,0.8-2.3,1.2-4,1.2c-1.6,0-3-0.3-4.2-0.9v-2.9c1,0.5,1.8,0.8,2.5,1
			c0.7,0.2,1.3,0.3,1.9,0.3c0.7,0,1.2-0.1,1.6-0.4c0.4-0.3,0.5-0.7,0.5-1.2c0-0.3-0.1-0.5-0.2-0.8c-0.2-0.2-0.4-0.5-0.7-0.7
			c-0.3-0.2-1-0.5-1.9-1c-0.9-0.4-1.6-0.8-2-1.2c-0.5-0.4-0.8-0.8-1.1-1.4s-0.4-1.1-0.4-1.8c0-1.3,0.5-2.3,1.3-3.1s2.1-1.1,3.7-1.1
			c0.8,0,1.5,0.1,2.2,0.3s1.4,0.4,2.2,0.8l-1,2.5c-0.8-0.3-1.5-0.5-2-0.7c-0.5-0.1-1-0.2-1.5-0.2c-0.6,0-1,0.1-1.4,0.4
			c-0.3,0.3-0.5,0.6-0.5,1.1c0,0.3,0.1,0.5,0.2,0.7c0.1,0.2,0.3,0.4,0.6,0.6c0.3,0.2,1,0.5,2,1c1.4,0.7,2.3,1.3,2.9,2
			C526.6,592.1,526.9,592.9,526.9,593.9z"/>
		<path class="st14" d="M536.1,598h-3.2v-12.2h-4v-2.6h11.2v2.6h-4L536.1,598L536.1,598z"/>
		<path class="st14" d="M543.2,598v-14.9h3.2V598H543.2z"/>
		<path class="st14" d="M564.4,590.5c0,2.5-0.6,4.3-1.8,5.7c-1.2,1.3-3,2-5.2,2c-2.3,0-4-0.7-5.2-2s-1.8-3.2-1.8-5.7
			c0-2.5,0.6-4.4,1.8-5.7c1.2-1.3,3-2,5.3-2s4,0.7,5.2,2C563.8,586.2,564.4,588.1,564.4,590.5z M553.6,590.5c0,1.7,0.3,2.9,0.9,3.8
			s1.6,1.3,2.8,1.3c2.5,0,3.8-1.7,3.8-5c0-3.3-1.2-5-3.8-5c-1.2,0-2.2,0.4-2.8,1.3C553.9,587.6,553.6,588.9,553.6,590.5z"/>
		<path class="st14" d="M581.5,598h-4l-6.5-11.2h-0.1c0.1,2,0.2,3.4,0.2,4.2v7h-2.8v-14.9h4l6.5,11.1h0.1c-0.1-1.9-0.2-3.3-0.2-4.1
			v-7h2.8L581.5,598L581.5,598z"/>
		<path class="st14" d="M595.1,598l-1.1-3.5h-5.4l-1.1,3.5h-3.4l5.2-14.9h3.8l5.3,14.9H595.1z M593.3,591.8c-1-3.2-1.6-5-1.7-5.4
			s-0.2-0.8-0.3-1c-0.2,0.9-0.9,3-1.9,6.4L593.3,591.8L593.3,591.8z"/>
		<path class="st14" d="M601.2,598v-14.9h3.2v12.3h6v2.6H601.2z"/>
		<path class="st14" d="M622.3,598h-8.6v-14.9h8.6v2.6h-5.4v3.3h5v2.6h-5v3.8h5.4V598z"/>
	</g>
</g>
<radialGradient id="SVGID_15_" cx="400.9409" cy="393.5423" r="209.7008" gradientTransform="matrix(1 0 0 -1 0 597.0756)" gradientUnits="userSpaceOnUse">
	<stop  offset="0" style="stop-color:#CDDD86"/>
	<stop  offset="1" style="stop-color:#2A642C"/>
</radialGradient>
<path class="st15" d="M456.1,370l163.5-183.7C559.8,107,442.9,0,442.9,0l-77.8,69.9c39.4,18.4,122.3,59.3,198.5,110.4L456.1,370z"/>
<radialGradient id="SVGID_16_" cx="400.941" cy="393.5423" r="209.7009" gradientTransform="matrix(1 0 0 -1 0 597.0756)" gradientUnits="userSpaceOnUse">
	<stop  offset="0" style="stop-color:#CDDD86"/>
	<stop  offset="1" style="stop-color:#2A642C"/>
</radialGradient>
<path class="st16" d="M349.4,73.7C334.7,66.8,326,63,326,63l-35.7,63.6c24,4,54.7,10,90.8,19c29.4,7.3,62.4,16.5,98.2,28.2
	c0,0-2.1,40.1-17.1,103.7c-7.3,31-33.9,127.7-33.9,127.7l57-105.5l62.4-115.5C471.7,133,388.8,92.1,349.4,73.7z"/>
<radialGradient id="SVGID_17_" cx="400.941" cy="393.5426" r="209.7003" gradientTransform="matrix(1 0 0 -1 0 597.0756)" gradientUnits="userSpaceOnUse">
	<stop  offset="0" style="stop-color:#CDDD86"/>
	<stop  offset="1" style="stop-color:#2A642C"/>
</radialGradient>
<path class="st17" d="M467,179.9c-35.8-11.7-68.8-20.9-98.2-28.2c-36.1-8.9-66.8-15-90.8-19c-37-6.2-58-7.6-58-7.6l-22,72.3l1.3-0.4
	c31.7-10.2,68.6-15.7,106.5-15.7c38.6,0,75.7,5.4,107.4,15.7l8,2.6v181.7c12.8-36.2,22.1-69.4,28.7-97.8
	C464.8,220.1,467,179.9,467,179.9z"/>
<path class="st18" d="M619.5,186.4L462.7,362.6l164.1-175.8c-31.1-41.3-79.1-88.1-118.1-123.4C545.4,100,589.6,146.6,619.5,186.4z"
	/>
<path class="st18" d="M485.4,299.6l-51.3,94.9l120.2-211.1c-43.2-29-110.9-63.8-161.4-88.6c42.9,21.6,100.6,52.8,154.9,89.2
	L485.4,299.6z"/>
<path class="st18" d="M467,179.9c0,0-1.8,33.9-13.7,88.8c14.7-58.1,18.5-90.2,18.5-90.2c-39.8-14-87.1-25-129.7-33.1
	c8.5,1.9,17.4,4,26.7,6.3C398.1,159,431.1,168.2,467,179.9z"/>
<radialGradient id="SVGID_18_" cx="407.6067" cy="389.3912" r="292.7784" gradientTransform="matrix(1 0 0 -1 0 597.0756)" gradientUnits="userSpaceOnUse">
	<stop  offset="0" style="stop-color:#25A9E0"/>
	<stop  offset="1" style="stop-color:#213B78"/>
</radialGradient>
<path class="st19" d="M307.4,192.9c-36.4,0-72.3,5.2-103,15.1v60h53.4v-24.1c13.7-2.4,31.6-3.8,49.6-3.8c19.4,0,36.8,1.4,50.5,3.8
	v62.3H202.6v137c30.7,10.4,68,15.6,103.9,15.6c36.8,0,74.2-5.2,104.9-15.6V208C380.6,198.1,344.3,192.9,307.4,192.9z M272.6,407.5
	h-16.8v-16.8h16.8V407.5L272.6,407.5z M272.6,386.6h-16.8v-16.8h16.8V386.6L272.6,386.6z M272.6,365.8h-16.8V349h16.8V365.8
	L272.6,365.8z M357.9,407.5h-79.7v-16.8h79.7V407.5z M357.9,386.6h-79.7v-16.8h79.7V386.6z M357.9,365.8h-79.7V349h79.7V365.8z"/>
<rect x="278.2" y="390.7" class="st20" width="79.7" height="16.8"/>
<rect x="255.8" y="390.7" class="st20" width="16.8" height="16.8"/>
<rect x="255.8" y="349" class="st20" width="16.8" height="16.8"/>
<rect x="255.8" y="369.9" class="st20" width="16.8" height="16.8"/>
<rect x="278.2" y="369.9" class="st20" width="79.7" height="16.8"/>
<rect x="278.2" y="349" class="st20" width="79.7" height="16.8"/>
<path class="st18" d="M411.3,208v152.2l4.6-156.1c-30.7-9.9-68.3-12-105.2-12c-9.8,0-19.4,0.6-28.7,1.7c8.4-0.6,16.9-0.9,25.4-0.9
	C344.3,192.9,380.6,198.1,411.3,208z"/>
</svg>
