<?xml version="1.0" encoding="utf-8"?>
<!-- Generator: Adobe Illustrator 24.1.2, SVG Export Plug-In . SVG Version: 6.00 Build 0)  -->
<svg version="1.1" id="Livello_1" xmlns="http://www.w3.org/2000/svg" xmlns:xlink="http://www.w3.org/1999/xlink" x="0px" y="0px"
	 viewBox="0 0 421.6 458.8" style="enable-background:new 0 0 421.6 458.8;" xml:space="preserve">
<style type="text/css">
	.st0{fill:#FFFFFF;}
</style>
<path class="st0" d="M258.1,370l163.5-183.7C361.9,107,245,0,245,0l-77.8,69.9c39.4,18.4,122.3,59.4,198.5,110.4L258.1,370z"/>
<path class="st0" d="M151.5,73.7C136.8,66.8,128.1,63,128.1,63l-35.7,63.6c24,4,54.7,10,90.8,19c29.4,7.3,62.4,16.5,98.2,28.2
	c0,0-2.1,40.1-17.1,103.7c-7.3,31-33.9,127.7-33.9,127.7l57-105.5l62.4-115.5C273.8,133,190.9,92.1,151.5,73.7z"/>
<path class="st0" d="M269,179.9c-35.8-11.7-68.8-20.9-98.2-28.2c-36.1-8.9-66.8-15-90.8-19c-37-6.2-58-7.6-58-7.6L0,197.5l1.3-0.4
	c31.7-10.2,68.6-15.7,106.5-15.7c38.6,0,75.7,5.4,107.4,15.7l8,2.6v181.7c12.8-36.2,22.1-69.4,28.7-97.8
	C266.9,220.1,269,179.9,269,179.9z"/>
<path class="st0" d="M109.5,192.9c-36.4,0-72.3,5.2-103,15.1v60h53.4v-24.1c13.7-2.4,31.6-3.8,49.6-3.8c19.4,0,36.8,1.4,50.5,3.8
	v62.3H4.7v137c30.7,10.4,68,15.6,103.9,15.6c36.8,0,74.1-5.2,104.9-15.6V208C182.7,198.1,146.3,192.9,109.5,192.9z M74.6,407.5H57.9
	v-16.8h16.8V407.5z M74.6,386.6H57.9v-16.8h16.8V386.6z M74.6,365.8H57.9V349h16.8V365.8z M160,407.5H80.3v-16.8H160V407.5z
	 M160,386.6H80.3v-16.8H160V386.6z M160,365.8H80.3V349H160V365.8z"/>
</svg>
