<?xml version="1.0" encoding="utf-8"?>
<!-- Generator: Adobe Illustrator 24.1.2, SVG Export Plug-In . SVG Version: 6.00 Build 0)  -->
<svg version="1.1" id="Livello_1" xmlns="http://www.w3.org/2000/svg" xmlns:xlink="http://www.w3.org/1999/xlink" x="0px" y="0px"
	 viewBox="0 0 428.9 458.8" style="enable-background:new 0 0 428.9 458.8;" xml:space="preserve">
<style type="text/css">
	.st0{fill:url(#SVGID_1_);}
	.st1{fill:url(#SVGID_2_);}
	.st2{fill:url(#SVGID_3_);}
	.st3{opacity:0.2;enable-background:new    ;}
	.st4{fill:url(#SVGID_4_);}
	.st5{fill:none;}
</style>
<radialGradient id="SVGID_1_" cx="203.0309" cy="314.8849" r="209.7008" gradientTransform="matrix(1 0 0 -1 0 518.4155)" gradientUnits="userSpaceOnUse">
	<stop  offset="0" style="stop-color:#CDDD86"/>
	<stop  offset="1" style="stop-color:#2A642C"/>
</radialGradient>
<path class="st0" d="M258.1,370l163.5-183.7C361.9,107,245,0,245,0l-77.8,69.9c39.4,18.4,122.3,59.4,198.5,110.4L258.1,370z"/>
<radialGradient id="SVGID_2_" cx="203.031" cy="314.8849" r="209.7009" gradientTransform="matrix(1 0 0 -1 0 518.4155)" gradientUnits="userSpaceOnUse">
	<stop  offset="0" style="stop-color:#CDDD86"/>
	<stop  offset="1" style="stop-color:#2A642C"/>
</radialGradient>
<path class="st1" d="M151.5,73.7C136.8,66.8,128.1,63,128.1,63l-35.7,63.6c24,4,54.7,10,90.8,19c29.4,7.3,62.4,16.5,98.2,28.2
	c0,0-2.1,40.1-17.1,103.7c-7.3,31-33.9,127.7-33.9,127.7l57-105.5l62.4-115.5C273.8,133,190.9,92.1,151.5,73.7z"/>
<radialGradient id="SVGID_3_" cx="203.031" cy="314.8852" r="209.7003" gradientTransform="matrix(1 0 0 -1 0 518.4155)" gradientUnits="userSpaceOnUse">
	<stop  offset="0" style="stop-color:#CDDD86"/>
	<stop  offset="1" style="stop-color:#2A642C"/>
</radialGradient>
<path class="st2" d="M269,179.9c-35.8-11.7-68.8-20.9-98.2-28.2c-36.1-8.9-66.8-15-90.8-19c-37-6.2-58-7.6-58-7.6L0,197.5l1.3-0.4
	c31.7-10.2,68.6-15.7,106.5-15.7c38.6,0,75.7,5.4,107.4,15.7l8,2.6v181.7c12.8-36.2,22.1-69.4,28.7-97.8
	C266.9,220.1,269,179.9,269,179.9z"/>
<path class="st3" d="M421.6,186.3L264.8,362.5l164.1-175.8c-31.1-41.3-79.1-88.1-118.1-123.4C347.5,100,391.7,146.6,421.6,186.3z"/>
<path class="st3" d="M287.5,299.6l-51.3,94.9l120.2-211.1c-43.2-29-110.9-63.9-161.4-88.6c42.9,21.6,100.6,52.8,154.9,89.2
	L287.5,299.6z"/>
<path class="st3" d="M269,179.9c0,0-1.8,33.9-13.7,88.8c14.7-58.1,18.5-90.2,18.5-90.2c-39.8-14-87.1-25-129.6-33.1
	c8.5,1.9,17.4,4,26.7,6.3C200.2,159,233.2,168.2,269,179.9z"/>
<radialGradient id="SVGID_4_" cx="209.6967" cy="310.7338" r="292.7784" gradientTransform="matrix(1 0 0 -1 0 518.4155)" gradientUnits="userSpaceOnUse">
	<stop  offset="0" style="stop-color:#25A9E0"/>
	<stop  offset="1" style="stop-color:#213B78"/>
</radialGradient>
<path class="st4" d="M109.5,192.9c-36.4,0-72.3,5.2-103,15.1v60h53.4v-24.1c13.7-2.4,31.6-3.8,49.6-3.8c19.4,0,36.8,1.4,50.5,3.8
	v62.3H4.7v137c30.7,10.4,68,15.6,103.9,15.6c36.8,0,74.1-5.2,104.9-15.6V208C182.7,198.1,146.4,192.9,109.5,192.9z M74.6,407.5H57.9
	v-16.8h16.8L74.6,407.5L74.6,407.5z M74.6,386.6H57.9v-16.8h16.8L74.6,386.6L74.6,386.6z M74.6,365.8H57.9V349h16.8L74.6,365.8
	L74.6,365.8z M160,407.5H80.3v-16.8H160V407.5z M160,386.6H80.3v-16.8H160V386.6z M160,365.8H80.3V349H160V365.8z"/>
<rect x="80.3" y="390.7" class="st5" width="79.7" height="16.8"/>
<rect x="57.9" y="390.7" class="st5" width="16.8" height="16.8"/>
<rect x="57.9" y="349" class="st5" width="16.8" height="16.8"/>
<rect x="57.9" y="369.9" class="st5" width="16.8" height="16.8"/>
<rect x="80.3" y="369.9" class="st5" width="79.7" height="16.8"/>
<rect x="80.3" y="349" class="st5" width="79.7" height="16.8"/>
<path class="st3" d="M213.4,208v152.2l4.6-156.1c-30.7-9.9-68.3-12-105.2-12c-9.8,0-19.4,0.6-28.7,1.7c8.4-0.6,16.9-0.9,25.4-0.9
	C146.4,192.9,182.7,198.1,213.4,208z"/>
</svg>
