<?xml version="1.0" encoding="utf-8"?>
<!-- Generator: Adobe Illustrator 24.1.2, SVG Export Plug-In . SVG Version: 6.00 Build 0)  -->
<svg version="1.1" id="Livello_1" xmlns="http://www.w3.org/2000/svg" xmlns:xlink="http://www.w3.org/1999/xlink" x="0px" y="0px"
	 viewBox="0 0 273.48 60" style="enable-background:new 0 0 273.48 60;" xml:space="preserve">
<style type="text/css">
	.st0{fill:#FFFFFF;}
</style>
<g>
	<path class="st0" d="M217,16.89c0.11-0.04,0.22-0.09,0.33-0.13c1.58-0.53,3.34-0.8,5.27-0.8h5.09v28.43h-5.09
		c-0.82,0-1.6-0.06-2.35-0.15v-0.07c-1.05-0.13-2.04-0.33-2.97-0.65c-0.21-0.07-0.42-0.16-0.62-0.25c-0.03-0.01-0.06-0.02-0.09-0.04
		c-0.4-0.16-0.77-0.35-1.13-0.56c-0.82-0.46-1.57-1.01-2.23-1.68c-0.28-0.29-0.55-0.59-0.8-0.92c-0.44-0.57-0.83-1.21-1.17-1.91
		c-0.25-0.5-0.49-1.03-0.69-1.59c-0.01-0.02-0.01-0.03-0.01-0.05c0.01-0.02,0.01-0.03,0.02-0.05c-0.6-1.76-0.91-3.85-0.91-6.3
		c0-2.53,0.32-4.69,0.96-6.48c0.02-0.07,0.06-0.13,0.08-0.2c-0.56-1.46-1.31-2.69-2.23-3.63c-0.57-0.58-1.22-1.05-1.92-1.45
		c-0.54,0.9-1.02,1.87-1.42,2.93c-0.94,2.49-1.42,5.43-1.42,8.83c0,0.53,0.03,1.04,0.06,1.55h-0.06c0.13,2.71,0.57,5.12,1.36,7.2
		c0.23,0.6,0.49,1.15,0.76,1.69c0.07,0.15,0.15,0.29,0.22,0.44c0.05,0.09,0.09,0.18,0.13,0.26c0.02,0.03,0.03,0.05,0.05,0.08
		c0.09,0.16,0.18,0.32,0.28,0.48c0.14,0.23,0.27,0.46,0.42,0.68c0.1,0.15,0.2,0.3,0.3,0.44c0.12,0.17,0.23,0.33,0.35,0.49
		c0.18,0.24,0.37,0.47,0.56,0.7c0.09,0.11,0.2,0.22,0.3,0.32c0.18,0.2,0.37,0.4,0.56,0.59c0.66,0.63,1.38,1.17,2.14,1.68
		c0.37,0.25,0.74,0.5,1.14,0.72c0.03,0.02,0.06,0.03,0.09,0.04c-0.01,0.01-0.03,0.02-0.05,0.03c0.86,0.48,1.75,0.9,2.72,1.23
		c2.3,0.79,4.81,1.19,7.53,1.19h11.1c2.75,0,5.09-0.29,7.02-0.88c1.93-0.59,3.5-1.39,4.73-2.41c1.23-1.02,2.12-2.23,2.69-3.65
		c0.57-1.42,0.85-2.96,0.85-4.62c0-1.47-0.23-2.86-0.71-4.16c-0.47-1.3-1.19-2.46-2.15-3.46c-0.96-1-2.19-1.78-3.68-2.35
		c-1.49-0.57-3.24-0.85-5.24-0.85v5.6c2.04,0,3.53,0.51,4.47,1.53c0.95,1.02,1.42,2.24,1.42,3.68c0,0.83-0.16,1.6-0.48,2.32
		c-0.32,0.72-0.85,1.34-1.59,1.87c-0.74,0.53-1.71,0.95-2.92,1.27c-1.21,0.32-2.68,0.48-4.42,0.48V10.36h-11.1
		c-2.72,0-5.23,0.39-7.53,1.19c-0.74,0.26-1.44,0.57-2.11,0.91c0.58,0.43,1.14,0.89,1.66,1.39C215.47,14.73,216.29,15.76,217,16.89"
		/>
	<path class="st0" d="M176.58,29.17c0.96,1,2.19,1.78,3.68,2.35c1.49,0.57,3.24,0.85,5.24,0.85v-5.61c-2.04,0-3.53-0.51-4.47-1.53
		c-0.94-1.02-1.41-2.24-1.41-3.68c0-0.83,0.16-1.6,0.48-2.32c0.32-0.72,0.85-1.34,1.58-1.87c0.74-0.53,1.71-0.95,2.91-1.27
		c1.21-0.32,2.68-0.48,4.42-0.48v34.03h11.1c2.72,0,5.23-0.4,7.53-1.19c0.74-0.25,1.43-0.57,2.11-0.91
		c-0.58-0.43-1.14-0.88-1.66-1.39c-0.92-0.89-1.73-1.91-2.44-3.04c-0.11,0.04-0.22,0.09-0.34,0.13c-1.58,0.53-3.34,0.79-5.26,0.79
		h-5.1V15.61h5.1c1.93,0,3.68,0.26,5.26,0.79c0.25,0.08,0.48,0.19,0.72,0.28c0.42,0.18,0.83,0.37,1.22,0.6
		c0.78,0.45,1.5,0.99,2.14,1.64c0.8,0.81,1.47,1.79,2.02,2.92c0.23,0.47,0.45,0.97,0.64,1.5c0.02,0.06,0.03,0.13,0.06,0.18
		c0.6,1.76,0.91,3.85,0.91,6.3c0,2.53-0.32,4.69-0.96,6.49c-0.02,0.07-0.06,0.13-0.08,0.2c0.56,1.46,1.31,2.69,2.23,3.63
		c0.57,0.57,1.22,1.05,1.92,1.44c0.54-0.9,1.02-1.87,1.42-2.93c0.94-2.49,1.42-5.44,1.42-8.84c0-3.4-0.47-6.34-1.42-8.83
		c-0.32-0.85-0.7-1.63-1.11-2.38c-0.22-0.4-0.44-0.8-0.68-1.17c-0.63-0.97-1.34-1.85-2.14-2.62c-0.63-0.61-1.31-1.14-2.03-1.63
		c-0.4-0.27-0.8-0.53-1.23-0.76c-0.86-0.48-1.75-0.9-2.72-1.23c-2.31-0.79-4.81-1.19-7.53-1.19h-11.1c-2.76,0-5.1,0.29-7.02,0.88
		c-1.93,0.58-3.5,1.38-4.73,2.4c-1.23,1.02-2.13,2.24-2.69,3.65c-0.56,1.42-0.85,2.95-0.85,4.62c0,1.47,0.23,2.86,0.71,4.16
		C174.91,27.02,175.62,28.17,176.58,29.17"/>
</g>
<g>
	<g>
		<path class="st0" d="M32.86,27.19c-0.28,0.79-0.67,1.44-1.17,1.94c-0.5,0.51-1.1,0.88-1.79,1.11c-0.7,0.23-1.47,0.35-2.32,0.35
			h-2.24V18.08h2.24c0.85,0,1.62,0.12,2.32,0.35c0.7,0.23,1.3,0.6,1.79,1.11c0.5,0.51,0.89,1.15,1.17,1.94
			c0.28,0.79,0.42,1.74,0.42,2.85C33.28,25.45,33.14,26.4,32.86,27.19 M35.9,24.34c0-1.49-0.21-2.79-0.62-3.89
			c-0.42-1.1-0.99-2-1.73-2.71c-0.74-0.71-1.62-1.25-2.63-1.59c-1.01-0.35-2.12-0.52-3.31-0.52h-4.88c-1.21,0-2.24,0.13-3.09,0.39
			c-0.85,0.26-1.54,0.61-2.08,1.06c-0.54,0.45-0.93,0.98-1.18,1.61c-0.25,0.62-0.37,1.3-0.37,2.03c0,0.65,0.1,1.26,0.31,1.83
			c0.21,0.57,0.52,1.08,0.95,1.52c0.42,0.44,0.96,0.78,1.62,1.04c0.66,0.25,1.42,0.37,2.3,0.37v-2.47c-0.9,0-1.55-0.22-1.97-0.67
			c-0.42-0.45-0.62-0.99-0.62-1.62c0-0.37,0.07-0.7,0.21-1.02c0.14-0.31,0.37-0.59,0.7-0.82c0.32-0.23,0.75-0.42,1.28-0.56
			c0.53-0.14,1.18-0.21,1.94-0.21v14.97h4.88c1.2,0,2.3-0.17,3.31-0.52c1.01-0.35,1.89-0.88,2.63-1.59
			c0.74-0.71,1.32-1.62,1.73-2.71C35.69,27.13,35.9,25.83,35.9,24.34"/>
		<polygon class="st0" points="49.92,30.59 41.45,30.59 41.45,25.58 48.68,25.58 48.68,23.11 41.45,23.11 41.45,18.08 49.92,18.08 
			49.92,15.62 38.84,15.62 38.84,33.05 49.92,33.05 		"/>
		<polygon class="st0" points="63.43,27.67 54.81,15.62 53.06,15.62 53.06,33.05 55.68,33.05 55.68,21 64.3,33.05 66.04,33.05 
			66.04,15.62 63.43,15.62 		"/>
		<path class="st0" d="M73.14,27.1l1.32-3.21l0.82-2.32c0.13-0.4,0.26-0.8,0.39-1.2c0.12-0.4,0.25-0.8,0.39-1.2l0.75,2.39l0.82,2.32
			l1.32,3.21H73.14z M80.55,24.34c-1.2-2.89-2.41-5.8-3.62-8.72h-1.74c-1.23,2.92-2.45,5.83-3.65,8.72c-1.2,2.89-2.41,5.8-3.62,8.72
			h2.77l1.45-3.49h7.85l1.45,3.49h2.79C82.97,30.13,81.75,27.22,80.55,24.34"/>
		<path class="st0" d="M88.71,18.08h3.74c0.42,0,0.81,0.05,1.18,0.16c0.37,0.11,0.71,0.29,1,0.55c0.29,0.26,0.52,0.6,0.69,1.02
			c0.17,0.42,0.25,0.94,0.25,1.56c0,0.61-0.08,1.13-0.25,1.54c-0.17,0.42-0.4,0.75-0.69,1c-0.29,0.25-0.62,0.43-1,0.54
			c-0.37,0.11-0.77,0.16-1.18,0.16h-3.74V18.08z M86.09,33.05h2.62v-5.98h3.06l3.74,5.98h2.99l-3.99-6.25
			c0.53-0.15,1.02-0.37,1.47-0.67c0.45-0.3,0.83-0.67,1.16-1.12c0.32-0.45,0.58-0.98,0.76-1.58c0.18-0.61,0.28-1.29,0.28-2.05
			c0-1-0.16-1.86-0.46-2.58c-0.31-0.72-0.72-1.32-1.24-1.79c-0.52-0.47-1.13-0.82-1.83-1.05c-0.7-0.22-1.43-0.34-2.19-0.34h-6.35
			V33.05z"/>
		<path class="st0" d="M112.47,27.47c-0.25,0.86-0.59,1.57-1.03,2.12c-0.44,0.55-0.97,0.95-1.58,1.21
			c-0.62,0.26-1.28,0.39-1.99,0.39c-0.73,0-1.4-0.13-2.01-0.39c-0.61-0.26-1.13-0.66-1.57-1.21c-0.44-0.55-0.78-1.25-1.03-2.12
			c-0.25-0.86-0.37-1.91-0.37-3.14c0-0.3,0.01-0.58,0.02-0.86c0.42,0.42,0.94,0.75,1.57,0.99c0.66,0.25,1.42,0.37,2.3,0.37v-2.47
			c-0.9,0-1.55-0.23-1.97-0.67c-0.42-0.45-0.62-0.99-0.62-1.62c0-0.37,0.07-0.71,0.21-1.02c0.06-0.13,0.14-0.24,0.23-0.36
			c0.36-0.36,0.77-0.64,1.23-0.83c0.29-0.12,0.59-0.21,0.91-0.28c0.23-0.05,0.48-0.08,0.72-0.09c0.12-0.01,0.26-0.01,0.38-0.02
			c0.71,0,1.37,0.13,1.98,0.39c0.62,0.26,1.14,0.66,1.58,1.21c0.44,0.55,0.79,1.25,1.03,2.12c0.25,0.86,0.37,1.91,0.37,3.14
			C112.85,25.56,112.72,26.61,112.47,27.47 M114.89,20.19c-0.38-1.17-0.91-2.14-1.59-2.9c-0.68-0.76-1.48-1.33-2.4-1.71
			c-0.79-0.32-1.66-0.5-2.58-0.54V15c-0.4,0-0.78,0.02-1.14,0.05c-0.08,0.01-0.16,0.01-0.24,0.02c-0.19,0.02-0.38,0.05-0.57,0.08
			c-0.4,0.06-0.79,0.13-1.13,0.24c-0.85,0.26-1.54,0.61-2.08,1.06c-0.4,0.33-0.72,0.71-0.96,1.14c-0.57,0.71-1.02,1.58-1.36,2.6
			c-0.38,1.17-0.57,2.55-0.57,4.15c0,1.59,0.19,2.98,0.57,4.15c0.38,1.17,0.91,2.14,1.59,2.9c0.68,0.76,1.48,1.33,2.4,1.71
			c0.92,0.37,1.93,0.56,3.03,0.56c1.1,0,2.1-0.19,3.03-0.56c0.92-0.37,1.72-0.94,2.4-1.71c0.68-0.76,1.21-1.73,1.59-2.9
			c0.38-1.17,0.57-2.55,0.57-4.15C115.46,22.74,115.27,21.36,114.89,20.19"/>
	</g>
	<g>
		<path class="st0" d="M25.02,42.41c-0.11,0.32-0.27,0.58-0.47,0.78c-0.2,0.2-0.44,0.35-0.73,0.44c-0.28,0.09-0.59,0.14-0.93,0.14
			h-0.89v-5.02h0.89c0.34,0,0.65,0.05,0.93,0.14c0.28,0.09,0.52,0.24,0.73,0.44c0.2,0.2,0.36,0.46,0.47,0.78
			c0.11,0.32,0.17,0.7,0.17,1.14C25.19,41.71,25.14,42.09,25.02,42.41 M25.3,38.62c-0.3-0.29-0.65-0.5-1.05-0.64
			c-0.41-0.14-0.85-0.21-1.33-0.21h-1.96v6.99h1.96c0.48,0,0.92-0.07,1.33-0.21c0.41-0.14,0.76-0.35,1.05-0.64
			c0.3-0.29,0.53-0.65,0.69-1.09c0.17-0.44,0.25-0.96,0.25-1.56c0-0.6-0.08-1.12-0.25-1.56C25.83,39.27,25.59,38.9,25.3,38.62"/>
		<rect x="27.44" y="37.77" class="st0" width="1.05" height="6.99"/>
		<path class="st0" d="M34.01,41.33c-0.24-0.15-0.52-0.26-0.84-0.35c-0.32-0.08-0.67-0.16-1.04-0.23c-0.19-0.03-0.36-0.07-0.53-0.12
			c-0.17-0.04-0.31-0.1-0.43-0.18c-0.12-0.07-0.22-0.17-0.29-0.29c-0.07-0.12-0.1-0.27-0.1-0.46c0-0.21,0.04-0.39,0.13-0.54
			c0.09-0.15,0.2-0.28,0.34-0.37c0.14-0.09,0.3-0.16,0.48-0.21c0.18-0.05,0.37-0.07,0.57-0.07c0.31,0,0.62,0.06,0.93,0.17
			c0.32,0.12,0.58,0.28,0.79,0.47l0.58-0.85c-0.32-0.25-0.69-0.45-1.1-0.58c-0.42-0.14-0.82-0.21-1.22-0.21
			c-0.33,0-0.64,0.05-0.95,0.14c-0.31,0.09-0.58,0.23-0.81,0.42c-0.24,0.19-0.43,0.42-0.57,0.71c-0.14,0.28-0.22,0.62-0.22,0.99
			c0,0.35,0.06,0.64,0.19,0.87c0.13,0.23,0.3,0.41,0.51,0.56c0.22,0.14,0.47,0.26,0.76,0.34c0.29,0.08,0.61,0.16,0.94,0.22
			c0.25,0.05,0.47,0.1,0.66,0.15c0.2,0.04,0.37,0.1,0.51,0.17c0.14,0.07,0.25,0.17,0.32,0.28c0.07,0.11,0.11,0.26,0.11,0.45
			c0,0.21-0.05,0.4-0.14,0.54c-0.09,0.15-0.22,0.27-0.37,0.37c-0.15,0.1-0.32,0.17-0.52,0.21c-0.2,0.04-0.4,0.06-0.6,0.06
			c-0.36,0-0.72-0.06-1.09-0.17c-0.37-0.12-0.67-0.28-0.91-0.5l-0.57,0.82c0.33,0.25,0.71,0.45,1.16,0.6
			c0.45,0.15,0.91,0.23,1.39,0.23c0.35,0,0.68-0.05,1-0.14c0.32-0.09,0.61-0.23,0.86-0.42c0.25-0.18,0.45-0.42,0.6-0.7
			c0.15-0.28,0.23-0.61,0.23-0.99c0-0.35-0.07-0.64-0.21-0.87C34.43,41.66,34.25,41.47,34.01,41.33"/>
		<polygon class="st0" points="35.41,38.76 37.33,38.76 37.33,44.76 38.38,44.76 38.38,38.76 40.31,38.76 40.31,37.77 35.41,37.77 
					"/>
		<path class="st0" d="M43.77,41.37h-1.5v-2.62h1.5c0.17,0,0.32,0.02,0.47,0.07c0.15,0.04,0.28,0.12,0.4,0.22
			c0.12,0.1,0.21,0.24,0.28,0.41c0.07,0.17,0.1,0.38,0.1,0.63c0,0.25-0.03,0.45-0.1,0.62c-0.07,0.17-0.16,0.3-0.28,0.4
			c-0.12,0.1-0.25,0.17-0.4,0.22C44.1,41.35,43.94,41.37,43.77,41.37 M45.19,41.98c0.18-0.12,0.34-0.27,0.46-0.45
			c0.13-0.18,0.23-0.39,0.31-0.63c0.07-0.24,0.11-0.52,0.11-0.82c0-0.4-0.06-0.75-0.19-1.03c-0.12-0.29-0.29-0.53-0.5-0.72
			c-0.21-0.19-0.45-0.33-0.73-0.42c-0.28-0.09-0.57-0.13-0.88-0.13h-2.55v6.99h1.05v-2.4h1.23l1.5,2.4h1.2l-1.6-2.51
			C44.82,42.19,45.01,42.1,45.19,41.98"/>
		<rect x="47.22" y="37.77" class="st0" width="1.05" height="6.99"/>
		<path class="st0" d="M53.46,43.26c-0.07,0.12-0.16,0.22-0.27,0.29c-0.11,0.07-0.25,0.13-0.4,0.16c-0.15,0.03-0.31,0.04-0.48,0.04
			h-1.5v-2h1.5c0.17,0,0.33,0.02,0.47,0.06c0.15,0.04,0.28,0.09,0.4,0.17c0.11,0.08,0.21,0.19,0.28,0.32
			c0.07,0.13,0.1,0.29,0.1,0.48C53.56,42.98,53.53,43.13,53.46,43.26 M50.82,38.76h1.3c0.17,0,0.33,0.02,0.48,0.05
			c0.15,0.03,0.29,0.08,0.4,0.16c0.11,0.08,0.2,0.18,0.27,0.3c0.07,0.12,0.1,0.28,0.1,0.46c0,0.19-0.03,0.36-0.1,0.49
			c-0.07,0.13-0.16,0.24-0.28,0.32c-0.11,0.08-0.24,0.14-0.39,0.17c-0.15,0.04-0.31,0.06-0.47,0.06h-1.3V38.76z M53.51,41.21
			c0.27-0.14,0.49-0.33,0.65-0.58c0.16-0.25,0.24-0.56,0.24-0.94c0-0.33-0.06-0.61-0.18-0.85c-0.12-0.24-0.29-0.44-0.5-0.6
			c-0.21-0.16-0.45-0.28-0.73-0.36c-0.28-0.08-0.57-0.12-0.88-0.12h-2.35v6.97h2.55c0.31,0,0.6-0.04,0.88-0.12
			c0.28-0.08,0.53-0.19,0.73-0.35c0.21-0.16,0.38-0.36,0.5-0.6c0.12-0.24,0.19-0.52,0.19-0.86c0-0.42-0.1-0.76-0.3-1.02
			C54.11,41.53,53.85,41.34,53.51,41.21"/>
		<path class="st0" d="M60.04,42.48c0,0.27-0.05,0.5-0.14,0.69c-0.09,0.19-0.22,0.35-0.37,0.48c-0.15,0.13-0.33,0.22-0.52,0.27
			c-0.19,0.06-0.39,0.09-0.59,0.09c-0.2,0-0.4-0.03-0.59-0.09c-0.19-0.05-0.37-0.15-0.52-0.27c-0.15-0.13-0.28-0.29-0.37-0.48
			c-0.09-0.19-0.14-0.42-0.14-0.69v-4.72h-1.05v4.66c0,0.43,0.08,0.81,0.23,1.13c0.15,0.32,0.35,0.59,0.59,0.8
			c0.25,0.21,0.53,0.37,0.85,0.48c0.32,0.11,0.65,0.16,1,0.16c0.34,0,0.67-0.05,0.99-0.16c0.32-0.11,0.61-0.27,0.85-0.48
			c0.25-0.21,0.45-0.48,0.6-0.8c0.15-0.32,0.23-0.7,0.23-1.13v-4.66h-1.05V42.48z"/>
		<polygon class="st0" points="62,38.76 65.28,38.76 62,44.07 62,44.76 66.63,44.76 66.63,43.77 63.34,43.77 66.63,38.46 
			66.63,37.77 62,37.77 		"/>
		<rect x="67.64" y="37.77" class="st0" width="1.05" height="6.99"/>
		<path class="st0" d="M74.78,42.52c-0.1,0.35-0.24,0.63-0.41,0.85c-0.18,0.22-0.39,0.38-0.64,0.48c-0.25,0.1-0.51,0.15-0.8,0.15
			c-0.29,0-0.56-0.05-0.8-0.15c-0.24-0.1-0.45-0.27-0.63-0.48c-0.18-0.22-0.31-0.5-0.41-0.85c-0.1-0.35-0.15-0.77-0.15-1.26
			c0-0.49,0.05-0.91,0.15-1.26c0.1-0.35,0.24-0.63,0.41-0.85c0.18-0.22,0.39-0.38,0.63-0.48c0.24-0.1,0.51-0.15,0.8-0.15
			c0.29,0,0.55,0.05,0.8,0.15c0.25,0.1,0.46,0.26,0.64,0.48c0.18,0.22,0.31,0.5,0.41,0.85c0.1,0.35,0.15,0.77,0.15,1.26
			C74.93,41.76,74.88,42.18,74.78,42.52 M75.11,38.44c-0.27-0.31-0.6-0.53-0.96-0.68c-0.37-0.15-0.77-0.23-1.21-0.23
			c-0.44,0-0.84,0.08-1.21,0.23c-0.37,0.15-0.69,0.38-0.96,0.68c-0.27,0.31-0.49,0.69-0.64,1.16c-0.15,0.47-0.23,1.02-0.23,1.66
			c0,0.64,0.08,1.19,0.23,1.66c0.15,0.47,0.37,0.86,0.64,1.16c0.27,0.31,0.59,0.53,0.96,0.68c0.37,0.15,0.77,0.22,1.21,0.22
			c0.44,0,0.84-0.07,1.21-0.22c0.37-0.15,0.69-0.38,0.96-0.68c0.27-0.31,0.49-0.69,0.64-1.16c0.15-0.47,0.23-1.02,0.23-1.66
			c0-0.64-0.08-1.19-0.23-1.66C75.6,39.13,75.38,38.74,75.11,38.44"/>
		<polygon class="st0" points="81.34,42.6 77.88,37.77 77.18,37.77 77.18,44.76 78.23,44.76 78.23,39.93 81.68,44.76 82.38,44.76 
			82.38,37.77 81.34,37.77 		"/>
		<polygon class="st0" points="83.88,44.76 88.33,44.76 88.33,43.77 84.93,43.77 84.93,41.76 87.83,41.76 87.83,40.77 84.93,40.77 
			84.93,38.76 88.33,38.76 88.33,37.77 83.88,37.77 		"/>
	</g>
</g>
</svg>
