<?xml version="1.0" encoding="iso-8859-1"?>
<!-- Generator: Adobe Illustrator 19.0.0, SVG Export Plug-In . SVG Version: 6.00 Build 0)  -->
<svg version="1.1" id="Capa_1" xmlns="http://www.w3.org/2000/svg" xmlns:xlink="http://www.w3.org/1999/xlink" x="0px" y="0px"
	 viewBox="0 0 512 512" style="enable-background:new 0 0 512 512;" xml:space="preserve">
<path style="fill:#21BF77;" d="M512,140.474v270.819c0,4.552-3.69,8.242-8.242,8.242H45.568c-4.552,0-8.242-3.69-8.242-8.242
	v-279.06h466.432C508.31,132.233,512,135.923,512,140.474z"/>
<path style="fill:#00A053;" d="M491.707,132.233v251.225c0,7.37-5.973,13.343-13.343,13.343H37.327V132.233H491.707z"/>
<path style="fill:#59D9A4;" d="M466.432,379.767H8.242c-4.552,0-8.242-3.69-8.242-8.242V100.706c0-4.552,3.69-8.242,8.242-8.242
	h458.19c4.552,0,8.242,3.69,8.242,8.242v270.819C474.673,376.077,470.984,379.767,466.432,379.767z"/>
<path style="fill:#21BF77;" d="M466.432,379.767h-12.199V92.465h12.199c4.552,0,8.242,3.69,8.242,8.242v270.819
	C474.673,376.077,470.984,379.767,466.432,379.767z"/>
<g>
	<path style="fill:#00A053;" d="M269.558,352.654H92.006c-2.049,0-4.014-0.814-5.464-2.263l-54.675-54.675
		c-1.449-1.449-2.263-3.414-2.263-5.463v-83.412c0-4.267,3.459-7.726,7.726-7.726s7.726,3.459,7.726,7.726v80.212l50.148,50.148
		h174.352c4.268,0,7.726,3.459,7.726,7.726S273.826,352.654,269.558,352.654z"/>
	<path style="fill:#00A053;" d="M437.342,273.118c-4.268,0-7.726-3.459-7.726-7.726V185.18l-50.148-50.148H205.116
		c-4.268,0-7.726-3.459-7.726-7.726c0-4.267,3.459-7.726,7.726-7.726h177.552c2.049,0,4.014,0.814,5.464,2.263l54.675,54.675
		c1.449,1.449,2.263,3.414,2.263,5.463v83.413C445.069,269.659,441.61,273.118,437.342,273.118z"/>
</g>
<path style="fill:#21BF77;" d="M237.337,329.612c-51.554,0-93.496-41.942-93.496-93.496s41.942-93.496,93.496-93.496
	s93.496,41.942,93.496,93.496S288.891,329.612,237.337,329.612z"/>
<circle style="fill:#97FFCD;" cx="237.34" cy="236.12" r="76.46"/>
<g>
	<path style="fill:#00A053;" d="M237.337,290.401c-14.501,0-28.133-5.646-38.387-15.9c-21.165-21.166-21.165-55.605,0-76.771
		c21.167-21.165,55.605-21.167,76.772,0c3.017,3.017,3.017,7.91,0,10.927c-3.018,3.017-7.91,3.017-10.928,0
		c-15.142-15.142-39.777-15.14-54.917,0c-15.141,15.141-15.141,39.777,0,54.918c7.334,7.335,17.086,11.374,27.459,11.374
		c10.372,0,20.124-4.039,27.458-11.374c3.018-3.018,7.91-3.018,10.928,0c3.017,3.017,3.017,7.909,0,10.927
		C265.469,284.755,251.837,290.401,237.337,290.401z"/>
	<path style="fill:#00A053;" d="M241.808,233.294h-56.779c-4.268,0-7.726-3.459-7.726-7.726s3.459-7.726,7.726-7.726h56.779
		c4.268,0,7.726,3.459,7.726,7.726C249.535,229.836,246.076,233.294,241.808,233.294z"/>
	<path style="fill:#00A053;" d="M241.808,256.335h-56.779c-4.268,0-7.726-3.459-7.726-7.726s3.459-7.726,7.726-7.726h56.779
		c4.268,0,7.726,3.459,7.726,7.726C249.535,252.875,246.076,256.335,241.808,256.335z"/>
	<path style="fill:#00A053;" d="M439.184,146.435c-1.978,0-3.955-0.754-5.464-2.263l-13.687-13.688
		c-3.017-3.018-3.017-7.91,0.001-10.927c3.017-3.018,7.91-3.018,10.927,0l13.687,13.688c3.017,3.018,3.017,7.91-0.001,10.927
		C443.139,145.68,441.161,146.435,439.184,146.435z"/>
	<path style="fill:#00A053;" d="M45.155,351.027c-1.977,0-3.955-0.754-5.463-2.263l-13.688-13.688
		c-3.018-3.017-3.018-7.909-0.001-10.927c3.018-3.017,7.911-3.018,10.927,0l13.688,13.688c3.018,3.017,3.018,7.909,0.001,10.927
		C49.11,350.272,47.132,351.027,45.155,351.027z"/>
</g>
<g>
</g>
<g>
</g>
<g>
</g>
<g>
</g>
<g>
</g>
<g>
</g>
<g>
</g>
<g>
</g>
<g>
</g>
<g>
</g>
<g>
</g>
<g>
</g>
<g>
</g>
<g>
</g>
<g>
</g>
</svg>
