<svg id="Capa_1" enable-background="new 0 0 512 512" height="512" viewBox="0 0 512 512" width="512" xmlns="http://www.w3.org/2000/svg"><path d="m276.995 416.9c-7.881 10.04-17.565 18.603-28.56 25.203h257.21c3.496 0 6.355-2.896 6.355-6.435v-18.768z" fill="#efe2dd"/><path d="m291.639 391.614c-3.855 9.541-9.086 18.384-15.445 26.287h235.806v-26.287z" fill="#e1d3ce"/><path d="m512 117.478v-58.327c0-2.792-2.284-5.077-5.075-5.077h-308.877c-2.792 0-5.076 2.285-5.076 5.077v58.326h319.028z" fill="#fe646f"/><path d="m226.201 96.257c-6.317 0-11.439-5.115-11.439-11.425s5.122-11.424 11.439-11.424c.604 0 1.192.061 1.77.15v-14.407c0-2.792 2.284-5.077 5.076-5.077h-35c-2.792 0-5.076 2.285-5.076 5.077v58.326h35v-21.37c-.577.09-1.166.15-1.77.15z" fill="#fd4755"/><path d="m192.972 116.478v132.131c.628-.011 1.255-.024 1.885-.024 57.521 0 104.317 46.731 104.317 104.172 0 14.111-2.83 27.573-7.943 39.858h220.769v-276.137z" fill="#efe2dd"/><path d="m194.856 248.585c11.571 0 22.706 1.894 33.115 5.383v-137.49h-35v132.131c.629-.012 1.256-.024 1.885-.024z" fill="#e1d3ce"/><path d="m288.27 197.034c0 1.675-1.37 3.046-3.045 3.046h-44.039c-1.675 0-3.045-1.371-3.045-3.046v-44.669c0-1.675 1.37-3.046 3.045-3.046h44.039c1.675 0 3.045 1.371 3.045 3.046z" fill="#b9acac"/><path d="m258.442 197.034v-44.669c0-1.675 1.37-3.046 3.045-3.046h-20.302c-1.675 0-3.045 1.371-3.045 3.046v44.669c0 1.675 1.37 3.046 3.045 3.046h20.302c-1.674.001-3.045-1.37-3.045-3.046z" fill="#9e9797"/><path d="m377.549 197.034c0 1.675-1.371 3.046-3.045 3.046h-44.041c-1.675 0-3.045-1.371-3.045-3.046v-44.669c0-1.675 1.37-3.046 3.045-3.046h44.041c1.674 0 3.045 1.371 3.045 3.046z" fill="#b9acac"/><path d="m347.72 197.034v-44.669c0-1.675 1.37-3.046 3.046-3.046h-20.303c-1.675 0-3.045 1.371-3.045 3.046v44.669c0 1.675 1.37 3.046 3.045 3.046h20.303c-1.676.001-3.046-1.37-3.046-3.046z" fill="#9e9797"/><path d="m466.83 278.728c0 1.675-1.369 3.046-3.045 3.046h-44.041c-1.674 0-3.045-1.371-3.045-3.046v-44.669c0-1.675 1.371-3.046 3.045-3.046h44.041c1.676 0 3.045 1.371 3.045 3.046z" fill="#08a9f1"/><path d="m437.001 278.728v-44.669c0-1.675 1.371-3.046 3.046-3.046h-20.303c-1.674 0-3.045 1.371-3.045 3.046v44.669c0 1.675 1.371 3.046 3.045 3.046h20.303c-1.675 0-3.046-1.371-3.046-3.046z" fill="#0290cf"/><path d="m466.83 360.211c0 1.675-1.369 3.046-3.045 3.046h-44.041c-1.674 0-3.045-1.371-3.045-3.046v-44.669c0-1.675 1.371-3.046 3.045-3.046h44.041c1.676 0 3.045 1.371 3.045 3.046z" fill="#fe646f"/><path d="m437.001 360.211v-44.669c0-1.675 1.371-3.046 3.046-3.046h-20.303c-1.674 0-3.045 1.371-3.045 3.046v44.669c0 1.675 1.371 3.046 3.045 3.046h20.303c-1.675 0-3.046-1.37-3.046-3.046z" fill="#fd4755"/><path d="m271.131 281.774h14.094c1.675 0 3.045-1.371 3.045-3.046v-44.669c0-1.675-1.37-3.046-3.045-3.046h-44.039c-1.675 0-3.045 1.371-3.045 3.046v23.926c12.519 5.725 23.712 13.853 32.99 23.789z" fill="#b9acac"/><path d="m258.442 270.235v-36.176c0-1.675 1.37-3.046 3.045-3.046h-20.302c-1.675 0-3.045 1.371-3.045 3.046v23.926c7.251 3.315 14.055 7.438 20.302 12.25z" fill="#9e9797"/><path d="m377.549 278.728c0 1.675-1.371 3.046-3.045 3.046h-44.041c-1.675 0-3.045-1.371-3.045-3.046v-44.669c0-1.675 1.37-3.046 3.045-3.046h44.041c1.674 0 3.045 1.371 3.045 3.046z" fill="#b9acac"/><path d="m347.72 278.728v-44.669c0-1.675 1.37-3.046 3.046-3.046h-20.303c-1.675 0-3.045 1.371-3.045 3.046v44.669c0 1.675 1.37 3.046 3.045 3.046h20.303c-1.676 0-3.046-1.371-3.046-3.046z" fill="#9e9797"/><path d="m377.549 360.211c0 1.675-1.371 3.046-3.045 3.046h-44.041c-1.675 0-3.045-1.371-3.045-3.046v-44.668c0-1.675 1.37-3.046 3.045-3.046h44.041c1.674 0 3.045 1.371 3.045 3.046z" fill="#b9acac"/><path d="m347.72 360.211v-44.668c0-1.675 1.37-3.046 3.046-3.046h-20.303c-1.675 0-3.045 1.371-3.045 3.046v44.668c0 1.675 1.37 3.046 3.045 3.046h20.303c-1.676 0-3.046-1.37-3.046-3.046z" fill="#9e9797"/><path d="m452.306 174.701 19.86-20.11c2.911-2.947 2.882-7.696-.065-10.606s-7.696-2.881-10.606.066l-19.73 19.977-19.729-19.977c-2.91-2.948-7.659-2.976-10.606-.066-2.947 2.911-2.977 7.66-.065 10.606l19.86 20.11-19.86 20.109c-2.911 2.947-2.882 7.696.065 10.606 1.462 1.443 3.366 2.164 5.27 2.164 1.935 0 3.869-.745 5.336-2.23l19.729-19.977 19.73 19.977c1.467 1.486 3.401 2.23 5.336 2.23 1.904 0 3.809-.72 5.27-2.164 2.947-2.911 2.977-7.66.065-10.606z" fill="#fd4755"/><path d="m411.008 92.333h-117.043c-4.143 0-7.5-3.358-7.5-7.5s3.357-7.5 7.5-7.5h117.043c4.143 0 7.5 3.358 7.5 7.5s-3.358 7.5-7.5 7.5z" fill="#fff"/><path d="m237.642 84.833c0 6.31-5.121 11.425-11.44 11.425-6.317 0-11.439-5.115-11.439-11.425s5.122-11.424 11.439-11.424c6.318 0 11.44 5.114 11.44 11.424z" fill="#fff"/><path d="m490.211 84.833c0 6.31-5.121 11.425-11.441 11.425-6.318 0-11.44-5.115-11.44-11.425s5.122-11.424 11.44-11.424c6.32 0 11.441 5.114 11.441 11.424z" fill="#fff"/><path d="m194.856 247.585c-35.2 0-66.361 17.248-85.485 43.739h45.349c3.584 0 6.5 2.916 6.5 6.5s-2.916 6.5-6.5 6.5h-53.366c-3.842 7.381-6.83 15.273-8.841 23.549h62.207c3.584 0 6.5 2.916 6.5 6.5s-2.916 6.5-6.5 6.5h-64.508c-.439 3.901-.673 7.865-.673 11.884 0 3.943.225 7.833.648 11.664h64.532c3.584 0 6.5 2.916 6.5 6.5s-2.916 6.5-6.5 6.5h-62.26c1.99 8.273 4.957 16.165 8.777 23.548h53.483c3.584 0 6.5 2.916 6.5 6.5s-2.916 6.5-6.5 6.5h-45.51c19.109 26.615 50.348 43.958 85.646 43.958 58.167 0 105.317-47.085 105.317-105.169.001-58.085-47.149-105.173-105.316-105.173z" fill="#0290cf"/><path d="m194.856 276.559c-16.89 0-32.489 5.489-45.13 14.765h4.993c3.584 0 6.5 2.916 6.5 6.5s-2.916 6.5-6.5 6.5h-18.773c-5.718 6.927-10.216 14.888-13.212 23.549h31.985c3.584 0 6.5 2.916 6.5 6.5s-2.916 6.5-6.5 6.5h-35.241c-.607 3.873-.929 7.841-.929 11.884 0 3.966.305 7.861.89 11.664h35.28c3.584 0 6.5 2.916 6.5 6.5s-2.916 6.5-6.5 6.5h-32.06c2.965 8.655 7.432 16.613 13.112 23.548h18.948c3.584 0 6.5 2.916 6.5 6.5s-2.916 6.5-6.5 6.5h-5.305c12.694 9.413 28.415 14.985 45.441 14.985 42.144 0 76.306-34.113 76.306-76.197.001-42.084-34.161-76.198-76.305-76.198z" fill="#fff"/><path d="m154.72 291.323c3.584 0 6.5 2.916 6.5 6.5s-2.916 6.5-6.5 6.5h-18.773c-5.718 6.927-10.216 14.888-13.212 23.549h25.375c8.996-25.988 31.668-45.602 59.436-50.245-4.129-.691-8.363-1.068-12.689-1.068-16.89 0-32.489 5.489-45.13 14.765h4.993z" fill="#efe2dd"/><path d="m143.928 352.756c0-4.045.334-8.01.942-11.884h-25.392c-.607 3.873-.929 7.841-.929 11.884 0 3.966.305 7.861.89 11.664h25.395c-.585-3.804-.906-7.695-.906-11.664z" fill="#efe2dd"/><path d="m148.032 377.42h-25.373c2.965 8.655 7.432 16.613 13.112 23.548h18.948c3.584 0 6.5 2.916 6.5 6.5s-2.916 6.5-6.5 6.5h-5.305c12.694 9.413 28.415 14.985 45.441 14.985 4.325 0 8.56-.378 12.689-1.068-27.845-4.657-50.569-24.367-59.512-50.465z" fill="#efe2dd"/><path d="m223.759 376.296c-1.23 0-2.479-.304-3.632-.943l-28.909-16.038c-2.383-1.322-3.861-3.833-3.861-6.559v-41.241c0-4.142 3.357-7.5 7.5-7.5s7.5 3.358 7.5 7.5v36.825l25.048 13.896c3.622 2.01 4.929 6.575 2.92 10.197-1.371 2.469-3.93 3.863-6.566 3.863z" fill="#017bae"/><g fill="#08a9f1"><path d="m154.72 305.323h-147.22c-4.143 0-7.5-3.358-7.5-7.5s3.357-7.5 7.5-7.5h147.22c4.143 0 7.5 3.358 7.5 7.5s-3.358 7.5-7.5 7.5z"/><path d="m154.72 341.872h-118.634c-4.142 0-7.5-3.358-7.5-7.5s3.358-7.5 7.5-7.5h118.634c4.143 0 7.5 3.358 7.5 7.5s-3.358 7.5-7.5 7.5z"/><path d="m154.72 378.42h-90.048c-4.143 0-7.5-3.358-7.5-7.5s3.357-7.5 7.5-7.5h90.048c4.143 0 7.5 3.358 7.5 7.5s-3.358 7.5-7.5 7.5z"/><path d="m154.72 414.968h-61.462c-4.143 0-7.5-3.358-7.5-7.5s3.357-7.5 7.5-7.5h61.462c4.143 0 7.5 3.358 7.5 7.5s-3.358 7.5-7.5 7.5z"/></g></svg>