<svg id="Layer_1" enable-background="new 0 0 128 128" height="512" viewBox="0 0 128 128" width="512" xmlns="http://www.w3.org/2000/svg"><g><g><g><g><ellipse cx="64" cy="76.8" fill="#7ad1f9" rx="50.2" ry="50.2" transform="matrix(.157 -.988 .988 .157 -21.844 127.92)"/></g></g><g><g><path d="m77.3 47.3c0 23.6-19.2 42.8-42.8 42.8-7.3 0-14.1-1.8-20.1-5-.5-2.7-.7-5.5-.7-8.4.1-27.7 22.6-50.2 50.3-50.2 2.8 0 5.6.2 8.3.7 3.2 6 5 12.8 5 20.1z" fill="#a6e1fb"/></g></g><g><g><path d="m114.2 76.7c0 27.7-22.5 50.2-50.2 50.2-17.6 0-33.1-9.1-42.1-22.8 7.9 5.1 17.3 8.1 27.4 8.1 27.7 0 50.2-22.5 50.2-50.2 0-10.1-3-19.5-8.1-27.4 13.7 9 22.8 24.5 22.8 42.1z" fill="#4cc3f7"/></g></g><g><g><ellipse cx="64" cy="76.7" fill="#a6e1fb" rx="27.2" ry="50.2"/></g></g><g><g><path d="m77.3 47.3c0 22.5-17.5 41-39.6 42.7-.6-4.2-1-8.6-1-13.2.1-27.8 12.3-50.3 27.3-50.3 3.4 0 6.6 1.1 9.6 3.2 2.4 5.4 3.7 11.3 3.7 17.6z" fill="#d3f0fd"/></g></g></g><g><g><g><g><path d="m109.7 20.9c0 4.9-1.7 9.3-4.6 12.8-11.3 13.5-14.7 25.5-15.3 26.7-1.1-2.3-3.7-13.2-15.1-26.4-3.2-3.7-5.1-8.6-4.8-13.9.4-10.3 8.8-18.7 19.1-19.1 11.4-.4 20.7 8.7 20.7 19.9z" fill="#fc898c"/></g></g><g><path d="m99 3.3c-.7 14.6-11.8 26.5-26.1 28.4-2.1-3.3-3.3-7.3-3.1-11.6.5-10.3 8.9-18.7 19.2-19.1 3.6-.1 7 .7 10 2.3z" fill="#fcb0b0"/></g><g><g><path d="m109.7 20.9c0 4.9-1.7 9.3-4.6 12.8-11.3 13.5-14.7 25.5-15.3 26.7-1.1-2.5-3.2-10.7-11-21.3 14.9-1.9 26.4-14.6 26.4-30.1 0-.3 0-.5 0-.8 2.8 3.5 4.5 7.9 4.5 12.7z" fill="#f96364"/></g></g></g><g><path d="m89.8 33.5c-6.9 0-12.6-5.6-12.6-12.6 0-6.9 5.6-12.6 12.6-12.6 6.9 0 12.6 5.6 12.6 12.6s-5.7 12.6-12.6 12.6z" fill="#fff"/></g><g><g><path d="m102.4 20.9c0 6.9-5.6 12.6-12.6 12.6-5 0-9.3-2.9-11.4-7.2 1.6.8 3.5 1.2 5.4 1.2 6.9 0 12.6-5.6 12.6-12.6 0-1.9-.4-3.8-1.2-5.4 4.2 2.1 7.2 6.4 7.2 11.4z" fill="#e8eaea"/></g></g></g><g><g><g><g><path d="m55.3 76.3c0 3.7-1.3 7-3.5 9.6-8.5 10.1-11.1 19.1-11.5 20.1-.8-1.7-2.8-9.9-11.4-19.9-2.4-2.8-3.8-6.5-3.6-10.5.3-7.7 6.6-14 14.4-14.3 8.5-.4 15.6 6.5 15.6 15z" fill="#7bde9e"/></g></g><g><path d="m47.2 63c-.5 11-8.9 20-19.6 21.4-1.6-2.5-2.5-5.5-2.3-8.7.3-7.7 6.6-14 14.4-14.3 2.7-.2 5.2.4 7.5 1.6z" fill="#a6ebbf"/></g><g><g><path d="m55.3 76.3c0 3.7-1.3 7-3.5 9.6-8.5 10.1-11.1 19.1-11.5 20.1-.8-1.8-2.4-8.1-8.3-16.1 11.2-1.4 19.9-11 19.9-22.6 0-.2 0-.4 0-.6 2.1 2.6 3.4 6 3.4 9.6z" fill="#51d27f"/></g></g></g><g><path d="m40.2 85.8c-5.2 0-9.5-4.2-9.5-9.5 0-5.2 4.2-9.5 9.5-9.5 5.2 0 9.5 4.2 9.5 9.5 0 5.2-4.2 9.5-9.5 9.5z" fill="#fff"/></g><g><path d="m49.7 76.3c0 5.2-4.2 9.5-9.5 9.5-3.8 0-7-2.2-8.5-5.4 1.2.6 2.6.9 4.1.9 5.2 0 9.5-4.2 9.5-9.5 0-1.4-.3-2.8-.9-4.1 3.1 1.6 5.3 4.8 5.3 8.6z" fill="#e8eaea"/></g><g fill="#333"><path d="m100.7 41.1c5.1-7.3 10-10.8 10-20.2 0-11.9-9.9-21.4-21.8-20.9-10.7.5-19.6 9.2-20 20-.1 2 .1 3.9.6 5.8-1.8-.2-3.6-.3-5.4-.3-24.7 0-46.5 17.9-50.5 43-4.5 27.9 14.5 54.3 42.4 58.8 2.8.5 5.6.7 8.3.7 24.4 0 46.3-17.7 50.5-43 2.5-16.6-3.2-32.7-14.1-43.9zm3.2 6.9c5.9 8.2 9.1 17.9 9.3 27.8h-21.1c-.1-5.2-.5-10.3-1.4-15l.9-2.5c2-5.3 4.6-10.4 7.9-15.4 1.6 1.5 3.1 3.2 4.4 5.1zm-38.9-20.4c1.9.1 3.7.7 5.5 1.5 2.6 6.1 6.7 7.7 12.9 19-5.9 2.1-12.1 3.3-18.4 3.3zm-2 23.8c-2.7-.1-5.4-.3-8.2-.7-4.1-.7-8-1.8-11.8-3.3 4.6-11.6 11.8-19.3 20-19.9zm-8.5 1.3c2.8.5 5.7.7 8.5.8v22.3h-6.8c-.3-9-7.9-15.9-16.9-15.4.7-3.9 1.7-7.6 3-11 3.9 1.4 8 2.6 12.2 3.3zm-11.5 53.4c6.4-2.5 13.1-3.9 20-4v23.8c-8.2-.6-15.4-8.2-20-19.8zm20-6c-7.1.1-14.1 1.5-20.7 4.1 0-.1-.1-.2-.1-.4 6-15.5 13.2-16.9 14-26.1h6.8zm-23.3-37.8c7.9-.3 14.6 6 14.6 14 0 9.3-7.6 10.4-14 26.9-.1-.3-2.9-8.7-10.6-17.7-2.3-2.7-3.5-6.2-3.4-9.8.3-7.2 6.2-13.1 13.4-13.4zm1.5 44.5c3.3 8.4 8 14.8 13.5 18.3-9.3-1.8-17.6-6.1-24.1-12.2 3.3-2.5 6.9-4.5 10.6-6.1zm23.8-4.7c6.8.1 13.3 1.4 20 4-4.6 11.6-11.8 19.3-20 19.8zm0-2v-22.4h25.2c-.1 9.8-1.7 18.9-4.5 26.5-6.6-2.6-13.4-4-20.7-4.1zm0-24.4v-22.3c6.6-.1 13.1-1.3 19.3-3.6 2.5 5 3.4 7.9 4.3 10.2.9 4.9 1.5 10.2 1.5 15.6h-25.1zm24-73.7c10.7-.5 19.7 8.1 19.7 18.9 0 4.4-1.6 8.7-4.4 12.1-9.8 11.8-12.5 20.2-14.5 24.5-.5-1-3.6-11.8-14.3-24.2-3.2-3.7-4.8-8.4-4.6-13.2.4-9.8 8.4-17.7 18.1-18.1zm-47.8 44.7c-3.7-1.6-7.3-3.7-10.6-6 6.7-6.2 15-10.5 24-12.2-5.4 3.4-10.1 9.9-13.4 18.2zm-12.1-4.6c3.5 2.6 7.3 4.8 11.4 6.5-1.3 3.7-2.4 7.7-3.2 12-7.1 1.4-12.7 7.6-13 15v.2h-9.5c0-2.3.2-4.6.6-6.9 1.7-10.6 6.7-19.8 13.7-26.8zm-14.3 35.6h9.5c.3 3.3 1.6 6.5 3.8 9 8.3 9.6 10.2 17.4 10.9 18.8-3.4 1.6-6.8 3.6-9.9 5.9-8.7-8.8-14.1-20.8-14.3-33.7zm58.4 47.4c5.5-3.5 10.2-9.9 13.6-18.3 3.8 1.6 7.3 3.7 10.7 6.1-7 6.4-15.4 10.6-24.3 12.2zm25.7-13.6c-3.5-2.6-7.4-4.8-11.4-6.5 2.9-7.8 4.5-17.2 4.7-27.2h21.1c-.1 2.3-.3 4.6-.6 6.9-1.8 10.2-6.6 19.5-13.8 26.8z"/><path d="m89.8 34.5c7.5 0 13.6-6.1 13.6-13.6s-6.1-13.6-13.6-13.6-13.6 6.1-13.6 13.6 6.1 13.6 13.6 13.6zm0-25.1c6.4 0 11.6 5.2 11.6 11.6s-5.2 11.6-11.6 11.6-11.6-5.2-11.6-11.6 5.2-11.6 11.6-11.6z"/><path d="m40.2 86.8c5.8 0 10.5-4.7 10.5-10.5s-4.7-10.5-10.5-10.5-10.5 4.7-10.5 10.5c.1 5.8 4.8 10.5 10.5 10.5zm0-19c4.7 0 8.5 3.8 8.5 8.5s-3.8 8.5-8.5 8.5-8.5-3.8-8.5-8.5c.1-4.7 3.9-8.5 8.5-8.5z"/></g></g></g></svg>