<?xml version="1.0"?>
<svg xmlns="http://www.w3.org/2000/svg" xmlns:xlink="http://www.w3.org/1999/xlink" xmlns:svgjs="http://svgjs.com/svgjs" version="1.1" width="512" height="512" x="0" y="0" viewBox="0 0 512 512" style="enable-background:new 0 0 512 512" xml:space="preserve" class=""><g><g xmlns="http://www.w3.org/2000/svg"><path d="M120,448a24,24,0,1,0-24-24A24.027,24.027,0,0,0,120,448Zm0-32a8,8,0,1,1-8,8A8.009,8.009,0,0,1,120,416Z" fill="#ffb300" data-original="#000000" style="" class=""/><path d="M400,400a24,24,0,1,0,24,24A24.027,24.027,0,0,0,400,400Zm0,32a8,8,0,1,1,8-8A8.009,8.009,0,0,1,400,432Z" fill="#ffb300" data-original="#000000" style="" class=""/><path d="M480,160H440.61a111.977,111.977,0,0,0-16.38-28.91l13.43-13.43a8,8,0,1,0-11.32-11.32L413.48,119.2A111.626,111.626,0,0,0,344,88.29V80h16a8,8,0,0,0,8-8V48a8,8,0,0,0-8-8H312a8,8,0,0,0-8,8V72a8,8,0,0,0,8,8h16v8.29A112.229,112.229,0,0,0,231.39,160H184a8,8,0,0,0-8,8v24H96a8.019,8.019,0,0,0-6.95,4.03l-64,112A8.017,8.017,0,0,0,24,312V424a8,8,0,0,0,8,8H72.68a48.089,48.089,0,0,0,20.83,32H16a8,8,0,0,0,0,16H464a8,8,0,0,0,0-16H426.49a48.089,48.089,0,0,0,20.83-32H480a8,8,0,0,0,8-8V168A8,8,0,0,0,480,160ZM320,64V56h32v8Zm16,40a96,96,0,1,1-96,96A96.115,96.115,0,0,1,336,104ZM86.93,232H144v72H45.79ZM40,344H56a8,8,0,0,1,0,16H40Zm32.68,72H40V376H56a24,24,0,0,0,0-48H40v-8H152a8,8,0,0,0,8-8V224a8,8,0,0,0-8-8H96.07l4.57-8H176V416h-8.68a47.99,47.99,0,0,0-94.64,0ZM120,456a32,32,0,1,1,32-32A32.03,32.03,0,0,1,120,456Zm26.49,8a48.089,48.089,0,0,0,20.83-32H352.68a48.089,48.089,0,0,0,20.83,32ZM400,456a32,32,0,1,1,32-32A32.03,32.03,0,0,1,400,456Zm72-40H447.32a47.99,47.99,0,0,0-94.64,0H192V360H472Zm0-72H192V176h34.6a112,112,0,1,0,218.8,0H472Z" fill="#ffb300" data-original="#000000" style="" class=""/><path d="M336,288a88,88,0,1,0-88-88A88.1,88.1,0,0,0,336,288Zm0-160a72,72,0,1,1-72,72A72.081,72.081,0,0,1,336,128Z" fill="#ffb300" data-original="#000000" style="" class=""/><path d="M346.343,221.657a8,8,0,1,0,11.314-11.314L344,196.687V168a8,8,0,0,0-16,0v32a8,8,0,0,0,2.343,5.657Z" fill="#ffb300" data-original="#000000" style="" class=""/><path d="M496,464h-8a8,8,0,0,0,0,16h8a8,8,0,0,0,0-16Z" fill="#ffb300" data-original="#000000" style="" class=""/></g></g></svg>
