<?xml version="1.0" encoding="iso-8859-1"?>
<!-- Generator: Adobe Illustrator 19.0.0, SVG Export Plug-In . SVG Version: 6.00 Build 0)  -->
<svg version="1.1" id="Capa_1" xmlns="http://www.w3.org/2000/svg" xmlns:xlink="http://www.w3.org/1999/xlink" x="0px" y="0px"
	 viewBox="0 0 512.001 512.001" style="enable-background:new 0 0 512.001 512.001;" xml:space="preserve">
<g>
	<path style="fill:#EDEBED;" d="M138.159,288.508H40.635c-4.492,0-8.127-3.639-8.127-8.127s3.635-8.127,8.127-8.127h97.524
		c4.492,0,8.127,3.639,8.127,8.127S142.651,288.508,138.159,288.508z"/>
	<path style="fill:#EDEBED;" d="M138.159,329.143H8.127c-4.492,0-8.127-3.639-8.127-8.127s3.635-8.127,8.127-8.127h130.032
		c4.492,0,8.127,3.639,8.127,8.127S142.651,329.143,138.159,329.143z"/>
	<path style="fill:#EDEBED;" d="M138.159,247.873H73.143c-4.492,0-8.127-3.639-8.127-8.127s3.635-8.127,8.127-8.127h65.016
		c4.492,0,8.127,3.639,8.127,8.127S142.651,247.873,138.159,247.873z"/>
	<path style="fill:#EDEBED;" d="M138.159,207.238h-32.508c-4.492,0-8.127-3.639-8.127-8.127c0-4.488,3.635-8.127,8.127-8.127h32.508
		c4.492,0,8.127,3.639,8.127,8.127C146.286,203.599,142.651,207.238,138.159,207.238z"/>
</g>
<path style="fill:#FFE1A0;" d="M495.746,369.779H186.921c-8.977,0-16.254-7.277-16.254-16.254V158.476
	c0-8.977,7.277-16.254,16.254-16.254h308.825c8.977,0,16.254,7.277,16.254,16.254v195.048
	C512,362.501,504.723,369.779,495.746,369.779z"/>
<path style="fill:#F7D291;" d="M186.921,369.779h308.825c8.977,0,16.254-7.277,16.254-16.254V158.476l0,0L376.159,263.643
	c-20.504,15.874-49.148,15.874-69.652,0l-135.84-105.167l0,0v195.048C170.667,362.5,177.944,369.779,186.921,369.779z"/>
<path style="fill:#F0C382;" d="M512,158.476c0-3.092-0.911-5.952-2.41-8.413L371.183,257.218c-17.571,13.603-42.127,13.603-59.698,0
	L173.076,150.063c-1.499,2.461-2.41,5.321-2.41,8.413v10.276L283.36,256l-112.694,87.246v10.278c0,3.091,0.911,5.951,2.409,8.411
	l123.56-95.658l4.896,3.791c11.722,9.075,25.762,13.611,39.802,13.611s28.087-4.54,39.802-13.611l4.897-3.791l123.56,95.659
	c1.499-2.46,2.409-5.32,2.409-8.412v-10.278L399.308,256L512,168.752V158.476z"/>
<g>
</g>
<g>
</g>
<g>
</g>
<g>
</g>
<g>
</g>
<g>
</g>
<g>
</g>
<g>
</g>
<g>
</g>
<g>
</g>
<g>
</g>
<g>
</g>
<g>
</g>
<g>
</g>
<g>
</g>
</svg>
