<svg id="Layer_1" enable-background="new 0 0 256 256" height="512" viewBox="0 0 256 256" width="512" xmlns="http://www.w3.org/2000/svg"><g><g><path d="m188.417 253h-120.834c-6.328 0-11.458-5.13-11.458-11.458v-227.084c0-6.328 5.13-11.458 11.458-11.458h120.833c6.328 0 11.458 5.13 11.458 11.458v227.083c.001 6.329-5.129 11.459-11.457 11.459z" fill="#4671c6"/></g><g><path d="m184.634 13.72h-18.71v2.023c0 4.468-3.622 8.091-8.091 8.091h-59.667c-4.468 0-8.091-3.622-8.091-8.091v-2.023h-18.71c-3.351 0-6.068 2.717-6.068 6.068v216.424c0 3.351 2.717 6.068 6.068 6.068h113.269c3.351 0 6.068-2.717 6.068-6.068v-216.424c0-3.351-2.716-6.068-6.068-6.068z" fill="#6bdddd"/></g><g><path d="m188.417 255h-120.834c-7.421 0-13.458-6.038-13.458-13.458v-227.084c0-7.42 6.038-13.458 13.458-13.458h120.833c7.421 0 13.458 6.038 13.458 13.458v227.083c.001 7.421-6.036 13.459-13.457 13.459zm-120.834-250c-5.215 0-9.458 4.243-9.458 9.458v227.083c0 5.215 4.243 9.458 9.458 9.458h120.833c5.215 0 9.458-4.243 9.458-9.458v-227.083c0-5.215-4.243-9.458-9.458-9.458z" fill="#3762cc"/></g><g><circle cx="152.693" cy="14.479" fill="#a4c9ff" r="3.801"/></g><g><circle cx="140.557" cy="14.479" fill="#a4c9ff" r="2.746"/></g><g><path d="m129.299 17.225h-28.893c-1.517 0-2.746-1.229-2.746-2.746 0-1.517 1.229-2.746 2.746-2.746h28.893c1.517 0 2.746 1.229 2.746 2.746 0 1.516-1.229 2.746-2.746 2.746z" fill="#a4c9ff"/></g><g><path d="m190.666 204.751h-102.678c-1.104 0-2-.896-2-2v-4c0-1.104.896-2 2-2h102.678c1.104 0 2 .896 2 2v4c0 1.105-.895 2-2 2zm-100.678-4h98.678z" fill="#3762cc"/></g><g><path d="m138.964 75h51.702v-18h-51.702c-1.105 0-2-.895-2-2v-31.167h-18v31.167c0 1.105-.895 2-2 2h-51.702v18h51.702c1.105 0 2 .895 2 2v43.418c0 .53-.211 1.039-.586 1.414l-37.39 37.39v30.274c0 1.105-.895 2-2 2h-13.726v18h13.726c1.105 0 2 .895 2 2v30.783h18v-30.783c0-1.105.895-2 2-2h89.678v-18h-89.678c-1.105 0-2-.895-2-2v-21.99c0-.53.211-1.039.586-1.414l37.39-37.39v-51.702c0-1.105.896-2 2-2z" fill="#e0ebfc"/></g><g><path d="m91.988 196.495v-29.664c0-1.954.776-3.828 2.158-5.21l33.419-33.419c1.537-1.537 2.4-3.621 2.4-5.794v-98.575h-4v96.918c0 2.173-.863 4.258-2.4 5.794l-33.419 33.418c-1.382 1.382-2.158 3.256-2.158 5.21v33.577c0 2.209 1.791 4 4 4h98.678v-4h-96.421c-1.247.001-2.257-1.009-2.257-2.255z" fill="#f9a7a7"/></g><g><path d="m184.635 244.28h-113.269c-4.449 0-8.068-3.619-8.068-8.068v-216.424c0-4.449 3.619-8.068 8.068-8.068h18.709c1.104 0 2 .896 2 2v2.022c0 3.358 2.732 6.091 6.091 6.091h59.668c3.358 0 6.091-2.732 6.091-6.091v-2.022c0-1.104.896-2 2-2h18.71c4.448 0 8.067 3.619 8.067 8.068v216.424c0 4.449-3.619 8.068-8.067 8.068zm-113.269-228.56c-2.243 0-4.068 1.825-4.068 4.068v216.424c0 2.243 1.825 4.068 4.068 4.068h113.269c2.243 0 4.067-1.825 4.067-4.068v-216.424c0-2.243-1.824-4.068-4.067-4.068l-16.71.022c0 5.564-4.526 10.091-10.091 10.091h-59.668c-5.564 0-10.091-4.527-10.091-10.091v-.022z" fill="#3762cc"/></g><g><g><path d="m162.488 141.22c0-16.141 13.571-29.112 29.926-28.125 14.228.859 25.741 12.555 26.399 26.793.206 4.447-.625 8.677-2.264 12.478l-21.481 47.543c-1.712 3.789-7.092 3.789-8.804 0l-21.556-47.709c-1.429-3.374-2.22-7.084-2.22-10.98z" fill="#f9a7a7"/></g><g><circle cx="190.666" cy="141.22" fill="#f9cfcf" r="14.097"/></g><g><path d="m190.667 204.751c-2.72 0-5.105-1.54-6.225-4.019l-21.557-47.708c-1.598-3.771-2.397-7.728-2.397-11.804 0-8.285 3.461-16.294 9.495-21.976 6.119-5.762 14.132-8.655 22.551-8.146 15.155.915 27.575 13.521 28.277 28.698.215 4.636-.602 9.132-2.425 13.362l-21.496 47.575c-1.119 2.479-3.504 4.018-6.223 4.018zm-.017-89.709c-6.704 0-13.017 2.493-17.925 7.115-5.312 5.001-8.237 11.771-8.237 19.063 0 3.538.693 6.97 2.062 10.201l21.537 47.665c.472 1.043 1.436 1.666 2.58 1.666s2.107-.623 2.579-1.665l21.481-47.544c1.567-3.636 2.274-7.536 2.088-11.561-.608-13.164-11.38-24.097-24.521-24.89-.55-.033-1.098-.05-1.644-.05z" fill="#3762cc"/></g></g></g></svg>