<?xml version="1.0"?>
<svg xmlns="http://www.w3.org/2000/svg" xmlns:xlink="http://www.w3.org/1999/xlink" xmlns:svgjs="http://svgjs.com/svgjs" version="1.1" width="512" height="512" x="0" y="0" viewBox="0 0 448 448" style="enable-background:new 0 0 512 512" xml:space="preserve" class=""><g><path xmlns="http://www.w3.org/2000/svg" d="m413.078125 27.707031 15.992187-27.707031 13.859376 8-15.996094 27.707031zm0 0" fill="#4b7a46" data-original="#000000" style="" class=""/><path xmlns="http://www.w3.org/2000/svg" d="m257.070312 297.914062c-1.449218 2.476563-1.464843 5.539063-.035156 8.027344 1.429688 2.492188 4.085938 4.023438 6.957032 4.015625 2.871093-.003906 5.515624-1.550781 6.9375-4.042969l4-6.921874-13.859376-8zm0 0" fill="#4b7a46" data-original="#000000" style="" class=""/><path xmlns="http://www.w3.org/2000/svg" d="m269.082031 277.136719 135.980469-235.570313 13.855469 8-135.976563 235.570313zm0 0" fill="#4b7a46" data-original="#000000" style="" class=""/><path xmlns="http://www.w3.org/2000/svg" d="m0 443.351562h448v-272h-80.902344l-82.296875 142.5625c-4.847656 9.011719-15.105469 13.691407-25.089843 11.445313l-8.800782 15.199219c-1.417968 2.496094-4.0625 4.042968-6.933594 4.046875-2.871093.007812-5.527343-1.523438-6.957031-4.015625-1.429687-2.488282-1.414062-5.554688.035157-8.03125l8.738281-15.125c-6.585938-7.703125-7.625-18.707032-2.601563-27.503906l68.472656-118.578126h-311.664062zm400-16h-288c-4.417969 0-8-3.582031-8-8 0-4.417968 3.582031-8 8-8h288c4.417969 0 8 3.582032 8 8 0 4.417969-3.582031 8-8 8zm0-48c4.417969 0 8 3.582032 8 8 0 4.417969-3.582031 8-8 8h-288c-4.417969 0-8-3.582031-8-8 0-4.417968 3.582031-8 8-8zm-256-120h64c4.417969 0 8 3.582032 8 8 0 4.417969-3.582031 8-8 8h-64c-4.417969 0-8-3.582031-8-8 0-4.417968 3.582031-8 8-8zm0 32h64c4.417969 0 8 3.582032 8 8 0 4.417969-3.582031 8-8 8h-64c-4.417969 0-8-3.582031-8-8 0-4.417968 3.582031-8 8-8zm0 32h64c4.417969 0 8 3.582032 8 8 0 4.417969-3.582031 8-8 8h-64c-4.417969 0-8-3.582031-8-8 0-4.417968 3.582031-8 8-8zm-72-40c-20.550781.019532-37.773438-15.53125-39.835938-35.980468-2.066406-20.445313 11.695313-39.128906 31.835938-43.21875v-8.800782c0-4.417968 3.582031-8 8-8s8 3.582032 8 8v8.800782c18.613281 3.828125 31.976562 20.199218 32 39.199218 0 4.417969-3.582031 8-8 8s-8-3.582031-8-8c0-13.253906-10.746094-24-24-24s-24 10.746094-24 24c0 13.253907 10.746094 24 24 24 20.550781-.019531 37.773438 15.535157 39.835938 35.980469 2.066406 20.445313-11.695313 39.132813-31.835938 43.21875v8.800781c0 4.417969-3.582031 8-8 8s-8-3.582031-8-8v-8.800781c-18.613281-3.824219-31.976562-20.199219-32-39.199219 0-4.417968 3.582031-8 8-8s8 3.582032 8 8c0 13.253907 10.746094 24 24 24s24-10.746093 24-24c0-13.253906-10.746094-24-24-24zm0 0" fill="#4b7a46" data-original="#000000" style="" class=""/></g></svg>
