<?xml version="1.0"?>
<svg xmlns="http://www.w3.org/2000/svg" xmlns:xlink="http://www.w3.org/1999/xlink" xmlns:svgjs="http://svgjs.com/svgjs" version="1.1" width="512" height="512" x="0" y="0" viewBox="0 0 64 64" style="enable-background:new 0 0 512 512" xml:space="preserve" class=""><g><g xmlns="http://www.w3.org/2000/svg"><path d="m40 45.063v.936c0 1.223 3.116 2.999 8 2.999 4.883 0 7.999-1.776 7.999-2.999v-.936c-1.794 1.19-4.65 1.935-7.999 1.935s-6.206-.745-8-1.935z" fill="#4b7a46" data-original="#000000" style="" class=""/><path d="m48 38.999c-4.884 0-8 1.776-8 3 0 1.223 3.116 2.999 8 2.999 4.883 0 7.999-1.776 7.999-2.999 0-1.224-3.116-3-7.999-3z" fill="#4b7a46" data-original="#000000" style="" class=""/><path d="m40 53.063v.936c0 1.223 3.116 2.999 8 2.999 4.883 0 7.999-1.776 7.999-2.999v-.936c-1.794 1.19-4.65 1.935-7.999 1.935s-6.206-.745-8-1.935z" fill="#4b7a46" data-original="#000000" style="" class=""/><path d="m40 57.063v.936c0 1.223 3.116 2.999 8 2.999 4.883 0 7.999-1.776 7.999-2.999v-.936c-1.794 1.19-4.65 1.935-7.999 1.935s-6.206-.745-8-1.935z" fill="#4b7a46" data-original="#000000" style="" class=""/><path d="m40 49.063v.936c0 1.223 3.116 2.999 8 2.999 4.883 0 7.999-1.776 7.999-2.999v-.936c-1.794 1.19-4.65 1.935-7.999 1.935s-6.206-.745-8-1.935z" fill="#4b7a46" data-original="#000000" style="" class=""/><path d="m30.999 24.091c-.581.207-1 .757-1 1.408 0 .65.419 1.2 1 1.408z" fill="#4b7a46" data-original="#000000" style="" class=""/><path d="m33.998 30.5c0-.652-.419-1.203-1-1.41v2.817c.581-.207 1-.756 1-1.407z" fill="#4b7a46" data-original="#000000" style="" class=""/><path d="m2.998 2.998h58.001v4h-58.001z" fill="#4b7a46" data-original="#000000" style="" class=""/><path d="m2.998 8.998h58.001v4h-58.001z" fill="#4b7a46" data-original="#000000" style="" class=""/><path d="m2.998 40.999h35.188c.877-2.338 4.802-4 9.814-4v-.001h8.998v-17.999h-14.999v-2h15.999c.553 0 1 .447 1 1v19.999c0 .553-.447 1-1 1h-1.905c.841.577 1.439 1.253 1.72 2.001h3.186v-26.001h-58.001zm29.002-24c6.064 0 10.999 4.935 10.999 11 0 6.064-4.935 10.999-10.999 10.999-6.065 0-11-4.935-11-10.999 0-6.065 4.935-11 11-11zm-27 1c0-.553.447-1 1-1h15.999v2h-14.999v18.001h14.999v2h-15.999c-.553 0-1-.448-1-1z" fill="#4b7a46" data-original="#000000" style="" class=""/><path d="m32 36.998c4.962 0 8.999-4.037 8.999-8.999 0-4.963-4.037-9-8.999-9-4.963 0-9 4.037-9 9 0 4.962 4.037 8.999 9 8.999zm-4.001-7h2v.502c0 .65.419 1.199 1 1.406v-2.958c-1.692-.245-3-1.69-3-3.448 0-1.759 1.308-3.205 3-3.45v-1.051h1.999v1.05c1.692.244 3 1.69 3 3.45v.5h-2v-.5c0-.651-.419-1.202-1-1.408v2.959c1.692.244 3 1.69 3 3.449 0 1.76-1.308 3.205-3 3.45v1.05h-1.999v-1.051c-1.692-.245-3-1.69-3-3.448z" fill="#4b7a46" data-original="#000000" style="" class=""/><path d="m6 53.063v.936c0 1.223 3.116 2.999 7.999 2.999.683 0 1.348-.048 2.001-.118v-1.988c-.656.063-1.322.106-2 .106-3.349 0-6.206-.745-8-1.935z" fill="#4b7a46" data-original="#000000" style="" class=""/><path d="m26 50.999c-4.884 0-8 1.776-8 3 0 1.223 3.116 2.999 8 2.999 4.883 0 7.999-1.776 7.999-2.999 0-1.224-3.116-3-7.999-3z" fill="#4b7a46" data-original="#000000" style="" class=""/><path d="m14 46.999c-4.884 0-8 1.776-8 3 0 1.223 3.116 2.999 8 2.999.769 0 1.52-.058 2.252-.147.679-1.559 2.727-2.797 5.545-3.417-.753-1.14-3.627-2.435-7.797-2.435z" fill="#4b7a46" data-original="#000000" style="" class=""/><path d="m18 57.063v.936c0 1.223 3.116 2.999 8 2.999 4.883 0 7.999-1.776 7.999-2.999v-.936c-1.794 1.19-4.65 1.935-7.999 1.935s-6.206-.745-8-1.935z" fill="#4b7a46" data-original="#000000" style="" class=""/></g></g></svg>
