<?xml version="1.0"?>
<svg xmlns="http://www.w3.org/2000/svg" xmlns:xlink="http://www.w3.org/1999/xlink" xmlns:svgjs="http://svgjs.com/svgjs" version="1.1" width="512" height="512" x="0" y="0" viewBox="0 0 512 512" style="enable-background:new 0 0 512 512" xml:space="preserve" class=""><g><g xmlns="http://www.w3.org/2000/svg"><path d="m255.5 0c-140.61 0-255 115.39-255 256s114.39 256 255 256 256-115.39 256-256-115.39-256-256-256zm0 482c-124.072 0-225-101.928-225-226 0-56.624 21.182-108.279 55.831-147.869l42.868 42.869h-38.699v60h98.699l30 30h-128.699v120h248.699l64.169 64.169c-39.589 34.649-91.244 56.831-147.868 56.831zm169.169-78.131-317.038-317.038c39.59-34.649 91.245-56.831 147.869-56.831 124.072 0 226 101.928 226 226 0 56.624-22.182 108.279-56.831 147.869z" fill="#4b7a46" data-original="#000000" style="" class=""/><path d="m274.1 211h146.4v-60h-206.4z" fill="#4b7a46" data-original="#000000" style="" class=""/><path d="m420.5 357.4v-116.4h-116.4z" fill="#4b7a46" data-original="#000000" style="" class=""/></g></g></svg>
